G04*
G04 #@! TF.GenerationSoftware,Altium Limited,Altium Designer,25.5.2 (35)*
G04*
G04 Layer_Physical_Order=2*
G04 Layer_Color=16711680*
%FSLAX44Y44*%
%MOMM*%
G71*
G04*
G04 #@! TF.SameCoordinates,227BAF76-4A0D-4DC8-B4C5-2559F8F0295E*
G04*
G04*
G04 #@! TF.FilePolarity,Positive*
G04*
G01*
G75*
%ADD18C,0.2540*%
%ADD19C,0.3810*%
G04:AMPARAMS|DCode=21|XSize=1mm|YSize=1.8mm|CornerRadius=0.5mm|HoleSize=0mm|Usage=FLASHONLY|Rotation=0.000|XOffset=0mm|YOffset=0mm|HoleType=Round|Shape=RoundedRectangle|*
%AMROUNDEDRECTD21*
21,1,1.0000,0.8000,0,0,0.0*
21,1,0.0000,1.8000,0,0,0.0*
1,1,1.0000,0.0000,-0.4000*
1,1,1.0000,0.0000,-0.4000*
1,1,1.0000,0.0000,0.4000*
1,1,1.0000,0.0000,0.4000*
%
%ADD21ROUNDEDRECTD21*%
G04:AMPARAMS|DCode=22|XSize=1mm|YSize=2.1mm|CornerRadius=0.5mm|HoleSize=0mm|Usage=FLASHONLY|Rotation=0.000|XOffset=0mm|YOffset=0mm|HoleType=Round|Shape=RoundedRectangle|*
%AMROUNDEDRECTD22*
21,1,1.0000,1.1000,0,0,0.0*
21,1,0.0000,2.1000,0,0,0.0*
1,1,1.0000,0.0000,-0.5500*
1,1,1.0000,0.0000,-0.5500*
1,1,1.0000,0.0000,0.5500*
1,1,1.0000,0.0000,0.5500*
%
%ADD22ROUNDEDRECTD22*%
%ADD67C,1.2500*%
%ADD68R,1.2500X1.2500*%
%ADD70C,1.8500*%
%ADD71R,1.8500X1.8500*%
%ADD74C,1.2000*%
%ADD75R,1.2000X1.2000*%
%ADD78C,0.5080*%
%ADD79C,0.8000*%
%ADD80C,1.9050*%
%ADD81C,1.9500*%
G04:AMPARAMS|DCode=82|XSize=1.95mm|YSize=1.95mm|CornerRadius=0.4875mm|HoleSize=0mm|Usage=FLASHONLY|Rotation=90.000|XOffset=0mm|YOffset=0mm|HoleType=Round|Shape=RoundedRectangle|*
%AMROUNDEDRECTD82*
21,1,1.9500,0.9750,0,0,90.0*
21,1,0.9750,1.9500,0,0,90.0*
1,1,0.9750,0.4875,0.4875*
1,1,0.9750,0.4875,-0.4875*
1,1,0.9750,-0.4875,-0.4875*
1,1,0.9750,-0.4875,0.4875*
%
%ADD82ROUNDEDRECTD82*%
%ADD83C,1.2700*%
%ADD84C,5.0800*%
%ADD85C,0.6500*%
G36*
X773913Y1245413D02*
X788528Y1244235D01*
X795781Y1243161D01*
X795781Y1243161D01*
X795782Y1243161D01*
X796938Y1242991D01*
X799243Y1242626D01*
X801548Y1242237D01*
X803848Y1241824D01*
X805958Y1241423D01*
X807885Y1241039D01*
X809809Y1240638D01*
X811729Y1240221D01*
X812688Y1240004D01*
X813557Y1239807D01*
X815289Y1239401D01*
X817020Y1238981D01*
X818746Y1238548D01*
X819608Y1238325D01*
X819608Y1238325D01*
X820381Y1238124D01*
X821921Y1237714D01*
X823462Y1237292D01*
X824998Y1236859D01*
X825764Y1236638D01*
X825764D01*
X826486Y1236430D01*
X827932Y1236002D01*
X829372Y1235566D01*
X830810Y1235121D01*
X832201Y1234680D01*
X833546Y1234246D01*
X834889Y1233802D01*
X836232Y1233350D01*
X836899Y1233121D01*
X837570Y1232891D01*
X838907Y1232423D01*
X840243Y1231947D01*
X841577Y1231462D01*
X842241Y1231216D01*
X842865Y1230986D01*
X844107Y1230518D01*
X845344Y1230045D01*
X846578Y1229566D01*
X847816Y1229077D01*
X849054Y1228580D01*
X850286Y1228077D01*
X851514Y1227569D01*
X852127Y1227311D01*
X852127Y1227311D01*
X852702Y1227069D01*
X853837Y1226585D01*
X854975Y1226093D01*
X856113Y1225594D01*
X857248Y1225090D01*
X858378Y1224581D01*
X859508Y1224065D01*
X860637Y1223543D01*
X861765Y1223015D01*
X862890Y1222481D01*
X864016Y1221940D01*
X865134Y1221396D01*
X865694Y1221120D01*
X866214Y1220864D01*
X867246Y1220350D01*
X868273Y1219832D01*
X869302Y1219307D01*
X870333Y1218776D01*
X871361Y1218241D01*
X872382Y1217703D01*
X873407Y1217157D01*
X873916Y1216883D01*
X873916Y1216883D01*
X874430Y1216606D01*
X875449Y1216052D01*
X876466Y1215492D01*
X877485Y1214926D01*
X877988Y1214643D01*
X877988Y1214643D01*
X878500Y1214355D01*
X879511Y1213782D01*
X880520Y1213204D01*
X881530Y1212618D01*
X882539Y1212028D01*
X883546Y1211433D01*
X884551Y1210833D01*
X885554Y1210228D01*
X886051Y1209925D01*
X886052Y1209925D01*
X886550Y1209621D01*
X887554Y1209004D01*
X888548Y1208387D01*
X889545Y1207761D01*
X890035Y1207451D01*
X893673Y1205107D01*
X897279Y1202701D01*
X900861Y1200230D01*
X904415Y1197694D01*
X907943Y1195094D01*
X911445Y1192428D01*
X914917Y1189701D01*
X918361Y1186909D01*
X921777Y1184054D01*
X925163Y1181136D01*
X928517Y1178157D01*
X931842Y1175115D01*
X935136Y1172012D01*
X938395Y1168848D01*
X941624Y1165623D01*
X944819Y1162337D01*
X947980Y1158992D01*
X951108Y1155586D01*
X954200Y1152121D01*
X957256Y1148598D01*
X960276Y1145016D01*
X963259Y1141376D01*
X966205Y1137678D01*
X969113Y1133922D01*
X971983Y1130110D01*
X975070Y1125885D01*
X978109Y1121592D01*
X981099Y1117235D01*
X984041Y1112812D01*
X986934Y1108322D01*
X989776Y1103767D01*
X992567Y1099149D01*
X995306Y1094464D01*
X997993Y1089717D01*
X1000626Y1084907D01*
X1003205Y1080033D01*
X1005730Y1075097D01*
X1008198Y1070101D01*
X1010610Y1065043D01*
X1012965Y1059924D01*
X1015261Y1054746D01*
X1017684Y1049067D01*
X1020036Y1043319D01*
X1022320Y1037496D01*
X1022413Y1037253D01*
X1022413Y1037252D01*
X1022540Y1036922D01*
X1022540Y1036922D01*
X1022540Y1036922D01*
X1022729Y1036431D01*
X1022729Y1036431D01*
X1022791Y1036269D01*
X1022791Y1036269D01*
X1022791Y1036269D01*
X1022976Y1035786D01*
X1022977Y1035786D01*
X1022977Y1035786D01*
X1023038Y1035626D01*
X1023038Y1035626D01*
X1023038Y1035626D01*
X1023160Y1035309D01*
X1023160Y1035309D01*
X1023160Y1035309D01*
X1023281Y1034994D01*
X1023281Y1034994D01*
X1023281Y1034994D01*
X1023341Y1034838D01*
X1023341Y1034837D01*
X1023341Y1034837D01*
X1023401Y1034682D01*
X1023401Y1034682D01*
X1023461Y1034527D01*
X1023461Y1034527D01*
X1023461Y1034526D01*
X1023580Y1034219D01*
X1023580Y1034218D01*
X1023580Y1034218D01*
X1023639Y1034065D01*
X1023639Y1034065D01*
X1023639Y1034065D01*
X1023698Y1033913D01*
X1023698Y1033912D01*
X1023698Y1033912D01*
X1023756Y1033761D01*
X1023756Y1033760D01*
X1023756Y1033760D01*
X1023815Y1033609D01*
X1023815Y1033609D01*
X1023815Y1033609D01*
X1023873Y1033459D01*
X1023873Y1033458D01*
X1023873Y1033458D01*
X1023931Y1033309D01*
X1023931Y1033308D01*
X1023931Y1033308D01*
X1023989Y1033159D01*
X1023989Y1033159D01*
X1023989Y1033159D01*
X1024046Y1033011D01*
X1024046Y1033010D01*
X1024047Y1033010D01*
X1024104Y1032862D01*
X1024104Y1032862D01*
X1024104Y1032862D01*
X1024161Y1032715D01*
X1024161Y1032715D01*
X1024161Y1032715D01*
X1024218Y1032568D01*
X1024218Y1032568D01*
X1024218Y1032568D01*
X1024275Y1032422D01*
X1024275Y1032422D01*
X1024275Y1032422D01*
X1024331Y1032277D01*
X1024331Y1032277D01*
X1024331Y1032276D01*
X1024388Y1032132D01*
X1024388Y1032132D01*
X1024388Y1032132D01*
X1024444Y1031988D01*
X1024444Y1031988D01*
X1024444Y1031987D01*
X1024500Y1031844D01*
X1024500Y1031844D01*
X1024500Y1031844D01*
X1024555Y1031701D01*
X1024556Y1031701D01*
X1024556Y1031701D01*
X1024611Y1031559D01*
X1024611Y1031559D01*
X1024611Y1031559D01*
X1024666Y1031417D01*
X1024666Y1031417D01*
X1024666Y1031417D01*
X1024721Y1031277D01*
X1024722Y1031276D01*
X1024722Y1031275D01*
X1024776Y1031136D01*
X1024777Y1031135D01*
X1024777Y1031135D01*
X1024831Y1030996D01*
X1024831Y1030996D01*
X1024831Y1030995D01*
X1024886Y1030857D01*
X1024886Y1030857D01*
X1024886Y1030856D01*
X1024940Y1030719D01*
X1024940Y1030718D01*
X1024940Y1030718D01*
X1024994Y1030581D01*
X1024995Y1030581D01*
X1024995Y1030580D01*
X1025048Y1030443D01*
X1025049Y1030443D01*
X1025049Y1030443D01*
X1025102Y1030307D01*
X1025102Y1030307D01*
X1025102Y1030306D01*
X1025156Y1030171D01*
X1025156Y1030171D01*
X1025156Y1030170D01*
X1025209Y1030036D01*
X1025210Y1030035D01*
X1025210Y1030035D01*
X1025263Y1029901D01*
X1025263Y1029901D01*
X1025263Y1029900D01*
X1025316Y1029767D01*
X1025316Y1029767D01*
X1025316Y1029766D01*
X1025369Y1029634D01*
X1025369Y1029633D01*
X1025369Y1029633D01*
X1025421Y1029501D01*
X1025422Y1029501D01*
X1025422Y1029500D01*
X1025474Y1029369D01*
X1025474Y1029368D01*
X1025474Y1029368D01*
X1025526Y1029238D01*
X1025527Y1029237D01*
X1025527Y1029236D01*
X1025579Y1029106D01*
X1025579Y1029106D01*
X1025579Y1029106D01*
X1025631Y1028976D01*
X1025631Y1028976D01*
X1025631Y1028975D01*
X1025683Y1028846D01*
X1025683Y1028846D01*
X1025683Y1028845D01*
X1025734Y1028717D01*
X1025735Y1028717D01*
X1025735Y1028717D01*
X1025786Y1028589D01*
X1025787Y1028589D01*
X1025787Y1028588D01*
X1025863Y1028398D01*
X1025864Y1028397D01*
X1025864Y1028396D01*
X1025940Y1028208D01*
X1025940Y1028207D01*
X1025940Y1028206D01*
X1026016Y1028019D01*
X1026017Y1028019D01*
X1026017Y1028018D01*
X1026092Y1027832D01*
X1026093Y1027831D01*
X1026093Y1027831D01*
X1026168Y1027647D01*
X1026169Y1027646D01*
X1026169Y1027645D01*
X1026243Y1027462D01*
X1026244Y1027461D01*
X1026244Y1027460D01*
X1026318Y1027279D01*
X1026319Y1027278D01*
X1026319Y1027277D01*
X1026393Y1027098D01*
X1026394Y1027097D01*
X1026394Y1027095D01*
X1026467Y1026918D01*
X1026468Y1026917D01*
X1026468Y1026915D01*
X1026541Y1026739D01*
X1026542Y1026738D01*
X1026543Y1026736D01*
X1026615Y1026561D01*
X1026616Y1026560D01*
X1026616Y1026559D01*
X1026689Y1026385D01*
X1026689Y1026384D01*
X1026690Y1026383D01*
X1026762Y1026211D01*
X1026763Y1026210D01*
X1026763Y1026208D01*
X1026835Y1026038D01*
X1026835Y1026036D01*
X1026836Y1026035D01*
X1026907Y1025866D01*
X1026908Y1025864D01*
X1026908Y1025863D01*
X1026980Y1025695D01*
X1026981Y1025694D01*
X1026981Y1025692D01*
X1027052Y1025526D01*
X1027053Y1025525D01*
X1027053Y1025523D01*
X1027123Y1025358D01*
X1027124Y1025357D01*
X1027125Y1025355D01*
X1027195Y1025192D01*
X1027196Y1025191D01*
X1027196Y1025189D01*
X1027266Y1025027D01*
X1027267Y1025025D01*
X1027268Y1025023D01*
X1027337Y1024863D01*
X1027338Y1024862D01*
X1027339Y1024860D01*
X1027408Y1024701D01*
X1027409Y1024699D01*
X1027409Y1024697D01*
X1027478Y1024540D01*
X1027479Y1024538D01*
X1027480Y1024536D01*
X1027549Y1024380D01*
X1027550Y1024379D01*
X1027550Y1024377D01*
X1027619Y1024222D01*
X1027620Y1024221D01*
X1027620Y1024219D01*
X1027688Y1024065D01*
X1027690Y1024063D01*
X1027690Y1024061D01*
X1027758Y1023910D01*
X1027759Y1023908D01*
X1027760Y1023906D01*
X1027828Y1023756D01*
X1027829Y1023754D01*
X1027829Y1023751D01*
X1027897Y1023603D01*
X1027898Y1023601D01*
X1027899Y1023598D01*
X1027966Y1023451D01*
X1027967Y1023449D01*
X1027968Y1023447D01*
X1028035Y1023301D01*
X1028036Y1023299D01*
X1028037Y1023296D01*
X1028103Y1023152D01*
X1028105Y1023150D01*
X1028105Y1023147D01*
X1028172Y1023004D01*
X1028173Y1023002D01*
X1028174Y1023000D01*
X1028240Y1022858D01*
X1028242Y1022856D01*
X1028242Y1022853D01*
X1028308Y1022713D01*
X1028310Y1022711D01*
X1028311Y1022708D01*
X1028376Y1022570D01*
X1028378Y1022567D01*
X1028379Y1022565D01*
X1028444Y1022428D01*
X1028446Y1022425D01*
X1028447Y1022422D01*
X1028512Y1022286D01*
X1028513Y1022284D01*
X1028514Y1022282D01*
X1028579Y1022147D01*
X1028581Y1022144D01*
X1028582Y1022141D01*
X1028647Y1022008D01*
X1028649Y1022006D01*
X1028650Y1022003D01*
X1028714Y1021871D01*
X1028716Y1021869D01*
X1028717Y1021866D01*
X1028781Y1021736D01*
X1028784Y1021733D01*
X1028784Y1021730D01*
X1028849Y1021601D01*
X1028851Y1021598D01*
X1028852Y1021594D01*
X1028938Y1021425D01*
X1028940Y1021421D01*
X1028942Y1021417D01*
X1029027Y1021250D01*
X1029030Y1021246D01*
X1029031Y1021241D01*
X1029116Y1021077D01*
X1029119Y1021073D01*
X1029120Y1021068D01*
X1029205Y1020907D01*
X1029208Y1020902D01*
X1029210Y1020897D01*
X1029294Y1020738D01*
X1029297Y1020734D01*
X1029299Y1020729D01*
X1029383Y1020572D01*
X1029386Y1020568D01*
X1029388Y1020563D01*
X1029472Y1020409D01*
X1029475Y1020404D01*
X1029477Y1020398D01*
X1029560Y1020247D01*
X1029564Y1020242D01*
X1029566Y1020236D01*
X1029649Y1020088D01*
X1029653Y1020083D01*
X1029655Y1020077D01*
X1029738Y1019930D01*
X1029743Y1019925D01*
X1029745Y1019919D01*
X1029827Y1019775D01*
X1029832Y1019770D01*
X1029834Y1019763D01*
X1029916Y1019622D01*
X1029921Y1019617D01*
X1029923Y1019611D01*
X1030005Y1019472D01*
X1030010Y1019466D01*
X1030013Y1019460D01*
X1030095Y1019323D01*
X1030100Y1019318D01*
X1030102Y1019311D01*
X1030184Y1019177D01*
X1030190Y1019171D01*
X1030192Y1019164D01*
X1030274Y1019033D01*
X1030279Y1019026D01*
X1030282Y1019019D01*
X1030364Y1018890D01*
X1030370Y1018883D01*
X1030374Y1018875D01*
X1030475Y1018717D01*
X1030483Y1018709D01*
X1030487Y1018699D01*
X1030589Y1018546D01*
X1030597Y1018538D01*
X1030601Y1018527D01*
X1030702Y1018378D01*
X1030711Y1018369D01*
X1030716Y1018358D01*
X1030817Y1018212D01*
X1030826Y1018204D01*
X1030831Y1018192D01*
X1030932Y1018051D01*
X1030942Y1018042D01*
X1030947Y1018030D01*
X1031048Y1017892D01*
X1031058Y1017883D01*
X1031064Y1017870D01*
X1031165Y1017737D01*
X1031176Y1017727D01*
X1031182Y1017714D01*
X1031282Y1017584D01*
X1031295Y1017573D01*
X1031303Y1017558D01*
X1031423Y1017408D01*
X1031438Y1017396D01*
X1031447Y1017379D01*
X1031568Y1017234D01*
X1031583Y1017221D01*
X1031593Y1017204D01*
X1031714Y1017064D01*
X1031730Y1017051D01*
X1031741Y1017033D01*
X1031862Y1016899D01*
X1031880Y1016886D01*
X1031892Y1016867D01*
X1032012Y1016739D01*
X1032033Y1016724D01*
X1032047Y1016703D01*
X1032188Y1016560D01*
X1032212Y1016544D01*
X1032229Y1016520D01*
X1032370Y1016385D01*
X1032396Y1016369D01*
X1032414Y1016344D01*
X1032555Y1016217D01*
X1032583Y1016200D01*
X1032604Y1016175D01*
X1032745Y1016055D01*
X1032775Y1016038D01*
X1032798Y1016012D01*
X1032940Y1015900D01*
X1032972Y1015883D01*
X1032997Y1015857D01*
X1033139Y1015752D01*
X1033174Y1015736D01*
X1033201Y1015709D01*
X1033344Y1015612D01*
X1033383Y1015595D01*
X1033415Y1015566D01*
X1033579Y1015464D01*
X1033624Y1015447D01*
X1033661Y1015416D01*
X1033825Y1015325D01*
X1033874Y1015309D01*
X1033914Y1015278D01*
X1034080Y1015196D01*
X1034130Y1015183D01*
X1034173Y1015153D01*
X1034340Y1015081D01*
X1034393Y1015070D01*
X1034439Y1015041D01*
X1034604Y1014980D01*
X1034654Y1014972D01*
X1034698Y1014948D01*
X1034841Y1014902D01*
X1034887Y1014897D01*
X1034930Y1014877D01*
X1035062Y1014841D01*
X1035115Y1014730D01*
X1034318Y1013466D01*
X1034314Y1013465D01*
X1034291Y1013460D01*
X1025273D01*
X1009650Y997837D01*
Y975743D01*
X1024488Y960905D01*
X1023962Y959635D01*
X950225D01*
X941967Y967894D01*
Y1013460D01*
X940960Y1015890D01*
X886350Y1070500D01*
X883920Y1071507D01*
X707180D01*
X706654Y1072777D01*
X711560Y1077682D01*
Y1086397D01*
X705397Y1092560D01*
X696683D01*
X690520Y1086397D01*
Y1077682D01*
X695426Y1072777D01*
X694900Y1071507D01*
X640000D01*
X639474Y1072777D01*
X644380Y1077682D01*
Y1086397D01*
X638218Y1092560D01*
X637297D01*
Y1101720D01*
X636290Y1104150D01*
X629819Y1110621D01*
X630470Y1111273D01*
Y1119987D01*
X629819Y1120639D01*
X636290Y1127110D01*
X637297Y1129540D01*
Y1138700D01*
X644380D01*
Y1159740D01*
X623340D01*
Y1138700D01*
X630423D01*
Y1130964D01*
X624959Y1125499D01*
X624308Y1126150D01*
X615592D01*
X609430Y1119987D01*
Y1111273D01*
X615592Y1105110D01*
X624308D01*
X624959Y1105761D01*
X630423Y1100296D01*
Y1092560D01*
X629502D01*
X623340Y1086397D01*
Y1077682D01*
X628246Y1072777D01*
X627720Y1071507D01*
X609292D01*
X606862Y1070500D01*
X604630Y1068268D01*
X603623Y1065838D01*
Y666904D01*
X590866Y654146D01*
X447900D01*
Y655275D01*
X441445Y661730D01*
X432315D01*
X425860Y655275D01*
Y646145D01*
X432315Y639690D01*
X441445D01*
X447900Y646145D01*
Y647273D01*
X592290D01*
X594720Y648280D01*
X609490Y663050D01*
X610497Y665480D01*
Y1064415D01*
X610715Y1064633D01*
X882496D01*
X935093Y1012037D01*
Y966470D01*
X936100Y964040D01*
X946371Y953768D01*
X948801Y952762D01*
X1129030D01*
X1131460Y953768D01*
X1183530Y1005838D01*
X1184537Y1008269D01*
Y1064107D01*
X1185063Y1064633D01*
X1247295D01*
X1247513Y1064415D01*
Y989050D01*
X1243330Y984866D01*
Y978554D01*
X1247794Y974090D01*
X1254106D01*
X1258570Y978554D01*
Y984866D01*
X1254387Y989050D01*
Y1065838D01*
X1253380Y1068268D01*
X1251148Y1070500D01*
X1248718Y1071507D01*
X1183640D01*
X1181210Y1070500D01*
X1178670Y1067960D01*
X1177663Y1065530D01*
Y1009692D01*
X1127607Y959635D01*
X1048678D01*
X1048152Y960905D01*
X1062990Y975743D01*
Y997837D01*
X1047367Y1013460D01*
X1038359D01*
X1038315Y1013474D01*
X1038314Y1013474D01*
X1037730Y1014730D01*
X1037880Y1014909D01*
X1038021Y1014950D01*
X1038050Y1014966D01*
X1038083Y1014970D01*
X1038225Y1015017D01*
X1038253Y1015033D01*
X1038285Y1015038D01*
X1038428Y1015091D01*
X1038454Y1015107D01*
X1038484Y1015113D01*
X1038629Y1015171D01*
X1038653Y1015186D01*
X1038682Y1015193D01*
X1038827Y1015256D01*
X1038851Y1015272D01*
X1038878Y1015279D01*
X1039025Y1015347D01*
X1039046Y1015363D01*
X1039072Y1015370D01*
X1039220Y1015444D01*
X1039240Y1015460D01*
X1039265Y1015467D01*
X1039415Y1015546D01*
X1039433Y1015562D01*
X1039457Y1015569D01*
X1039608Y1015654D01*
X1039624Y1015668D01*
X1039644Y1015675D01*
X1039771Y1015750D01*
X1039785Y1015762D01*
X1039802Y1015768D01*
X1039930Y1015846D01*
X1039943Y1015858D01*
X1039959Y1015864D01*
X1040089Y1015947D01*
X1040101Y1015958D01*
X1040117Y1015965D01*
X1040247Y1016051D01*
X1040259Y1016062D01*
X1040274Y1016068D01*
X1040405Y1016158D01*
X1040416Y1016169D01*
X1040430Y1016175D01*
X1040563Y1016268D01*
X1040573Y1016279D01*
X1040586Y1016285D01*
X1040721Y1016382D01*
X1040730Y1016392D01*
X1040743Y1016398D01*
X1040879Y1016499D01*
X1040887Y1016509D01*
X1040899Y1016515D01*
X1041036Y1016619D01*
X1041044Y1016629D01*
X1041056Y1016635D01*
X1041194Y1016743D01*
X1041202Y1016752D01*
X1041213Y1016758D01*
X1041352Y1016869D01*
X1041359Y1016878D01*
X1041369Y1016884D01*
X1041510Y1016999D01*
X1041517Y1017008D01*
X1041527Y1017013D01*
X1041669Y1017133D01*
X1041675Y1017141D01*
X1041685Y1017146D01*
X1041828Y1017269D01*
X1041834Y1017277D01*
X1041843Y1017282D01*
X1041988Y1017409D01*
X1041994Y1017417D01*
X1042002Y1017421D01*
X1042148Y1017551D01*
X1042154Y1017559D01*
X1042161Y1017564D01*
X1042309Y1017698D01*
X1042314Y1017705D01*
X1042322Y1017709D01*
X1042470Y1017847D01*
X1042476Y1017854D01*
X1042483Y1017859D01*
X1042633Y1018000D01*
X1042638Y1018006D01*
X1042645Y1018011D01*
X1042796Y1018155D01*
X1042801Y1018162D01*
X1042807Y1018166D01*
X1042960Y1018314D01*
X1042965Y1018321D01*
X1042971Y1018325D01*
X1043126Y1018477D01*
X1043130Y1018483D01*
X1043136Y1018486D01*
X1043292Y1018642D01*
X1043295Y1018647D01*
X1043300Y1018651D01*
X1043426Y1018778D01*
X1043429Y1018782D01*
X1043433Y1018785D01*
X1043560Y1018915D01*
X1043563Y1018919D01*
X1043568Y1018922D01*
X1043696Y1019054D01*
X1043698Y1019058D01*
X1043702Y1019061D01*
X1043831Y1019195D01*
X1043834Y1019199D01*
X1043838Y1019201D01*
X1043968Y1019338D01*
X1043970Y1019342D01*
X1043974Y1019344D01*
X1044105Y1019483D01*
X1044108Y1019487D01*
X1044111Y1019490D01*
X1044244Y1019631D01*
X1044246Y1019634D01*
X1044249Y1019637D01*
X1044383Y1019780D01*
X1044385Y1019784D01*
X1044388Y1019786D01*
X1044522Y1019932D01*
X1044524Y1019935D01*
X1044528Y1019937D01*
X1044663Y1020085D01*
X1044665Y1020089D01*
X1044668Y1020091D01*
X1044805Y1020241D01*
X1044807Y1020244D01*
X1044810Y1020247D01*
X1044947Y1020399D01*
X1044949Y1020402D01*
X1044952Y1020404D01*
X1045091Y1020559D01*
X1045093Y1020562D01*
X1045095Y1020564D01*
X1045235Y1020722D01*
X1045237Y1020724D01*
X1045239Y1020726D01*
X1045381Y1020886D01*
X1045382Y1020889D01*
X1045385Y1020891D01*
X1045527Y1021052D01*
X1045529Y1021055D01*
X1045531Y1021057D01*
X1045675Y1021221D01*
X1045676Y1021224D01*
X1045678Y1021225D01*
X1045823Y1021392D01*
X1045824Y1021394D01*
X1045826Y1021396D01*
X1045972Y1021565D01*
X1045974Y1021567D01*
X1045975Y1021568D01*
X1046086Y1021696D01*
X1046087Y1021698D01*
X1046088Y1021699D01*
X1046199Y1021829D01*
X1046200Y1021830D01*
X1046201Y1021831D01*
X1046313Y1021962D01*
X1046314Y1021964D01*
X1046315Y1021965D01*
X1046428Y1022096D01*
X1046429Y1022098D01*
X1046430Y1022099D01*
X1046543Y1022233D01*
X1046544Y1022234D01*
X1046545Y1022235D01*
X1046659Y1022370D01*
X1046660Y1022371D01*
X1046661Y1022372D01*
X1046775Y1022508D01*
X1046776Y1022510D01*
X1046777Y1022510D01*
X1046892Y1022647D01*
X1046893Y1022649D01*
X1046895Y1022650D01*
X1047010Y1022788D01*
X1047011Y1022790D01*
X1047012Y1022791D01*
X1047129Y1022930D01*
X1047129Y1022932D01*
X1047131Y1022933D01*
X1047248Y1023074D01*
X1047249Y1023075D01*
X1047250Y1023075D01*
X1047367Y1023218D01*
X1047368Y1023219D01*
X1047369Y1023220D01*
X1047488Y1023363D01*
X1047489Y1023365D01*
X1047490Y1023365D01*
X1047609Y1023510D01*
X1047610Y1023511D01*
X1047611Y1023512D01*
X1047731Y1023658D01*
X1047732Y1023659D01*
X1047733Y1023660D01*
X1047854Y1023808D01*
X1047854Y1023809D01*
X1047855Y1023809D01*
X1047977Y1023958D01*
X1047977Y1023959D01*
X1047978Y1023960D01*
X1048101Y1024109D01*
X1048101Y1024110D01*
X1048102Y1024111D01*
X1048225Y1024262D01*
X1048226Y1024264D01*
X1048227Y1024264D01*
X1048351Y1024417D01*
X1048351Y1024417D01*
X1048352Y1024418D01*
X1048477Y1024572D01*
X1048477Y1024573D01*
X1048478Y1024574D01*
X1048604Y1024728D01*
X1048604Y1024729D01*
X1048605Y1024730D01*
X1048731Y1024886D01*
X1048731Y1024887D01*
X1048732Y1024887D01*
X1048859Y1025045D01*
X1048860Y1025046D01*
X1048860Y1025046D01*
X1048988Y1025205D01*
X1048989Y1025206D01*
X1048989Y1025207D01*
X1049118Y1025367D01*
X1049118Y1025367D01*
X1049119Y1025368D01*
X1049249Y1025529D01*
X1049249Y1025530D01*
X1049249Y1025530D01*
X1049380Y1025693D01*
X1049380Y1025694D01*
X1049381Y1025694D01*
X1049512Y1025858D01*
X1049512Y1025859D01*
X1049513Y1025859D01*
X1049645Y1026024D01*
X1049645Y1026025D01*
X1049646Y1026026D01*
X1049778Y1026192D01*
X1049779Y1026193D01*
X1049779Y1026193D01*
X1049913Y1026361D01*
X1049913Y1026361D01*
X1049913Y1026362D01*
X1050048Y1026531D01*
X1050048Y1026531D01*
X1050049Y1026532D01*
X1050184Y1026702D01*
X1050184Y1026702D01*
X1050184Y1026703D01*
X1050321Y1026874D01*
X1050321Y1026875D01*
X1050321Y1026875D01*
X1050458Y1027048D01*
X1050458Y1027048D01*
X1050459Y1027049D01*
X1050596Y1027223D01*
X1050597Y1027223D01*
X1050597Y1027223D01*
X1050736Y1027399D01*
X1050736Y1027399D01*
X1050736Y1027399D01*
X1050876Y1027576D01*
X1050876Y1027576D01*
X1050876Y1027577D01*
X1051017Y1027754D01*
X1051017Y1027755D01*
X1051017Y1027755D01*
X1051158Y1027934D01*
X1051159Y1027934D01*
X1051159Y1027935D01*
X1051301Y1028115D01*
X1051301Y1028115D01*
X1051301Y1028115D01*
X1051444Y1028297D01*
X1051444Y1028297D01*
X1051445Y1028298D01*
X1051588Y1028480D01*
X1051589Y1028481D01*
X1051589Y1028481D01*
X1051733Y1028665D01*
X1051734Y1028665D01*
X1051734Y1028666D01*
X1051880Y1028851D01*
X1051880Y1028851D01*
X1051880Y1028851D01*
X1052026Y1029038D01*
X1052026Y1029038D01*
X1052027Y1029038D01*
X1052174Y1029226D01*
X1052174Y1029226D01*
X1052174Y1029226D01*
X1052322Y1029415D01*
X1052322Y1029416D01*
X1052323Y1029416D01*
X1052472Y1029606D01*
X1052472Y1029606D01*
X1052572Y1029734D01*
X1052572Y1029734D01*
X1052572Y1029734D01*
X1052673Y1029862D01*
X1052673Y1029862D01*
X1052673Y1029863D01*
X1052875Y1030120D01*
X1052875Y1030120D01*
X1052976Y1030250D01*
X1052976Y1030250D01*
X1052977Y1030251D01*
X1053078Y1030381D01*
X1053079Y1030381D01*
X1053079Y1030381D01*
X1053181Y1030512D01*
X1053181Y1030512D01*
X1053284Y1030643D01*
X1053387Y1030775D01*
X1053387Y1030776D01*
X1053387Y1030776D01*
X1053804Y1031309D01*
X1053804Y1031310D01*
X1053804Y1031310D01*
X1053910Y1031444D01*
X1053910Y1031444D01*
X1054439Y1032122D01*
X1056428Y1034644D01*
X1058136Y1036773D01*
X1059853Y1038880D01*
X1061580Y1040965D01*
X1063314Y1043025D01*
X1065056Y1045063D01*
X1066806Y1047076D01*
X1068566Y1049069D01*
X1070331Y1051034D01*
X1072106Y1052980D01*
X1073890Y1054903D01*
X1075677Y1056798D01*
X1077474Y1058672D01*
X1079278Y1060523D01*
X1081090Y1062350D01*
X1082908Y1064153D01*
X1084734Y1065933D01*
X1086567Y1067691D01*
X1088408Y1069424D01*
X1090253Y1071133D01*
X1092108Y1072821D01*
X1093965Y1074480D01*
X1095834Y1076122D01*
X1097706Y1077737D01*
X1099584Y1079328D01*
X1101472Y1080898D01*
X1103364Y1082443D01*
X1105261Y1083964D01*
X1107163Y1085460D01*
X1109392Y1087178D01*
X1111628Y1088863D01*
X1113873Y1090517D01*
X1116124Y1092137D01*
X1118385Y1093727D01*
X1120649Y1095282D01*
X1122925Y1096808D01*
X1125205Y1098300D01*
X1127493Y1099760D01*
X1129785Y1101186D01*
X1132087Y1102582D01*
X1134393Y1103945D01*
X1136707Y1105276D01*
X1139025Y1106573D01*
X1141683Y1108017D01*
X1144350Y1109419D01*
X1147022Y1110779D01*
X1149702Y1112096D01*
X1152387Y1113369D01*
X1155081Y1114602D01*
X1158120Y1115938D01*
X1161165Y1117219D01*
X1164220Y1118448D01*
X1167287Y1119625D01*
X1167702Y1119781D01*
X1168551Y1120094D01*
X1169407Y1120406D01*
X1170263Y1120714D01*
X1171112Y1121014D01*
X1171967Y1121312D01*
X1172824Y1121607D01*
X1173680Y1121897D01*
X1174106Y1122039D01*
X1174577Y1122197D01*
X1175515Y1122505D01*
X1176461Y1122810D01*
X1177403Y1123109D01*
X1178343Y1123402D01*
X1179287Y1123691D01*
X1180235Y1123976D01*
X1181176Y1124253D01*
X1181652Y1124391D01*
X1182167Y1124540D01*
X1183199Y1124833D01*
X1184227Y1125118D01*
X1185263Y1125400D01*
X1186338Y1125686D01*
X1187462Y1125977D01*
X1188578Y1126259D01*
X1189704Y1126537D01*
X1190871Y1126817D01*
X1192079Y1127099D01*
X1193285Y1127372D01*
X1194501Y1127638D01*
X1195799Y1127914D01*
X1197183Y1128197D01*
X1198567Y1128470D01*
X1199957Y1128732D01*
X1201472Y1129007D01*
X1203122Y1129290D01*
X1204772Y1129559D01*
X1206423Y1129812D01*
X1208336Y1130088D01*
X1210509Y1130375D01*
X1212685Y1130636D01*
X1214863Y1130870D01*
X1215956Y1130975D01*
X1215956Y1130975D01*
X1221583Y1131514D01*
X1232882Y1131890D01*
X1244182Y1131563D01*
X1255440Y1130534D01*
X1261026Y1129671D01*
X1261027Y1129671D01*
X1261027Y1129671D01*
X1261857Y1129543D01*
X1263516Y1129272D01*
X1265175Y1128986D01*
X1266830Y1128685D01*
X1268353Y1128393D01*
X1269751Y1128115D01*
X1271140Y1127827D01*
X1272534Y1127527D01*
X1273227Y1127373D01*
X1273841Y1127236D01*
X1275058Y1126956D01*
X1276275Y1126668D01*
X1277492Y1126371D01*
X1278096Y1126219D01*
X1278096D01*
X1278662Y1126077D01*
X1279795Y1125786D01*
X1280919Y1125489D01*
X1282044Y1125185D01*
X1282610Y1125028D01*
X1282610D01*
X1283130Y1124884D01*
X1284170Y1124590D01*
X1285213Y1124288D01*
X1286251Y1123982D01*
X1286769Y1123826D01*
X1286769D01*
X1287245Y1123683D01*
X1288199Y1123390D01*
X1289150Y1123093D01*
X1290102Y1122791D01*
X1290575Y1122638D01*
X1290575Y1122638D01*
X1291009Y1122497D01*
X1291872Y1122214D01*
X1292736Y1121925D01*
X1293596Y1121634D01*
X1294029Y1121485D01*
X1294029Y1121485D01*
X1294460Y1121337D01*
X1295325Y1121035D01*
X1296190Y1120729D01*
X1297049Y1120420D01*
X1297477Y1120264D01*
X1297906Y1120107D01*
X1298769Y1119788D01*
X1299630Y1119465D01*
X1300491Y1119138D01*
X1300909Y1118977D01*
X1304009Y1117754D01*
X1307096Y1116477D01*
X1310176Y1115145D01*
X1312908Y1113914D01*
X1315633Y1112639D01*
X1318355Y1111319D01*
X1321070Y1109956D01*
X1323780Y1108547D01*
X1326145Y1107278D01*
X1328504Y1105976D01*
X1330860Y1104639D01*
X1333210Y1103268D01*
X1335556Y1101862D01*
X1337896Y1100422D01*
X1340228Y1098949D01*
X1342557Y1097441D01*
X1344880Y1095898D01*
X1346866Y1094549D01*
X1348846Y1093175D01*
X1350824Y1091774D01*
X1352795Y1090350D01*
X1354761Y1088900D01*
X1356725Y1087423D01*
X1358682Y1085922D01*
X1360632Y1084398D01*
X1362581Y1082844D01*
X1364520Y1081269D01*
X1366457Y1079666D01*
X1368387Y1078039D01*
X1370313Y1076385D01*
X1372233Y1074706D01*
X1374144Y1073004D01*
X1376053Y1071273D01*
X1377957Y1069517D01*
X1379851Y1067738D01*
X1381741Y1065931D01*
X1383625Y1064099D01*
X1385503Y1062241D01*
X1386120Y1061624D01*
X1389425Y1058253D01*
X1392656Y1054845D01*
X1393070Y1054402D01*
X1393907Y1053496D01*
X1394743Y1052583D01*
X1395571Y1051672D01*
X1395987Y1051210D01*
X1395987Y1051210D01*
X1396424Y1050725D01*
X1397283Y1049762D01*
X1398143Y1048789D01*
X1398996Y1047814D01*
X1399888Y1046784D01*
X1400819Y1045699D01*
X1401742Y1044612D01*
X1402661Y1043519D01*
X1403115Y1042972D01*
X1403635Y1042346D01*
X1404664Y1041093D01*
X1405686Y1039834D01*
X1406700Y1038568D01*
X1407807Y1037169D01*
X1409006Y1035632D01*
X1410194Y1034086D01*
X1411369Y1032533D01*
X1412732Y1030704D01*
X1414267Y1028603D01*
X1415784Y1026483D01*
X1417279Y1024349D01*
X1421643Y1017991D01*
X1428374Y1007082D01*
X1434567Y995859D01*
X1440207Y984348D01*
X1442744Y978463D01*
X1442744Y978462D01*
X1442744Y978462D01*
X1443137Y977552D01*
X1443906Y975733D01*
X1444664Y973903D01*
X1445407Y972070D01*
X1445772Y971151D01*
X1446076Y970385D01*
X1446675Y968849D01*
X1447268Y967301D01*
X1447847Y965760D01*
X1448134Y964984D01*
X1448385Y964302D01*
X1448883Y962933D01*
X1449373Y961561D01*
X1449854Y960189D01*
X1450308Y958875D01*
X1450736Y957617D01*
X1451157Y956359D01*
X1451570Y955104D01*
X1451970Y953869D01*
X1452352Y952670D01*
X1452731Y951464D01*
X1453104Y950258D01*
X1453286Y949662D01*
X1454645Y945054D01*
X1455858Y940678D01*
X1456939Y936533D01*
X1457899Y932625D01*
X1458808Y928692D01*
X1459610Y925002D01*
X1460368Y921290D01*
X1461032Y917825D01*
X1461658Y914346D01*
X1462245Y910849D01*
X1462754Y907607D01*
X1463230Y904349D01*
X1463674Y901082D01*
X1464086Y897794D01*
X1464435Y894770D01*
X1464757Y891736D01*
X1465053Y888688D01*
X1465321Y885633D01*
X1465562Y882567D01*
X1465777Y879483D01*
X1465965Y876392D01*
X1466113Y873574D01*
X1466239Y870742D01*
X1466342Y867907D01*
X1466424Y865057D01*
X1466484Y862203D01*
X1466522Y859337D01*
X1466538Y856462D01*
X1466532Y853578D01*
X1466505Y850687D01*
X1466456Y847788D01*
X1466385Y844880D01*
X1466292Y841958D01*
X1466190Y839326D01*
X1466071Y836686D01*
X1465934Y834040D01*
X1465780Y831382D01*
X1465608Y828725D01*
X1465419Y826057D01*
X1465213Y823382D01*
X1464989Y820699D01*
X1464748Y818010D01*
X1464490Y815318D01*
X1464214Y812616D01*
X1463921Y809909D01*
X1463751Y808402D01*
X1463712Y808062D01*
X1463686Y807837D01*
X1463635Y807389D01*
X1463584Y806945D01*
Y806945D01*
X1463558Y806724D01*
Y806724D01*
X1463508Y806285D01*
X1463482Y806067D01*
Y806067D01*
X1463482Y806067D01*
X1463457Y805850D01*
X1463382Y805203D01*
X1463333Y804777D01*
Y804777D01*
X1463333Y804776D01*
X1463284Y804353D01*
X1463260Y804143D01*
Y804143D01*
X1463260Y804143D01*
X1463236Y803934D01*
X1463236Y803933D01*
X1463236Y803933D01*
X1463212Y803725D01*
X1463188Y803518D01*
Y803517D01*
X1463188Y803517D01*
X1463140Y803105D01*
Y803104D01*
X1463140Y803104D01*
X1463069Y802492D01*
X1463069Y802492D01*
X1463069Y802492D01*
X1463023Y802087D01*
X1463023Y802087D01*
X1463023Y802087D01*
X1462977Y801687D01*
X1462977Y801686D01*
X1462977Y801686D01*
X1462931Y801289D01*
X1462931Y801289D01*
X1462931Y801289D01*
X1462908Y801092D01*
X1462908Y801091D01*
X1462908Y801091D01*
X1462863Y800699D01*
X1462864Y800699D01*
X1462863Y800698D01*
X1462841Y800504D01*
X1462841Y800504D01*
X1462819Y800310D01*
X1462819Y800309D01*
X1462819Y800309D01*
X1462797Y800116D01*
X1462797Y800116D01*
X1462797Y800116D01*
X1462775Y799923D01*
X1462775Y799923D01*
X1462775Y799923D01*
X1462754Y799732D01*
X1462754Y799732D01*
X1462754Y799731D01*
X1462732Y799541D01*
X1462732Y799541D01*
X1462732Y799541D01*
X1462711Y799351D01*
X1462711Y799351D01*
X1462711Y799350D01*
X1462690Y799161D01*
X1462690Y799161D01*
X1462689Y799161D01*
X1462668Y798973D01*
X1462668Y798973D01*
X1462668Y798973D01*
X1462647Y798785D01*
X1462647Y798785D01*
X1462647Y798785D01*
X1462626Y798598D01*
X1462626Y798598D01*
X1462626Y798598D01*
X1462606Y798412D01*
X1462606Y798412D01*
X1462606Y798412D01*
X1462585Y798227D01*
X1462585Y798227D01*
X1462585Y798226D01*
X1462565Y798043D01*
X1462565Y798042D01*
X1462565Y798042D01*
X1462545Y797859D01*
X1462545Y797859D01*
X1462544Y797858D01*
X1462524Y797676D01*
X1462524Y797675D01*
X1462524Y797675D01*
X1462504Y797494D01*
X1462504Y797493D01*
X1462504Y797493D01*
X1462485Y797312D01*
X1462485Y797312D01*
X1462484Y797312D01*
X1462465Y797132D01*
X1462465Y797132D01*
X1462465Y797131D01*
X1462445Y796952D01*
X1462445Y796952D01*
X1462445Y796951D01*
X1462426Y796773D01*
X1462426Y796773D01*
X1462426Y796773D01*
X1462407Y796595D01*
X1462407Y796595D01*
X1462407Y796594D01*
X1462388Y796418D01*
X1462388Y796417D01*
X1462388Y796417D01*
X1462369Y796241D01*
X1462369Y796241D01*
X1462369Y796240D01*
X1462350Y796066D01*
X1462350Y796065D01*
X1462350Y796065D01*
X1462332Y795890D01*
X1462332Y795890D01*
X1462332Y795889D01*
X1462313Y795716D01*
X1462313Y795716D01*
X1462313Y795715D01*
X1462295Y795543D01*
X1462295Y795542D01*
X1462295Y795542D01*
X1462277Y795370D01*
X1462277Y795369D01*
X1462277Y795369D01*
X1462259Y795198D01*
X1462259Y795197D01*
X1462259Y795197D01*
X1462242Y795027D01*
X1462242Y795026D01*
X1462241Y795025D01*
X1462224Y794856D01*
X1462224Y794855D01*
X1462224Y794855D01*
X1462207Y794686D01*
X1462207Y794686D01*
X1462207Y794686D01*
X1462189Y794518D01*
X1462190Y794517D01*
X1462189Y794516D01*
X1462173Y794349D01*
X1462173Y794349D01*
X1462172Y794348D01*
X1462156Y794182D01*
X1462156Y794181D01*
X1462155Y794181D01*
X1462139Y794015D01*
X1462139Y794015D01*
X1462139Y794014D01*
X1462123Y793849D01*
X1462123Y793849D01*
X1462122Y793848D01*
X1462106Y793684D01*
X1462106Y793684D01*
X1462106Y793683D01*
X1462090Y793520D01*
X1462090Y793519D01*
X1462090Y793518D01*
X1462074Y793356D01*
X1462074Y793355D01*
X1462074Y793355D01*
X1462059Y793193D01*
X1462059Y793192D01*
X1462059Y793192D01*
X1462043Y793031D01*
X1462043Y793030D01*
X1462043Y793029D01*
X1462028Y792869D01*
X1462028Y792869D01*
X1462028Y792868D01*
X1462013Y792709D01*
X1462013Y792708D01*
X1462012Y792707D01*
X1461998Y792549D01*
X1461998Y792548D01*
X1461998Y792547D01*
X1461983Y792389D01*
X1461983Y792388D01*
X1461983Y792388D01*
X1461969Y792231D01*
X1461969Y792230D01*
X1461968Y792229D01*
X1461954Y792073D01*
X1461954Y792072D01*
X1461954Y792071D01*
X1461940Y791916D01*
X1461940Y791915D01*
X1461940Y791914D01*
X1461926Y791759D01*
X1461926Y791758D01*
X1461926Y791758D01*
X1461912Y791604D01*
X1461912Y791603D01*
X1461912Y791601D01*
X1461899Y791448D01*
X1461899Y791447D01*
X1461899Y791447D01*
X1461886Y791294D01*
X1461886Y791293D01*
X1461885Y791292D01*
X1461872Y791141D01*
X1461872Y791140D01*
X1461872Y791139D01*
X1461859Y790988D01*
X1461860Y790987D01*
X1461859Y790986D01*
X1461847Y790835D01*
X1461847Y790835D01*
X1461847Y790834D01*
X1461834Y790684D01*
X1461834Y790683D01*
X1461834Y790682D01*
X1461822Y790533D01*
X1461822Y790532D01*
X1461822Y790531D01*
X1461810Y790383D01*
X1461810Y790382D01*
X1461810Y790381D01*
X1461798Y790234D01*
X1461798Y790233D01*
X1461798Y790231D01*
X1461786Y790085D01*
X1461787Y790084D01*
X1461786Y790083D01*
X1461775Y789937D01*
X1461775Y789936D01*
X1461775Y789935D01*
X1461764Y789790D01*
X1461764Y789789D01*
X1461764Y789787D01*
X1461753Y789643D01*
X1461753Y789642D01*
X1461753Y789641D01*
X1461742Y789497D01*
X1461742Y789496D01*
X1461742Y789495D01*
X1461732Y789352D01*
X1461732Y789351D01*
X1461732Y789349D01*
X1461721Y789207D01*
X1461722Y789206D01*
X1461721Y789205D01*
X1461711Y789063D01*
X1461712Y789062D01*
X1461711Y789061D01*
X1461702Y788920D01*
X1461702Y788919D01*
X1461701Y788917D01*
X1461692Y788777D01*
X1461692Y788776D01*
X1461692Y788775D01*
X1461683Y788636D01*
X1461683Y788634D01*
X1461682Y788633D01*
X1461674Y788494D01*
X1461674Y788493D01*
X1461673Y788491D01*
X1461665Y788354D01*
X1461665Y788352D01*
X1461664Y788351D01*
X1461656Y788214D01*
X1461656Y788212D01*
X1461656Y788211D01*
X1461648Y788074D01*
X1461648Y788073D01*
X1461647Y788071D01*
X1461640Y787935D01*
X1461640Y787934D01*
X1461639Y787933D01*
X1461632Y787798D01*
X1461632Y787796D01*
X1461631Y787795D01*
X1461624Y787661D01*
X1461624Y787659D01*
X1461624Y787657D01*
X1461617Y787523D01*
X1461617Y787522D01*
X1461617Y787521D01*
X1461609Y787388D01*
X1461610Y787386D01*
X1461609Y787384D01*
X1461603Y787252D01*
X1461603Y787251D01*
X1461602Y787249D01*
X1461596Y787117D01*
X1461596Y787116D01*
X1461596Y787114D01*
X1461590Y786984D01*
X1461590Y786982D01*
X1461589Y786980D01*
X1461583Y786850D01*
X1461584Y786848D01*
X1461583Y786846D01*
X1461577Y786717D01*
X1461578Y786715D01*
X1461577Y786713D01*
X1461572Y786585D01*
X1461572Y786583D01*
X1461572Y786581D01*
X1461566Y786453D01*
X1461567Y786451D01*
X1461566Y786449D01*
X1461561Y786322D01*
X1461562Y786320D01*
X1461561Y786317D01*
X1461554Y786128D01*
X1461555Y786125D01*
X1461554Y786122D01*
X1461548Y785934D01*
X1461548Y785930D01*
X1461548Y785928D01*
X1461542Y785741D01*
X1461542Y785738D01*
X1461542Y785735D01*
X1461537Y785550D01*
X1461537Y785547D01*
X1461536Y785543D01*
X1461532Y785360D01*
X1461532Y785357D01*
X1461532Y785354D01*
X1461528Y785172D01*
X1461528Y785168D01*
X1461528Y785165D01*
X1461524Y784984D01*
X1461525Y784981D01*
X1461524Y784977D01*
X1461522Y784798D01*
X1461522Y784795D01*
X1461521Y784791D01*
X1461519Y784614D01*
X1461520Y784610D01*
X1461519Y784607D01*
X1461518Y784430D01*
X1461519Y784427D01*
X1461518Y784423D01*
X1461517Y784249D01*
X1461518Y784245D01*
X1461517Y784241D01*
X1461517Y784068D01*
X1461518Y784064D01*
X1461517Y784060D01*
X1461517Y783888D01*
X1461518Y783885D01*
X1461517Y783881D01*
X1461519Y783710D01*
X1461519Y783706D01*
X1461519Y783702D01*
X1461521Y783533D01*
X1461521Y783529D01*
X1461521Y783525D01*
X1461523Y783358D01*
X1461524Y783354D01*
X1461523Y783349D01*
X1461526Y783183D01*
X1461527Y783179D01*
X1461527Y783175D01*
X1461530Y783010D01*
X1461531Y783006D01*
X1461531Y783001D01*
X1461535Y782838D01*
X1461536Y782834D01*
X1461535Y782829D01*
X1461541Y782667D01*
X1461542Y782663D01*
X1461541Y782658D01*
X1461547Y782498D01*
X1461548Y782494D01*
X1461547Y782489D01*
X1461554Y782330D01*
X1461555Y782325D01*
X1461554Y782320D01*
X1461561Y782162D01*
X1461562Y782158D01*
X1461562Y782153D01*
X1461570Y781997D01*
X1461571Y781992D01*
X1461570Y781986D01*
X1461579Y781832D01*
X1461580Y781826D01*
X1461580Y781821D01*
X1461589Y781668D01*
X1461590Y781663D01*
X1461590Y781657D01*
X1461600Y781505D01*
X1461601Y781500D01*
X1461600Y781495D01*
X1461611Y781344D01*
X1461613Y781339D01*
X1461612Y781333D01*
X1461624Y781184D01*
X1461625Y781178D01*
X1461624Y781172D01*
X1461637Y781025D01*
X1461638Y781019D01*
X1461638Y781013D01*
X1461651Y780866D01*
X1461653Y780860D01*
X1461652Y780854D01*
X1461666Y780709D01*
X1461667Y780703D01*
X1461667Y780697D01*
X1461681Y780553D01*
X1461683Y780547D01*
X1461682Y780541D01*
X1461698Y780399D01*
X1461700Y780392D01*
X1461699Y780386D01*
X1461715Y780244D01*
X1461717Y780238D01*
X1461717Y780232D01*
X1461733Y780092D01*
X1461736Y780085D01*
X1461735Y780078D01*
X1461753Y779940D01*
X1461755Y779933D01*
X1461754Y779927D01*
X1461773Y779790D01*
X1461775Y779782D01*
X1461774Y779775D01*
X1461794Y779639D01*
X1461796Y779632D01*
X1461796Y779625D01*
X1461815Y779491D01*
X1461818Y779483D01*
X1461818Y779474D01*
X1461846Y779297D01*
X1461849Y779287D01*
X1461849Y779277D01*
X1461878Y779102D01*
X1461882Y779092D01*
X1461881Y779081D01*
X1461912Y778908D01*
X1461916Y778898D01*
X1461916Y778888D01*
X1461948Y778717D01*
X1461952Y778707D01*
Y778696D01*
X1461985Y778527D01*
X1461989Y778517D01*
X1461990Y778505D01*
X1462024Y778339D01*
X1462029Y778328D01*
X1462029Y778317D01*
X1462065Y778153D01*
X1462070Y778142D01*
X1462071Y778130D01*
X1462108Y777968D01*
X1462114Y777957D01*
X1462114Y777944D01*
X1462153Y777785D01*
X1462159Y777774D01*
X1462159Y777761D01*
X1462200Y777603D01*
X1462206Y777592D01*
X1462207Y777579D01*
X1462249Y777424D01*
X1462255Y777412D01*
X1462256Y777398D01*
X1462300Y777245D01*
X1462306Y777233D01*
X1462307Y777220D01*
X1462353Y777069D01*
X1462359Y777056D01*
X1462361Y777043D01*
X1462408Y776894D01*
X1462414Y776881D01*
X1462416Y776867D01*
X1462464Y776721D01*
X1462472Y776708D01*
X1462474Y776693D01*
X1462524Y776548D01*
X1462531Y776536D01*
X1462533Y776521D01*
X1462585Y776378D01*
X1462593Y776365D01*
X1462595Y776350D01*
X1462648Y776210D01*
X1462657Y776197D01*
X1462659Y776181D01*
X1462714Y776042D01*
X1462723Y776029D01*
X1462726Y776014D01*
X1462782Y775877D01*
X1462791Y775864D01*
X1462794Y775848D01*
X1462852Y775713D01*
X1462862Y775700D01*
X1462865Y775684D01*
X1462925Y775551D01*
X1462935Y775538D01*
X1462939Y775521D01*
X1463000Y775391D01*
X1463010Y775377D01*
X1463014Y775361D01*
X1463077Y775232D01*
X1463090Y775215D01*
X1463096Y775194D01*
X1463194Y775004D01*
X1463209Y774986D01*
X1463216Y774963D01*
X1463300Y774808D01*
X1463316Y774789D01*
X1463324Y774766D01*
X1463429Y774584D01*
X1463447Y774564D01*
X1463456Y774538D01*
X1463565Y774361D01*
X1463585Y774339D01*
X1463596Y774311D01*
X1463728Y774109D01*
X1463747Y774089D01*
X1463758Y774064D01*
X1463848Y773934D01*
X1463864Y773918D01*
X1463874Y773897D01*
X1463976Y773755D01*
X1463994Y773738D01*
X1464005Y773716D01*
X1464113Y773574D01*
X1464133Y773557D01*
X1464145Y773534D01*
X1464264Y773385D01*
X1464286Y773367D01*
X1464300Y773342D01*
X1464436Y773180D01*
X1464459Y773162D01*
X1464474Y773137D01*
X1464604Y772992D01*
X1464626Y772976D01*
X1464641Y772952D01*
X1464775Y772811D01*
X1464804Y772790D01*
X1464825Y772760D01*
X1465051Y772537D01*
X1465080Y772518D01*
X1465101Y772490D01*
X1465232Y772369D01*
X1465254Y772356D01*
X1465269Y772336D01*
X1465410Y772212D01*
X1465432Y772200D01*
X1465447Y772181D01*
X1465578Y772071D01*
X1465600Y772059D01*
X1465616Y772040D01*
X1465764Y771923D01*
X1465787Y771911D01*
X1465805Y771891D01*
X1465971Y771766D01*
X1465995Y771754D01*
X1466013Y771735D01*
X1466183Y771613D01*
X1466210Y771601D01*
X1466230Y771581D01*
X1466434Y771443D01*
X1466460Y771432D01*
X1466481Y771413D01*
X1466661Y771299D01*
X1466684Y771290D01*
X1466703Y771273D01*
X1466887Y771162D01*
X1466911Y771154D01*
X1466930Y771137D01*
X1467119Y771030D01*
X1467138Y771024D01*
X1467153Y771011D01*
X1467282Y770941D01*
X1467297Y770936D01*
X1467309Y770926D01*
X1467440Y770858D01*
X1467455Y770853D01*
X1467467Y770844D01*
X1467600Y770777D01*
X1467615Y770773D01*
X1467627Y770764D01*
X1467762Y770698D01*
X1467776Y770694D01*
X1467788Y770686D01*
X1467925Y770621D01*
X1467939Y770618D01*
X1467951Y770609D01*
X1468090Y770546D01*
X1468104Y770543D01*
X1468116Y770535D01*
X1468257Y770473D01*
X1468271Y770471D01*
X1468282Y770463D01*
X1468426Y770403D01*
X1468439Y770400D01*
X1468450Y770393D01*
X1468596Y770333D01*
X1468609Y770331D01*
X1468620Y770324D01*
X1468768Y770266D01*
X1468781Y770264D01*
X1468792Y770257D01*
X1468942Y770201D01*
X1468954Y770199D01*
X1468965Y770192D01*
X1469117Y770137D01*
X1469129Y770135D01*
X1469140Y770129D01*
X1469295Y770075D01*
X1469306Y770074D01*
X1469317Y770068D01*
X1469474Y770015D01*
X1469485Y770014D01*
X1469495Y770008D01*
X1469654Y769957D01*
X1469666Y769955D01*
X1469676Y769950D01*
X1469837Y769900D01*
X1469848Y769899D01*
X1469858Y769893D01*
X1470021Y769844D01*
X1470032Y769843D01*
X1470041Y769838D01*
X1470207Y769791D01*
X1470218Y769790D01*
X1470227Y769785D01*
X1470395Y769738D01*
X1470405Y769738D01*
X1470414Y769733D01*
X1470584Y769688D01*
X1470594Y769687D01*
X1470603Y769683D01*
X1470776Y769639D01*
X1470786Y769638D01*
X1470794Y769634D01*
X1470969Y769591D01*
X1470977Y769591D01*
X1470984Y769587D01*
X1471117Y769555D01*
X1471124Y769555D01*
X1471131Y769552D01*
X1471265Y769521D01*
X1471271Y769521D01*
X1471277Y769518D01*
X1471413Y769488D01*
X1471419Y769488D01*
X1471425Y769485D01*
X1471562Y769455D01*
X1471568Y769455D01*
X1471574Y769453D01*
X1471712Y769424D01*
X1471719Y769423D01*
X1471725Y769421D01*
X1471864Y769392D01*
X1471870Y769392D01*
X1471876Y769390D01*
X1472016Y769362D01*
X1472022D01*
X1472028Y769360D01*
X1472170Y769332D01*
X1472176Y769332D01*
X1472181Y769330D01*
X1472325Y769303D01*
X1472330Y769303D01*
X1472336Y769301D01*
X1472480Y769275D01*
X1472486Y769275D01*
X1472491Y769273D01*
X1472638Y769247D01*
X1472643Y769247D01*
X1472648Y769245D01*
X1472795Y769220D01*
X1472801Y769220D01*
X1472806Y769218D01*
X1472955Y769194D01*
X1472960Y769194D01*
X1472965Y769192D01*
X1473115Y769168D01*
X1473120Y769168D01*
X1473125Y769166D01*
X1473276Y769143D01*
X1473281Y769143D01*
X1473286Y769141D01*
X1473439Y769118D01*
X1473444Y769118D01*
X1473449Y769117D01*
X1473603Y769094D01*
X1473608Y769094D01*
X1473612Y769093D01*
X1473768Y769071D01*
X1473772Y769071D01*
X1473777Y769070D01*
X1473934Y769048D01*
X1473939Y769048D01*
X1473943Y769047D01*
X1474102Y769026D01*
X1474106Y769026D01*
X1474110Y769025D01*
X1474270Y769004D01*
X1474274Y769005D01*
X1474278Y769003D01*
X1474440Y768983D01*
X1474444Y768984D01*
X1474448Y768982D01*
X1474611Y768963D01*
X1474615Y768963D01*
X1474619Y768962D01*
X1474783Y768943D01*
X1474787Y768943D01*
X1474791Y768942D01*
X1474957Y768923D01*
X1474960Y768924D01*
X1474964Y768923D01*
X1475131Y768904D01*
X1475135Y768905D01*
X1475139Y768904D01*
X1475307Y768886D01*
X1475311Y768886D01*
X1475314Y768885D01*
X1475484Y768868D01*
X1475488Y768868D01*
X1475491Y768867D01*
X1475663Y768851D01*
X1475666Y768851D01*
X1475670Y768850D01*
X1475843Y768834D01*
X1475846Y768834D01*
X1475850Y768833D01*
X1476024Y768817D01*
X1476027Y768818D01*
X1476030Y768817D01*
X1476206Y768801D01*
X1476209Y768802D01*
X1476212Y768801D01*
X1476390Y768786D01*
X1476393Y768786D01*
X1476396Y768785D01*
X1476575Y768771D01*
X1476578Y768771D01*
X1476581Y768770D01*
X1476761Y768756D01*
X1476764Y768756D01*
X1476767Y768755D01*
X1476949Y768742D01*
X1476952Y768742D01*
X1476955Y768741D01*
X1477138Y768728D01*
X1477141Y768728D01*
X1477143Y768727D01*
X1477328Y768715D01*
X1477331Y768715D01*
X1477333Y768714D01*
X1477520Y768701D01*
X1477522Y768702D01*
X1477525Y768701D01*
X1477713Y768689D01*
X1477715Y768689D01*
X1477718Y768689D01*
X1477907Y768677D01*
X1477909Y768677D01*
X1477911Y768677D01*
X1478038Y768669D01*
X1478040Y768669D01*
X1478042Y768669D01*
X1478169Y768661D01*
X1478171Y768661D01*
X1478172Y768661D01*
X1478301Y768654D01*
X1478302Y768654D01*
X1478304Y768653D01*
X1478433Y768646D01*
X1478434Y768646D01*
X1478436Y768646D01*
X1478566Y768639D01*
X1478567Y768639D01*
X1478569Y768639D01*
X1478699Y768632D01*
X1478701Y768632D01*
X1478702Y768632D01*
X1478833Y768625D01*
X1478835Y768625D01*
X1478836Y768625D01*
X1478968Y768618D01*
X1478969Y768618D01*
X1478971Y768618D01*
X1479103Y768612D01*
X1479105Y768612D01*
X1479106Y768612D01*
X1479239Y768605D01*
X1479240Y768605D01*
X1479242Y768605D01*
X1479376Y768599D01*
X1479377Y768599D01*
X1479379Y768599D01*
X1479513Y768593D01*
X1479514Y768593D01*
X1479515Y768593D01*
X1479651Y768587D01*
X1479652Y768587D01*
X1479654Y768587D01*
X1479790Y768581D01*
X1479791Y768581D01*
X1479792Y768581D01*
X1479928Y768575D01*
X1479930Y768576D01*
X1479931Y768575D01*
X1480068Y768570D01*
X1480069Y768570D01*
X1480070Y768570D01*
X1480208Y768564D01*
X1480210Y768565D01*
X1480211Y768564D01*
X1480350Y768559D01*
X1480351Y768559D01*
X1480352Y768559D01*
X1480491Y768554D01*
X1480493Y768554D01*
X1480494Y768554D01*
X1480634Y768549D01*
X1480635Y768549D01*
X1480636Y768549D01*
X1480777Y768544D01*
X1480778Y768544D01*
X1480779Y768544D01*
X1480920Y768539D01*
X1480921Y768539D01*
X1480922Y768539D01*
X1481065Y768535D01*
X1481066Y768535D01*
X1481067Y768534D01*
X1481210Y768530D01*
X1481211Y768530D01*
X1481212Y768530D01*
X1481355Y768526D01*
X1481356Y768526D01*
X1481358Y768526D01*
X1481502Y768521D01*
X1481503Y768522D01*
X1481504Y768521D01*
X1481649Y768517D01*
X1481650Y768518D01*
X1481651Y768517D01*
X1481796Y768513D01*
X1481797Y768513D01*
X1481798Y768513D01*
X1481945Y768509D01*
X1481946Y768510D01*
X1481947Y768509D01*
X1482094Y768505D01*
X1482095Y768506D01*
X1482095Y768505D01*
X1482243Y768502D01*
X1482244Y768502D01*
X1482245Y768502D01*
X1482394Y768498D01*
X1482395Y768498D01*
X1482396Y768498D01*
X1482545Y768495D01*
X1482546Y768495D01*
X1482546Y768495D01*
X1482696Y768491D01*
X1482697Y768492D01*
X1482698Y768491D01*
X1482849Y768488D01*
X1482850Y768488D01*
X1482850Y768488D01*
X1483002Y768485D01*
X1483003Y768485D01*
X1483004Y768485D01*
X1483156Y768482D01*
X1483157Y768482D01*
X1483157Y768482D01*
X1483310Y768479D01*
X1483311Y768479D01*
X1483312Y768479D01*
X1483466Y768476D01*
X1483466Y768476D01*
X1483467Y768476D01*
X1483621Y768473D01*
X1483622Y768473D01*
X1483623Y768473D01*
X1483778Y768471D01*
X1483779Y768471D01*
X1483779Y768471D01*
X1483935Y768468D01*
X1483936Y768468D01*
X1483937Y768468D01*
X1484093Y768465D01*
X1484094Y768466D01*
X1484094Y768465D01*
X1484252Y768463D01*
X1484252Y768463D01*
X1484253Y768463D01*
X1484411Y768461D01*
X1484412Y768461D01*
X1484413Y768461D01*
X1484571Y768458D01*
X1484572Y768458D01*
X1484572Y768458D01*
X1484732Y768456D01*
X1484733Y768456D01*
X1484733Y768456D01*
X1484894Y768454D01*
X1484894Y768454D01*
X1484894Y768454D01*
X1485055Y768452D01*
X1485056Y768452D01*
X1485056Y768452D01*
X1485218Y768450D01*
X1485219Y768450D01*
X1485219Y768450D01*
X1485382Y768448D01*
X1485383Y768448D01*
X1485383Y768448D01*
X1485546Y768446D01*
X1485547Y768447D01*
X1485547Y768446D01*
X1485712Y768445D01*
X1485712Y768445D01*
X1485712Y768445D01*
X1485877Y768443D01*
X1485878Y768443D01*
X1485878Y768443D01*
X1486044Y768441D01*
X1486044Y768441D01*
X1486044Y768441D01*
X1486211Y768440D01*
X1486211Y768440D01*
X1486212Y768440D01*
X1486379Y768438D01*
X1486379Y768438D01*
X1486379Y768438D01*
X1486547Y768437D01*
X1486548Y768437D01*
X1486548Y768437D01*
X1486717Y768436D01*
X1486717Y768436D01*
X1486718Y768436D01*
X1486887Y768434D01*
X1486887Y768434D01*
X1486888Y768434D01*
X1487058Y768433D01*
X1487058Y768433D01*
X1487059Y768433D01*
X1487229Y768432D01*
X1487230Y768432D01*
X1487230Y768432D01*
X1487402Y768430D01*
X1487402Y768431D01*
X1487402Y768430D01*
X1487575Y768429D01*
X1487575Y768429D01*
X1487576Y768429D01*
X1487749Y768428D01*
X1487749Y768428D01*
X1487749Y768428D01*
X1487923Y768427D01*
X1487923Y768427D01*
X1487924Y768427D01*
X1488098Y768426D01*
X1488099Y768426D01*
X1488099Y768426D01*
X1488275Y768425D01*
X1488275Y768425D01*
X1488275Y768425D01*
X1488451Y768424D01*
X1488451Y768424D01*
X1488452Y768424D01*
X1488629Y768423D01*
X1488629Y768424D01*
X1488629Y768423D01*
X1488807Y768423D01*
X1488807Y768423D01*
X1488808Y768423D01*
X1488986Y768422D01*
X1488986Y768422D01*
X1488986Y768422D01*
X1489166Y768421D01*
X1489166Y768421D01*
X1489166Y768421D01*
X1489346Y768420D01*
X1489347Y768420D01*
X1489347Y768420D01*
X1489710Y768419D01*
X1489710Y768419D01*
X1489710Y768419D01*
X1489892Y768418D01*
X1489893Y768418D01*
X1489893Y768418D01*
X1490076Y768418D01*
X1490076Y768418D01*
X1490076Y768418D01*
X1490261Y768417D01*
X1490261Y768417D01*
X1490261Y768417D01*
X1490818Y768415D01*
X1490818Y768415D01*
X1490819Y768415D01*
X1491194Y768414D01*
X1491194Y768414D01*
X1491194Y768414D01*
X1491573Y768413D01*
X1491573Y768413D01*
X1491573Y768413D01*
X1491763Y768412D01*
X1492146Y768411D01*
X1492146Y768411D01*
X1492147Y768411D01*
X1492339Y768411D01*
X1492923Y768409D01*
X1492923Y768409D01*
X1492923Y768409D01*
X1493317Y768408D01*
X1493317Y768408D01*
X1493318Y768408D01*
X1493580Y768407D01*
X1493580Y768407D01*
X1493580Y768407D01*
X1493843Y768407D01*
X1493843Y768407D01*
X1493843Y768407D01*
X1494106Y768406D01*
X1494106Y768406D01*
X1494106Y768406D01*
X1494369Y768406D01*
X1494369Y768406D01*
X1494369Y768406D01*
X1494632Y768405D01*
X1494632Y768406D01*
X1494632Y768405D01*
X1494763Y768405D01*
X1494763Y768405D01*
X1494764Y768405D01*
X1495157Y768405D01*
X1495158Y768405D01*
X1495158Y768405D01*
X1495552Y768405D01*
X1495552Y768405D01*
X1495552Y768405D01*
X1495683Y768405D01*
X1495683Y768405D01*
X1495684Y768405D01*
X1495946Y768405D01*
X1495946Y768405D01*
X1495947Y768405D01*
X1496209D01*
X1496209Y768405D01*
X1496209Y768405D01*
X1496472Y768405D01*
X1496472Y768405D01*
X1496472Y768405D01*
X1496603Y768405D01*
X1496604Y768405D01*
X1496604Y768405D01*
X1496735Y768405D01*
X1496866Y768405D01*
X1496866Y768405D01*
X1496867Y768405D01*
X1497260Y768405D01*
X1497260Y768405D01*
X1497261Y768405D01*
X1497392Y768405D01*
X1497392Y768405D01*
X1497392Y768405D01*
X1497786Y768406D01*
X1497786Y768406D01*
X1497786Y768406D01*
X1498049Y768406D01*
X1498049Y768406D01*
X1498049Y768406D01*
X1498311Y768406D01*
X1498312Y768407D01*
X1498312Y768406D01*
X1498574Y768407D01*
X1498575Y768407D01*
X1498575Y768407D01*
X1498968Y768408D01*
X1498969Y768408D01*
X1498969Y768408D01*
X1499231Y768408D01*
X1499231Y768408D01*
X1499232Y768408D01*
X1499625Y768409D01*
X1499625Y768409D01*
X1499626Y768409D01*
X1499888Y768410D01*
X1499888Y768410D01*
X1499888Y768410D01*
X1500282Y768411D01*
X1500282Y768411D01*
X1500282Y768411D01*
X1500676Y768412D01*
X1500676Y768412D01*
X1500676Y768412D01*
X1501201Y768414D01*
X1501201Y768414D01*
X1501201Y768414D01*
X1501464Y768415D01*
X1501464Y768415D01*
X1501464Y768415D01*
X1501989Y768416D01*
X1501989Y768416D01*
X1501989Y768416D01*
X1502514Y768418D01*
X1502514Y768418D01*
X1502515Y768418D01*
X1503039Y768420D01*
X1503040Y768420D01*
X1503040Y768420D01*
X1503696Y768423D01*
X1503696Y768423D01*
X1503696Y768423D01*
X1503827Y768423D01*
X1503958Y768424D01*
X1503958Y768424D01*
X1503958Y768424D01*
X1504221Y768425D01*
X1504221Y768425D01*
X1504221Y768425D01*
X1504352Y768426D01*
X1504483Y768426D01*
X1504483Y768426D01*
X1504484Y768426D01*
X1504615Y768427D01*
X1504746Y768428D01*
X1504746Y768428D01*
X1504746Y768428D01*
X1505139Y768429D01*
X1505140Y768429D01*
X1505140Y768429D01*
X1505271Y768430D01*
X1505533Y768431D01*
X1505533Y768431D01*
X1505533Y768431D01*
X1505927Y768433D01*
X1506058Y768433D01*
X1506058Y768433D01*
X1506058Y768433D01*
X1506583Y768436D01*
X1506583Y768436D01*
X1506583Y768436D01*
X1506714Y768437D01*
X1507107Y768438D01*
X1507108Y768438D01*
X1507108Y768438D01*
X1507239Y768439D01*
X1507501Y768440D01*
X1507501Y768440D01*
X1507501Y768440D01*
X1507632Y768441D01*
X1507763Y768441D01*
X1507763Y768441D01*
X1507764Y768441D01*
X1507895Y768442D01*
X1508157Y768443D01*
X1508157Y768443D01*
X1508157Y768443D01*
X1508288Y768444D01*
X1508681Y768446D01*
X1508681Y768446D01*
X1508682Y768446D01*
X1508813Y768446D01*
X1509468Y768449D01*
X1509599Y768450D01*
X1509599Y768450D01*
X1509599Y768450D01*
X1509861Y768451D01*
X1509992Y768452D01*
X1509993Y768452D01*
X1509993Y768452D01*
X1510124Y768452D01*
X1510779Y768455D01*
X1510910Y768456D01*
X1510910Y768456D01*
X1510910Y768456D01*
X1511041Y768456D01*
X1511565Y768459D01*
X1511696Y768459D01*
X1511696Y768459D01*
X1511696Y768459D01*
X1511828Y768460D01*
X1512221Y768461D01*
X1512351Y768462D01*
X1512352Y768462D01*
X1512352Y768462D01*
X1512483Y768462D01*
X1512745Y768464D01*
X1512875Y768464D01*
X1512876Y768464D01*
X1512876Y768464D01*
X1513007Y768465D01*
X1513399Y768466D01*
X1513399Y768466D01*
X1513793Y768467D01*
X1513923Y768468D01*
X1513923Y768468D01*
X1513924Y768468D01*
X1514055Y768468D01*
X1514185Y768469D01*
X1514316Y768469D01*
X1514316Y768469D01*
X1514317Y768469D01*
X1514578Y768470D01*
X1514709Y768470D01*
X1514709Y768470D01*
X1514709Y768470D01*
X1514841Y768471D01*
X1514971Y768471D01*
X1515102Y768471D01*
X1515102Y768471D01*
X1515102Y768471D01*
X1515364Y768472D01*
X1515757Y768473D01*
X1516019Y768474D01*
X1516149Y768474D01*
X1516149Y768474D01*
X1516150Y768474D01*
X1516281Y768474D01*
X1516411Y768475D01*
X1516804Y768475D01*
X1517066Y768476D01*
X1517328Y768476D01*
X1517720Y768477D01*
X1517851Y768477D01*
X1518244Y768477D01*
X1518374Y768477D01*
X1518767Y768478D01*
X1518898Y768478D01*
X1519290Y768478D01*
X1519421Y768478D01*
X1519421Y768478D01*
X1519421Y768478D01*
X1519551D01*
X1519944Y768477D01*
X1520074Y768477D01*
X1520336Y768477D01*
X1520598Y768477D01*
X1520728Y768477D01*
X1520990Y768476D01*
X1521251Y768476D01*
X1521513Y768476D01*
X1521774Y768475D01*
X1522036Y768474D01*
X1522297Y768474D01*
X1522558Y768473D01*
X1522820Y768472D01*
X1523082Y768471D01*
X1523082Y768471D01*
X1523342Y768470D01*
X1523604Y768469D01*
X1523865Y768468D01*
X1524126Y768467D01*
X1524388Y768466D01*
X1524649Y768464D01*
X1524910Y768463D01*
X1525171Y768461D01*
X1525432Y768460D01*
X1525694Y768458D01*
X1525955Y768456D01*
X1526216Y768454D01*
X1526477Y768452D01*
X1526739Y768450D01*
X1526739Y768450D01*
X1526999Y768448D01*
X1527260Y768446D01*
X1527521Y768444D01*
X1527783Y768441D01*
X1527783Y768441D01*
X1528043Y768439D01*
X1528304Y768436D01*
X1528566Y768433D01*
X1528566Y768433D01*
X1528826Y768431D01*
X1529087Y768428D01*
X1529348Y768425D01*
X1529348Y768425D01*
X1529608Y768422D01*
X1529870Y768418D01*
X1529870Y768418D01*
X1530130Y768415D01*
X1530391Y768411D01*
X1530652Y768408D01*
X1530652Y768408D01*
X1530912Y768404D01*
X1530912Y768404D01*
X1531174Y768400D01*
X1531434Y768397D01*
X1531695Y768393D01*
X1531695D01*
X1531956Y768389D01*
X1532216Y768384D01*
X1532216Y768384D01*
X1532477Y768380D01*
X1532737Y768375D01*
X1532737Y768375D01*
X1532999Y768371D01*
X1533259Y768366D01*
X1533519Y768361D01*
X1533779Y768356D01*
X1533779Y768356D01*
X1534041Y768351D01*
X1534301Y768346D01*
X1534690Y768338D01*
X1535083Y768330D01*
X1535083Y768330D01*
X1535471Y768321D01*
X1535864Y768312D01*
X1536252Y768303D01*
X1536645Y768293D01*
X1537033Y768284D01*
X1537033Y768284D01*
X1537425Y768273D01*
X1537815Y768263D01*
X1538206Y768252D01*
X1538596Y768241D01*
X1538984Y768229D01*
X1539374Y768218D01*
X1539764Y768205D01*
X1540156Y768193D01*
X1540156D01*
X1540544Y768180D01*
X1540936Y768167D01*
X1541323Y768153D01*
X1541324Y768153D01*
X1541715Y768139D01*
X1542105Y768125D01*
X1542494Y768110D01*
X1542884Y768095D01*
X1543271Y768080D01*
X1543663Y768064D01*
X1544050Y768048D01*
X1544439Y768031D01*
X1544831Y768014D01*
X1545220Y767997D01*
X1545607Y767979D01*
X1545998Y767961D01*
X1546385Y767942D01*
X1546774Y767923D01*
X1547165Y767904D01*
X1547165Y767904D01*
X1547551Y767884D01*
X1547551Y767884D01*
X1548073Y767857D01*
X1548073D01*
X1548588Y767829D01*
X1548588Y767829D01*
X1549106Y767800D01*
X1549624Y767770D01*
X1550145Y767740D01*
X1550663Y767709D01*
X1551177Y767677D01*
X1551696Y767644D01*
X1552214Y767610D01*
X1552731Y767576D01*
X1553247Y767541D01*
X1553767Y767504D01*
X1554284Y767467D01*
X1554802Y767429D01*
X1555316Y767390D01*
X1555834Y767350D01*
X1556349Y767310D01*
X1556865Y767268D01*
X1557385Y767225D01*
X1557897Y767182D01*
X1558418Y767137D01*
X1558418D01*
X1558930Y767092D01*
X1559445Y767045D01*
X1560091Y766986D01*
X1560738Y766924D01*
X1561382Y766862D01*
X1562024Y766798D01*
X1562672Y766731D01*
X1563315Y766664D01*
X1563954Y766595D01*
X1564603Y766524D01*
X1565240Y766452D01*
X1565889Y766377D01*
X1566532Y766301D01*
X1567175Y766223D01*
X1567817Y766143D01*
X1568456Y766062D01*
X1569097Y765979D01*
X1569736Y765894D01*
X1570513Y765788D01*
X1571283Y765681D01*
X1572047Y765572D01*
X1572819Y765459D01*
X1573584Y765344D01*
X1574355Y765225D01*
X1575125Y765103D01*
X1575894Y764979D01*
X1576661Y764852D01*
X1577429Y764721D01*
X1578320Y764566D01*
X1579215Y764407D01*
X1580108Y764243D01*
X1581003Y764074D01*
X1581894Y763902D01*
X1582785Y763725D01*
X1583678Y763544D01*
X1584700Y763331D01*
X1585719Y763112D01*
X1586734Y762888D01*
X1587751Y762657D01*
X1588769Y762420D01*
X1589911Y762147D01*
X1591055Y761865D01*
X1592196Y761575D01*
X1593464Y761243D01*
X1594731Y760901D01*
X1596123Y760513D01*
X1597513Y760112D01*
X1599028Y759660D01*
X1600671Y759151D01*
X1602438Y758582D01*
X1604328Y757948D01*
X1606467Y757199D01*
X1608863Y756316D01*
X1609230Y756178D01*
X1609986Y755888D01*
X1610740Y755594D01*
X1611492Y755296D01*
X1612417Y754925D01*
X1613517Y754473D01*
X1614614Y754012D01*
X1615702Y753544D01*
X1616924Y753008D01*
X1618273Y752400D01*
X1619615Y751779D01*
X1620951Y751144D01*
X1621614Y750821D01*
X1622846Y750221D01*
X1625298Y748983D01*
X1627730Y747710D01*
X1630143Y746403D01*
X1631341Y745731D01*
X1632228Y745234D01*
X1633998Y744217D01*
X1635753Y743183D01*
X1637497Y742131D01*
X1638364Y741595D01*
X1639081Y741152D01*
X1640508Y740253D01*
X1641925Y739343D01*
X1643336Y738419D01*
X1644038Y737951D01*
X1644038Y737951D01*
X1644681Y737522D01*
X1645962Y736653D01*
X1647233Y735776D01*
X1648498Y734888D01*
X1649127Y734439D01*
X1649127Y734439D01*
X1649700Y734030D01*
X1650839Y733205D01*
X1651970Y732373D01*
X1653099Y731531D01*
X1654193Y730702D01*
X1655253Y729889D01*
X1656308Y729067D01*
X1657360Y728237D01*
X1657879Y727821D01*
X1657879Y727821D01*
X1658372Y727427D01*
X1659359Y726626D01*
X1660342Y725819D01*
X1661315Y725010D01*
X1661801Y724600D01*
X1662289Y724189D01*
X1663256Y723364D01*
X1664212Y722539D01*
X1665171Y721699D01*
X1666095Y720881D01*
X1666992Y720077D01*
X1667883Y719269D01*
X1668767Y718458D01*
X1669625Y717662D01*
X1670450Y716887D01*
X1671274Y716106D01*
X1672089Y715324D01*
X1672905Y714533D01*
X1673717Y713736D01*
X1674523Y712938D01*
X1675325Y712135D01*
X1676123Y711327D01*
X1676918Y710514D01*
X1677711Y709694D01*
X1678497Y708872D01*
X1678888Y708459D01*
X1678888Y708458D01*
X1679280Y708045D01*
X1680061Y707210D01*
X1680834Y706377D01*
X1681609Y705531D01*
X1681989Y705112D01*
X1681989Y705112D01*
X1682350Y704714D01*
X1683064Y703919D01*
X1683777Y703117D01*
X1684483Y702315D01*
X1685190Y701505D01*
X1685893Y700690D01*
X1686589Y699876D01*
X1687283Y699056D01*
X1687630Y698642D01*
X1687977Y698228D01*
X1688665Y697399D01*
X1689347Y696569D01*
X1690025Y695735D01*
X1690364Y695313D01*
X1690364Y695313D01*
X1690704Y694892D01*
X1691377Y694048D01*
X1692046Y693201D01*
X1692711Y692350D01*
X1693372Y691496D01*
X1694032Y690635D01*
X1694684Y689777D01*
X1695336Y688909D01*
X1695983Y688039D01*
X1696628Y687164D01*
X1697267Y686287D01*
X1697903Y685407D01*
X1698535Y684522D01*
X1699162Y683637D01*
X1699787Y682745D01*
X1700409Y681849D01*
X1701025Y680953D01*
X1701641Y680047D01*
X1702251Y679140D01*
X1702854Y678236D01*
X1703459Y677320D01*
X1704055Y676407D01*
X1704650Y675486D01*
X1705241Y674563D01*
X1705830Y673633D01*
X1706414Y672702D01*
X1706994Y671769D01*
X1707567Y670835D01*
X1707853Y670366D01*
X1707853Y670366D01*
X1708137Y669898D01*
X1708707Y668951D01*
X1709272Y668002D01*
X1709831Y667054D01*
X1710405Y666069D01*
X1710994Y665049D01*
X1711579Y664023D01*
X1712158Y662996D01*
X1712734Y661963D01*
X1713305Y660929D01*
X1713871Y659891D01*
X1714433Y658847D01*
X1714711Y658326D01*
X1714711Y658326D01*
X1714991Y657800D01*
X1715544Y656749D01*
X1716091Y655698D01*
X1716632Y654646D01*
X1716904Y654112D01*
X1716904Y654112D01*
X1717172Y653586D01*
X1717711Y652513D01*
X1718241Y651446D01*
X1718764Y650378D01*
X1719301Y649272D01*
X1719849Y648127D01*
X1720392Y646979D01*
X1720931Y645822D01*
X1721463Y644667D01*
X1721990Y643508D01*
X1722513Y642340D01*
X1723027Y641178D01*
X1723539Y640005D01*
X1724046Y638829D01*
X1724546Y637651D01*
X1725043Y636465D01*
X1725546Y635248D01*
X1726059Y633988D01*
X1726567Y632722D01*
X1727068Y631453D01*
X1727314Y630822D01*
X1727562Y630185D01*
X1728052Y628905D01*
X1728534Y627629D01*
X1729009Y626350D01*
X1729482Y625056D01*
X1729947Y623763D01*
X1730403Y622476D01*
X1730855Y621177D01*
X1731315Y619835D01*
X1731778Y618457D01*
X1732234Y617077D01*
X1732683Y615694D01*
X1733137Y614269D01*
X1733597Y612799D01*
X1734049Y611321D01*
X1734492Y609847D01*
X1734708Y609111D01*
X1734926Y608370D01*
X1735355Y606880D01*
X1735774Y605393D01*
X1736185Y603903D01*
X1736600Y602365D01*
X1737015Y600791D01*
X1737423Y599206D01*
X1737820Y597626D01*
X1738219Y595998D01*
X1738618Y594324D01*
X1739006Y592650D01*
X1739384Y590973D01*
X1739568Y590134D01*
X1739568Y590134D01*
X1739762Y589253D01*
X1740138Y587483D01*
X1740502Y585715D01*
X1740855Y583944D01*
X1741206Y582123D01*
X1741553Y580259D01*
X1741887Y578394D01*
X1742209Y576524D01*
X1742365Y575587D01*
X1742527Y574610D01*
X1742839Y572640D01*
X1743136Y570680D01*
X1743421Y568711D01*
X1743699Y566696D01*
X1743968Y564630D01*
X1744223Y562570D01*
X1744463Y560499D01*
X1744693Y558387D01*
X1744913Y556221D01*
X1745117Y554056D01*
X1745305Y551890D01*
X1745392Y550805D01*
X1745392Y550805D01*
X1745482Y549673D01*
X1745645Y547409D01*
X1745791Y545138D01*
X1745919Y542872D01*
X1746033Y540556D01*
X1746131Y538185D01*
X1746210Y535819D01*
X1746271Y533446D01*
X1746315Y530986D01*
X1746339Y528434D01*
X1746342Y525880D01*
X1746324Y523325D01*
X1746284Y520722D01*
X1746220Y518062D01*
X1746133Y515408D01*
X1746024Y512752D01*
X1745889Y510040D01*
X1745727Y507283D01*
X1745541Y504522D01*
X1745330Y501765D01*
X1745213Y500394D01*
X1744707Y495004D01*
X1744499Y492973D01*
X1744011Y488906D01*
X1743452Y484847D01*
X1742825Y480799D01*
X1742476Y478780D01*
X1742112Y476668D01*
X1741307Y472458D01*
X1740428Y468263D01*
X1739474Y464085D01*
X1738959Y462004D01*
X1738248Y459124D01*
X1736684Y453400D01*
X1734982Y447717D01*
X1733141Y442076D01*
X1732153Y439279D01*
X1732153Y439279D01*
X1732153Y439279D01*
X1729980Y433130D01*
X1724984Y421080D01*
X1719354Y409314D01*
X1713105Y397864D01*
X1709680Y392315D01*
X1708934Y391107D01*
X1707413Y388708D01*
X1705866Y386330D01*
X1704289Y383967D01*
X1703487Y382796D01*
X1703487Y382796D01*
X1702868Y381891D01*
X1701617Y380099D01*
X1700346Y378314D01*
X1699061Y376544D01*
X1697866Y374929D01*
X1696768Y373469D01*
X1695657Y372016D01*
X1694537Y370574D01*
X1693970Y369855D01*
X1693471Y369223D01*
X1692465Y367966D01*
X1691449Y366715D01*
X1690425Y365471D01*
X1689440Y364291D01*
X1688494Y363173D01*
X1687540Y362059D01*
X1686578Y360951D01*
X1685639Y359882D01*
X1684714Y358842D01*
X1683781Y357807D01*
X1682843Y356778D01*
X1682373Y356268D01*
X1682372Y356268D01*
X1681925Y355783D01*
X1681026Y354820D01*
X1680121Y353862D01*
X1679215Y352915D01*
X1678755Y352439D01*
X1678755Y352439D01*
X1678348Y352018D01*
X1677525Y351175D01*
X1676700Y350340D01*
X1675870Y349509D01*
X1675453Y349095D01*
X1675453Y349095D01*
X1675453Y349095D01*
X1675035Y348681D01*
X1674202Y347863D01*
X1673362Y347048D01*
X1672515Y346234D01*
X1671692Y345452D01*
X1670892Y344699D01*
X1670089Y343951D01*
X1669279Y343203D01*
X1668874Y342834D01*
X1668874Y342834D01*
X1668496Y342489D01*
X1667733Y341799D01*
X1666966Y341111D01*
X1666196Y340428D01*
X1665812Y340090D01*
X1665812Y340090D01*
X1665428Y339753D01*
X1664656Y339081D01*
X1663878Y338410D01*
X1663098Y337744D01*
X1662707Y337413D01*
X1662707Y337413D01*
X1662346Y337108D01*
X1661611Y336491D01*
X1660877Y335882D01*
X1660137Y335273D01*
X1659402Y334674D01*
X1658663Y334076D01*
X1657920Y333482D01*
X1657171Y332888D01*
X1656797Y332594D01*
X1656797Y332594D01*
X1656797Y332594D01*
X1656422Y332299D01*
X1655677Y331719D01*
X1654919Y331135D01*
X1654169Y330562D01*
X1653789Y330274D01*
X1653789Y330274D01*
X1653409Y329986D01*
X1652654Y329420D01*
X1651893Y328856D01*
X1651128Y328293D01*
X1650753Y328020D01*
X1647891Y325973D01*
X1644999Y323979D01*
X1644644Y323739D01*
X1643920Y323254D01*
X1643193Y322771D01*
X1642458Y322288D01*
X1642094Y322051D01*
X1642094Y322051D01*
X1642094Y322051D01*
X1641728Y321812D01*
X1640999Y321342D01*
X1640261Y320870D01*
X1639524Y320404D01*
X1639155Y320173D01*
X1639155Y320173D01*
X1638786Y319942D01*
X1638045Y319482D01*
X1637307Y319028D01*
X1636562Y318576D01*
X1635821Y318129D01*
X1635073Y317684D01*
X1634323Y317241D01*
X1633572Y316802D01*
X1633197Y316586D01*
X1633197Y316586D01*
X1632821Y316368D01*
X1632068Y315938D01*
X1631319Y315514D01*
X1630556Y315087D01*
X1629805Y314670D01*
X1629043Y314253D01*
X1628280Y313839D01*
X1627521Y313432D01*
X1626758Y313027D01*
X1625992Y312626D01*
X1625223Y312227D01*
X1624459Y311835D01*
X1623689Y311444D01*
X1622918Y311058D01*
X1622143Y310674D01*
X1621373Y310297D01*
X1620600Y309923D01*
X1619819Y309550D01*
X1619039Y309181D01*
X1618262Y308819D01*
X1617872Y308639D01*
X1617479Y308458D01*
X1616699Y308103D01*
X1615916Y307751D01*
X1615134Y307404D01*
X1614737Y307230D01*
X1614737Y307230D01*
X1614737Y307230D01*
X1614341Y307057D01*
X1613558Y306718D01*
X1612766Y306380D01*
X1611977Y306048D01*
X1611582Y305884D01*
X1611186Y305719D01*
X1610393Y305394D01*
X1609601Y305074D01*
X1608803Y304755D01*
X1608405Y304599D01*
X1608405Y304599D01*
X1608008Y304443D01*
X1607208Y304133D01*
X1606410Y303828D01*
X1605608Y303527D01*
X1604778Y303219D01*
X1603911Y302903D01*
X1603045Y302592D01*
X1602180Y302287D01*
X1601744Y302135D01*
X1601744Y302135D01*
X1601310Y301985D01*
X1600440Y301688D01*
X1599568Y301396D01*
X1598693Y301108D01*
X1598258Y300967D01*
X1597822Y300827D01*
X1596944Y300548D01*
X1596068Y300275D01*
X1595191Y300008D01*
X1594750Y299875D01*
X1594279Y299734D01*
X1593332Y299457D01*
X1592390Y299186D01*
X1591445Y298921D01*
X1590969Y298791D01*
X1590969Y298791D01*
X1590466Y298653D01*
X1589450Y298381D01*
X1588437Y298117D01*
X1587420Y297858D01*
X1586911Y297732D01*
X1586911D01*
X1586373Y297599D01*
X1585287Y297338D01*
X1584204Y297086D01*
X1583114Y296839D01*
X1581998Y296595D01*
X1580843Y296350D01*
X1579686Y296115D01*
X1578531Y295888D01*
X1577954Y295779D01*
X1576399Y295492D01*
X1575645Y295358D01*
X1574118Y295095D01*
X1572595Y294843D01*
X1571068Y294601D01*
X1569783Y294407D01*
X1568739Y294253D01*
X1567701Y294105D01*
X1566660Y293962D01*
X1566142Y293893D01*
X1562760Y293466D01*
X1559821Y293135D01*
X1557189Y292870D01*
X1554817Y292655D01*
X1552625Y292478D01*
X1550560Y292328D01*
X1548585Y292201D01*
X1546737Y292096D01*
X1544978Y292009D01*
X1543259Y291935D01*
X1541634Y291875D01*
X1540045Y291827D01*
X1538502Y291789D01*
X1537001Y291760D01*
X1535541Y291740D01*
X1534133Y291729D01*
X1532754Y291724D01*
X1532448Y291724D01*
X1523634Y291725D01*
X1511189Y291727D01*
X1502892Y291728D01*
X1498744Y291729D01*
X1486299Y291730D01*
X1482670Y291731D01*
X1471780Y291732D01*
X1464521Y291733D01*
X1460891Y291733D01*
X1457261Y291733D01*
X1453631Y291734D01*
X1439112Y291735D01*
X1435482Y291735D01*
X1423038Y291736D01*
X1410593Y291737D01*
X1407481Y291737D01*
X1404370Y291738D01*
X1401259Y291738D01*
X1398148Y291738D01*
X1391925Y291738D01*
X1382592Y291739D01*
X1379999Y291739D01*
X1377406Y291739D01*
X1364443Y291740D01*
X1361850Y291740D01*
X1359257Y291740D01*
X1356665Y291740D01*
X1354072Y291740D01*
X1346294Y291741D01*
X1343701Y291741D01*
X1338516Y291741D01*
X1335923Y291741D01*
X1333330Y291741D01*
X1328664Y291741D01*
X1326589Y291741D01*
X1322441Y291741D01*
X1320367Y291742D01*
X1305848Y291742D01*
X1303774Y291742D01*
X1299625Y291742D01*
X1297551Y291742D01*
X1295477Y291742D01*
X1293403Y291742D01*
X1291329Y291742D01*
X1287180Y291742D01*
X1285106Y291742D01*
X1277328Y291742D01*
X1275773D01*
X1271106Y291742D01*
X1269550D01*
X1267995Y291742D01*
X1266439D01*
X1264883Y291742D01*
X1263328D01*
X1261772Y291742D01*
X1260217D01*
X1258661Y291742D01*
X1257105D01*
X1255550Y291742D01*
X1252438D01*
X1250883Y291742D01*
X1247772D01*
X1246216Y291742D01*
X1239994D01*
X1238438Y291743D01*
X1218215D01*
X1217178Y291742D01*
X1208881D01*
X1207844Y291742D01*
X1202659D01*
X1201622Y291742D01*
X1197473D01*
X1196436Y291742D01*
X1193325D01*
X1192288Y291742D01*
X1189177D01*
X1188140Y291742D01*
X1186066D01*
X1185028Y291742D01*
X1181917D01*
X1180880Y291742D01*
X1178806D01*
X1177769Y291742D01*
X1175176D01*
X1174658Y291742D01*
X1172065D01*
X1171546Y291742D01*
X1168954D01*
X1168435Y291742D01*
X1166361D01*
X1165843Y291742D01*
X1163250D01*
X1162731Y291742D01*
X1160657D01*
X1160139Y291742D01*
X1158064D01*
X1157546Y291742D01*
X1155472D01*
X1154953Y291742D01*
X1152361D01*
X1151842Y291742D01*
X1150286D01*
X1149768Y291742D01*
X1147694D01*
X1147175Y291742D01*
X1145101D01*
X1144582Y291742D01*
X1104655Y291742D01*
X1103100D01*
X1102581Y291742D01*
X1101025D01*
X1100507Y291742D01*
X1098433D01*
X1097914Y291742D01*
X1095321D01*
X1094803Y291742D01*
X1092729D01*
X1092210Y291742D01*
X1090136D01*
X1089617Y291742D01*
X1087543D01*
X1087025Y291742D01*
X1084432D01*
X1083913Y291741D01*
X1081839D01*
X1081321Y291741D01*
X1078728D01*
X1078210Y291741D01*
X1075617D01*
X1075098Y291741D01*
X1073024D01*
X1071987Y291741D01*
X1068876D01*
X1067839Y291741D01*
X1065765D01*
X1064728Y291741D01*
X1061617D01*
X1060579Y291741D01*
X1057468D01*
X1056431Y291741D01*
X1053320D01*
X1052283Y291741D01*
X1048135D01*
X1047097Y291741D01*
X1041912D01*
X1040875Y291741D01*
X1033615D01*
X1032578Y291741D01*
X1013911D01*
X1011804Y291741D01*
X1008644Y291741D01*
X1005484Y291741D01*
X1003904Y291740D01*
X1000745Y291740D01*
X997585Y291739D01*
X994425Y291738D01*
X992845Y291738D01*
X989685Y291737D01*
X988105Y291736D01*
X984945Y291735D01*
X981785Y291733D01*
X980205Y291733D01*
X977045Y291731D01*
X973885Y291729D01*
X970725Y291728D01*
X967565Y291726D01*
X965985Y291725D01*
X963352Y291723D01*
X960192Y291721D01*
X959139Y291720D01*
X958085Y291719D01*
X957032Y291718D01*
X955979Y291717D01*
X954926Y291717D01*
X953872Y291716D01*
X952819Y291715D01*
X951766Y291714D01*
X950712Y291713D01*
X949659Y291712D01*
X948606Y291712D01*
X947552Y291711D01*
X946499Y291710D01*
X943339Y291707D01*
X940179Y291704D01*
X937020Y291701D01*
X934913Y291699D01*
X930700Y291695D01*
X928593Y291693D01*
X924380Y291689D01*
X921220Y291686D01*
X917007Y291681D01*
X912794Y291677D01*
X908580Y291672D01*
X908054Y291671D01*
X907001Y291670D01*
X906474Y291670D01*
X905947Y291669D01*
X905421Y291668D01*
X904894Y291668D01*
X903840Y291667D01*
X903314Y291666D01*
X898047Y291660D01*
X897521Y291659D01*
X896468Y291658D01*
X895941Y291658D01*
X894888Y291656D01*
X893834Y291655D01*
X893308Y291654D01*
X892781Y291654D01*
X892254Y291653D01*
X890674Y291651D01*
X890148Y291651D01*
X884355Y291644D01*
X883828Y291643D01*
X882248Y291641D01*
X881721Y291640D01*
X880668Y291639D01*
X880141Y291639D01*
X879088Y291637D01*
X878561Y291637D01*
X878035Y291636D01*
X877508Y291635D01*
X876982Y291635D01*
X876455Y291634D01*
X875928Y291633D01*
X875402Y291633D01*
X874875Y291632D01*
X873822Y291631D01*
X873295Y291630D01*
X872242Y291629D01*
X871715Y291628D01*
X870662Y291627D01*
X870135Y291626D01*
X868555Y291624D01*
X868029Y291623D01*
X866449Y291621D01*
X865922Y291621D01*
X863816Y291618D01*
X863289Y291618D01*
X860656Y291614D01*
X860129Y291614D01*
X857496Y291610D01*
X856969Y291610D01*
X854089Y291606D01*
X853612Y292350D01*
X853492Y292805D01*
X855980Y295294D01*
Y301606D01*
X852122Y305465D01*
Y343505D01*
X856305Y347689D01*
Y354001D01*
X851841Y358465D01*
X845529D01*
X841065Y354001D01*
Y347689D01*
X845248Y343505D01*
Y306070D01*
X845204D01*
X840740Y301606D01*
Y295294D01*
X843171Y292863D01*
X842817Y291794D01*
X842646Y291592D01*
X840643Y291590D01*
X839590Y291588D01*
X839063Y291588D01*
X838537Y291587D01*
X838010Y291586D01*
X836430Y291584D01*
X835903Y291584D01*
X832744Y291580D01*
X831690Y291579D01*
X831164Y291578D01*
X829792Y291576D01*
X829306Y292749D01*
X831850Y295294D01*
Y301606D01*
X827386Y306070D01*
X826979D01*
Y372703D01*
X828153Y373189D01*
X831176Y370166D01*
X831176Y370166D01*
X833120Y369361D01*
X887521D01*
Y340578D01*
X887521Y340578D01*
X888326Y338634D01*
X889814Y337146D01*
X889814Y337146D01*
X891758Y336341D01*
X891758Y336341D01*
X921613D01*
X925214Y332740D01*
X925621D01*
Y299938D01*
X925621Y299938D01*
X926426Y297994D01*
X927914Y296506D01*
X927914Y296506D01*
X929858Y295701D01*
X929858Y295701D01*
X1359952D01*
X1359952Y295701D01*
X1361896Y296506D01*
X1364654Y299264D01*
X1364654Y299264D01*
X1365459Y301208D01*
X1365459Y301208D01*
Y883920D01*
X1365866D01*
X1370330Y888384D01*
Y894696D01*
X1365866Y899160D01*
X1359554D01*
X1355090Y894696D01*
Y888384D01*
X1359554Y883920D01*
X1359961D01*
Y302347D01*
X1358813Y301199D01*
X1332005D01*
X1331753Y302469D01*
X1332686Y302856D01*
X1334174Y304344D01*
X1334174Y304344D01*
X1334979Y306288D01*
X1334979Y306288D01*
Y967740D01*
X1334174Y969684D01*
X1332230Y970489D01*
X1216025D01*
Y973481D01*
X1209701Y979805D01*
X1200759D01*
X1194435Y973481D01*
Y964539D01*
X1200759Y958215D01*
X1209701D01*
X1216025Y964539D01*
Y964991D01*
X1329481D01*
Y307549D01*
X1264865D01*
X1264379Y308723D01*
X1266190Y310534D01*
Y316846D01*
X1261726Y321310D01*
X1255414D01*
X1251230Y317127D01*
X1089505D01*
X1089287Y317345D01*
Y352752D01*
Y373660D01*
X1093470Y377844D01*
Y384156D01*
X1089006Y388620D01*
X1082694D01*
X1078230Y384156D01*
Y378791D01*
X1076960Y378538D01*
X1076699Y379169D01*
X1071900Y381157D01*
X1067101Y379169D01*
X1065113Y374370D01*
Y363370D01*
X1067101Y358571D01*
X1068463Y358007D01*
Y353957D01*
X1006830D01*
X1002646Y358140D01*
X1002516Y358454D01*
X1005550Y361488D01*
Y366252D01*
X1002182Y369620D01*
X997418D01*
X994050Y366252D01*
Y361488D01*
X996646Y358893D01*
X996334Y358140D01*
X991870Y353676D01*
Y347364D01*
X996334Y342900D01*
X1002646D01*
X1006830Y347083D01*
X1068463D01*
Y336433D01*
X1067101Y335869D01*
X1065113Y331070D01*
Y323070D01*
X1067101Y318271D01*
X1071900Y316283D01*
X1076699Y318271D01*
X1078687Y323070D01*
Y331070D01*
X1076699Y335869D01*
X1075337Y336433D01*
Y347083D01*
X1082413D01*
Y315922D01*
X1083420Y313492D01*
X1085652Y311260D01*
X1088082Y310253D01*
X1251230D01*
X1252761Y308723D01*
X1252275Y307549D01*
X946359D01*
Y331601D01*
X948768Y334010D01*
X953116D01*
X957580Y338474D01*
Y338881D01*
X959902D01*
X959902Y338881D01*
X961846Y339686D01*
X963334Y341174D01*
X963334Y341174D01*
X964139Y343118D01*
X964139Y343118D01*
Y378242D01*
X964139Y378242D01*
X963334Y380186D01*
X963334Y380186D01*
X961846Y381674D01*
X959902Y382479D01*
X959902Y382479D01*
X906649D01*
X893484Y395644D01*
X891540Y396449D01*
X891540Y396449D01*
X819150D01*
X819150Y396449D01*
X817206Y395644D01*
X817206Y395644D01*
X805311Y383749D01*
X681990D01*
Y384156D01*
X677526Y388620D01*
X671214D01*
X666750Y384156D01*
Y377844D01*
X671214Y373380D01*
X677526D01*
X681990Y377844D01*
Y378251D01*
X806450D01*
X806450Y378251D01*
X808394Y379056D01*
X820289Y390951D01*
X890401D01*
X903566Y377786D01*
X903566Y377786D01*
X905510Y376981D01*
X958641D01*
Y345291D01*
X957371Y344996D01*
X953116Y349250D01*
X946804D01*
X942340Y344786D01*
Y338474D01*
X943898Y336916D01*
X941666Y334684D01*
X940861Y332740D01*
X940861Y332740D01*
Y306288D01*
X940861Y306288D01*
X941666Y304344D01*
X943154Y302856D01*
X943154Y302856D01*
X944126Y302453D01*
X943835Y301199D01*
X931119D01*
Y332740D01*
X931526D01*
X935990Y337204D01*
Y343516D01*
X931526Y347980D01*
X925214D01*
X920750Y343516D01*
Y341839D01*
X893019D01*
Y370622D01*
X893019Y370622D01*
X892214Y372566D01*
X892214Y372566D01*
X890726Y374054D01*
X888782Y374859D01*
X888782Y374859D01*
X834259D01*
X829766Y379352D01*
X827822Y380157D01*
X827822Y380157D01*
X825718D01*
X825718Y380157D01*
X823774Y379352D01*
X823774Y379352D01*
X822286Y377864D01*
X821481Y375920D01*
X821481Y375920D01*
Y306070D01*
X821074D01*
X816610Y301606D01*
Y295294D01*
X819070Y292834D01*
X818545Y291563D01*
X817471Y291562D01*
X816945Y291561D01*
X815365Y291559D01*
X814838Y291559D01*
X813785Y291558D01*
X813258Y291557D01*
X812731Y291556D01*
X811678Y291555D01*
X811151Y291555D01*
X805885Y291549D01*
X802725Y291545D01*
X798512Y291541D01*
X797459Y291540D01*
X796406Y291539D01*
X795352Y291538D01*
X794299Y291537D01*
X791139Y291533D01*
X787980Y291530D01*
X784820Y291527D01*
X781660Y291524D01*
X779553Y291522D01*
X778500Y291521D01*
X777447Y291520D01*
X776394Y291519D01*
X775340Y291518D01*
X773234Y291517D01*
X771127Y291515D01*
X767967Y291512D01*
X765861Y291511D01*
X763754Y291509D01*
X760595Y291507D01*
X758488Y291505D01*
X756382Y291504D01*
X754275Y291502D01*
X751115Y291500D01*
X749535Y291499D01*
X747955Y291498D01*
X746376Y291497D01*
X744796Y291496D01*
X743216Y291496D01*
X741636Y291495D01*
X740056Y291494D01*
X738476Y291493D01*
X736896Y291492D01*
X735316Y291492D01*
X733736Y291491D01*
X732157Y291490D01*
X730577Y291490D01*
X728997Y291489D01*
X727417Y291489D01*
X725837Y291488D01*
X724257Y291488D01*
X722677Y291487D01*
X721097Y291487D01*
X719518Y291486D01*
X717938Y291486D01*
X716358Y291486D01*
X714778Y291486D01*
X713198Y291486D01*
X711618Y291485D01*
X710038Y291485D01*
X708458Y291485D01*
X706879Y291485D01*
X705299Y291485D01*
X703719Y291485D01*
X702139Y291485D01*
X700559Y291485D01*
X698453Y291485D01*
X696346Y291486D01*
X694240Y291486D01*
X692133Y291486D01*
X690027Y291487D01*
X687920Y291488D01*
X685814Y291488D01*
X683707Y291489D01*
X681601Y291490D01*
X679494Y291491D01*
X677388Y291492D01*
X675282Y291493D01*
X673175Y291494D01*
X671068Y291495D01*
X668962Y291497D01*
X666856Y291498D01*
X664749Y291500D01*
X662643Y291501D01*
X660536Y291503D01*
X658430Y291505D01*
X656323Y291507D01*
X654217Y291509D01*
X652110Y291511D01*
X650004Y291513D01*
X647897Y291515D01*
X645264Y291518D01*
X642631Y291521D01*
X639998Y291525D01*
X637365Y291528D01*
X634732Y291532D01*
X632099Y291535D01*
X629466Y291539D01*
X626833Y291544D01*
X624200Y291548D01*
X621567Y291552D01*
X618934Y291557D01*
X616301Y291562D01*
X613668Y291567D01*
X611035Y291572D01*
X608402Y291577D01*
X605769Y291583D01*
X603136Y291588D01*
X600503Y291594D01*
X597870Y291600D01*
X595237Y291607D01*
X592077Y291614D01*
X588917Y291623D01*
X585758Y291631D01*
X582598Y291639D01*
X579439Y291648D01*
X576279Y291658D01*
X573119Y291667D01*
X569960Y291677D01*
X566800Y291687D01*
X563641Y291697D01*
X560481Y291708D01*
X557321Y291719D01*
X557321Y291719D01*
X554162Y291730D01*
X551002Y291742D01*
X547842Y291754D01*
X544683Y291766D01*
X541523Y291779D01*
X537837Y291794D01*
X534151Y291810D01*
X530465Y291826D01*
X526779Y291843D01*
X523093Y291860D01*
X519407Y291877D01*
X515720Y291895D01*
X512034Y291914D01*
X508348Y291933D01*
X504662Y291952D01*
X500976Y291972D01*
X497290Y291993D01*
X493604Y292014D01*
X489917Y292036D01*
X487288Y292051D01*
X485146Y292073D01*
X483283Y292107D01*
X481424Y292156D01*
X479574Y292218D01*
X477730Y292294D01*
X475894Y292384D01*
X474065Y292488D01*
X472239Y292605D01*
X470428Y292737D01*
X468359Y292905D01*
X466302Y293091D01*
X464253Y293295D01*
X462215Y293517D01*
X460188Y293758D01*
X458165Y294017D01*
X456154Y294294D01*
X454154Y294590D01*
X451913Y294944D01*
X449683Y295322D01*
X447466Y295722D01*
X445261Y296146D01*
X442823Y296644D01*
X440401Y297170D01*
X437996Y297725D01*
X435365Y298368D01*
X432752Y299047D01*
X429922Y299826D01*
X426872Y300719D01*
X426471Y300840D01*
X425658Y301090D01*
X424847Y301343D01*
X424034Y301601D01*
X423632Y301731D01*
X423632Y301731D01*
X423200Y301870D01*
X422337Y302153D01*
X421477Y302439D01*
X420615Y302731D01*
X420185Y302879D01*
X420185D01*
X420185Y302879D01*
X419730Y303036D01*
X418816Y303356D01*
X417906Y303680D01*
X416996Y304009D01*
X416545Y304175D01*
X416545Y304175D01*
X416006Y304374D01*
X414938Y304775D01*
X413868Y305184D01*
X412807Y305598D01*
X411631Y306065D01*
X410355Y306583D01*
X409076Y307115D01*
X407808Y307653D01*
X407174Y307928D01*
X406268Y308321D01*
X404464Y309127D01*
X402669Y309954D01*
X400885Y310800D01*
X399997Y311233D01*
X396794Y312797D01*
X390521Y316182D01*
X384390Y319820D01*
X378413Y323705D01*
X375505Y325768D01*
X375505Y325768D01*
X375505Y325768D01*
X374938Y326170D01*
X373811Y326982D01*
X372691Y327803D01*
X371577Y328633D01*
X370563Y329401D01*
X369648Y330103D01*
X368740Y330809D01*
X367834Y331522D01*
X367006Y332184D01*
X366246Y332797D01*
X365490Y333414D01*
X364740Y334033D01*
X364364Y334346D01*
X364364Y334346D01*
X364011Y334640D01*
X363310Y335231D01*
X362610Y335826D01*
X361911Y336427D01*
X361573Y336721D01*
X359176Y338839D01*
X356808Y341004D01*
X354647Y343046D01*
X352687Y344955D01*
X350745Y346900D01*
X348998Y348699D01*
X347264Y350529D01*
X345549Y352387D01*
X344019Y354084D01*
X342501Y355806D01*
X340997Y357552D01*
X339505Y359324D01*
X338191Y360916D01*
X336889Y362526D01*
X335594Y364160D01*
X334312Y365809D01*
X333041Y367477D01*
X331779Y369166D01*
X330683Y370661D01*
X329596Y372168D01*
X328517Y373691D01*
X327447Y375227D01*
X326383Y376780D01*
X325331Y378343D01*
X324282Y379927D01*
X323244Y381523D01*
X322215Y383132D01*
X321193Y384757D01*
X320179Y386398D01*
X319175Y388051D01*
X318177Y389722D01*
X317330Y391163D01*
X316488Y392617D01*
X315651Y394082D01*
X314822Y395556D01*
X314001Y397037D01*
X313181Y398539D01*
X312372Y400043D01*
X311567Y401563D01*
X310769Y403089D01*
X309974Y404634D01*
X309190Y406181D01*
X308410Y407742D01*
X307636Y409316D01*
X306866Y410902D01*
X306107Y412493D01*
X305350Y414100D01*
X304602Y415715D01*
X303859Y417344D01*
X303123Y418980D01*
X302392Y420631D01*
X301669Y422290D01*
X300951Y423961D01*
X300241Y425640D01*
X299535Y427335D01*
X298837Y429038D01*
X298146Y430751D01*
X297459Y432477D01*
X296781Y434210D01*
X296106Y435963D01*
X295440Y437719D01*
X295220Y438305D01*
Y438305D01*
X294116Y441258D01*
X292053Y447215D01*
X290136Y453222D01*
X288368Y459274D01*
X287559Y462320D01*
Y462321D01*
X287016Y464364D01*
X285997Y468466D01*
X285045Y472585D01*
X284160Y476718D01*
X283752Y478793D01*
X283400Y480580D01*
X282745Y484165D01*
X282141Y487756D01*
X281586Y491358D01*
X281083Y494954D01*
X280630Y498546D01*
X280227Y502144D01*
X279873Y505747D01*
X279560Y509453D01*
X279293Y513261D01*
X279081Y517071D01*
X278922Y520886D01*
X278810Y525015D01*
X278762Y529457D01*
X278787Y533903D01*
X278885Y538345D01*
X278971Y540565D01*
X279166Y545613D01*
X279928Y555687D01*
X281062Y565727D01*
X282565Y575718D01*
X284437Y585647D01*
X286673Y595500D01*
X289272Y605264D01*
X292229Y614925D01*
X293885Y619697D01*
X294296Y620878D01*
X295139Y623233D01*
X296004Y625579D01*
X296892Y627921D01*
X297346Y629086D01*
X297346Y629086D01*
X297723Y630051D01*
X298493Y631982D01*
X299277Y633900D01*
X300076Y635815D01*
X300828Y637578D01*
X301528Y639190D01*
X302238Y640794D01*
X302961Y642398D01*
X303327Y643196D01*
X303670Y643943D01*
X304367Y645437D01*
X305071Y646922D01*
X305787Y648409D01*
X306149Y649148D01*
X306488Y649840D01*
X307171Y651214D01*
X307864Y652586D01*
X308567Y653960D01*
X308922Y654642D01*
X309253Y655279D01*
X309919Y656542D01*
X310593Y657804D01*
X311275Y659063D01*
X311619Y659690D01*
X311619Y659690D01*
X311939Y660273D01*
X312581Y661429D01*
X313229Y662581D01*
X313887Y663736D01*
X314216Y664307D01*
X314520Y664834D01*
X315134Y665887D01*
X315755Y666939D01*
X316376Y667981D01*
X317005Y669024D01*
X317639Y670063D01*
X318276Y671097D01*
X318919Y672128D01*
X319538Y673110D01*
X320135Y674049D01*
X320735Y674982D01*
X321341Y675914D01*
X321645Y676377D01*
X321645Y676377D01*
X321645Y676377D01*
X321951Y676844D01*
X322560Y677763D01*
X323176Y678683D01*
X323797Y679603D01*
X324103Y680050D01*
X326399Y683354D01*
X328742Y686605D01*
X331131Y689804D01*
X333570Y692956D01*
X335804Y695747D01*
X338078Y698498D01*
X340389Y701205D01*
X342738Y703869D01*
X345123Y706489D01*
X347545Y709063D01*
X350005Y711593D01*
X352500Y714076D01*
X355029Y716510D01*
X357596Y718898D01*
X360195Y721236D01*
X362830Y723526D01*
X365503Y725769D01*
X365833Y726040D01*
X366507Y726592D01*
X367184Y727139D01*
X367860Y727682D01*
X368201Y727953D01*
X368201Y727953D01*
X368201Y727953D01*
X368541Y728224D01*
X369224Y728762D01*
X369904Y729293D01*
X370595Y729827D01*
X370937Y730090D01*
X371282Y730355D01*
X371969Y730877D01*
X372662Y731398D01*
X373357Y731916D01*
X373705Y732173D01*
X374054Y732431D01*
X374753Y732943D01*
X375450Y733448D01*
X376155Y733955D01*
X376854Y734452D01*
X377563Y734952D01*
X378275Y735449D01*
X378979Y735935D01*
X379338Y736181D01*
X379339Y736181D01*
X379691Y736422D01*
X380410Y736909D01*
X381123Y737388D01*
X381845Y737868D01*
X382203Y738103D01*
X382203Y738103D01*
X382565Y738341D01*
X383283Y738809D01*
X384010Y739277D01*
X384736Y739740D01*
X385099Y739970D01*
X385099Y739970D01*
X385505Y740226D01*
X386316Y740732D01*
X387130Y741235D01*
X387945Y741732D01*
X388762Y742224D01*
X389582Y742713D01*
X390405Y743197D01*
X391231Y743678D01*
X392056Y744152D01*
X392891Y744626D01*
X393718Y745090D01*
X394557Y745555D01*
X395435Y746035D01*
X396356Y746531D01*
X397282Y747023D01*
X398213Y747512D01*
X399143Y747992D01*
X400080Y748469D01*
X401013Y748938D01*
X401952Y749402D01*
X402938Y749882D01*
X403973Y750377D01*
X405005Y750864D01*
X406041Y751343D01*
X407127Y751837D01*
X408256Y752342D01*
X409393Y752839D01*
X410531Y753328D01*
X411102Y753568D01*
X411102Y753568D01*
X411760Y753845D01*
X413085Y754390D01*
X414412Y754923D01*
X415743Y755444D01*
X416411Y755700D01*
X417214Y756006D01*
X418825Y756603D01*
X420445Y757185D01*
X422067Y757749D01*
X422882Y758023D01*
X422882D01*
X424018Y758405D01*
X426297Y759136D01*
X428587Y759834D01*
X430888Y760500D01*
X432044Y760817D01*
X434564Y761507D01*
X439646Y762729D01*
X444762Y763790D01*
X449910Y764690D01*
X452607Y765074D01*
X452608Y765075D01*
X452610Y765075D01*
X452786Y765100D01*
X452788Y765101D01*
X452790Y765101D01*
X452966Y765126D01*
X452967Y765127D01*
X452969Y765127D01*
X453145Y765153D01*
X453147Y765153D01*
X453148Y765153D01*
X453325Y765179D01*
X453326Y765180D01*
X453327Y765180D01*
X453504Y765206D01*
X453505Y765207D01*
X453507Y765207D01*
X453683Y765233D01*
X453684Y765234D01*
X453686Y765234D01*
X453862Y765261D01*
X453863Y765261D01*
X453864Y765261D01*
X454041Y765288D01*
X454042Y765289D01*
X454043Y765289D01*
X454220Y765316D01*
X454221Y765316D01*
X454222Y765316D01*
X454398Y765344D01*
X454399Y765344D01*
X454401Y765344D01*
X454577Y765372D01*
X454578Y765372D01*
X454579Y765372D01*
X454712Y765393D01*
X454712Y765394D01*
X454713Y765394D01*
X454845Y765415D01*
X454846Y765415D01*
X454847Y765415D01*
X454979Y765436D01*
X454980Y765436D01*
X454981Y765436D01*
X455113Y765458D01*
X455114Y765458D01*
X455115Y765458D01*
X455247Y765479D01*
X455247Y765480D01*
X455248Y765480D01*
X455380Y765501D01*
X455381Y765501D01*
X455382Y765501D01*
X455514Y765523D01*
X455515Y765523D01*
X455516Y765523D01*
X455648Y765545D01*
X455649Y765545D01*
X455650Y765545D01*
X455848Y765578D01*
X455849Y765578D01*
X455849Y765578D01*
X455982Y765600D01*
X455983Y765600D01*
X455983Y765600D01*
X456115Y765622D01*
X456116Y765622D01*
X456116Y765622D01*
X456249Y765645D01*
X456250Y765645D01*
X456250Y765645D01*
X456382Y765667D01*
X456383Y765667D01*
X456383D01*
X456515Y765689D01*
X456516Y765690D01*
X456517Y765690D01*
X456715Y765723D01*
X456716Y765723D01*
X456717Y765723D01*
X456893Y765753D01*
X456894Y765754D01*
X456895Y765754D01*
X457027Y765776D01*
X457027Y765776D01*
X457028D01*
X457160Y765799D01*
X457160Y765799D01*
X457161Y765799D01*
X457337Y765829D01*
X457338Y765830D01*
X457338Y765830D01*
X457471Y765853D01*
X457471Y765853D01*
X457471D01*
X457603Y765876D01*
X457604Y765876D01*
X457604D01*
X457736Y765899D01*
X457737Y765899D01*
X457737Y765899D01*
X457869Y765922D01*
X457870Y765922D01*
X457870D01*
X458002Y765945D01*
X458003Y765945D01*
X458003Y765945D01*
X458180Y765976D01*
X458180Y765976D01*
X458181D01*
X458401Y766015D01*
X458401Y766015D01*
X458402Y766015D01*
X458622Y766054D01*
X458623Y766054D01*
X458623Y766054D01*
X458799Y766085D01*
X458800Y766085D01*
X458800D01*
X459020Y766124D01*
X459021Y766124D01*
X459021D01*
X459175Y766152D01*
X459175Y766152D01*
X459176D01*
X459308Y766175D01*
X459308Y766175D01*
X459308D01*
X459440Y766199D01*
X459440Y766199D01*
X459440D01*
X459572Y766223D01*
X459573Y766223D01*
X459573D01*
X459705Y766246D01*
X459705Y766246D01*
X459705D01*
X459837Y766270D01*
X459838Y766270D01*
X459838D01*
X460146Y766325D01*
X460146Y766325D01*
X460147D01*
X460279Y766349D01*
X460279Y766349D01*
X460279D01*
X460411Y766373D01*
X460411D01*
X460543Y766396D01*
X460543Y766396D01*
X460543D01*
X460675Y766420D01*
X460676Y766420D01*
X460830Y766448D01*
X460830Y766448D01*
X460830D01*
X461093Y766495D01*
X461094Y766495D01*
X461094D01*
X461511Y766571D01*
X461644Y766594D01*
X461644Y766594D01*
X461644D01*
X461776Y766618D01*
X462303Y766713D01*
X462435Y766736D01*
X462435Y766736D01*
X462763Y766795D01*
X463027Y766842D01*
X463159Y766866D01*
X463289Y766889D01*
X463290D01*
X463466Y766920D01*
X463466Y766920D01*
X463597Y766944D01*
X463728Y766967D01*
X463728D01*
X463991Y767013D01*
X463992Y767013D01*
X464121Y767036D01*
X464254Y767059D01*
X464428Y767090D01*
X464559Y767113D01*
X464691Y767136D01*
X464866Y767166D01*
X464996Y767189D01*
X465171Y767219D01*
X465303Y767242D01*
X465476Y767271D01*
X465608Y767294D01*
X465762Y767320D01*
X465891Y767342D01*
X466023Y767364D01*
X466153Y767386D01*
X466153D01*
X466284Y767408D01*
X466415Y767430D01*
X466546Y767451D01*
X466676Y767473D01*
X466808Y767495D01*
X467005Y767527D01*
X467135Y767548D01*
X467264Y767569D01*
X467394Y767590D01*
X467526Y767611D01*
X467655Y767632D01*
X467853Y767663D01*
X468005Y767687D01*
X468177Y767714D01*
X468353Y767741D01*
X468524Y767768D01*
X468524D01*
X468700Y767795D01*
X468872Y767821D01*
X468872D01*
X469045Y767847D01*
X469222Y767873D01*
X469222Y767873D01*
X469392Y767898D01*
X469392D01*
X469566Y767924D01*
X469743Y767949D01*
X469913Y767973D01*
X470088Y767998D01*
X470285Y768026D01*
X470501Y768055D01*
X470716Y768084D01*
X470930Y768113D01*
X471151Y768142D01*
X471363Y768170D01*
X471584Y768198D01*
X471584Y768198D01*
X471795Y768224D01*
X472016Y768251D01*
X472228Y768277D01*
X472446Y768303D01*
X472575Y768318D01*
X472707Y768333D01*
X472836Y768347D01*
X472963Y768361D01*
X473095Y768376D01*
X473224Y768390D01*
X473351Y768403D01*
X473482Y768417D01*
X473610Y768430D01*
X473740Y768444D01*
X473870Y768457D01*
X474001Y768470D01*
X474131Y768482D01*
X474131Y768482D01*
X474256Y768494D01*
X474431Y768511D01*
X474581Y768524D01*
X474581Y768524D01*
X474731Y768538D01*
X475324Y768593D01*
X475324Y768593D01*
X475325Y768593D01*
X475617Y768620D01*
X475617Y768620D01*
X475617Y768620D01*
X475908Y768647D01*
X475908Y768647D01*
X475909Y768647D01*
X476196Y768674D01*
X476197Y768674D01*
X476197Y768674D01*
X476340Y768687D01*
X476340Y768687D01*
X476483Y768700D01*
X476483Y768700D01*
X476483Y768700D01*
X476625Y768713D01*
X476625Y768713D01*
X476626Y768713D01*
X476767Y768727D01*
X476767Y768727D01*
X476908Y768740D01*
X476908Y768740D01*
X476908Y768740D01*
X477049Y768753D01*
X477049Y768753D01*
X477049Y768753D01*
X477189Y768766D01*
X477189Y768766D01*
X477189Y768766D01*
X477328Y768779D01*
X477328Y768779D01*
X477467Y768792D01*
X477467Y768792D01*
X477467Y768792D01*
X477605Y768805D01*
X477606Y768805D01*
X477606Y768805D01*
X477743Y768818D01*
X477743Y768818D01*
X477880Y768831D01*
X477880Y768831D01*
X477881Y768831D01*
X478017Y768844D01*
X478017Y768844D01*
X478018Y768844D01*
X478288Y768870D01*
X478289Y768870D01*
X478289Y768870D01*
X478424Y768883D01*
X478424Y768883D01*
X478424Y768883D01*
X478558Y768896D01*
X478558Y768896D01*
X478559Y768896D01*
X478692Y768909D01*
X478692Y768909D01*
X478692Y768909D01*
X478825Y768922D01*
X478825Y768922D01*
X478826Y768922D01*
X478958Y768935D01*
X478958Y768935D01*
X478959Y768935D01*
X479090Y768948D01*
X479091Y768948D01*
X479091Y768948D01*
X479222Y768960D01*
X479222Y768960D01*
X479223Y768960D01*
X479353Y768973D01*
X479353Y768973D01*
X479354Y768973D01*
X479484Y768986D01*
X479484Y768986D01*
X479485Y768986D01*
X479614Y768999D01*
X479614Y768999D01*
X479614Y768999D01*
X479743Y769012D01*
X479744Y769012D01*
X479744Y769012D01*
X479872Y769025D01*
X479873Y769025D01*
X479873Y769025D01*
X480001Y769038D01*
X480001Y769038D01*
X480002Y769038D01*
X480192Y769057D01*
X480193Y769057D01*
X480194Y769057D01*
X480383Y769076D01*
X480383Y769077D01*
X480384Y769077D01*
X480572Y769096D01*
X480573Y769096D01*
X480573Y769096D01*
X480760Y769115D01*
X480761Y769116D01*
X480762Y769115D01*
X480947Y769135D01*
X480948Y769135D01*
X480948Y769135D01*
X481132Y769154D01*
X481133Y769155D01*
X481134Y769154D01*
X481317Y769174D01*
X481318Y769174D01*
X481319Y769174D01*
X481500Y769193D01*
X481501Y769194D01*
X481502Y769194D01*
X481682Y769213D01*
X481683Y769213D01*
X481684Y769213D01*
X481863Y769233D01*
X481864Y769233D01*
X481865Y769233D01*
X482043Y769253D01*
X482044Y769253D01*
X482045Y769253D01*
X482222Y769273D01*
X482223Y769273D01*
X482224Y769273D01*
X482399Y769293D01*
X482401Y769293D01*
X482402Y769293D01*
X482575Y769313D01*
X482577Y769313D01*
X482578Y769313D01*
X482751Y769333D01*
X482752Y769333D01*
X482753Y769333D01*
X482925Y769353D01*
X482926Y769354D01*
X482927Y769354D01*
X483097Y769374D01*
X483099Y769374D01*
X483100Y769374D01*
X483269Y769394D01*
X483271Y769395D01*
X483273Y769395D01*
X483440Y769415D01*
X483441Y769415D01*
X483443Y769415D01*
X483609Y769436D01*
X483611Y769436D01*
X483613Y769436D01*
X483778Y769456D01*
X483779Y769457D01*
X483781Y769457D01*
X483945Y769477D01*
X483947Y769478D01*
X483949Y769478D01*
X484111Y769499D01*
X484113Y769499D01*
X484115Y769499D01*
X484276Y769520D01*
X484278Y769521D01*
X484280Y769520D01*
X484440Y769541D01*
X484442Y769542D01*
X484444Y769542D01*
X484603Y769563D01*
X484605Y769564D01*
X484607Y769564D01*
X484765Y769585D01*
X484767Y769586D01*
X484769Y769585D01*
X484925Y769607D01*
X484927Y769608D01*
X484930Y769607D01*
X485085Y769629D01*
X485087Y769630D01*
X485089Y769630D01*
X485243Y769651D01*
X485246Y769652D01*
X485248Y769652D01*
X485401Y769674D01*
X485403Y769675D01*
X485406Y769675D01*
X485557Y769697D01*
X485560Y769698D01*
X485562Y769697D01*
X485712Y769720D01*
X485715Y769721D01*
X485717Y769721D01*
X485867Y769743D01*
X485869Y769744D01*
X485872Y769744D01*
X486020Y769766D01*
X486023Y769767D01*
X486025Y769767D01*
X486172Y769790D01*
X486175Y769791D01*
X486177Y769791D01*
X486323Y769814D01*
X486326Y769815D01*
X486329Y769815D01*
X486474Y769838D01*
X486476Y769839D01*
X486479Y769839D01*
X486623Y769862D01*
X486625Y769863D01*
X486628Y769863D01*
X486770Y769887D01*
X486773Y769888D01*
X486777Y769888D01*
X486918Y769912D01*
X486921Y769913D01*
X486923Y769913D01*
X487063Y769937D01*
X487066Y769938D01*
X487070Y769938D01*
X487208Y769962D01*
X487212Y769964D01*
X487215Y769964D01*
X487353Y769988D01*
X487356Y769989D01*
X487359Y769989D01*
X487495Y770014D01*
X487499Y770015D01*
X487502Y770015D01*
X487638Y770040D01*
X487641Y770042D01*
X487644Y770042D01*
X487779Y770067D01*
X487782Y770068D01*
X487786Y770068D01*
X487919Y770094D01*
X487922Y770095D01*
X487926D01*
X488058Y770121D01*
X488061Y770123D01*
X488065D01*
X488196Y770149D01*
X488200Y770150D01*
X488203Y770150D01*
X488333Y770177D01*
X488337Y770178D01*
X488341Y770178D01*
X488470Y770205D01*
X488473Y770207D01*
X488477Y770207D01*
X488605Y770234D01*
X488609Y770235D01*
X488614Y770235D01*
X488782Y770272D01*
X488787Y770274D01*
X488793Y770274D01*
X488960Y770311D01*
X488965Y770314D01*
X488970Y770314D01*
X489135Y770351D01*
X489141Y770354D01*
X489147Y770354D01*
X489309Y770392D01*
X489314Y770395D01*
X489321Y770395D01*
X489481Y770433D01*
X489487Y770436D01*
X489494Y770437D01*
X489652Y770476D01*
X489658Y770479D01*
X489664Y770479D01*
X489821Y770519D01*
X489827Y770522D01*
X489834Y770522D01*
X489988Y770562D01*
X489995Y770566D01*
X490002Y770566D01*
X490155Y770607D01*
X490161Y770610D01*
X490168Y770611D01*
X490319Y770652D01*
X490326Y770656D01*
X490333Y770657D01*
X490482Y770699D01*
X490489Y770702D01*
X490496Y770703D01*
X490643Y770746D01*
X490650Y770750D01*
X490658Y770751D01*
X490803Y770794D01*
X490810Y770798D01*
X490819Y770799D01*
X490961Y770843D01*
X490969Y770847D01*
X490977Y770848D01*
X491118Y770893D01*
X491126Y770898D01*
X491135Y770899D01*
X491274Y770944D01*
X491282Y770949D01*
X491291Y770950D01*
X491428Y770996D01*
X491436Y771001D01*
X491445Y771002D01*
X491580Y771049D01*
X491588Y771054D01*
X491598Y771056D01*
X491731Y771104D01*
X491740Y771109D01*
X491749Y771110D01*
X491881Y771159D01*
X491889Y771164D01*
X491900Y771166D01*
X492029Y771215D01*
X492040Y771222D01*
X492053Y771225D01*
X492244Y771300D01*
X492258Y771309D01*
X492274Y771312D01*
X492460Y771390D01*
X492475Y771399D01*
X492491Y771403D01*
X492673Y771482D01*
X492688Y771492D01*
X492706Y771496D01*
X492884Y771577D01*
X492899Y771588D01*
X492916Y771592D01*
X493090Y771675D01*
X493106Y771687D01*
X493125Y771692D01*
X493295Y771777D01*
X493310Y771789D01*
X493329Y771795D01*
X493495Y771882D01*
X493511Y771895D01*
X493531Y771901D01*
X493693Y771990D01*
X493709Y772004D01*
X493730Y772011D01*
X493887Y772102D01*
X493904Y772116D01*
X493925Y772124D01*
X494078Y772217D01*
X494095Y772233D01*
X494117Y772241D01*
X494267Y772336D01*
X494284Y772353D01*
X494305Y772362D01*
X494451Y772459D01*
X494468Y772477D01*
X494491Y772486D01*
X494632Y772586D01*
X494650Y772604D01*
X494672Y772615D01*
X494810Y772717D01*
X494827Y772736D01*
X494850Y772747D01*
X494984Y772852D01*
X495003Y772874D01*
X495028Y772887D01*
X495179Y773012D01*
X495202Y773040D01*
X495233Y773058D01*
X495420Y773223D01*
X495443Y773254D01*
X495475Y773274D01*
X495624Y773416D01*
X495644Y773444D01*
X495672Y773463D01*
X495805Y773599D01*
X495823Y773626D01*
X495850Y773646D01*
X495972Y773778D01*
X495988Y773804D01*
X496012Y773823D01*
X496123Y773951D01*
X496139Y773978D01*
X496163Y773998D01*
X496272Y774131D01*
X496287Y774161D01*
X496313Y774183D01*
X496436Y774344D01*
X496452Y774377D01*
X496479Y774402D01*
X496596Y774568D01*
X496615Y774611D01*
X496648Y774645D01*
X496822Y774915D01*
X496838Y774956D01*
X496867Y774989D01*
X496953Y775136D01*
X496962Y775163D01*
X496981Y775185D01*
X497055Y775320D01*
X497063Y775345D01*
X497079Y775366D01*
X497148Y775500D01*
X497156Y775527D01*
X497172Y775548D01*
X497244Y775698D01*
X497251Y775725D01*
X497267Y775747D01*
X497336Y775900D01*
X497342Y775927D01*
X497357Y775950D01*
X497423Y776106D01*
X497428Y776132D01*
X497442Y776154D01*
X497504Y776313D01*
X497509Y776339D01*
X497522Y776362D01*
X497580Y776524D01*
X497584Y776550D01*
X497597Y776572D01*
X497652Y776738D01*
X497655Y776762D01*
X497667Y776784D01*
X497718Y776953D01*
X497721Y776977D01*
X497732Y776999D01*
X497780Y777171D01*
X497781Y777195D01*
X497792Y777216D01*
X497836Y777392D01*
X497838Y777415D01*
X497847Y777436D01*
X497889Y777615D01*
X497889Y777637D01*
X497898Y777657D01*
X497936Y777840D01*
X497936Y777861D01*
X497944Y777881D01*
X497979Y778067D01*
X497979Y778088D01*
X497986Y778108D01*
X498018Y778297D01*
X498018Y778314D01*
X498023Y778330D01*
X498042Y778458D01*
X498042Y778471D01*
X498046Y778484D01*
X498064Y778614D01*
X498063Y778626D01*
X498067Y778638D01*
X498084Y778770D01*
X498083Y778783D01*
X498087Y778795D01*
X498102Y778928D01*
X498101Y778940D01*
X498104Y778951D01*
X498118Y779086D01*
X498116Y779098D01*
X498120Y779110D01*
X498132Y779246D01*
X498131Y779257D01*
X498134Y779268D01*
X498145Y779407D01*
X498143Y779418D01*
X498146Y779429D01*
X498156Y779568D01*
X498154Y779579D01*
X498157Y779590D01*
X498165Y779731D01*
X498164Y779742D01*
X498166Y779753D01*
X498173Y779896D01*
X498171Y779906D01*
X498174Y779916D01*
X498179Y780061D01*
X498177Y780071D01*
X498180Y780081D01*
X498184Y780228D01*
X498182Y780237D01*
X498184Y780247D01*
X498186Y780395D01*
X498185Y780405D01*
X498187Y780414D01*
X498188Y780564D01*
X498186Y780575D01*
X498188Y780585D01*
X498187Y780775D01*
X498186Y780785D01*
X498187Y780795D01*
X498186Y780949D01*
X498184Y780958D01*
X498185Y780966D01*
X498182Y781123D01*
X498180Y781131D01*
X498182Y781139D01*
X498177Y781297D01*
X498176Y781305D01*
X498177Y781313D01*
X498171Y781473D01*
X498169Y781481D01*
X498170Y781489D01*
X498163Y781650D01*
X498161Y781658D01*
X498162Y781665D01*
X498154Y781829D01*
X498152Y781836D01*
X498153Y781843D01*
X498144Y782009D01*
X498142Y782016D01*
X498143Y782023D01*
X498132Y782190D01*
X498130Y782197D01*
X498131Y782204D01*
X498119Y782373D01*
X498117Y782379D01*
X498118Y782385D01*
X498108Y782513D01*
X498106Y782518D01*
X498107Y782523D01*
X498096Y782652D01*
X498095Y782657D01*
X498095Y782661D01*
X498084Y782792D01*
X498082Y782796D01*
X498083Y782802D01*
X498071Y782933D01*
X498069Y782937D01*
X498070Y782942D01*
X498057Y783074D01*
X498056Y783079D01*
X498056Y783083D01*
X498042Y783217D01*
X498041Y783221D01*
X498042Y783225D01*
X498027Y783360D01*
X498026Y783364D01*
X498026Y783369D01*
X498011Y783504D01*
X498010Y783508D01*
X498010Y783513D01*
X497995Y783650D01*
X497994Y783653D01*
X497994Y783657D01*
X497977Y783795D01*
X497976Y783799D01*
X497976Y783803D01*
X497959Y783942D01*
X497958Y783946D01*
X497958Y783950D01*
X497941Y784090D01*
X497939Y784094D01*
X497940Y784098D01*
X497921Y784239D01*
X497920Y784243D01*
X497920Y784247D01*
X497901Y784389D01*
X497900Y784393D01*
X497900Y784396D01*
X497880Y784540D01*
X497879Y784543D01*
X497879Y784547D01*
X497859Y784692D01*
X497858Y784695D01*
X497858Y784698D01*
X497837Y784844D01*
X497836Y784848D01*
X497836Y784851D01*
X497814Y784998D01*
X497813Y785002D01*
X497813Y785005D01*
X497790Y785153D01*
X497789Y785156D01*
X497789Y785160D01*
X497766Y785309D01*
X497765Y785312D01*
X497765Y785315D01*
X497742Y785466D01*
X497741Y785469D01*
X497741Y785472D01*
X497716Y785623D01*
X497715Y785626D01*
X497715Y785630D01*
X497690Y785782D01*
X497689Y785785D01*
X497689Y785788D01*
X497663Y785942D01*
X497662Y785945D01*
X497662Y785948D01*
X497636Y786104D01*
X497635Y786106D01*
X497635Y786109D01*
X497608Y786265D01*
X497607Y786268D01*
X497607Y786271D01*
X497579Y786429D01*
X497578Y786431D01*
X497578Y786434D01*
X497550Y786592D01*
X497549Y786595D01*
X497549Y786598D01*
X497520Y786758D01*
X497519Y786760D01*
X497519Y786763D01*
X497490Y786924D01*
X497489Y786927D01*
X497489Y786929D01*
X497458Y787092D01*
X497457Y787094D01*
X497457Y787097D01*
X497426Y787261D01*
X497426Y787263D01*
X497426Y787265D01*
X497394Y787430D01*
X497393Y787432D01*
X497393Y787435D01*
X497361Y787601D01*
X497360Y787603D01*
Y787605D01*
X497327Y787773D01*
X497327Y787775D01*
Y787777D01*
X497293Y787946D01*
X497292Y787948D01*
Y787950D01*
X497258Y788120D01*
X497257Y788122D01*
Y788124D01*
X497223Y788296D01*
X497222Y788298D01*
Y788299D01*
X497187Y788472D01*
X497186Y788474D01*
X497186Y788476D01*
X497150Y788650D01*
X497150Y788652D01*
X497150Y788654D01*
X497113Y788829D01*
X497112Y788831D01*
X497112Y788832D01*
X497075Y789009D01*
X497075Y789011D01*
X497075Y789012D01*
X497037Y789190D01*
X497036Y789192D01*
X497036Y789194D01*
X496998Y789373D01*
X496997Y789374D01*
X496997Y789376D01*
X496958Y789557D01*
X496958Y789558D01*
X496958Y789560D01*
X496918Y789741D01*
X496917Y789743D01*
X496917Y789744D01*
X496877Y789928D01*
X496877Y789929D01*
X496877Y789930D01*
X496836Y790115D01*
X496836Y790116D01*
X496835Y790118D01*
X496794Y790303D01*
X496794Y790305D01*
X496794Y790306D01*
X496752Y790493D01*
X496751Y790495D01*
X496751Y790496D01*
X496709Y790684D01*
X496708Y790686D01*
X496708Y790687D01*
X496665Y790877D01*
X496665Y790878D01*
X496665Y790879D01*
X496636Y791006D01*
X496636Y791007D01*
X496636Y791008D01*
X496606Y791135D01*
X496606Y791136D01*
X496606Y791137D01*
X496576Y791266D01*
X496576Y791267D01*
X496576Y791268D01*
X496546Y791397D01*
X496546Y791397D01*
X496546Y791398D01*
X496516Y791527D01*
X496516Y791528D01*
X496516Y791529D01*
X496485Y791659D01*
X496485Y791660D01*
X496485Y791661D01*
X496455Y791792D01*
X496454Y791793D01*
X496454Y791793D01*
X496423Y791925D01*
X496423Y791925D01*
X496423Y791926D01*
X496392Y792058D01*
X496392Y792059D01*
X496392Y792060D01*
X496361Y792192D01*
X496361Y792193D01*
X496361Y792193D01*
X496329Y792327D01*
X496329Y792327D01*
X496329Y792329D01*
X496297Y792462D01*
X496297Y792463D01*
X496297Y792464D01*
X496265Y792598D01*
X496264Y792598D01*
X496264Y792599D01*
X496232Y792734D01*
X496232Y792735D01*
X496232Y792736D01*
X496199Y792871D01*
X496199Y792872D01*
X496199Y792873D01*
X496166Y793009D01*
X496166Y793010D01*
X496166Y793010D01*
X496133Y793147D01*
X496133Y793148D01*
X496133Y793148D01*
X496100Y793286D01*
X496100Y793286D01*
X496100Y793287D01*
X496066Y793425D01*
X496066Y793426D01*
X496066Y793427D01*
X496032Y793565D01*
X496032Y793566D01*
X496032Y793567D01*
X495998Y793706D01*
X495998Y793707D01*
X495998Y793707D01*
X495964Y793847D01*
X495964Y793848D01*
X495964Y793848D01*
X495929Y793989D01*
X495929Y793989D01*
X495929Y793990D01*
X495894Y794132D01*
X495894Y794132D01*
X495894Y794132D01*
X495859Y794274D01*
X495859Y794275D01*
X495859Y794276D01*
X495824Y794418D01*
X495824Y794419D01*
X495824Y794419D01*
X495789Y794563D01*
X495788Y794563D01*
Y794563D01*
X495753Y794707D01*
X495753Y794707D01*
X495753Y794708D01*
X495717Y794853D01*
X495717Y794853D01*
X495717Y794854D01*
X495681Y794999D01*
X495681Y794999D01*
X495681Y795000D01*
X495644Y795146D01*
X495644Y795146D01*
Y795146D01*
X495608Y795293D01*
X495607Y795293D01*
X495607Y795294D01*
X495571Y795441D01*
X495571Y795441D01*
Y795442D01*
X495534Y795589D01*
X495534Y795590D01*
X495534Y795590D01*
X495497Y795739D01*
X495496Y795739D01*
X495496Y795739D01*
X495459Y795889D01*
X495459Y795889D01*
X495459Y795889D01*
X495421Y796039D01*
X495421Y796039D01*
X495421Y796040D01*
X495383Y796190D01*
X495383Y796190D01*
Y796191D01*
X495345Y796342D01*
X495345Y796342D01*
X495345Y796342D01*
X495307Y796494D01*
X495307Y796495D01*
X495307Y796495D01*
X495268Y796647D01*
X495268Y796648D01*
X495268Y796648D01*
X495229Y796801D01*
X495229Y796801D01*
Y796802D01*
X495190Y796955D01*
X495190Y796955D01*
Y796956D01*
X495151Y797110D01*
X495151Y797111D01*
X495151Y797111D01*
X495112Y797266D01*
X495112Y797266D01*
Y797266D01*
X495072Y797422D01*
X495072Y797422D01*
X495072Y797423D01*
X495032Y797579D01*
X495032Y797579D01*
X495032Y797580D01*
X494992Y797737D01*
X494992Y797737D01*
Y797737D01*
X494952Y797895D01*
X494952Y797895D01*
X494952Y797895D01*
X494911Y798054D01*
X494911Y798054D01*
Y798054D01*
X494871Y798213D01*
X494870Y798213D01*
Y798214D01*
X494830Y798373D01*
X494830Y798373D01*
X494830Y798374D01*
X494789Y798534D01*
X494789Y798534D01*
Y798535D01*
X494747Y798696D01*
X494747Y798696D01*
Y798696D01*
X494706Y798858D01*
X494706Y798858D01*
X494706Y798858D01*
X494622Y799184D01*
X494622Y799184D01*
X494622Y799185D01*
X494580Y799349D01*
X494580Y799349D01*
Y799349D01*
X494538Y799513D01*
X494538Y799513D01*
Y799514D01*
X494495Y799679D01*
X494495Y799679D01*
Y799679D01*
X494452Y799845D01*
X494452Y799845D01*
Y799845D01*
X494409Y800012D01*
X494409Y800012D01*
Y800012D01*
X494366Y800180D01*
X494366Y800180D01*
Y800180D01*
X494323Y800348D01*
X494323Y800348D01*
Y800348D01*
X494279Y800517D01*
X494279Y800517D01*
Y800517D01*
X494192Y800856D01*
X494192Y800857D01*
X494192Y800857D01*
X494103Y801199D01*
X494103Y801199D01*
Y801199D01*
X494014Y801544D01*
X494014Y801545D01*
X494014Y801545D01*
X493969Y801719D01*
X493969Y801719D01*
X493879Y802068D01*
X493879Y802068D01*
X493833Y802244D01*
X493833Y802244D01*
Y802244D01*
X493787Y802420D01*
X493787Y802421D01*
Y802421D01*
X493742Y802597D01*
Y802598D01*
X493696Y802775D01*
X493696Y802776D01*
X493696Y802776D01*
X493649Y802954D01*
X493603Y803133D01*
X493603Y803133D01*
Y803134D01*
X493556Y803314D01*
Y803314D01*
X493094Y805101D01*
X492201Y808675D01*
X491337Y812261D01*
X490502Y815853D01*
X489718Y819362D01*
X488982Y822784D01*
X488272Y826215D01*
X487591Y829650D01*
X486926Y833146D01*
X486279Y836711D01*
X485661Y840280D01*
X485074Y843851D01*
X484519Y847416D01*
X483996Y850965D01*
X483503Y854518D01*
X483040Y858078D01*
X482823Y859861D01*
X482823Y859861D01*
X482608Y861625D01*
X482207Y865162D01*
X481836Y868702D01*
X481495Y872242D01*
X481185Y875772D01*
X480905Y879291D01*
X480655Y882808D01*
X480435Y886331D01*
X480244Y889838D01*
X480084Y893335D01*
X479953Y896833D01*
X479852Y900329D01*
X479780Y903815D01*
X479738Y907287D01*
X479725Y910756D01*
X479741Y914229D01*
X479785Y917615D01*
X479855Y920915D01*
X479952Y924218D01*
X480075Y927516D01*
X480221Y930728D01*
X480388Y933863D01*
X480578Y936990D01*
X480794Y940119D01*
X480913Y941683D01*
X480913Y941683D01*
X481032Y943235D01*
X481294Y946338D01*
X481580Y949436D01*
X481891Y952539D01*
X482216Y955555D01*
X482555Y958486D01*
X482916Y961416D01*
X483299Y964346D01*
X483692Y967191D01*
X484095Y969961D01*
X484517Y972719D01*
X484960Y975482D01*
X485408Y978161D01*
X485862Y980762D01*
X486333Y983358D01*
X486823Y985953D01*
X487328Y988537D01*
X487850Y991112D01*
X488389Y993682D01*
X488945Y996244D01*
X489503Y998733D01*
X490060Y1001144D01*
X490633Y1003550D01*
X491221Y1005954D01*
X491523Y1007155D01*
X491824Y1008349D01*
X492440Y1010732D01*
X493071Y1013108D01*
X493720Y1015488D01*
X494362Y1017784D01*
X495000Y1020011D01*
X495651Y1022230D01*
X496315Y1024445D01*
X496991Y1026649D01*
X497682Y1028851D01*
X498384Y1031045D01*
X499101Y1033233D01*
X499807Y1035347D01*
X500503Y1037387D01*
X501212Y1039430D01*
X501932Y1041463D01*
X502298Y1042477D01*
X502662Y1043486D01*
X503404Y1045504D01*
X504157Y1047517D01*
X504922Y1049524D01*
X505699Y1051525D01*
X506484Y1053516D01*
X507282Y1055501D01*
X508091Y1057479D01*
X508502Y1058469D01*
X508502Y1058469D01*
X508885Y1059391D01*
X509664Y1061234D01*
X510451Y1063068D01*
X511250Y1064902D01*
X512058Y1066729D01*
X512872Y1068540D01*
X513699Y1070352D01*
X514536Y1072159D01*
X514959Y1073060D01*
X515381Y1073956D01*
X516235Y1075747D01*
X517099Y1077532D01*
X517974Y1079313D01*
X518858Y1081087D01*
X519751Y1082853D01*
X520651Y1084609D01*
X521564Y1086364D01*
X522024Y1087238D01*
X522025Y1087238D01*
X522484Y1088109D01*
X523414Y1089846D01*
X524351Y1091574D01*
X525302Y1093304D01*
X526228Y1094965D01*
X527127Y1096558D01*
X528039Y1098152D01*
X528957Y1099737D01*
X529882Y1101314D01*
X530816Y1102886D01*
X531757Y1104451D01*
X532707Y1106012D01*
X533664Y1107564D01*
X534628Y1109108D01*
X535603Y1110652D01*
X536585Y1112187D01*
X537573Y1113713D01*
X538569Y1115233D01*
X539572Y1116745D01*
X540587Y1118256D01*
X541096Y1119006D01*
X541606Y1119756D01*
X542632Y1121247D01*
X543669Y1122737D01*
X544710Y1124214D01*
X545237Y1124953D01*
X545763Y1125692D01*
X546818Y1127154D01*
X547885Y1128614D01*
X548960Y1130069D01*
X549499Y1130791D01*
X550040Y1131514D01*
X551127Y1132951D01*
X552222Y1134380D01*
X553327Y1135807D01*
X553883Y1136516D01*
X553883Y1136516D01*
X554475Y1137272D01*
X555677Y1138785D01*
X556883Y1140285D01*
X558100Y1141780D01*
X558713Y1142523D01*
X558713Y1142523D01*
X559324Y1143264D01*
X560558Y1144742D01*
X561798Y1146208D01*
X563049Y1147669D01*
X563679Y1148395D01*
X563679Y1148395D01*
X564308Y1149120D01*
X565573Y1150561D01*
X566849Y1151996D01*
X568132Y1153420D01*
X568779Y1154129D01*
X568779Y1154129D01*
X569423Y1154836D01*
X570722Y1156242D01*
X572033Y1157643D01*
X573349Y1159032D01*
X574012Y1159723D01*
X574012Y1159723D01*
X574719Y1160460D01*
X576138Y1161919D01*
X577572Y1163372D01*
X579013Y1164814D01*
X580510Y1166292D01*
X582061Y1167800D01*
X583623Y1169297D01*
X585193Y1170781D01*
X586777Y1172256D01*
X588369Y1173716D01*
X589970Y1175163D01*
X591585Y1176601D01*
X592398Y1177315D01*
X592398Y1177315D01*
X593256Y1178067D01*
X594986Y1179561D01*
X596729Y1181043D01*
X598480Y1182508D01*
X600343Y1184042D01*
X602317Y1185638D01*
X604304Y1187216D01*
X606307Y1188778D01*
X608421Y1190397D01*
X610657Y1192074D01*
X612904Y1193727D01*
X615170Y1195358D01*
X617713Y1197152D01*
X620538Y1199094D01*
X623388Y1201002D01*
X626260Y1202875D01*
X627707Y1203793D01*
X629749Y1205090D01*
X633879Y1207612D01*
X638050Y1210062D01*
X642264Y1212439D01*
X644392Y1213591D01*
X644392Y1213592D01*
X651329Y1217347D01*
X665607Y1224057D01*
X680243Y1229944D01*
X695191Y1234988D01*
X702797Y1237082D01*
X702797Y1237082D01*
X702797Y1237082D01*
X703752Y1237345D01*
X705663Y1237857D01*
X707583Y1238357D01*
X709501Y1238842D01*
X710463Y1239078D01*
X711358Y1239298D01*
X713151Y1239723D01*
X714952Y1240135D01*
X716749Y1240530D01*
X717654Y1240721D01*
X717654Y1240721D01*
X718690Y1240940D01*
X720769Y1241359D01*
X722852Y1241759D01*
X724937Y1242138D01*
X727394Y1242562D01*
X730226Y1243012D01*
X733065Y1243427D01*
X735905Y1243804D01*
X744609Y1244846D01*
X759252Y1245617D01*
X773913Y1245413D01*
D02*
G37*
%LPC*%
G36*
X705397Y1159740D02*
X696683D01*
X690520Y1153577D01*
Y1144863D01*
X696683Y1138700D01*
X705397D01*
X711560Y1144863D01*
Y1153577D01*
X705397Y1159740D01*
D02*
G37*
G36*
X719307Y1126150D02*
X710592D01*
X704430Y1119987D01*
Y1111273D01*
X710592Y1105110D01*
X719307D01*
X725470Y1111273D01*
Y1119987D01*
X719307Y1126150D01*
D02*
G37*
G36*
X1209701Y1030605D02*
X1200759D01*
X1194435Y1024281D01*
Y1015339D01*
X1194681Y1015093D01*
X1178184Y998596D01*
X1176976Y995680D01*
Y922456D01*
X1178184Y919540D01*
X1182430Y915294D01*
X1185346Y914086D01*
X1194435D01*
Y913739D01*
X1200759Y907415D01*
X1209701D01*
X1216025Y913739D01*
Y914086D01*
X1224676D01*
X1225236Y913526D01*
Y872094D01*
X1224676Y871534D01*
X1216025D01*
Y871881D01*
X1209701Y878205D01*
X1200759D01*
X1194435Y871881D01*
Y862939D01*
X1200759Y856615D01*
X1209701D01*
X1216025Y862939D01*
Y863286D01*
X1226384D01*
X1229300Y864494D01*
X1232276Y867470D01*
X1233484Y870386D01*
Y915234D01*
X1232276Y918150D01*
X1229300Y921126D01*
X1226384Y922334D01*
X1216025D01*
Y922681D01*
X1209701Y929005D01*
X1200759D01*
X1194435Y922681D01*
Y922334D01*
X1187054D01*
X1185224Y924164D01*
Y993972D01*
X1200513Y1009261D01*
X1200759Y1009015D01*
X1209701D01*
X1216025Y1015339D01*
Y1024281D01*
X1209701Y1030605D01*
D02*
G37*
G36*
X855371D02*
X846429D01*
X840105Y1024281D01*
Y1015339D01*
X846429Y1009015D01*
X855371D01*
X861695Y1015339D01*
Y1024281D01*
X855371Y1030605D01*
D02*
G37*
G36*
X1209701Y1005205D02*
X1200759D01*
X1194435Y998881D01*
Y989939D01*
X1200759Y983615D01*
X1209701D01*
X1216025Y989939D01*
Y998881D01*
X1209701Y1005205D01*
D02*
G37*
G36*
X855371D02*
X846429D01*
X840105Y998881D01*
Y989939D01*
X846429Y983615D01*
X855371D01*
X861695Y989939D01*
Y998881D01*
X855371Y1005205D01*
D02*
G37*
G36*
Y979805D02*
X846429D01*
X840105Y973481D01*
Y964539D01*
X846429Y958215D01*
X855371D01*
X861695Y964539D01*
Y973481D01*
X855371Y979805D01*
D02*
G37*
G36*
X1209701Y954405D02*
X1200759D01*
X1194435Y948081D01*
Y939139D01*
X1200759Y932815D01*
X1209701D01*
X1216025Y939139D01*
Y948081D01*
X1209701Y954405D01*
D02*
G37*
G36*
X855371D02*
X846429D01*
X840105Y948081D01*
Y939139D01*
X846429Y932815D01*
X855371D01*
X861695Y939139D01*
Y948081D01*
X855371Y954405D01*
D02*
G37*
G36*
Y929005D02*
X846429D01*
X840105Y922681D01*
Y913739D01*
X846429Y907415D01*
X855371D01*
X861695Y913739D01*
Y922681D01*
X855371Y929005D01*
D02*
G37*
G36*
X1123690Y948265D02*
X943690D01*
X942718Y947862D01*
X942315Y946890D01*
Y883890D01*
X942718Y882918D01*
X943690Y882515D01*
X1123690D01*
X1124662Y882918D01*
X1125065Y883890D01*
Y946890D01*
X1124662Y947862D01*
X1123690Y948265D01*
D02*
G37*
G36*
X1209701Y903605D02*
X1200759D01*
X1194435Y897281D01*
Y888339D01*
X1200759Y882015D01*
X1209701D01*
X1216025Y888339D01*
Y897281D01*
X1209701Y903605D01*
D02*
G37*
G36*
X855371D02*
X846429D01*
X840105Y897281D01*
Y888339D01*
X846429Y882015D01*
X855371D01*
X861695Y888339D01*
Y897281D01*
X855371Y903605D01*
D02*
G37*
G36*
Y878205D02*
X846429D01*
X840105Y871881D01*
Y862939D01*
X846429Y856615D01*
X855371D01*
X861695Y862939D01*
Y871881D01*
X855371Y878205D01*
D02*
G37*
G36*
X667366Y904240D02*
X661054D01*
X656590Y899776D01*
Y893464D01*
X660773Y889280D01*
Y872490D01*
X661780Y870060D01*
X667390Y864450D01*
X666794Y863250D01*
X661199D01*
X656940Y858991D01*
Y852969D01*
X661199Y848710D01*
X667221D01*
X671480Y852969D01*
Y858991D01*
X668140Y862331D01*
X668860Y863408D01*
X670560Y862703D01*
X684393D01*
X684879Y861530D01*
X682340Y858991D01*
Y852969D01*
X686599Y848710D01*
X692621D01*
X696880Y852969D01*
Y858991D01*
X694341Y861530D01*
X694827Y862703D01*
X735968D01*
X736454Y861530D01*
X735330Y860406D01*
Y854094D01*
X739794Y849630D01*
X746106D01*
X750570Y854094D01*
Y860406D01*
X746106Y864870D01*
X745988D01*
X745380Y866338D01*
X743148Y868570D01*
X740718Y869577D01*
X671983D01*
X667647Y873913D01*
Y889280D01*
X671830Y893464D01*
Y899776D01*
X667366Y904240D01*
D02*
G37*
G36*
X646080Y863250D02*
X631540D01*
Y848710D01*
X646080D01*
Y863250D01*
D02*
G37*
G36*
X1209701Y852805D02*
X1200759D01*
X1194435Y846481D01*
Y837539D01*
X1200759Y831215D01*
X1209701D01*
X1216025Y837539D01*
Y846481D01*
X1209701Y852805D01*
D02*
G37*
G36*
X855371D02*
X846429D01*
X840105Y846481D01*
Y837539D01*
X846429Y831215D01*
X855371D01*
X861695Y837539D01*
Y846481D01*
X855371Y852805D01*
D02*
G37*
G36*
X801986Y831850D02*
X795674D01*
X791490Y827667D01*
X762990D01*
X758806Y831850D01*
X752494D01*
X748030Y827386D01*
Y821074D01*
X752494Y816610D01*
X758806D01*
X762990Y820793D01*
X791490D01*
X795674Y816610D01*
X801986D01*
X806450Y821074D01*
Y827386D01*
X801986Y831850D01*
D02*
G37*
G36*
X1209701Y827405D02*
X1200759D01*
X1194435Y821081D01*
Y812139D01*
X1200759Y805815D01*
X1209701D01*
X1216025Y812139D01*
Y821081D01*
X1209701Y827405D01*
D02*
G37*
G36*
X855371D02*
X846429D01*
X840105Y821081D01*
Y812139D01*
X846429Y805815D01*
X855371D01*
X861695Y812139D01*
Y821081D01*
X855371Y827405D01*
D02*
G37*
G36*
X1209701Y802005D02*
X1200759D01*
X1194435Y795681D01*
Y786739D01*
X1200759Y780415D01*
X1209701D01*
X1216025Y786739D01*
Y795681D01*
X1209701Y802005D01*
D02*
G37*
G36*
X716896Y910590D02*
X710584D01*
X706120Y906126D01*
Y899814D01*
X710584Y895350D01*
X716896D01*
X721080Y899533D01*
X809145D01*
X809363Y899315D01*
Y793442D01*
X810370Y791012D01*
X812602Y788780D01*
X815032Y787773D01*
X840105D01*
Y786739D01*
X846429Y780415D01*
X855371D01*
X861695Y786739D01*
Y795681D01*
X855371Y802005D01*
X846429D01*
X840105Y795681D01*
Y794647D01*
X816455D01*
X816237Y794865D01*
Y900738D01*
X815230Y903168D01*
X812998Y905400D01*
X810568Y906407D01*
X721080D01*
X716896Y910590D01*
D02*
G37*
G36*
X1089006Y842010D02*
X1082694D01*
X1078230Y837546D01*
Y831234D01*
X1082413Y827050D01*
Y758035D01*
X1082195Y757817D01*
X1065250D01*
X1061066Y762000D01*
X1054754D01*
X1050290Y757536D01*
Y751224D01*
X1054754Y746760D01*
X1061066D01*
X1065250Y750943D01*
X1083618D01*
X1086048Y751950D01*
X1088280Y754182D01*
X1089287Y756612D01*
Y827050D01*
X1093470Y831234D01*
Y837546D01*
X1089006Y842010D01*
D02*
G37*
G36*
X1209701Y776605D02*
X1200759D01*
X1194435Y770281D01*
Y761339D01*
X1200759Y755015D01*
X1209701D01*
X1216025Y761339D01*
Y770281D01*
X1209701Y776605D01*
D02*
G37*
G36*
X855371D02*
X846429D01*
X840105Y770281D01*
Y761339D01*
X846429Y755015D01*
X855371D01*
X861695Y761339D01*
Y770281D01*
X855371Y776605D01*
D02*
G37*
G36*
X1317606Y955040D02*
X1311294D01*
X1306830Y950576D01*
Y944264D01*
X1311294Y939800D01*
X1312283D01*
Y743940D01*
X1309370Y741026D01*
Y734714D01*
X1313834Y730250D01*
X1320146D01*
X1324610Y734714D01*
Y741026D01*
X1320146Y745490D01*
X1319157D01*
Y941350D01*
X1322070Y944264D01*
Y950576D01*
X1317606Y955040D01*
D02*
G37*
G36*
X1209701Y751205D02*
X1200759D01*
X1194435Y744881D01*
Y735939D01*
X1200759Y729615D01*
X1209701D01*
X1216025Y735939D01*
Y744881D01*
X1209701Y751205D01*
D02*
G37*
G36*
X855371D02*
X846429D01*
X840105Y744881D01*
Y735939D01*
X846429Y729615D01*
X855371D01*
X861695Y735939D01*
Y744881D01*
X855371Y751205D01*
D02*
G37*
G36*
X1166476Y769620D02*
X1160164D01*
X1155700Y765156D01*
Y758844D01*
X1157926Y756618D01*
Y740712D01*
X1154430Y737216D01*
Y730904D01*
X1158894Y726440D01*
X1165206D01*
X1169670Y730904D01*
Y737216D01*
X1166174Y740712D01*
Y754380D01*
X1166476D01*
X1170940Y758844D01*
Y765156D01*
X1166476Y769620D01*
D02*
G37*
G36*
X1321416Y708660D02*
X1315104D01*
X1310920Y704477D01*
X1246860D01*
X1242676Y708660D01*
X1236364D01*
X1231900Y704196D01*
Y697884D01*
X1236364Y693420D01*
X1242676D01*
X1246860Y697603D01*
X1310920D01*
X1315104Y693420D01*
X1321416D01*
X1325880Y697884D01*
Y704196D01*
X1321416Y708660D01*
D02*
G37*
G36*
X1209701Y725805D02*
X1200759D01*
X1194435Y719481D01*
Y710539D01*
X1200759Y704215D01*
X1209701D01*
X1216025Y710539D01*
Y719481D01*
X1209701Y725805D01*
D02*
G37*
G36*
X855371D02*
X846429D01*
X840105Y719481D01*
Y710539D01*
X846429Y704215D01*
X855371D01*
X861695Y710539D01*
Y719481D01*
X855371Y725805D01*
D02*
G37*
G36*
X908993Y1019175D02*
X902681D01*
X898217Y1014711D01*
Y1008399D01*
X902400Y1004215D01*
Y742642D01*
X903407Y740212D01*
X905639Y737980D01*
X908069Y736973D01*
X1088545D01*
X1088763Y736755D01*
Y714730D01*
X1084580Y710546D01*
Y704234D01*
X1089044Y699770D01*
X1095356D01*
X1099820Y704234D01*
Y710546D01*
X1095637Y714730D01*
Y738178D01*
X1094630Y740608D01*
X1092398Y742840D01*
X1089968Y743847D01*
X909492D01*
X909273Y744065D01*
Y1004215D01*
X913457Y1008399D01*
Y1014711D01*
X908993Y1019175D01*
D02*
G37*
G36*
X1485105Y707290D02*
X1478875D01*
X1474470Y702885D01*
Y696655D01*
X1478875Y692250D01*
X1485105D01*
X1489510Y696655D01*
Y702885D01*
X1485105Y707290D01*
D02*
G37*
G36*
X1413510D02*
X1398470D01*
Y692250D01*
X1413510D01*
Y707290D01*
D02*
G37*
G36*
X441445Y711730D02*
X432315D01*
X425860Y705274D01*
Y696145D01*
X432315Y689690D01*
X441445D01*
X447900Y696145D01*
Y705274D01*
X441445Y711730D01*
D02*
G37*
G36*
X1209701Y700405D02*
X1200759D01*
X1194435Y694081D01*
Y685139D01*
X1200759Y678815D01*
X1209701D01*
X1216025Y685139D01*
Y694081D01*
X1209701Y700405D01*
D02*
G37*
G36*
X804526Y712470D02*
X798214D01*
X793750Y708006D01*
Y701694D01*
X798214Y697230D01*
X804130D01*
X815450Y685910D01*
X817880Y684903D01*
X840340D01*
X846429Y678815D01*
X855371D01*
X861695Y685139D01*
Y694081D01*
X855371Y700405D01*
X846429D01*
X840105Y694081D01*
Y691777D01*
X819304D01*
X808990Y702090D01*
Y708006D01*
X804526Y712470D01*
D02*
G37*
G36*
X978516Y730250D02*
X972204D01*
X967740Y725786D01*
Y719474D01*
X969383Y717830D01*
Y684250D01*
X965200Y680066D01*
Y673754D01*
X969664Y669290D01*
X975976D01*
X980440Y673754D01*
Y680066D01*
X976257Y684250D01*
Y715010D01*
X978516D01*
X982980Y719474D01*
Y725786D01*
X978516Y730250D01*
D02*
G37*
G36*
X1322686Y665480D02*
X1316374D01*
X1311910Y661016D01*
Y660609D01*
X1232118D01*
X1232118Y660609D01*
X1230174Y659804D01*
X1230174Y659804D01*
X1228686Y658316D01*
X1227881Y656372D01*
X1227881Y656372D01*
Y639019D01*
X1216025D01*
Y643281D01*
X1209701Y649605D01*
X1200759D01*
X1194435Y643281D01*
Y634339D01*
X1200759Y628015D01*
X1209701D01*
X1215207Y633521D01*
X1229142D01*
X1229142Y633521D01*
X1231086Y634326D01*
X1232574Y635814D01*
X1232574Y635814D01*
X1233379Y637758D01*
X1233379Y637758D01*
Y655111D01*
X1311910D01*
Y654704D01*
X1316374Y650240D01*
X1322686D01*
X1327150Y654704D01*
Y661016D01*
X1322686Y665480D01*
D02*
G37*
G36*
X1209701Y675005D02*
X1200759D01*
X1194435Y668681D01*
Y659739D01*
X1200759Y653415D01*
X1209701D01*
X1216025Y659739D01*
Y668681D01*
X1209701Y675005D01*
D02*
G37*
G36*
X855371D02*
X846429D01*
X840105Y668681D01*
Y659739D01*
X846429Y653415D01*
X855371D01*
X861695Y659739D01*
Y668681D01*
X855371Y675005D01*
D02*
G37*
G36*
Y649605D02*
X846429D01*
X840105Y643281D01*
Y634339D01*
X846429Y628015D01*
X855371D01*
X861695Y634339D01*
Y643281D01*
X855371Y649605D01*
D02*
G37*
G36*
X758806Y665480D02*
X752494D01*
X748030Y661016D01*
Y654704D01*
X752494Y650240D01*
X758806D01*
X762991Y654425D01*
X805025D01*
X808093Y651357D01*
Y642340D01*
X803910Y638156D01*
Y631844D01*
X808374Y627380D01*
X814686D01*
X819150Y631844D01*
Y638156D01*
X814967Y642340D01*
Y652780D01*
X813960Y655210D01*
X808878Y660292D01*
X806449Y661298D01*
X762988D01*
X758806Y665480D01*
D02*
G37*
G36*
X1044556Y628650D02*
X1038244D01*
X1034060Y624467D01*
X976322D01*
X976322Y624467D01*
X973892Y623460D01*
X957690Y607258D01*
X956683Y604828D01*
Y544675D01*
X956465Y544457D01*
X887335D01*
X884532Y547260D01*
X882102Y548267D01*
X812516D01*
X808332Y552450D01*
X802020D01*
X797556Y547986D01*
Y541674D01*
X802020Y537210D01*
X808332D01*
X812516Y541393D01*
X880678D01*
X883482Y538590D01*
X885912Y537583D01*
X957888D01*
X960318Y538590D01*
X962550Y540822D01*
X963557Y543252D01*
Y603405D01*
X977745Y617593D01*
X1034060D01*
X1038244Y613410D01*
X1044556D01*
X1049020Y617874D01*
Y624186D01*
X1044556Y628650D01*
D02*
G37*
G36*
X789286Y621030D02*
X782974D01*
X778790Y616847D01*
X699490D01*
X695306Y621030D01*
X688994D01*
X684530Y616566D01*
Y610254D01*
X688994Y605790D01*
X695306D01*
X699490Y609973D01*
X778790D01*
X782974Y605790D01*
X789286D01*
X793750Y610254D01*
Y616566D01*
X789286Y621030D01*
D02*
G37*
G36*
X1209701Y624205D02*
X1200759D01*
X1194435Y617881D01*
Y608939D01*
X1200759Y602615D01*
X1209701D01*
X1216025Y608939D01*
Y617881D01*
X1209701Y624205D01*
D02*
G37*
G36*
X855371D02*
X846429D01*
X840105Y617881D01*
Y608939D01*
X846429Y602615D01*
X855371D01*
X861695Y608939D01*
Y617881D01*
X855371Y624205D01*
D02*
G37*
G36*
X441755Y612236D02*
X432005D01*
X427302Y610288D01*
X425354Y605585D01*
Y595835D01*
X427302Y591132D01*
X432005Y589184D01*
X441755D01*
X446458Y591132D01*
X448406Y595835D01*
Y605585D01*
X446458Y610288D01*
X441755Y612236D01*
D02*
G37*
G36*
X1646536Y586740D02*
X1640224D01*
X1636040Y582557D01*
X1532610D01*
X1528426Y586740D01*
X1522114D01*
X1517650Y582276D01*
Y575964D01*
X1522114Y571500D01*
X1528426D01*
X1532610Y575683D01*
X1636040D01*
X1640224Y571500D01*
X1646536D01*
X1651000Y575964D01*
Y582276D01*
X1646536Y586740D01*
D02*
G37*
G36*
X1473816D02*
X1467504D01*
X1463320Y582557D01*
X1388792D01*
X1384608Y586740D01*
X1378295D01*
X1373832Y582276D01*
Y575964D01*
X1378295Y571500D01*
X1384608D01*
X1388792Y575683D01*
X1463320D01*
X1467504Y571500D01*
X1473816D01*
X1478280Y575964D01*
Y582276D01*
X1473816Y586740D01*
D02*
G37*
G36*
X1209701Y598805D02*
X1200759D01*
X1194435Y592481D01*
Y583539D01*
X1200759Y577215D01*
X1209701D01*
X1216025Y583539D01*
Y592481D01*
X1209701Y598805D01*
D02*
G37*
G36*
X855371D02*
X846429D01*
X840105Y592481D01*
Y583539D01*
X846429Y577215D01*
X855371D01*
X861695Y583539D01*
Y592481D01*
X855371Y598805D01*
D02*
G37*
G36*
X817226Y619760D02*
X810914D01*
X806450Y615296D01*
Y608984D01*
X810914Y604520D01*
X816830D01*
X823333Y598017D01*
Y596501D01*
X791872Y565040D01*
X788729Y561897D01*
X788016Y562610D01*
X781704D01*
X777240Y558146D01*
Y551834D01*
X781704Y547370D01*
X788016D01*
X792480Y551834D01*
Y555927D01*
X795726Y559173D01*
X840105D01*
Y558139D01*
X846429Y551815D01*
X855371D01*
X861695Y558139D01*
Y567081D01*
X855371Y573405D01*
X846429D01*
X840105Y567081D01*
Y566047D01*
X804258D01*
X803773Y567220D01*
X829200Y592648D01*
X830207Y595078D01*
Y599440D01*
X829200Y601870D01*
X821690Y609380D01*
Y615296D01*
X817226Y619760D01*
D02*
G37*
G36*
X1209701Y573405D02*
X1200759D01*
X1194435Y567081D01*
Y558139D01*
X1200759Y551815D01*
X1209701D01*
X1216025Y558139D01*
Y567081D01*
X1209701Y573405D01*
D02*
G37*
G36*
X1078846Y580390D02*
X1072534D01*
X1068070Y575926D01*
Y569614D01*
X1072534Y565150D01*
X1078846D01*
X1083310Y569614D01*
Y570931D01*
X1102515D01*
X1102733Y570713D01*
Y559790D01*
X1098550Y555606D01*
Y549294D01*
X1103014Y544830D01*
X1103386Y543932D01*
X1099820Y540366D01*
Y539959D01*
X1082040D01*
X1080096Y539154D01*
X1080096Y539154D01*
X1075324Y534382D01*
X1075036Y534670D01*
X1068724D01*
X1064260Y530206D01*
Y523894D01*
X1068724Y519430D01*
X1075036D01*
X1079500Y523894D01*
Y530206D01*
X1079212Y530494D01*
X1083179Y534461D01*
X1099820D01*
Y534054D01*
X1104284Y529590D01*
X1110596D01*
X1115060Y534054D01*
Y540366D01*
X1110596Y544830D01*
X1110224Y545728D01*
X1113790Y549294D01*
Y555606D01*
X1109607Y559790D01*
Y572136D01*
X1108600Y574566D01*
X1106368Y576798D01*
X1103938Y577804D01*
X1081432D01*
X1078846Y580390D01*
D02*
G37*
G36*
X978516Y576580D02*
X972204D01*
X967740Y572116D01*
Y566045D01*
X966843Y563880D01*
Y534515D01*
X966625Y534297D01*
X868680D01*
X866250Y533290D01*
X860907Y527947D01*
X834110D01*
X829926Y532130D01*
X823614D01*
X819150Y527666D01*
Y521354D01*
X823614Y516890D01*
X829926D01*
X834110Y521073D01*
X862330D01*
X864760Y522080D01*
X870104Y527423D01*
X968048D01*
X970478Y528430D01*
X972710Y530662D01*
X973717Y533092D01*
Y561340D01*
X978516D01*
X982980Y565804D01*
Y572116D01*
X978516Y576580D01*
D02*
G37*
G36*
X1061066Y715010D02*
X1054754D01*
X1050290Y710546D01*
Y704234D01*
X1054473Y700050D01*
Y638810D01*
X1055480Y636380D01*
X1116703Y575157D01*
Y462125D01*
X1110661Y456083D01*
X1067786D01*
X1067570Y457353D01*
X1071880Y461664D01*
Y467976D01*
X1067416Y472440D01*
X1061104D01*
X1056920Y468257D01*
X1033262D01*
X1029497Y472022D01*
X1027067Y473028D01*
X1015845D01*
X1015627Y473247D01*
Y501958D01*
X1014620Y504388D01*
X1012388Y506620D01*
X1009958Y507627D01*
X996670D01*
X993383Y510913D01*
X993909Y512183D01*
X1019178D01*
X1019664Y511010D01*
X1018540Y509886D01*
Y503574D01*
X1023004Y499110D01*
X1029316D01*
X1033780Y503574D01*
Y507831D01*
X1034953Y508317D01*
X1074530Y468740D01*
X1076960Y467733D01*
X1098830D01*
X1103014Y463550D01*
X1109326D01*
X1113790Y468014D01*
Y474326D01*
X1109326Y478790D01*
X1103014D01*
X1098830Y474607D01*
X1078383D01*
X1044990Y508000D01*
X1045516Y509270D01*
X1050906D01*
X1053389Y511752D01*
X1058425D01*
X1060450Y510913D01*
X1081319D01*
X1083749Y511920D01*
X1089092Y517263D01*
X1099975D01*
X1100193Y517045D01*
Y514070D01*
X1096010Y509886D01*
Y503574D01*
X1100474Y499110D01*
X1106786D01*
X1111250Y503574D01*
Y509886D01*
X1107067Y514070D01*
Y518468D01*
X1106060Y520898D01*
X1103828Y523130D01*
X1101398Y524137D01*
X1087669D01*
X1085239Y523130D01*
X1079895Y517787D01*
X1061637D01*
X1059611Y518626D01*
X1055370D01*
Y520046D01*
X1050906Y524510D01*
X1044594D01*
X1040130Y520046D01*
Y519582D01*
X1038860Y519330D01*
X1038047Y521293D01*
X1031128Y528212D01*
X1029860Y529480D01*
X1027430Y530487D01*
X1016990D01*
X1012806Y534670D01*
X1006494D01*
X1002030Y530206D01*
Y523894D01*
X1005597Y520327D01*
X1005071Y519057D01*
X992639D01*
X992113Y520327D01*
X995680Y523894D01*
Y530206D01*
X991216Y534670D01*
X984904D01*
X980440Y530206D01*
Y523894D01*
X984623Y519710D01*
Y517852D01*
X985630Y515422D01*
X987862Y513190D01*
X988127Y513080D01*
X987875Y511810D01*
X986174D01*
X981710Y507346D01*
Y501034D01*
X986174Y496570D01*
X992486D01*
X996670Y500753D01*
X1008535D01*
X1008753Y500535D01*
Y471824D01*
X1009760Y469394D01*
X1011992Y467162D01*
X1014422Y466155D01*
X1025643D01*
X1029408Y462390D01*
X1030575Y461907D01*
X1030323Y460637D01*
X997940D01*
X993756Y464820D01*
X987444D01*
X982980Y460356D01*
Y454044D01*
X987444Y449580D01*
X993756D01*
X997940Y453763D01*
X1030851D01*
X1034398Y450217D01*
X1036828Y449210D01*
X1112085D01*
X1114515Y450217D01*
X1122570Y458272D01*
X1123577Y460702D01*
Y474348D01*
X1124750Y474834D01*
X1127144Y472440D01*
X1133456D01*
X1137640Y476623D01*
X1159790D01*
X1163974Y472440D01*
X1170286D01*
X1174750Y476904D01*
Y483216D01*
X1170286Y487680D01*
X1163974D01*
X1159790Y483497D01*
X1137640D01*
X1133456Y487680D01*
X1127144D01*
X1124750Y485286D01*
X1123577Y485772D01*
Y517391D01*
X1124847Y517917D01*
X1128414Y514350D01*
X1134726D01*
X1139190Y518814D01*
Y525126D01*
X1136893Y527423D01*
X1137419Y528693D01*
X1204432D01*
X1206862Y529700D01*
X1210935Y533773D01*
X1234748D01*
X1237178Y534780D01*
X1239410Y537012D01*
X1240417Y539442D01*
Y552605D01*
X1240635Y552823D01*
X1303328D01*
X1305758Y553830D01*
X1307990Y556062D01*
X1308997Y558492D01*
Y572415D01*
X1312545Y575964D01*
Y582276D01*
X1308081Y586740D01*
X1301769D01*
X1297305Y582276D01*
Y575964D01*
X1301769Y571500D01*
X1302123D01*
Y559915D01*
X1301905Y559697D01*
X1239212D01*
X1236782Y558690D01*
X1234550Y556458D01*
X1233543Y554028D01*
Y540865D01*
X1233325Y540647D01*
X1209512D01*
X1207082Y539640D01*
X1203008Y535567D01*
X1179192D01*
X1178706Y536740D01*
X1181100Y539134D01*
Y545446D01*
X1176917Y549630D01*
Y601980D01*
X1176917Y601980D01*
X1175910Y604410D01*
X1150510Y629810D01*
X1148080Y630817D01*
X1094893D01*
X1093097Y632613D01*
Y670840D01*
X1097280Y675024D01*
Y681336D01*
X1092816Y685800D01*
X1086504D01*
X1082040Y681336D01*
Y675024D01*
X1086223Y670840D01*
Y631190D01*
X1087230Y628760D01*
X1091040Y624950D01*
X1093470Y623943D01*
X1146656D01*
X1170043Y600556D01*
Y549630D01*
X1165860Y545446D01*
Y539134D01*
X1168254Y536740D01*
X1167768Y535567D01*
X1135316D01*
X1132886Y534560D01*
X1130654Y532328D01*
X1129648Y529898D01*
Y529590D01*
X1128414D01*
X1124847Y526023D01*
X1123577Y526549D01*
Y576580D01*
X1122570Y579010D01*
X1061347Y640234D01*
Y700050D01*
X1065530Y704234D01*
Y710546D01*
X1061066Y715010D01*
D02*
G37*
G36*
X809606Y500380D02*
X803294D01*
X799110Y496197D01*
X709650D01*
X705466Y500380D01*
X699154D01*
X694690Y495916D01*
Y489604D01*
X699154Y485140D01*
X705466D01*
X709650Y489323D01*
X799110D01*
X803294Y485140D01*
X809606D01*
X814070Y489604D01*
Y495916D01*
X809606Y500380D01*
D02*
G37*
G36*
X885806Y524510D02*
X879494D01*
X875030Y520046D01*
Y513734D01*
X876229Y512534D01*
X875403Y510540D01*
Y475970D01*
X871220Y471786D01*
Y465474D01*
X875684Y461010D01*
X881996D01*
X886460Y465474D01*
Y471786D01*
X882277Y475970D01*
Y509117D01*
X882430Y509270D01*
X885806D01*
X890270Y513734D01*
Y520046D01*
X885806Y524510D01*
D02*
G37*
G36*
X960736Y523240D02*
X954424D01*
X949960Y518776D01*
Y512464D01*
X952153Y510271D01*
X951603Y508943D01*
Y445615D01*
X951385Y445397D01*
X821933D01*
X821690Y445497D01*
Y447656D01*
X817226Y452120D01*
X810914D01*
X806450Y447656D01*
Y441344D01*
X810914Y436880D01*
X817226D01*
X819419Y439073D01*
X820747Y438523D01*
X933951D01*
X934477Y437253D01*
X930910Y433686D01*
Y427374D01*
X935093Y423190D01*
Y421485D01*
X934875Y421267D01*
X917902D01*
X915472Y420260D01*
X913240Y418028D01*
X912233Y415598D01*
Y409930D01*
X908050Y405746D01*
Y399434D01*
X912514Y394970D01*
X918826D01*
X923290Y399434D01*
Y405746D01*
X919107Y409930D01*
Y414175D01*
X919325Y414393D01*
X936298D01*
X938728Y415400D01*
X940960Y417632D01*
X941967Y420062D01*
Y423190D01*
X945870Y427093D01*
X966778D01*
X969208Y428100D01*
X971440Y430332D01*
X972447Y432762D01*
Y457480D01*
X976630Y461664D01*
Y467976D01*
X972166Y472440D01*
X965854D01*
X961390Y467976D01*
Y461664D01*
X965573Y457480D01*
Y434185D01*
X965355Y433967D01*
X945870D01*
X942583Y437253D01*
X943109Y438523D01*
X952808D01*
X955238Y439530D01*
X957470Y441762D01*
X958477Y444192D01*
Y507757D01*
X958577Y508000D01*
X960736D01*
X965200Y512464D01*
Y518776D01*
X960736Y523240D01*
D02*
G37*
G36*
X1184256Y443230D02*
X1177944D01*
X1173480Y438766D01*
Y437777D01*
X1075410D01*
X1071226Y441960D01*
X1064914D01*
X1060450Y437496D01*
Y431184D01*
X1064914Y426720D01*
X1071226D01*
X1075410Y430903D01*
X1175030D01*
X1177944Y427990D01*
X1184256D01*
X1188720Y432454D01*
Y438766D01*
X1184256Y443230D01*
D02*
G37*
G36*
X989946Y426720D02*
X983634D01*
X979450Y422537D01*
X958570D01*
X955656Y425450D01*
X949344D01*
X944880Y420986D01*
Y414674D01*
X949344Y410210D01*
X955656D01*
X960120Y414674D01*
Y415663D01*
X979450D01*
X983634Y411480D01*
X989946D01*
X994410Y415944D01*
Y422256D01*
X989946Y426720D01*
D02*
G37*
G36*
X1241406Y416560D02*
X1235094D01*
X1230910Y412377D01*
X1212570D01*
X1208386Y416560D01*
X1202074D01*
X1197610Y412096D01*
Y405784D01*
X1202074Y401320D01*
X1208386D01*
X1212570Y405503D01*
X1230910D01*
X1235094Y401320D01*
X1241406D01*
X1245870Y405784D01*
Y412096D01*
X1241406Y416560D01*
D02*
G37*
G36*
X1167746Y417830D02*
X1161434D01*
X1156970Y413366D01*
Y409856D01*
X1156951Y409837D01*
X1070330D01*
X1066146Y414020D01*
X1059834D01*
X1055370Y409556D01*
Y403244D01*
X1059834Y398780D01*
X1066146D01*
X1070330Y402963D01*
X1158374D01*
X1160274Y403750D01*
X1161434Y402590D01*
X1167746D01*
X1172210Y407054D01*
Y413366D01*
X1167746Y417830D01*
D02*
G37*
G36*
X605136Y406400D02*
X598824D01*
X594640Y402217D01*
X542010D01*
X537826Y406400D01*
X531514D01*
X527050Y401936D01*
Y395624D01*
X531514Y391160D01*
X537826D01*
X542010Y395343D01*
X594640D01*
X598824Y391160D01*
X605136D01*
X609600Y395624D01*
Y401936D01*
X605136Y406400D01*
D02*
G37*
G36*
X1044556Y415290D02*
X1038244D01*
X1033780Y410826D01*
Y404514D01*
X1038244Y400050D01*
X1038651D01*
Y396449D01*
X1019810D01*
Y396856D01*
X1015346Y401320D01*
X1009034D01*
X1004570Y396856D01*
Y390544D01*
X1009034Y386080D01*
X1015346D01*
X1019810Y390544D01*
Y390951D01*
X1039912D01*
X1039912Y390951D01*
X1041856Y391756D01*
X1043344Y393244D01*
X1043344Y393244D01*
X1044149Y395188D01*
X1044149Y395188D01*
Y400050D01*
X1044556D01*
X1049020Y404514D01*
Y410826D01*
X1044556Y415290D01*
D02*
G37*
G36*
X1306176Y433070D02*
X1299864D01*
X1295400Y428606D01*
Y422294D01*
X1299583Y418110D01*
Y388465D01*
X1299365Y388247D01*
X1262100D01*
X1257916Y392430D01*
X1251604D01*
X1247140Y387966D01*
Y381654D01*
X1251604Y377190D01*
X1257916D01*
X1262100Y381373D01*
X1300788D01*
X1303218Y382380D01*
X1305450Y384612D01*
X1306457Y387042D01*
Y418110D01*
X1310640Y422294D01*
Y428606D01*
X1306176Y433070D01*
D02*
G37*
G36*
X1059982Y369620D02*
X1055218D01*
X1051850Y366252D01*
Y361488D01*
X1055218Y358120D01*
X1059982D01*
X1063350Y361488D01*
Y366252D01*
X1059982Y369620D01*
D02*
G37*
G36*
X1285612Y351981D02*
X1280228D01*
X1276420Y348173D01*
Y342788D01*
X1280228Y338980D01*
X1285612D01*
X1289420Y342788D01*
Y348173D01*
X1285612Y351981D01*
D02*
G37*
G36*
X1267612D02*
X1262228D01*
X1258420Y348173D01*
Y342788D01*
X1262228Y338980D01*
X1267612D01*
X1271420Y342788D01*
Y348173D01*
X1267612Y351981D01*
D02*
G37*
G36*
X792742Y349440D02*
X787358D01*
X783550Y345633D01*
Y340248D01*
X787358Y336441D01*
X792742D01*
X796550Y340248D01*
Y345633D01*
X792742Y349440D01*
D02*
G37*
G36*
X774742D02*
X769358D01*
X765550Y345633D01*
Y340248D01*
X769358Y336441D01*
X774742D01*
X778550Y340248D01*
Y345633D01*
X774742Y349440D01*
D02*
G37*
G36*
X1139806Y462280D02*
X1133494D01*
X1129030Y457816D01*
Y451504D01*
X1133494Y447040D01*
X1139806D01*
X1143355Y450588D01*
X1256030D01*
Y450234D01*
X1260213Y446050D01*
Y414174D01*
X1220580Y374540D01*
X1219573Y372110D01*
Y335125D01*
X1219355Y334907D01*
X1210030D01*
X1205846Y339090D01*
X1199534D01*
X1195070Y334626D01*
Y328314D01*
X1199534Y323850D01*
X1205846D01*
X1210030Y328033D01*
X1220778D01*
X1223208Y329040D01*
X1225440Y331272D01*
X1226447Y333702D01*
Y370686D01*
X1266080Y410320D01*
X1267087Y412750D01*
Y446050D01*
X1271270Y450234D01*
Y456546D01*
X1266806Y461010D01*
X1260494D01*
X1256945Y457462D01*
X1144270D01*
Y457816D01*
X1139806Y462280D01*
D02*
G37*
G36*
X1542667Y379730D02*
X1520573D01*
X1504950Y364107D01*
Y342013D01*
X1520573Y326390D01*
X1542667D01*
X1558290Y342013D01*
Y364107D01*
X1542667Y379730D01*
D02*
G37*
G36*
X469517Y375920D02*
X447423D01*
X431800Y360297D01*
Y338203D01*
X447423Y322580D01*
X469517D01*
X485140Y338203D01*
Y360297D01*
X469517Y375920D01*
D02*
G37*
G36*
X985500Y381157D02*
X980701Y379169D01*
X978713Y374370D01*
Y363370D01*
X980701Y358571D01*
X982063Y358007D01*
Y336433D01*
X980701Y335869D01*
X978713Y331070D01*
Y323070D01*
X980701Y318271D01*
X985500Y316283D01*
X990299Y318271D01*
X992287Y323070D01*
Y331070D01*
X990299Y335869D01*
X988937Y336433D01*
Y358007D01*
X990299Y358571D01*
X992287Y363370D01*
Y374370D01*
X990299Y379169D01*
X985500Y381157D01*
D02*
G37*
G36*
X810876Y356870D02*
X804564D01*
X800100Y352406D01*
Y346094D01*
X803648Y342545D01*
Y317500D01*
X803294D01*
X798830Y313036D01*
Y306724D01*
X803294Y302260D01*
X809606D01*
X814070Y306724D01*
Y313036D01*
X810522Y316585D01*
Y341630D01*
X810876D01*
X815340Y346094D01*
Y352406D01*
X810876Y356870D01*
D02*
G37*
%LPD*%
D18*
X1332230Y306288D02*
Y967740D01*
X1205230Y969010D02*
X1206500Y967740D01*
X1332230D01*
X1330742Y304800D02*
X1332230Y306288D01*
X945098Y304800D02*
X1330742D01*
X1205230Y638810D02*
X1207770Y636270D01*
X1229142D01*
X1230630Y637758D01*
Y656372D01*
X1232118Y657860D01*
X1319530D01*
X949960Y341630D02*
X959902D01*
X961390Y343118D01*
Y378242D01*
X959902Y379730D02*
X961390Y378242D01*
X905510Y379730D02*
X959902D01*
X891540Y393700D02*
X905510Y379730D01*
X819150Y393700D02*
X891540D01*
X806450Y381000D02*
X819150Y393700D01*
X674370Y381000D02*
X806450D01*
X928370Y299938D02*
Y340360D01*
X927100Y339090D02*
X928370Y340360D01*
X891758Y339090D02*
X927100D01*
X890270Y340578D02*
X891758Y339090D01*
X890270Y340578D02*
Y370622D01*
X888782Y372110D02*
X890270Y370622D01*
X833120Y372110D02*
X888782D01*
X827822Y377408D02*
X833120Y372110D01*
X825718Y377408D02*
X827822D01*
X824230Y375920D02*
X825718Y377408D01*
X824230Y298450D02*
Y375920D01*
X1071880Y527050D02*
X1082040Y537210D01*
X1107440D01*
X1359952Y298450D02*
X1362710Y301208D01*
Y891540D01*
X929858Y298450D02*
X1359952D01*
X928370Y299938D02*
X929858Y298450D01*
X943610Y306288D02*
X945098Y304800D01*
X943610Y306288D02*
Y332740D01*
X949960Y339090D01*
Y341630D01*
X1012190Y393700D02*
X1039912D01*
X1041400Y395188D02*
Y407670D01*
X1039912Y393700D02*
X1041400Y395188D01*
D19*
X826770Y595078D02*
Y599440D01*
X814070Y612140D02*
X826770Y599440D01*
X1239520Y701040D02*
X1318260D01*
X1106170Y552450D02*
Y572136D01*
X1077288Y574368D02*
X1103938D01*
X1106170Y572136D01*
X1075690Y572770D02*
X1077288Y574368D01*
X1026160Y506730D02*
Y513388D01*
X988060Y517852D02*
X990292Y515620D01*
X1023928D02*
X1026160Y513388D01*
X990292Y515620D02*
X1023928D01*
X988060Y517852D02*
Y527050D01*
X953770Y419100D02*
X986790D01*
X952500Y417830D02*
X953770Y419100D01*
X794303Y562610D02*
X826770Y595078D01*
X794303Y562610D02*
X850900D01*
X786683Y554990D02*
X794303Y562610D01*
X702310Y492760D02*
X806450D01*
X784860Y554990D02*
X786683D01*
X1315720Y739140D02*
Y946150D01*
Y739140D02*
X1316990Y737870D01*
X1314450Y947420D02*
X1315720Y946150D01*
X1250950Y981710D02*
Y1065838D01*
X1248718Y1068070D02*
X1250950Y1065838D01*
X1183640Y1068070D02*
X1248718D01*
X1181100Y1065530D02*
X1183640Y1068070D01*
X1181100Y1008269D02*
Y1065530D01*
X1129030Y956199D02*
X1181100Y1008269D01*
X948801Y956199D02*
X1129030D01*
X938530Y966470D02*
X948801Y956199D01*
X938530Y966470D02*
Y1013460D01*
X1085850Y756612D02*
Y834390D01*
X1083618Y754380D02*
X1085850Y756612D01*
X883920Y1068070D02*
X938530Y1013460D01*
X609292Y1068070D02*
X883920D01*
X607060Y1065838D02*
X609292Y1068070D01*
X607060Y665480D02*
Y1065838D01*
X592290Y650710D02*
X607060Y665480D01*
X436880Y650710D02*
X592290D01*
X534670Y398780D02*
X601980D01*
X755650Y824230D02*
X796290D01*
X810568Y902970D02*
X812800Y900738D01*
X713740Y902970D02*
X810568D01*
X812800Y793442D02*
Y900738D01*
Y793442D02*
X815032Y791210D01*
X850900D01*
X692150Y613410D02*
X786130D01*
X742950Y857250D02*
Y863908D01*
X740718Y866140D02*
X742950Y863908D01*
X670560Y866140D02*
X740718D01*
X664210Y872490D02*
X670560Y866140D01*
X664210Y872490D02*
Y896620D01*
X848685Y301315D02*
Y350845D01*
X848360Y300990D02*
X848685Y301315D01*
X633860Y1082040D02*
Y1101720D01*
X619950Y1115630D02*
X633860Y1101720D01*
X619950Y1115630D02*
X633860Y1129540D01*
Y1149220D01*
X1085850Y315922D02*
Y352752D01*
Y315922D02*
X1088082Y313690D01*
X1258570D01*
X1304925Y579120D02*
X1305560Y578485D01*
Y558492D02*
Y578485D01*
X1381452Y579120D02*
X1470660D01*
X1525270D02*
X1643380D01*
X1089660Y631190D02*
Y678180D01*
Y631190D02*
X1093470Y627380D01*
X1148080D01*
X1173480Y601980D01*
Y542290D02*
Y601980D01*
X1131570Y521970D02*
X1133084Y523484D01*
Y529898D01*
X1135316Y532130D02*
X1204432D01*
X1133084Y529898D02*
X1135316Y532130D01*
X1209512Y537210D02*
X1234748D01*
X1236980Y539442D02*
Y554028D01*
X1204432Y532130D02*
X1209512Y537210D01*
X1234748D02*
X1236980Y539442D01*
X1239212Y556260D02*
X1303328D01*
X1305560Y558492D01*
X1120140Y460702D02*
Y576580D01*
X1057910Y638810D02*
Y707390D01*
Y638810D02*
X1120140Y576580D01*
X1112085Y452647D02*
X1120140Y460702D01*
X1236980Y554028D02*
X1239212Y556260D01*
X1303020Y387042D02*
Y425450D01*
X1300788Y384810D02*
X1303020Y387042D01*
X1254760Y384810D02*
X1300788D01*
X1223010Y372110D02*
X1263650Y412750D01*
X1223010Y333702D02*
Y372110D01*
X1263650Y412750D02*
Y453390D01*
X1205230Y408940D02*
X1238250D01*
X1202690Y331470D02*
X1220778D01*
X1223010Y333702D01*
X1068070Y434340D02*
X1179830D01*
X1181100Y435610D01*
X1137285Y454025D02*
X1263015D01*
X1136650Y454660D02*
X1137285Y454025D01*
X1263015D02*
X1263650Y453390D01*
X1062990Y406400D02*
X1158374D01*
X1162184Y410210D02*
X1164590D01*
X1158374Y406400D02*
X1162184Y410210D01*
X1031838Y464820D02*
X1064260D01*
X1027067Y469592D02*
X1031838Y464820D01*
X1014422Y469592D02*
X1027067D01*
X1012190Y471824D02*
Y501958D01*
Y471824D02*
X1014422Y469592D01*
X1032274Y457200D02*
X1036828Y452647D01*
X990600Y457200D02*
X1032274D01*
X1036828Y452647D02*
X1112085D01*
X1035617Y512514D02*
X1076960Y471170D01*
X1106170D01*
X1035617Y512514D02*
Y518863D01*
X1009958Y504190D02*
X1012190Y501958D01*
X989330Y504190D02*
X1009958D01*
X1009650Y527050D02*
X1027430D01*
X1059611Y515189D02*
X1060450Y514350D01*
X1047750Y516890D02*
X1049451Y515189D01*
X1059611D01*
X1060450Y514350D02*
X1081319D01*
X1027430Y527050D02*
X1028699Y525782D01*
X1035617Y518863D01*
X970280Y563880D02*
X975360Y568960D01*
X970280Y533092D02*
Y563880D01*
X968048Y530860D02*
X970280Y533092D01*
X868680Y530860D02*
X968048D01*
X862330Y524510D02*
X868680Y530860D01*
X826770Y524510D02*
X862330D01*
X960120Y604828D02*
X976322Y621030D01*
X1041400D01*
X1081319Y514350D02*
X1087669Y520700D01*
X1101398D01*
X1103630Y518468D01*
Y506730D02*
Y518468D01*
X1130300Y480060D02*
X1167130D01*
X1085850Y352752D02*
Y381000D01*
X1071900Y350520D02*
X1083618D01*
X999490D02*
X1071900D01*
Y368870D01*
Y327070D02*
Y350520D01*
X1057910Y754380D02*
X1083618D01*
X985500Y327070D02*
Y368870D01*
X1083618Y350520D02*
X1085850Y352752D01*
X969010Y432762D02*
Y464820D01*
X960120Y543252D02*
Y604828D01*
X957888Y541020D02*
X960120Y543252D01*
X885912Y541020D02*
X957888D01*
X938530Y430530D02*
X966778D01*
X969010Y432762D01*
X801370Y704850D02*
X817880Y688340D01*
X849630D02*
X850900Y689610D01*
X817880Y688340D02*
X849630D01*
X938530Y420062D02*
Y430530D01*
X936298Y417830D02*
X938530Y420062D01*
X915670Y415598D02*
X917902Y417830D01*
X936298D01*
X915670Y406400D02*
Y415598D01*
X814070Y444500D02*
X815771Y442799D01*
X820747Y441960D02*
X952808D01*
X955040Y444192D01*
X819908Y442799D02*
X820747Y441960D01*
X815771Y442799D02*
X819908D01*
X955040Y444192D02*
Y508943D01*
X955879Y513919D02*
X957580Y515620D01*
X955879Y509782D02*
Y513919D01*
X955040Y508943D02*
X955879Y509782D01*
X972820Y720090D02*
X975360Y722630D01*
X972820Y676910D02*
Y720090D01*
X878840Y510540D02*
X881380Y513080D01*
X878840Y468630D02*
Y510540D01*
X1092200Y707390D02*
Y738178D01*
X1089968Y740410D02*
X1092200Y738178D01*
X908069Y740410D02*
X1089968D01*
X905837Y742642D02*
X908069Y740410D01*
X905837Y742642D02*
Y1011555D01*
X805176Y544830D02*
X882102D01*
X885912Y541020D01*
X755650Y657860D02*
X755651Y657861D01*
X806449D01*
X811530Y635000D02*
Y652780D01*
X806449Y657861D02*
X811530Y652780D01*
X806450Y309880D02*
X807085Y310515D01*
Y348615D01*
X807720Y349250D01*
D21*
X985500Y327070D02*
D03*
X1071900D02*
D03*
D22*
X985500Y368870D02*
D03*
X1071900D02*
D03*
D67*
X1481990Y699770D02*
D03*
D68*
X1405990D02*
D03*
D70*
X701040Y1082040D02*
D03*
X633860D02*
D03*
X701040Y1149220D02*
D03*
X714950Y1115630D02*
D03*
X619950D02*
D03*
D71*
X633860Y1149220D02*
D03*
D74*
X689610Y855980D02*
D03*
X664210D02*
D03*
D75*
X638810D02*
D03*
D78*
X1185346Y918210D02*
X1205230D01*
X1181100Y922456D02*
X1185346Y918210D01*
X1181100Y922456D02*
Y995680D01*
X1205230Y1019810D01*
Y918210D02*
X1226384D01*
X1229360Y915234D01*
Y870386D02*
Y915234D01*
X1226384Y867410D02*
X1229360Y870386D01*
X1205230Y867410D02*
X1226384D01*
X1162050Y734060D02*
Y760730D01*
X1163320Y762000D01*
D79*
X1282920Y345480D02*
D03*
X1264920D02*
D03*
X790050Y342940D02*
D03*
X772050D02*
D03*
D80*
X850900Y1019810D02*
D03*
Y562610D02*
D03*
X1205230Y1019810D02*
D03*
Y918210D02*
D03*
Y867410D02*
D03*
X850900Y689610D02*
D03*
Y994410D02*
D03*
Y842010D02*
D03*
X1205230Y740410D02*
D03*
Y791210D02*
D03*
X850900Y943610D02*
D03*
Y613410D02*
D03*
Y791210D02*
D03*
Y765810D02*
D03*
Y740410D02*
D03*
X1205230Y613410D02*
D03*
Y842010D02*
D03*
X850900Y715010D02*
D03*
Y588010D02*
D03*
X1205230Y765810D02*
D03*
Y715010D02*
D03*
X850900Y664210D02*
D03*
Y638810D02*
D03*
Y816610D02*
D03*
X1205230Y562610D02*
D03*
Y816610D02*
D03*
Y943610D02*
D03*
Y969010D02*
D03*
Y994410D02*
D03*
Y892810D02*
D03*
Y689610D02*
D03*
Y664210D02*
D03*
Y638810D02*
D03*
Y588010D02*
D03*
X850900Y969010D02*
D03*
Y918210D02*
D03*
Y892810D02*
D03*
Y867410D02*
D03*
D81*
X436880Y650710D02*
D03*
Y700710D02*
D03*
D82*
Y600710D02*
D03*
D83*
X814070Y612140D02*
D03*
X1318260Y701040D02*
D03*
X1239520D02*
D03*
X1106170Y552450D02*
D03*
X1075690Y572770D02*
D03*
X988060Y527050D02*
D03*
X1026160Y506730D02*
D03*
X986790Y419100D02*
D03*
X952500Y417830D02*
D03*
X806450Y492760D02*
D03*
X784860Y554990D02*
D03*
X702310Y492760D02*
D03*
X1316990Y737870D02*
D03*
X1250950Y981710D02*
D03*
X1314450Y947420D02*
D03*
X1085850Y834390D02*
D03*
X1319530Y657860D02*
D03*
X674370Y381000D02*
D03*
X601980Y398780D02*
D03*
X534670D02*
D03*
X824230Y298450D02*
D03*
X798830Y824230D02*
D03*
X755650D02*
D03*
X786130Y613410D02*
D03*
X692150D02*
D03*
X742950Y857250D02*
D03*
X664210Y896620D02*
D03*
X848360Y298450D02*
D03*
X713740Y902970D02*
D03*
X1258570Y313690D02*
D03*
X1304925Y579120D02*
D03*
X1381452D02*
D03*
X1470660D02*
D03*
X1643380D02*
D03*
X1525270D02*
D03*
X1089660Y678180D02*
D03*
X1173480Y542290D02*
D03*
X1131570Y521970D02*
D03*
X1303020Y425450D02*
D03*
X1254760Y384810D02*
D03*
X1238250Y408940D02*
D03*
X1205230D02*
D03*
X1202690Y331470D02*
D03*
X1181100Y435610D02*
D03*
X1068070Y434340D02*
D03*
X1062990Y406400D02*
D03*
X1164590Y410210D02*
D03*
X1064260Y464820D02*
D03*
X989330Y504190D02*
D03*
X1009650Y527050D02*
D03*
X1047750Y516890D02*
D03*
X975360Y568960D02*
D03*
X826770Y524510D02*
D03*
X1041400Y621030D02*
D03*
X1263650Y453390D02*
D03*
X1136650Y454660D02*
D03*
X1106170Y471170D02*
D03*
X1107440Y537210D02*
D03*
X1071880Y527050D02*
D03*
X1167130Y480060D02*
D03*
X1130300D02*
D03*
X1103630Y506730D02*
D03*
X1057910Y754380D02*
D03*
Y707390D02*
D03*
X990600Y457200D02*
D03*
X1362710Y891540D02*
D03*
X949960Y341630D02*
D03*
X928370Y340360D02*
D03*
X1085850Y381000D02*
D03*
X999490Y350520D02*
D03*
X1012190Y393700D02*
D03*
X969010Y464820D02*
D03*
X1041400Y407670D02*
D03*
X801370Y704850D02*
D03*
X938530Y430530D02*
D03*
X915670Y402590D02*
D03*
X975360Y722630D02*
D03*
X972820Y676910D02*
D03*
X882650Y516890D02*
D03*
X878840Y468630D02*
D03*
X848685Y350845D02*
D03*
X1162050Y734060D02*
D03*
X1163320Y762000D02*
D03*
X1092200Y707390D02*
D03*
X905837Y1011555D02*
D03*
X805176Y544830D02*
D03*
X755650Y657860D02*
D03*
X811530Y635000D02*
D03*
X957580Y515620D02*
D03*
X814070Y444500D02*
D03*
X806450Y309880D02*
D03*
X807720Y349250D02*
D03*
D84*
X458470D02*
D03*
X1531620Y353060D02*
D03*
X1036320Y986790D02*
D03*
D85*
X999800Y363870D02*
D03*
X1057600D02*
D03*
M02*
