M48
;Layer_Color=9474304
;FILE_FORMAT=4:4
METRIC,LZ
;TYPE=PLATED
T02F00S00C0.6500
T03F00S00C0.7000
T04F00S00C0.7112
T05F00S00C0.7500
T06F00S00C1.0200
T07F00S00C1.2000
T08F00S00C1.3000
T09F00S00C3.8100
;TYPE=NON_PLATED
T10F00S00C0.8000
%
T02
X009998Y0036387
X010576
T03
X0063881Y0085598
X0066421
X0068961
T04
X0067437Y00381
X0080772Y0034925
X0080645Y0030988
X0082423Y0029845
X0084836
X00848685Y00350845
X0092837Y0034036
X0094996Y0034163
X0099949Y0035052
X0101219Y003937
X0108585Y00381
X0120269Y0033147
X0125857Y0031369
X0125476Y0038481
X0164338Y0057912
X0152527
X0147066
X01381452
X01304925
X0131953Y0065786
X0131826Y0070104
X0131699Y0073787
X0123952Y0070104
X0126365Y0045339
X0130302Y0042545
X0123825Y0040894
X0120523
X0116459Y0041021
X011811Y0043561
X0116713Y0048006
X011303
X0113665Y0045466
X0110617Y0047117
X0110363Y0050673
X0110744Y0053721
X0110617Y0055245
X0107569Y0057277
X0107188Y0052705
X0104775Y0051689
X0102616Y0050673
X0100965Y0052705
X0098806
X0098933Y0050419
X0095758Y0051562
X0096901Y0046482
X009906Y004572
X0098679Y004191
X009525Y0041783
X0093853Y0043053
X0091567Y0040259
X0087884Y0046863
X0088265Y0051689
X0082677Y0052451
X00805176Y0054483
X0080645Y0049276
X0081407Y004445
Y0061214
X0081153Y00635
X0080137Y0070485
X0097536Y0072263
X0097282Y0067691
X0097536Y0056896
X010414Y0062103
X0105791Y0070739
X010922
X0108966Y0067818
X0105791Y0075438
X0116332Y00762
X0116205Y0073406
X0117348Y0054229
X0113157Y0052197
X0106426Y0046482
X0106807Y0043434
X0106299Y004064
X010414Y0040767
X0078486Y0055499
X0078613Y0061341
X0075565Y0065786
X0069215Y0061341
X0070231Y0049276
X0060198Y0039878
X0053467
X0066421Y0089662
X0071374Y0090297
X0074295Y0085725
X0075565Y0082423
X0079883
X00905837Y01011555
X0108585Y0083439
X0125095Y0098171
X0131445Y0094742
X0136271Y0089154
T05
X0140599Y0069977
X0148199
T06
X0120523Y0056261
Y0058801
Y0061341
Y0063881
Y0066421
Y0068961
Y0071501
Y0074041
Y0076581
Y0079121
X008509
Y0076581
Y0074041
Y0071501
Y0068961
Y0066421
Y0063881
Y0061341
Y0058801
Y0056261
Y0081661
Y0084201
Y0086741
Y0089281
Y0091821
Y0094361
Y0096901
Y0099441
Y0101981
X0120523
Y0099441
Y0096901
Y0094361
Y0091821
Y0089281
Y0086741
Y0084201
Y0081661
T07
X0063386Y0108204
X0061995Y0111563
X0063386Y0114922
X0070104
X0071495Y0111563
X0070104Y0108204
T08
X0043688Y0060071
Y0065071
Y0070071
T09
X0045847Y0034925
X0153162Y0035306
X0103632Y0098679
T10
X0077205Y0034294
X0079005
X0126492Y0034548
X0128292
M30
