G04*
G04 #@! TF.GenerationSoftware,Altium Limited,Altium Designer,25.5.2 (35)*
G04*
G04 Layer_Color=65535*
%FSLAX44Y44*%
%MOMM*%
G71*
G04*
G04 #@! TF.SameCoordinates,227BAF76-4A0D-4DC8-B4C5-2559F8F0295E*
G04*
G04*
G04 #@! TF.FilePolarity,Positive*
G04*
G01*
G75*
%ADD10C,0.2500*%
%ADD11C,0.3000*%
%ADD12C,0.2000*%
%ADD13C,0.6000*%
%ADD14C,0.1500*%
%ADD15C,0.1000*%
%ADD16C,0.1524*%
%ADD17C,0.1270*%
%ADD18C,0.2540*%
%ADD19C,0.3810*%
%ADD20C,0.0762*%
G36*
X822789Y1153829D02*
X823363D01*
Y1153747D01*
X823691D01*
Y1153665D01*
X824019D01*
Y1153583D01*
X824347D01*
Y1153501D01*
X824593D01*
Y1153419D01*
X824839D01*
Y1153337D01*
X825003D01*
Y1153255D01*
X825248D01*
Y1153173D01*
X825413D01*
Y1153091D01*
X825576D01*
Y1153009D01*
X825741D01*
Y1152927D01*
X825904D01*
Y1152845D01*
X825986D01*
Y1152763D01*
X826151D01*
Y1152681D01*
X826233D01*
Y1152599D01*
X826396D01*
Y1152517D01*
X826479D01*
Y1152435D01*
X826642D01*
Y1152353D01*
X826724D01*
Y1152271D01*
X826888D01*
Y1152189D01*
X826970D01*
Y1152107D01*
X827052D01*
Y1152025D01*
X827134D01*
Y1151943D01*
X827216D01*
Y1151861D01*
X827298D01*
Y1151779D01*
X827380D01*
Y1151697D01*
X827544D01*
Y1151615D01*
X827626D01*
Y1151533D01*
X827708D01*
Y1151451D01*
X827790D01*
Y1151287D01*
X827872D01*
Y1151205D01*
X827954D01*
Y1151123D01*
X828036D01*
Y1151041D01*
X828118D01*
Y1150959D01*
X828200D01*
Y1150877D01*
X828282D01*
Y1150713D01*
X828364D01*
Y1150631D01*
X828446D01*
Y1150549D01*
X828528D01*
Y1150385D01*
X828610D01*
Y1150303D01*
X828692D01*
Y1150139D01*
X828774D01*
Y1149975D01*
X828856D01*
Y1149893D01*
X828938D01*
Y1149729D01*
X829020D01*
Y1149565D01*
X829102D01*
Y1149401D01*
X829184D01*
Y1149237D01*
X829266D01*
Y1149073D01*
X829348D01*
Y1148827D01*
X829430D01*
Y1148663D01*
X829512D01*
Y1148417D01*
X829594D01*
Y1148171D01*
X829676D01*
Y1147843D01*
X829758D01*
Y1147433D01*
X829840D01*
Y1146859D01*
X829922D01*
Y1144973D01*
X829840D01*
Y1144399D01*
X829758D01*
Y1143989D01*
X829676D01*
Y1143661D01*
X829594D01*
Y1143415D01*
X829512D01*
Y1143169D01*
X829430D01*
Y1143006D01*
X829348D01*
Y1142759D01*
X829266D01*
Y1142596D01*
X829184D01*
Y1142431D01*
X829102D01*
Y1142268D01*
X829020D01*
Y1142104D01*
X828938D01*
Y1141940D01*
X828856D01*
Y1141858D01*
X828774D01*
Y1141694D01*
X828692D01*
Y1141530D01*
X828610D01*
Y1141448D01*
X828528D01*
Y1141366D01*
X828446D01*
Y1141202D01*
X828364D01*
Y1141120D01*
X828282D01*
Y1141038D01*
X828200D01*
Y1140874D01*
X828118D01*
Y1140792D01*
X828036D01*
Y1140710D01*
X827954D01*
Y1140628D01*
X827872D01*
Y1140546D01*
X827790D01*
Y1140464D01*
X827708D01*
Y1140382D01*
X827626D01*
Y1140300D01*
X827544D01*
Y1140218D01*
X827462D01*
Y1140136D01*
X827380D01*
Y1140054D01*
X827298D01*
Y1139972D01*
X827216D01*
Y1139890D01*
X827134D01*
Y1139808D01*
X827052D01*
Y1139726D01*
X826970D01*
Y1139644D01*
X826806D01*
Y1139562D01*
X826724D01*
Y1139480D01*
X826642D01*
Y1139398D01*
X826479D01*
Y1139316D01*
X826396D01*
Y1139234D01*
X826233D01*
Y1139152D01*
X826151D01*
Y1139070D01*
X825986D01*
Y1138988D01*
X825823D01*
Y1138906D01*
X825658D01*
Y1138824D01*
X825495D01*
Y1138742D01*
X825331D01*
Y1138660D01*
X825166D01*
Y1138578D01*
X825003D01*
Y1138496D01*
X824757D01*
Y1138414D01*
X824675D01*
Y1119719D01*
X824757D01*
Y1119555D01*
X824839D01*
Y1119391D01*
X824921D01*
Y1119227D01*
X825003D01*
Y1119145D01*
X825085D01*
Y1118981D01*
X825166D01*
Y1118817D01*
X825248D01*
Y1118653D01*
X825331D01*
Y1118571D01*
X825413D01*
Y1118407D01*
X825495D01*
Y1118243D01*
X825576D01*
Y1118161D01*
X825658D01*
Y1117997D01*
X825741D01*
Y1117833D01*
X825823D01*
Y1117669D01*
X825904D01*
Y1117587D01*
X825986D01*
Y1117423D01*
X826068D01*
Y1117259D01*
X826151D01*
Y1117095D01*
X826233D01*
Y1117013D01*
X826314D01*
Y1116849D01*
X826396D01*
Y1116685D01*
X826479D01*
Y1116521D01*
X826560D01*
Y1116439D01*
X826642D01*
Y1116275D01*
X826724D01*
Y1116111D01*
X826806D01*
Y1116029D01*
X826888D01*
Y1115865D01*
X826970D01*
Y1115701D01*
X827052D01*
Y1115537D01*
X827134D01*
Y1115455D01*
X827216D01*
Y1115291D01*
X827298D01*
Y1115127D01*
X827380D01*
Y1114963D01*
X827462D01*
Y1114881D01*
X827544D01*
Y1114717D01*
X827626D01*
Y1114553D01*
X827708D01*
Y1114472D01*
X827790D01*
Y1114307D01*
X827872D01*
Y1114144D01*
X827954D01*
Y1113979D01*
X828036D01*
Y1113816D01*
X828118D01*
Y1113734D01*
X828200D01*
Y1113569D01*
X828282D01*
Y1113406D01*
X828364D01*
Y1113324D01*
X828446D01*
Y1113159D01*
X828528D01*
Y1112996D01*
X828610D01*
Y1112832D01*
X828692D01*
Y1112750D01*
X828774D01*
Y1112586D01*
X828856D01*
Y1112422D01*
X828938D01*
Y1112258D01*
X829020D01*
Y1112176D01*
X829102D01*
Y1112012D01*
X829184D01*
Y1111848D01*
X829266D01*
Y1111766D01*
X829348D01*
Y1111602D01*
X829430D01*
Y1111438D01*
X829512D01*
Y1111274D01*
X829594D01*
Y1111192D01*
X829676D01*
Y1111028D01*
X829758D01*
Y1110864D01*
X829840D01*
Y1110700D01*
X829922D01*
Y1110618D01*
X830004D01*
Y1110454D01*
X830086D01*
Y1110290D01*
X830168D01*
Y1110126D01*
X830250D01*
Y1110044D01*
X830332D01*
Y1109880D01*
X830414D01*
Y1109716D01*
X830496D01*
Y1109634D01*
X830578D01*
Y1109470D01*
X830660D01*
Y1109306D01*
X830742D01*
Y1109142D01*
X830824D01*
Y1108978D01*
X830906D01*
Y1108896D01*
X830988D01*
Y1108732D01*
X831070D01*
Y1108568D01*
X831152D01*
Y1108486D01*
X831234D01*
Y1108322D01*
X831316D01*
Y1108158D01*
X831398D01*
Y1108076D01*
X831480D01*
Y1107912D01*
X831562D01*
Y1107748D01*
X831644D01*
Y1107584D01*
X831726D01*
Y1107420D01*
X831808D01*
Y1107338D01*
X831890D01*
Y1107174D01*
X831972D01*
Y1107010D01*
X832054D01*
Y1106928D01*
X832136D01*
Y1106764D01*
X832218D01*
Y1106600D01*
X832300D01*
Y1106436D01*
X832382D01*
Y1106354D01*
X832464D01*
Y1106190D01*
X832546D01*
Y1106026D01*
X832628D01*
Y1105862D01*
X832710D01*
Y1105780D01*
X832792D01*
Y1105616D01*
X832874D01*
Y1105452D01*
X832956D01*
Y1105288D01*
X833038D01*
Y1105206D01*
X833120D01*
Y1105042D01*
X833202D01*
Y1104878D01*
X833284D01*
Y1104796D01*
X833366D01*
Y1104632D01*
X833448D01*
Y1104468D01*
X833530D01*
Y1104304D01*
X833612D01*
Y1104222D01*
X833694D01*
Y1104058D01*
X833776D01*
Y1103894D01*
X833858D01*
Y1103730D01*
X833940D01*
Y1103648D01*
X834022D01*
Y1103484D01*
X834104D01*
Y1103320D01*
X834186D01*
Y1103238D01*
X834268D01*
Y1103074D01*
X834350D01*
Y1102910D01*
X834432D01*
Y1102746D01*
X834514D01*
Y1102664D01*
X834596D01*
Y1102500D01*
X834678D01*
Y1102336D01*
X834760D01*
Y1102172D01*
X834842D01*
Y1102090D01*
X834924D01*
Y1101926D01*
X835006D01*
Y1101762D01*
X835088D01*
Y1101598D01*
X835170D01*
Y1101516D01*
X835252D01*
Y1101352D01*
X835334D01*
Y1101188D01*
X835416D01*
Y1101024D01*
X835498D01*
Y1100942D01*
X835580D01*
Y1100778D01*
X835662D01*
Y1100614D01*
X835744D01*
Y1100532D01*
X835826D01*
Y1100368D01*
X835908D01*
Y1100204D01*
X835990D01*
Y1100041D01*
X836072D01*
Y1099958D01*
X836154D01*
Y1099794D01*
X836236D01*
Y1099631D01*
X836318D01*
Y1099466D01*
X836400D01*
Y1099385D01*
X836482D01*
Y1099221D01*
X836564D01*
Y1099057D01*
X836646D01*
Y1098893D01*
X836728D01*
Y1098811D01*
X836810D01*
Y1098647D01*
X836892D01*
Y1098483D01*
X836974D01*
Y1098401D01*
X837056D01*
Y1098237D01*
X837138D01*
Y1098073D01*
X837220D01*
Y1097909D01*
X837302D01*
Y1097827D01*
X837384D01*
Y1097663D01*
X837466D01*
Y1097499D01*
X837548D01*
Y1097335D01*
X837630D01*
Y1097253D01*
X837712D01*
Y1097089D01*
X837794D01*
Y1096925D01*
X837876D01*
Y1096843D01*
X837958D01*
Y1096679D01*
X838040D01*
Y1096515D01*
X838122D01*
Y1096351D01*
X838204D01*
Y1096269D01*
X838286D01*
Y1096105D01*
X838368D01*
Y1095941D01*
X838450D01*
Y1095777D01*
X838532D01*
Y1095695D01*
X838614D01*
Y1095531D01*
X838696D01*
Y1095367D01*
X838778D01*
Y1095203D01*
X838860D01*
Y1095121D01*
X838942D01*
Y1094957D01*
X839024D01*
Y1094793D01*
X839106D01*
Y1094629D01*
X839188D01*
Y1094547D01*
X839270D01*
Y1094383D01*
X839352D01*
Y1094219D01*
X839434D01*
Y1094055D01*
X839516D01*
Y1093973D01*
X839598D01*
Y1093809D01*
X839679D01*
Y1093645D01*
X839762D01*
Y1093563D01*
X839844D01*
Y1093399D01*
X839926D01*
Y1093235D01*
X840007D01*
Y1093071D01*
X840089D01*
Y1092989D01*
X840172D01*
Y1092825D01*
X840254D01*
Y1092661D01*
X840335D01*
Y1092497D01*
X840417D01*
Y1092415D01*
X840499D01*
Y1092251D01*
X840582D01*
Y1092087D01*
X840664D01*
Y1092005D01*
X840745D01*
Y1091841D01*
X840827D01*
Y1091677D01*
X840909D01*
Y1091513D01*
X840992D01*
Y1091349D01*
X841074D01*
Y1091267D01*
X841155D01*
Y1091103D01*
X841237D01*
Y1090939D01*
X841319D01*
Y1090775D01*
X841401D01*
Y1090611D01*
X841483D01*
Y1090365D01*
X841565D01*
Y1090201D01*
X841647D01*
Y1090037D01*
X841729D01*
Y1089791D01*
X841811D01*
Y1089545D01*
X841893D01*
Y1089299D01*
X841975D01*
Y1089053D01*
X842057D01*
Y1088725D01*
X842139D01*
Y1088397D01*
X842221D01*
Y1087905D01*
X842303D01*
Y1087167D01*
X842385D01*
Y1086347D01*
X842303D01*
Y1085692D01*
X842221D01*
Y1085282D01*
X842139D01*
Y1084954D01*
X842057D01*
Y1084708D01*
X841975D01*
Y1084462D01*
X841893D01*
Y1084216D01*
X841811D01*
Y1084052D01*
X841729D01*
Y1083888D01*
X841647D01*
Y1083724D01*
X841565D01*
Y1083560D01*
X841483D01*
Y1083396D01*
X841401D01*
Y1083314D01*
X841319D01*
Y1083150D01*
X841237D01*
Y1083068D01*
X841155D01*
Y1082904D01*
X841074D01*
Y1082822D01*
X840992D01*
Y1082740D01*
X840909D01*
Y1082658D01*
X840827D01*
Y1082494D01*
X840745D01*
Y1082412D01*
X840664D01*
Y1082330D01*
X840582D01*
Y1082248D01*
X840499D01*
Y1082166D01*
X840417D01*
Y1082084D01*
X840335D01*
Y1082002D01*
X840254D01*
Y1081920D01*
X840089D01*
Y1081838D01*
X840007D01*
Y1081756D01*
X839926D01*
Y1081674D01*
X839844D01*
Y1081592D01*
X839679D01*
Y1081510D01*
X839598D01*
Y1081428D01*
X839434D01*
Y1081346D01*
X839352D01*
Y1081264D01*
X839188D01*
Y1081182D01*
X839024D01*
Y1081100D01*
X838860D01*
Y1081018D01*
X838778D01*
Y1080936D01*
X838614D01*
Y1080854D01*
X838368D01*
Y1080772D01*
X838204D01*
Y1080690D01*
X837958D01*
Y1080608D01*
X837794D01*
Y1080526D01*
X837466D01*
Y1080444D01*
X837220D01*
Y1080362D01*
X836892D01*
Y1080280D01*
X836482D01*
Y1080198D01*
X835990D01*
Y1080116D01*
X835252D01*
Y1080034D01*
X786465D01*
Y1080116D01*
X786219D01*
Y1080198D01*
X785809D01*
Y1080280D01*
X785399D01*
Y1080362D01*
X784989D01*
Y1080444D01*
X784661D01*
Y1080526D01*
X784333D01*
Y1080608D01*
X784087D01*
Y1080690D01*
X783841D01*
Y1080772D01*
X783678D01*
Y1080854D01*
X783431D01*
Y1080936D01*
X783268D01*
Y1081018D01*
X783103D01*
Y1081100D01*
X782940D01*
Y1081182D01*
X782775D01*
Y1081264D01*
X782611D01*
Y1081346D01*
X782448D01*
Y1081428D01*
X782284D01*
Y1081510D01*
X782120D01*
Y1081592D01*
X781956D01*
Y1081674D01*
X781874D01*
Y1081756D01*
X781710D01*
Y1081838D01*
X781546D01*
Y1081920D01*
X781464D01*
Y1082002D01*
X781300D01*
Y1082084D01*
X781218D01*
Y1082166D01*
X781136D01*
Y1082248D01*
X780972D01*
Y1082330D01*
X780890D01*
Y1082412D01*
X780808D01*
Y1082494D01*
X780644D01*
Y1082576D01*
X780562D01*
Y1082658D01*
X780480D01*
Y1082740D01*
X780398D01*
Y1082822D01*
X780316D01*
Y1082904D01*
X780234D01*
Y1082986D01*
X780152D01*
Y1083068D01*
X780070D01*
Y1083150D01*
X779906D01*
Y1083232D01*
X779824D01*
Y1083314D01*
X779742D01*
Y1083396D01*
X779660D01*
Y1083478D01*
X779578D01*
Y1083642D01*
X779496D01*
Y1083724D01*
X779414D01*
Y1083806D01*
X779332D01*
Y1083888D01*
X779250D01*
Y1083970D01*
X779168D01*
Y1084052D01*
X779086D01*
Y1084216D01*
X779004D01*
Y1084298D01*
X778922D01*
Y1084380D01*
X778840D01*
Y1084544D01*
X778758D01*
Y1084625D01*
X778676D01*
Y1084708D01*
X778594D01*
Y1084872D01*
X778512D01*
Y1084954D01*
X778430D01*
Y1085117D01*
X778348D01*
Y1085200D01*
X778266D01*
Y1085363D01*
X778184D01*
Y1085527D01*
X778102D01*
Y1085692D01*
X778020D01*
Y1085855D01*
X777938D01*
Y1086019D01*
X777856D01*
Y1086183D01*
X777774D01*
Y1086347D01*
X777692D01*
Y1086511D01*
X777610D01*
Y1086675D01*
X777528D01*
Y1086921D01*
X777446D01*
Y1087085D01*
X777364D01*
Y1087331D01*
X777282D01*
Y1087659D01*
X777200D01*
Y1087905D01*
X777118D01*
Y1088233D01*
X777036D01*
Y1088643D01*
X776954D01*
Y1089135D01*
X776872D01*
Y1090037D01*
X776790D01*
Y1132674D01*
X776872D01*
Y1133084D01*
X776954D01*
Y1133330D01*
X777036D01*
Y1133494D01*
X777118D01*
Y1133576D01*
X777200D01*
Y1133740D01*
X777282D01*
Y1133822D01*
X777364D01*
Y1133904D01*
X777446D01*
Y1133986D01*
X777528D01*
Y1134068D01*
X777610D01*
Y1134150D01*
X777774D01*
Y1134232D01*
X777938D01*
Y1134314D01*
X778102D01*
Y1134396D01*
X778348D01*
Y1134478D01*
X796879D01*
Y1134396D01*
X797206D01*
Y1134314D01*
X797371D01*
Y1134232D01*
X797534D01*
Y1134150D01*
X797617D01*
Y1134068D01*
X797781D01*
Y1133986D01*
X797862D01*
Y1133904D01*
X797944D01*
Y1133822D01*
X798026D01*
Y1133658D01*
X798109D01*
Y1133576D01*
X798191D01*
Y1133412D01*
X798272D01*
Y1133248D01*
X798354D01*
Y1133084D01*
X798436D01*
Y1132428D01*
X798518D01*
Y1117259D01*
X798600D01*
Y1117423D01*
X798682D01*
Y1117505D01*
X798764D01*
Y1117669D01*
X798846D01*
Y1117833D01*
X798928D01*
Y1117997D01*
X799010D01*
Y1118161D01*
X799092D01*
Y1118243D01*
X799174D01*
Y1118407D01*
X799256D01*
Y1118571D01*
X799338D01*
Y1118735D01*
X799420D01*
Y1118817D01*
X799502D01*
Y1118981D01*
X799584D01*
Y1119145D01*
X799666D01*
Y1119309D01*
X799748D01*
Y1119473D01*
X799830D01*
Y1119555D01*
X799912D01*
Y1138496D01*
X799666D01*
Y1138578D01*
X799420D01*
Y1138660D01*
X799256D01*
Y1138742D01*
X799092D01*
Y1138824D01*
X798928D01*
Y1138906D01*
X798846D01*
Y1138988D01*
X798682D01*
Y1139070D01*
X798518D01*
Y1139152D01*
X798436D01*
Y1139234D01*
X798272D01*
Y1139316D01*
X798191D01*
Y1139398D01*
X798026D01*
Y1139480D01*
X797944D01*
Y1139562D01*
X797781D01*
Y1139644D01*
X797699D01*
Y1139726D01*
X797617D01*
Y1139808D01*
X797534D01*
Y1139890D01*
X797452D01*
Y1139972D01*
X797289D01*
Y1140054D01*
X797206D01*
Y1140136D01*
X797124D01*
Y1140218D01*
X797042D01*
Y1140300D01*
X796961D01*
Y1140382D01*
X796879D01*
Y1140464D01*
X796797D01*
Y1140628D01*
X796714D01*
Y1140710D01*
X796633D01*
Y1140792D01*
X796551D01*
Y1140874D01*
X796469D01*
Y1140956D01*
X796387D01*
Y1141038D01*
X796305D01*
Y1141202D01*
X796223D01*
Y1141284D01*
X796141D01*
Y1141448D01*
X796059D01*
Y1141530D01*
X795977D01*
Y1141694D01*
X795895D01*
Y1141776D01*
X795813D01*
Y1141940D01*
X795731D01*
Y1142104D01*
X795649D01*
Y1142186D01*
X795567D01*
Y1142349D01*
X795485D01*
Y1142514D01*
X795403D01*
Y1142678D01*
X795321D01*
Y1142924D01*
X795239D01*
Y1143087D01*
X795157D01*
Y1143334D01*
X795075D01*
Y1143579D01*
X794993D01*
Y1143907D01*
X794911D01*
Y1144235D01*
X794829D01*
Y1144727D01*
X794747D01*
Y1145465D01*
X794665D01*
Y1146367D01*
X794747D01*
Y1147187D01*
X794829D01*
Y1147597D01*
X794911D01*
Y1147925D01*
X794993D01*
Y1148253D01*
X795075D01*
Y1148499D01*
X795157D01*
Y1148745D01*
X795239D01*
Y1148909D01*
X795321D01*
Y1149155D01*
X795403D01*
Y1149319D01*
X795485D01*
Y1149483D01*
X795567D01*
Y1149647D01*
X795649D01*
Y1149811D01*
X795731D01*
Y1149893D01*
X795813D01*
Y1150057D01*
X795895D01*
Y1150221D01*
X795977D01*
Y1150303D01*
X796059D01*
Y1150467D01*
X796141D01*
Y1150549D01*
X796223D01*
Y1150713D01*
X796305D01*
Y1150795D01*
X796387D01*
Y1150877D01*
X796469D01*
Y1150959D01*
X796551D01*
Y1151123D01*
X796633D01*
Y1151205D01*
X796714D01*
Y1151287D01*
X796797D01*
Y1151369D01*
X796879D01*
Y1151451D01*
X796961D01*
Y1151533D01*
X797042D01*
Y1151615D01*
X797124D01*
Y1151697D01*
X797206D01*
Y1151779D01*
X797289D01*
Y1151861D01*
X797371D01*
Y1151943D01*
X797452D01*
Y1152025D01*
X797617D01*
Y1152107D01*
X797699D01*
Y1152189D01*
X797781D01*
Y1152271D01*
X797862D01*
Y1152353D01*
X798026D01*
Y1152435D01*
X798109D01*
Y1152517D01*
X798272D01*
Y1152599D01*
X798354D01*
Y1152681D01*
X798518D01*
Y1152763D01*
X798600D01*
Y1152845D01*
X798764D01*
Y1152927D01*
X798928D01*
Y1153009D01*
X799092D01*
Y1153091D01*
X799256D01*
Y1153173D01*
X799420D01*
Y1153255D01*
X799584D01*
Y1153337D01*
X799830D01*
Y1153419D01*
X800076D01*
Y1153501D01*
X800322D01*
Y1153583D01*
X800568D01*
Y1153665D01*
X800896D01*
Y1153747D01*
X801306D01*
Y1153829D01*
X801880D01*
Y1153911D01*
X822789D01*
Y1153829D01*
D02*
G37*
G36*
X1518565Y641833D02*
X1511990D01*
Y642162D01*
X1511661D01*
Y642491D01*
X1511332D01*
Y642820D01*
X1511004D01*
Y643477D01*
X1510675D01*
Y653670D01*
X1511004D01*
Y654327D01*
X1511332D01*
Y654656D01*
X1511661D01*
Y654985D01*
X1518565D01*
Y641833D01*
D02*
G37*
G36*
X1546183Y659588D02*
X1546841D01*
Y659259D01*
X1547169D01*
Y658930D01*
X1547498D01*
Y658273D01*
X1547827D01*
Y657615D01*
X1548156D01*
Y656629D01*
X1548485D01*
Y655642D01*
X1548813D01*
Y654327D01*
X1549142D01*
Y652683D01*
X1549471D01*
Y650053D01*
X1549800D01*
Y646765D01*
X1549471D01*
Y644135D01*
X1549142D01*
Y642491D01*
X1548813D01*
Y641505D01*
X1548485D01*
Y640518D01*
X1548156D01*
Y639532D01*
X1547827D01*
Y638875D01*
X1547498D01*
Y637888D01*
X1547169D01*
Y637559D01*
X1546841D01*
Y637231D01*
X1544868D01*
Y637559D01*
X1544210D01*
Y638217D01*
X1543882D01*
Y639861D01*
X1544210D01*
Y640847D01*
X1544539D01*
Y641176D01*
Y641505D01*
X1544868D01*
Y642491D01*
X1545197D01*
Y643806D01*
X1545526D01*
Y645450D01*
X1545854D01*
Y651368D01*
X1545526D01*
Y653341D01*
X1545197D01*
Y654327D01*
X1544868D01*
Y655313D01*
X1544539D01*
Y656300D01*
X1544210D01*
Y656957D01*
X1543882D01*
Y658930D01*
X1544210D01*
Y659259D01*
X1544539D01*
Y659588D01*
X1545197D01*
Y659917D01*
X1546183D01*
Y659588D01*
D02*
G37*
G36*
X1554074Y664191D02*
X1554731D01*
Y663862D01*
X1555060D01*
Y663533D01*
X1555389D01*
Y662876D01*
X1555718D01*
Y662218D01*
X1556046D01*
Y661560D01*
X1556375D01*
Y660574D01*
X1556704D01*
Y659588D01*
X1557033D01*
Y658930D01*
X1557362D01*
Y657615D01*
X1557690D01*
Y656629D01*
X1558019D01*
Y654985D01*
X1558348D01*
Y653012D01*
X1558677D01*
Y644135D01*
X1558348D01*
Y641833D01*
X1558019D01*
Y640518D01*
X1557690D01*
Y639203D01*
X1557362D01*
Y638217D01*
X1557033D01*
Y637231D01*
X1556704D01*
Y636244D01*
X1556375D01*
Y635587D01*
X1556046D01*
Y634929D01*
X1555718D01*
Y633943D01*
X1555389D01*
Y633285D01*
X1555060D01*
Y632956D01*
X1554403D01*
Y632628D01*
X1552759D01*
Y632956D01*
X1552430D01*
Y633285D01*
X1552101D01*
Y633614D01*
X1551772D01*
Y635258D01*
X1552101D01*
Y635915D01*
X1552430D01*
Y636902D01*
X1552759D01*
Y637559D01*
X1553087D01*
Y638217D01*
X1553416D01*
Y639532D01*
X1553745D01*
Y640518D01*
X1554074D01*
Y641833D01*
X1554403D01*
Y643149D01*
X1554731D01*
Y645779D01*
X1555060D01*
Y651368D01*
X1554731D01*
Y653670D01*
X1554403D01*
Y655313D01*
X1554074D01*
Y656629D01*
X1553745D01*
Y657615D01*
X1553416D01*
Y658601D01*
X1553087D01*
Y659259D01*
X1552759D01*
Y660245D01*
X1552430D01*
Y660903D01*
X1552101D01*
Y661560D01*
X1551772D01*
Y663533D01*
X1552101D01*
Y663862D01*
X1552430D01*
Y664191D01*
X1553087D01*
Y664519D01*
X1554074D01*
Y664191D01*
D02*
G37*
G36*
X1535991Y666492D02*
X1536977D01*
Y666163D01*
X1537306D01*
Y665506D01*
X1537635D01*
Y634272D01*
Y633943D01*
Y631312D01*
X1537306D01*
Y630984D01*
X1536977D01*
Y630655D01*
X1536648D01*
Y630326D01*
X1535004D01*
Y630655D01*
X1534347D01*
Y630984D01*
X1534018D01*
Y631312D01*
X1533689D01*
Y631641D01*
X1533361D01*
Y631970D01*
X1532703D01*
Y632299D01*
X1532374D01*
Y632628D01*
X1532045D01*
Y632956D01*
X1531717D01*
Y633285D01*
X1531059D01*
Y633614D01*
X1530730D01*
Y633943D01*
X1530402D01*
Y634272D01*
X1530073D01*
Y634600D01*
X1529415D01*
Y634929D01*
X1529086D01*
Y635258D01*
X1528758D01*
Y635587D01*
X1528429D01*
Y635915D01*
X1527771D01*
Y636244D01*
X1527442D01*
Y636573D01*
X1527114D01*
Y636902D01*
X1526785D01*
Y637231D01*
X1526127D01*
Y637559D01*
X1525799D01*
Y637888D01*
X1525470D01*
Y638217D01*
X1525141D01*
Y638546D01*
X1524483D01*
Y638875D01*
X1524155D01*
Y639203D01*
X1523826D01*
Y639532D01*
X1523497D01*
Y639861D01*
X1522840D01*
Y640190D01*
X1522511D01*
Y640518D01*
X1522182D01*
Y640847D01*
X1521853D01*
Y641176D01*
X1521196D01*
Y641505D01*
X1520867D01*
Y641833D01*
X1520538D01*
Y654985D01*
X1520867D01*
Y655313D01*
X1521196D01*
Y655642D01*
X1521525D01*
Y655971D01*
X1521853D01*
Y656300D01*
X1522182D01*
Y656629D01*
X1522840D01*
Y656957D01*
X1523168D01*
Y657286D01*
X1523497D01*
Y657615D01*
X1523826D01*
Y657944D01*
X1524483D01*
Y658273D01*
X1524812D01*
Y658601D01*
X1525141D01*
Y658930D01*
X1525470D01*
Y659259D01*
X1526127D01*
Y659588D01*
X1526456D01*
Y659917D01*
X1526785D01*
Y660245D01*
X1527114D01*
Y660574D01*
X1527771D01*
Y660903D01*
X1528100D01*
Y661232D01*
X1528429D01*
Y661560D01*
X1528758D01*
Y661889D01*
X1529415D01*
Y662218D01*
X1529744D01*
Y662547D01*
X1530073D01*
Y662876D01*
X1530402D01*
Y663204D01*
X1531059D01*
Y663533D01*
X1531388D01*
Y663862D01*
X1531717D01*
Y664191D01*
X1532045D01*
Y664519D01*
X1532703D01*
Y664848D01*
X1533032D01*
Y665177D01*
X1533361D01*
Y665506D01*
X1533689D01*
Y665835D01*
X1534347D01*
Y666163D01*
X1534676D01*
Y666492D01*
X1535662D01*
Y666821D01*
X1535991D01*
Y666492D01*
D02*
G37*
G36*
X524969Y642350D02*
X526591D01*
Y641539D01*
X527401D01*
Y640729D01*
X528212D01*
Y639918D01*
X529022D01*
Y638297D01*
X529833D01*
Y614788D01*
X531455D01*
Y613978D01*
X532265D01*
Y613167D01*
X533076D01*
Y612356D01*
X533886D01*
Y611545D01*
X534697D01*
Y610735D01*
X535508D01*
Y609924D01*
X536318D01*
Y608303D01*
X537129D01*
Y605871D01*
X537940D01*
Y597765D01*
X537129D01*
Y596143D01*
X536318D01*
Y594522D01*
X535508D01*
Y592901D01*
X534697D01*
Y592090D01*
X533886D01*
Y591280D01*
X533076D01*
Y590469D01*
X532265D01*
Y589658D01*
X531455D01*
Y588848D01*
X529833D01*
Y588037D01*
X528212D01*
Y587226D01*
X524969D01*
Y586416D01*
X520916D01*
Y587226D01*
X517674D01*
Y588037D01*
X516052D01*
Y588848D01*
X514431D01*
Y589658D01*
X513620D01*
Y590469D01*
X511999D01*
Y592090D01*
X511189D01*
Y592901D01*
X510378D01*
Y593712D01*
X509567D01*
Y595333D01*
X508757D01*
Y597765D01*
X507946D01*
Y606682D01*
X508757D01*
Y608303D01*
X509567D01*
Y609924D01*
X510378D01*
Y610735D01*
X511189D01*
Y612356D01*
X511999D01*
Y613167D01*
X512810D01*
Y613978D01*
X514431D01*
Y614788D01*
X515242D01*
Y615599D01*
X516052D01*
Y639107D01*
X516863D01*
Y639918D01*
X517674D01*
Y641539D01*
X519295D01*
Y642350D01*
X520916D01*
Y643160D01*
X524969D01*
Y642350D01*
D02*
G37*
G36*
X1697664Y519147D02*
X1697906D01*
Y518904D01*
X1698149D01*
Y518662D01*
X1698392D01*
Y517933D01*
X1698635D01*
Y506519D01*
X1698392D01*
Y505790D01*
X1698149D01*
Y505305D01*
X1697906D01*
Y505062D01*
X1697421D01*
Y504819D01*
X1695964D01*
Y505062D01*
X1695478D01*
Y505305D01*
X1695235D01*
Y505790D01*
X1694992D01*
Y506519D01*
X1694749D01*
Y517933D01*
X1694992D01*
Y518662D01*
X1695235D01*
Y518904D01*
X1695478D01*
Y519147D01*
X1695721D01*
Y519390D01*
X1697664D01*
Y519147D01*
D02*
G37*
G36*
X1711506Y515505D02*
X1711992D01*
Y515262D01*
X1712235D01*
Y515019D01*
X1712478D01*
Y514533D01*
X1712720D01*
Y513319D01*
X1712478D01*
Y512833D01*
X1712235D01*
Y512347D01*
X1711992D01*
Y511862D01*
X1711749D01*
Y511376D01*
X1711506D01*
Y511133D01*
X1711263D01*
Y510648D01*
X1711020D01*
Y510162D01*
X1710778D01*
Y509919D01*
X1710535D01*
Y509433D01*
X1710292D01*
Y508947D01*
X1710049D01*
Y508462D01*
X1709806D01*
Y508219D01*
X1709563D01*
Y507733D01*
X1709321D01*
Y507248D01*
X1709078D01*
Y506762D01*
X1708835D01*
Y506519D01*
X1708592D01*
Y506033D01*
X1708349D01*
Y505548D01*
X1708106D01*
Y505062D01*
X1707863D01*
Y504819D01*
X1707621D01*
Y504333D01*
X1707378D01*
Y503848D01*
X1707135D01*
Y503605D01*
X1706892D01*
Y503119D01*
X1706649D01*
Y502876D01*
X1706406D01*
Y502633D01*
X1705678D01*
Y502391D01*
X1705192D01*
Y502633D01*
X1704463D01*
Y502876D01*
X1703978D01*
Y503362D01*
X1703735D01*
Y503848D01*
X1703492D01*
Y504819D01*
X1703735D01*
Y505305D01*
X1703978D01*
Y505790D01*
X1704221D01*
Y506276D01*
X1704463D01*
Y506519D01*
X1704706D01*
Y507005D01*
X1704949D01*
Y507490D01*
X1705192D01*
Y507976D01*
X1705435D01*
Y508219D01*
X1705678D01*
Y508705D01*
X1705921D01*
Y509190D01*
X1706163D01*
Y509676D01*
X1706406D01*
Y509919D01*
X1706649D01*
Y510405D01*
X1706892D01*
Y510890D01*
X1707135D01*
Y511376D01*
X1707378D01*
Y511619D01*
X1707621D01*
Y512105D01*
X1707863D01*
Y512590D01*
X1708106D01*
Y513076D01*
X1708349D01*
Y513319D01*
X1708592D01*
Y513805D01*
X1708835D01*
Y514290D01*
X1709078D01*
Y514533D01*
X1709321D01*
Y515019D01*
X1709563D01*
Y515262D01*
X1709806D01*
Y515505D01*
X1710292D01*
Y515747D01*
X1711506D01*
Y515505D01*
D02*
G37*
G36*
X1683092D02*
X1683578D01*
Y515262D01*
X1683821D01*
Y515019D01*
X1684064D01*
Y514533D01*
X1684307D01*
Y514290D01*
X1684550D01*
Y513805D01*
X1684792D01*
Y513319D01*
X1685035D01*
Y512833D01*
X1685278D01*
Y512590D01*
X1685521D01*
Y512105D01*
X1685764D01*
Y511619D01*
X1686007D01*
Y511133D01*
X1686250D01*
Y510890D01*
X1686492D01*
Y510405D01*
X1686735D01*
Y509919D01*
X1686978D01*
Y509676D01*
X1687221D01*
Y509190D01*
X1687464D01*
Y508705D01*
X1687707D01*
Y508219D01*
X1687949D01*
Y507976D01*
X1688192D01*
Y507490D01*
X1688435D01*
Y507005D01*
X1688678D01*
Y506762D01*
X1688921D01*
Y506276D01*
X1689164D01*
Y505790D01*
X1689407D01*
Y505305D01*
X1689649D01*
Y504819D01*
X1689892D01*
Y503848D01*
X1689649D01*
Y503362D01*
X1689407D01*
Y502876D01*
X1688921D01*
Y502633D01*
X1688435D01*
Y502391D01*
X1687707D01*
Y502633D01*
X1686978D01*
Y502876D01*
X1686735D01*
Y503119D01*
X1686492D01*
Y503362D01*
X1686250D01*
Y503848D01*
X1686007D01*
Y504333D01*
X1685764D01*
Y504819D01*
X1685521D01*
Y505062D01*
X1685278D01*
Y505548D01*
X1685035D01*
Y506033D01*
X1684792D01*
Y506519D01*
X1684550D01*
Y506762D01*
X1684307D01*
Y507248D01*
X1684064D01*
Y507733D01*
X1683821D01*
Y508219D01*
X1683578D01*
Y508462D01*
X1683335D01*
Y508947D01*
X1683092D01*
Y509433D01*
X1682849D01*
Y509919D01*
X1682607D01*
Y510162D01*
X1682364D01*
Y510648D01*
X1682121D01*
Y511133D01*
X1681878D01*
Y511619D01*
X1681635D01*
Y511862D01*
X1681392D01*
Y512347D01*
X1681150D01*
Y512833D01*
X1680907D01*
Y513319D01*
X1680664D01*
Y514533D01*
X1680907D01*
Y515019D01*
X1681150D01*
Y515262D01*
X1681392D01*
Y515505D01*
X1681878D01*
Y515747D01*
X1683092D01*
Y515505D01*
D02*
G37*
G36*
X1722920Y506033D02*
X1723649D01*
Y505790D01*
X1724135D01*
Y505305D01*
X1724377D01*
Y504819D01*
X1724620D01*
Y503848D01*
X1724377D01*
Y503362D01*
X1724135D01*
Y502876D01*
X1723649D01*
Y502633D01*
X1723163D01*
Y502391D01*
X1722920D01*
Y502148D01*
X1722435D01*
Y501905D01*
X1721949D01*
Y501662D01*
X1721463D01*
Y501419D01*
X1721220D01*
Y501176D01*
X1720735D01*
Y500933D01*
X1720249D01*
Y500690D01*
X1719763D01*
Y500448D01*
X1719520D01*
Y500205D01*
X1719035D01*
Y499962D01*
X1718549D01*
Y499719D01*
X1718306D01*
Y499476D01*
X1717820D01*
Y499233D01*
X1717335D01*
Y498991D01*
X1716849D01*
Y498748D01*
X1716606D01*
Y498505D01*
X1716120D01*
Y498262D01*
X1715635D01*
Y498019D01*
X1715149D01*
Y497776D01*
X1714906D01*
Y497533D01*
X1714420D01*
Y497291D01*
X1713935D01*
Y497048D01*
X1712478D01*
Y497291D01*
X1711992D01*
Y497533D01*
X1711749D01*
Y498019D01*
X1711506D01*
Y498748D01*
X1711263D01*
Y498991D01*
X1711506D01*
Y499719D01*
X1711749D01*
Y500205D01*
X1712235D01*
Y500448D01*
X1712478D01*
Y500690D01*
X1712963D01*
Y500933D01*
X1713449D01*
Y501176D01*
X1713692D01*
Y501419D01*
X1714178D01*
Y501662D01*
X1714663D01*
Y501905D01*
X1715149D01*
Y502148D01*
X1715635D01*
Y502391D01*
X1715878D01*
Y502633D01*
X1716363D01*
Y502876D01*
X1716849D01*
Y503119D01*
X1717092D01*
Y503362D01*
X1717578D01*
Y503605D01*
X1718063D01*
Y503848D01*
X1718549D01*
Y504090D01*
X1718792D01*
Y504333D01*
X1719277D01*
Y504576D01*
X1719763D01*
Y504819D01*
X1720006D01*
Y505062D01*
X1720492D01*
Y505305D01*
X1720977D01*
Y505548D01*
X1721463D01*
Y505790D01*
X1721706D01*
Y506033D01*
X1722435D01*
Y506276D01*
X1722920D01*
Y506033D01*
D02*
G37*
G36*
X1671678Y505548D02*
X1672164D01*
Y505305D01*
X1672407D01*
Y505062D01*
X1672893D01*
Y504819D01*
X1673378D01*
Y504576D01*
X1673864D01*
Y504333D01*
X1674107D01*
Y504090D01*
X1674592D01*
Y503848D01*
X1675078D01*
Y503605D01*
X1675321D01*
Y503362D01*
X1675807D01*
Y503119D01*
X1676293D01*
Y502876D01*
X1676778D01*
Y502633D01*
X1677021D01*
Y502391D01*
X1677507D01*
Y502148D01*
X1677993D01*
Y501905D01*
X1678478D01*
Y501662D01*
X1678721D01*
Y501419D01*
X1679207D01*
Y501176D01*
X1679692D01*
Y500933D01*
X1680178D01*
Y500690D01*
X1680421D01*
Y500448D01*
X1680907D01*
Y500205D01*
X1681392D01*
Y499962D01*
X1681635D01*
Y499719D01*
X1681878D01*
Y499233D01*
X1682121D01*
Y497776D01*
X1681878D01*
Y497291D01*
X1681635D01*
Y497048D01*
X1681150D01*
Y496805D01*
X1679450D01*
Y497048D01*
X1678964D01*
Y497291D01*
X1678721D01*
Y497533D01*
X1678235D01*
Y497776D01*
X1677750D01*
Y498019D01*
X1677264D01*
Y498262D01*
X1676778D01*
Y498505D01*
X1676535D01*
Y498748D01*
X1676050D01*
Y498991D01*
X1675564D01*
Y499233D01*
X1675321D01*
Y499476D01*
X1674835D01*
Y499719D01*
X1674350D01*
Y499962D01*
X1674107D01*
Y500205D01*
X1673621D01*
Y500448D01*
X1673135D01*
Y500690D01*
X1672650D01*
Y500933D01*
X1672407D01*
Y501176D01*
X1671921D01*
Y501419D01*
X1671435D01*
Y501662D01*
X1670950D01*
Y501905D01*
X1670707D01*
Y502148D01*
X1670221D01*
Y502391D01*
X1669736D01*
Y502633D01*
X1669493D01*
Y502876D01*
X1669250D01*
Y503362D01*
X1669007D01*
Y504819D01*
X1669250D01*
Y505305D01*
X1669493D01*
Y505548D01*
X1669978D01*
Y505790D01*
X1671678D01*
Y505548D01*
D02*
G37*
G36*
X1726563Y490976D02*
X1727292D01*
Y490734D01*
X1727534D01*
Y490491D01*
X1727777D01*
Y490248D01*
X1728020D01*
Y488305D01*
X1727777D01*
Y488062D01*
X1727534D01*
Y487819D01*
X1727292D01*
Y487576D01*
X1714420D01*
Y487819D01*
X1713935D01*
Y488062D01*
X1713692D01*
Y488548D01*
X1713449D01*
Y490005D01*
X1713692D01*
Y490491D01*
X1713935D01*
Y490734D01*
X1714178D01*
Y490976D01*
X1715149D01*
Y491219D01*
X1726563D01*
Y490976D01*
D02*
G37*
G36*
X1678478D02*
X1678964D01*
Y490734D01*
X1679450D01*
Y490491D01*
X1679692D01*
Y490005D01*
X1679935D01*
Y488548D01*
X1679692D01*
Y488062D01*
X1679450D01*
Y487819D01*
X1678964D01*
Y487576D01*
X1666093D01*
Y487819D01*
X1665850D01*
Y488062D01*
X1665607D01*
Y488305D01*
X1665364D01*
Y490248D01*
X1665607D01*
Y490491D01*
X1665850D01*
Y490734D01*
X1666093D01*
Y490976D01*
X1666821D01*
Y491219D01*
X1678478D01*
Y490976D01*
D02*
G37*
G36*
X1699364Y502391D02*
X1700578D01*
Y502148D01*
X1701306D01*
Y501905D01*
X1702035D01*
Y501662D01*
X1702763D01*
Y501419D01*
X1703249D01*
Y501176D01*
X1703735D01*
Y500933D01*
X1704221D01*
Y500690D01*
X1704706D01*
Y500448D01*
X1704949D01*
Y500205D01*
X1705435D01*
Y499962D01*
X1705921D01*
Y499719D01*
X1706163D01*
Y499476D01*
X1706406D01*
Y499233D01*
X1706649D01*
Y498991D01*
X1706892D01*
Y498748D01*
X1707378D01*
Y498505D01*
X1707621D01*
Y498262D01*
X1707863D01*
Y498019D01*
X1708106D01*
Y497776D01*
X1708349D01*
Y497533D01*
X1708592D01*
Y497048D01*
X1708835D01*
Y496805D01*
X1709078D01*
Y496562D01*
X1709321D01*
Y496319D01*
X1709563D01*
Y495834D01*
X1709806D01*
Y495591D01*
X1710049D01*
Y495105D01*
X1710292D01*
Y494862D01*
X1710535D01*
Y494376D01*
X1710778D01*
Y493891D01*
X1711020D01*
Y493405D01*
X1711263D01*
Y492676D01*
X1711506D01*
Y492191D01*
X1711749D01*
Y491462D01*
X1711992D01*
Y490491D01*
X1712235D01*
Y489034D01*
X1712478D01*
Y473491D01*
X1714663D01*
Y473248D01*
X1715635D01*
Y473005D01*
X1716363D01*
Y472762D01*
X1716849D01*
Y472520D01*
X1717335D01*
Y472277D01*
X1717578D01*
Y472034D01*
X1717820D01*
Y471791D01*
X1718306D01*
Y471548D01*
X1718549D01*
Y471305D01*
X1718792D01*
Y470820D01*
X1719035D01*
Y470577D01*
X1719277D01*
Y470091D01*
X1719520D01*
Y469605D01*
X1719763D01*
Y469120D01*
X1720006D01*
Y468148D01*
X1720249D01*
Y465720D01*
X1720006D01*
Y464748D01*
X1719763D01*
Y464263D01*
X1719520D01*
Y463777D01*
X1719277D01*
Y463291D01*
X1719035D01*
Y463048D01*
X1718792D01*
Y462805D01*
X1718549D01*
Y462563D01*
X1718306D01*
Y462320D01*
X1718063D01*
Y462077D01*
X1717820D01*
Y461834D01*
X1717578D01*
Y461591D01*
X1717092D01*
Y461348D01*
X1716849D01*
Y461106D01*
X1716120D01*
Y460863D01*
X1715392D01*
Y460620D01*
X1713935D01*
Y460377D01*
X1713692D01*
Y460620D01*
X1679207D01*
Y460863D01*
X1678478D01*
Y461106D01*
X1677750D01*
Y461348D01*
X1677507D01*
Y461591D01*
X1677021D01*
Y461834D01*
X1676778D01*
Y462077D01*
X1676535D01*
Y462320D01*
X1676293D01*
Y462563D01*
X1676050D01*
Y462805D01*
X1675807D01*
Y463048D01*
X1675564D01*
Y463291D01*
X1675321D01*
Y463777D01*
X1675078D01*
Y464263D01*
X1674835D01*
Y464748D01*
X1674592D01*
Y465720D01*
X1674350D01*
Y468148D01*
X1674592D01*
Y469120D01*
X1674835D01*
Y469605D01*
X1675078D01*
Y470091D01*
X1675321D01*
Y470577D01*
X1675564D01*
Y470820D01*
X1675807D01*
Y471305D01*
X1676050D01*
Y471548D01*
X1676293D01*
Y471791D01*
X1676778D01*
Y472034D01*
X1677021D01*
Y472277D01*
X1677264D01*
Y472520D01*
X1677750D01*
Y472762D01*
X1678235D01*
Y473005D01*
X1678721D01*
Y473248D01*
X1679935D01*
Y473491D01*
X1680907D01*
Y482962D01*
Y483205D01*
Y489034D01*
X1681150D01*
Y490491D01*
X1681392D01*
Y491462D01*
X1681635D01*
Y492191D01*
X1681878D01*
Y492676D01*
X1682121D01*
Y493405D01*
X1682364D01*
Y493891D01*
X1682607D01*
Y494376D01*
X1682849D01*
Y494619D01*
X1683092D01*
Y495105D01*
X1683335D01*
Y495591D01*
X1683578D01*
Y495834D01*
X1683821D01*
Y496319D01*
X1684064D01*
Y496562D01*
X1684307D01*
Y496805D01*
X1684550D01*
Y497291D01*
X1684792D01*
Y497533D01*
X1685035D01*
Y497776D01*
X1685278D01*
Y498019D01*
X1685521D01*
Y498262D01*
X1685764D01*
Y498505D01*
X1686007D01*
Y498748D01*
X1686250D01*
Y498991D01*
X1686735D01*
Y499233D01*
X1686978D01*
Y499476D01*
X1687221D01*
Y499719D01*
X1687707D01*
Y499962D01*
X1687949D01*
Y500205D01*
X1688435D01*
Y500448D01*
X1688678D01*
Y500690D01*
X1689164D01*
Y500933D01*
X1689649D01*
Y501176D01*
X1690135D01*
Y501419D01*
X1690621D01*
Y501662D01*
X1691349D01*
Y501905D01*
X1692078D01*
Y502148D01*
X1692807D01*
Y502391D01*
X1694264D01*
Y502633D01*
X1699364D01*
Y502391D01*
D02*
G37*
G36*
X419605Y475855D02*
X421381D01*
Y475264D01*
X422565D01*
Y474672D01*
X423157D01*
Y474080D01*
X424340D01*
Y473488D01*
X430259D01*
Y472896D01*
X432034D01*
Y472304D01*
X433218D01*
Y471712D01*
X433810D01*
Y471121D01*
X434402D01*
Y470529D01*
X434994D01*
Y469937D01*
X435585D01*
Y469345D01*
X436177D01*
Y468753D01*
X436769D01*
Y467570D01*
X437361D01*
Y466386D01*
X437953D01*
Y464019D01*
X438545D01*
Y461059D01*
X437953D01*
Y458692D01*
X437361D01*
Y456916D01*
X436769D01*
Y456325D01*
X436177D01*
Y455141D01*
X435585D01*
Y454549D01*
X434994D01*
Y453957D01*
X434402D01*
Y453365D01*
X433218D01*
Y452774D01*
X432626D01*
Y452182D01*
X431442D01*
Y451590D01*
X429075D01*
Y450998D01*
X401258D01*
Y451590D01*
X400075D01*
Y452182D01*
X398891D01*
Y452774D01*
X398299D01*
Y453365D01*
X397707D01*
Y454549D01*
X397115D01*
Y455733D01*
X396524D01*
Y459284D01*
X397115D01*
Y461059D01*
X397707D01*
Y461651D01*
X398299D01*
Y462243D01*
X398891D01*
Y462835D01*
X399483D01*
Y463427D01*
X400667D01*
Y464019D01*
X401850D01*
Y465794D01*
X402442D01*
Y466978D01*
X403034D01*
Y467570D01*
X403626D01*
Y468162D01*
X404218D01*
Y468753D01*
X404809D01*
Y469345D01*
X405993D01*
Y469937D01*
X408360D01*
Y471121D01*
X408952D01*
Y472304D01*
X409544D01*
Y472896D01*
X410136D01*
Y473488D01*
X410728D01*
Y474080D01*
X411320D01*
Y474672D01*
X412503D01*
Y475264D01*
X413687D01*
Y475855D01*
X414871D01*
Y476447D01*
X419605D01*
Y475855D01*
D02*
G37*
%LPC*%
G36*
X822379Y1149975D02*
X802290D01*
Y1149893D01*
X801798D01*
Y1149811D01*
X801470D01*
Y1149729D01*
X801224D01*
Y1149647D01*
X801060D01*
Y1149565D01*
X800814D01*
Y1149483D01*
X800732D01*
Y1149401D01*
X800568D01*
Y1149319D01*
X800404D01*
Y1149237D01*
X800322D01*
Y1149155D01*
X800240D01*
Y1149073D01*
X800076D01*
Y1148991D01*
X799994D01*
Y1148909D01*
X799912D01*
Y1148827D01*
X799830D01*
Y1148745D01*
X799748D01*
Y1148663D01*
X799666D01*
Y1148581D01*
X799584D01*
Y1148499D01*
X799502D01*
Y1148335D01*
X799420D01*
Y1148253D01*
X799338D01*
Y1148171D01*
X799256D01*
Y1148007D01*
X799174D01*
Y1147843D01*
X799092D01*
Y1147679D01*
X799010D01*
Y1147515D01*
X798928D01*
Y1147351D01*
X798846D01*
Y1147105D01*
X798764D01*
Y1146777D01*
X798682D01*
Y1145957D01*
X798600D01*
Y1145875D01*
X798682D01*
Y1145137D01*
X798764D01*
Y1144727D01*
X798846D01*
Y1144481D01*
X798928D01*
Y1144317D01*
X799010D01*
Y1144153D01*
X799092D01*
Y1143989D01*
X799174D01*
Y1143825D01*
X799256D01*
Y1143743D01*
X799338D01*
Y1143579D01*
X799420D01*
Y1143497D01*
X799502D01*
Y1143415D01*
X799584D01*
Y1143251D01*
X799666D01*
Y1143169D01*
X799748D01*
Y1143087D01*
X799830D01*
Y1143006D01*
X799912D01*
Y1142924D01*
X799994D01*
Y1142841D01*
X800158D01*
Y1142759D01*
X800240D01*
Y1142678D01*
X800322D01*
Y1142596D01*
X800486D01*
Y1142514D01*
X800568D01*
Y1142431D01*
X800732D01*
Y1142349D01*
X800896D01*
Y1142268D01*
X801060D01*
Y1142186D01*
X801306D01*
Y1142104D01*
X801552D01*
Y1142021D01*
X801880D01*
Y1141940D01*
X802290D01*
Y1141858D01*
X802618D01*
Y1141776D01*
X802782D01*
Y1141694D01*
X802946D01*
Y1141612D01*
X803028D01*
Y1141530D01*
X803192D01*
Y1141448D01*
X803274D01*
Y1141366D01*
X803356D01*
Y1141284D01*
X803438D01*
Y1141202D01*
X803520D01*
Y1141038D01*
X803602D01*
Y1140956D01*
X803684D01*
Y1140792D01*
X803766D01*
Y1140546D01*
X803848D01*
Y1140054D01*
X803930D01*
Y1119145D01*
X803848D01*
Y1118653D01*
X803766D01*
Y1118407D01*
X803684D01*
Y1118243D01*
X803602D01*
Y1118079D01*
X803520D01*
Y1117915D01*
X803438D01*
Y1117751D01*
X803356D01*
Y1117669D01*
X803274D01*
Y1117505D01*
X803192D01*
Y1117341D01*
X803110D01*
Y1117177D01*
X803028D01*
Y1117095D01*
X802946D01*
Y1116931D01*
X802864D01*
Y1116767D01*
X802782D01*
Y1116603D01*
X802700D01*
Y1116521D01*
X802618D01*
Y1116357D01*
X802536D01*
Y1116193D01*
X802454D01*
Y1116029D01*
X802372D01*
Y1115865D01*
X802290D01*
Y1115783D01*
X802208D01*
Y1115619D01*
X802126D01*
Y1115455D01*
X802044D01*
Y1115291D01*
X801962D01*
Y1115209D01*
X801880D01*
Y1115045D01*
X801798D01*
Y1114881D01*
X801716D01*
Y1114717D01*
X801634D01*
Y1114635D01*
X801552D01*
Y1114472D01*
X801470D01*
Y1114307D01*
X801388D01*
Y1114144D01*
X801306D01*
Y1113979D01*
X801224D01*
Y1113897D01*
X801142D01*
Y1113734D01*
X801060D01*
Y1113569D01*
X800978D01*
Y1113406D01*
X800896D01*
Y1113324D01*
X800814D01*
Y1113159D01*
X800732D01*
Y1112996D01*
X800650D01*
Y1112832D01*
X800568D01*
Y1112668D01*
X800486D01*
Y1112586D01*
X800404D01*
Y1112422D01*
X800322D01*
Y1112258D01*
X800240D01*
Y1112094D01*
X800158D01*
Y1112012D01*
X800076D01*
Y1111848D01*
X799994D01*
Y1111684D01*
X799912D01*
Y1111520D01*
X799830D01*
Y1111438D01*
X799748D01*
Y1111274D01*
X799666D01*
Y1111110D01*
X799584D01*
Y1110946D01*
X799502D01*
Y1110782D01*
X799420D01*
Y1110700D01*
X799338D01*
Y1110536D01*
X799256D01*
Y1110372D01*
X799174D01*
Y1110208D01*
X799092D01*
Y1110126D01*
X799010D01*
Y1109962D01*
X798928D01*
Y1109798D01*
X798846D01*
Y1109716D01*
X798764D01*
Y1109634D01*
X798682D01*
Y1109470D01*
X798518D01*
Y1090529D01*
X798436D01*
Y1089299D01*
X798354D01*
Y1088725D01*
X798272D01*
Y1088397D01*
X798191D01*
Y1088069D01*
X798109D01*
Y1087741D01*
X798026D01*
Y1087495D01*
X797944D01*
Y1087249D01*
X797862D01*
Y1087003D01*
X797781D01*
Y1086757D01*
X797699D01*
Y1086593D01*
X797617D01*
Y1086429D01*
X797534D01*
Y1086265D01*
X797452D01*
Y1086102D01*
X797371D01*
Y1085938D01*
X797289D01*
Y1085773D01*
X797206D01*
Y1085610D01*
X797124D01*
Y1085445D01*
X797042D01*
Y1085363D01*
X796961D01*
Y1085200D01*
X796879D01*
Y1085035D01*
X796797D01*
Y1084954D01*
X796714D01*
Y1084790D01*
X796633D01*
Y1084708D01*
X796551D01*
Y1084544D01*
X796469D01*
Y1084462D01*
X796387D01*
Y1084380D01*
X796305D01*
Y1084216D01*
X796223D01*
Y1084134D01*
X796141D01*
Y1083970D01*
X834842D01*
Y1084052D01*
X835580D01*
Y1084134D01*
X835990D01*
Y1084216D01*
X836236D01*
Y1084298D01*
X836564D01*
Y1084380D01*
X836728D01*
Y1084462D01*
X836892D01*
Y1084544D01*
X837056D01*
Y1084625D01*
X837220D01*
Y1084708D01*
X837302D01*
Y1084790D01*
X837466D01*
Y1084872D01*
X837548D01*
Y1084954D01*
X837630D01*
Y1085035D01*
X837712D01*
Y1085117D01*
X837794D01*
Y1085200D01*
X837876D01*
Y1085282D01*
X837958D01*
Y1085363D01*
X838040D01*
Y1085527D01*
X838122D01*
Y1085692D01*
X838204D01*
Y1085855D01*
X838286D01*
Y1086183D01*
X838368D01*
Y1087413D01*
X838286D01*
Y1087823D01*
X838204D01*
Y1088069D01*
X838122D01*
Y1088397D01*
X838040D01*
Y1088561D01*
X837958D01*
Y1088725D01*
X837876D01*
Y1088971D01*
X837794D01*
Y1089135D01*
X837712D01*
Y1089299D01*
X837630D01*
Y1089381D01*
X837548D01*
Y1089545D01*
X837466D01*
Y1089709D01*
X837384D01*
Y1089873D01*
X837302D01*
Y1089955D01*
X837220D01*
Y1090119D01*
X837138D01*
Y1090283D01*
X837056D01*
Y1090447D01*
X836974D01*
Y1090529D01*
X836892D01*
Y1090693D01*
X836810D01*
Y1090857D01*
X836728D01*
Y1091021D01*
X836646D01*
Y1091103D01*
X836564D01*
Y1091267D01*
X836482D01*
Y1091431D01*
X836400D01*
Y1091513D01*
X836318D01*
Y1091677D01*
X836236D01*
Y1091841D01*
X836154D01*
Y1092005D01*
X836072D01*
Y1092087D01*
X835990D01*
Y1092251D01*
X835908D01*
Y1092415D01*
X835826D01*
Y1092579D01*
X835744D01*
Y1092661D01*
X835662D01*
Y1092825D01*
X835580D01*
Y1092989D01*
X835498D01*
Y1093071D01*
X835416D01*
Y1093235D01*
X835334D01*
Y1093399D01*
X835252D01*
Y1093563D01*
X835170D01*
Y1093727D01*
X835088D01*
Y1093809D01*
X835006D01*
Y1093973D01*
X834924D01*
Y1094137D01*
X834842D01*
Y1094219D01*
X834760D01*
Y1094383D01*
X834678D01*
Y1094547D01*
X834596D01*
Y1094711D01*
X834514D01*
Y1094793D01*
X834432D01*
Y1094957D01*
X834350D01*
Y1095121D01*
X834268D01*
Y1095285D01*
X834186D01*
Y1095367D01*
X834104D01*
Y1095531D01*
X834022D01*
Y1095695D01*
X833940D01*
Y1095777D01*
X833858D01*
Y1095941D01*
X833776D01*
Y1096105D01*
X833694D01*
Y1096269D01*
X833612D01*
Y1096351D01*
X833530D01*
Y1096515D01*
X833448D01*
Y1096679D01*
X833366D01*
Y1096843D01*
X833284D01*
Y1096925D01*
X833202D01*
Y1097089D01*
X833120D01*
Y1097253D01*
X833038D01*
Y1097417D01*
X832956D01*
Y1097499D01*
X832874D01*
Y1097663D01*
X832792D01*
Y1097827D01*
X832710D01*
Y1097909D01*
X832628D01*
Y1098073D01*
X832546D01*
Y1098237D01*
X832464D01*
Y1098401D01*
X832382D01*
Y1098483D01*
X832300D01*
Y1098647D01*
X832218D01*
Y1098811D01*
X832136D01*
Y1098975D01*
X832054D01*
Y1099057D01*
X831972D01*
Y1099221D01*
X831890D01*
Y1099385D01*
X831808D01*
Y1099466D01*
X831726D01*
Y1099631D01*
X831644D01*
Y1099794D01*
X831562D01*
Y1099958D01*
X831480D01*
Y1100123D01*
X831398D01*
Y1100204D01*
X831316D01*
Y1100368D01*
X831234D01*
Y1100532D01*
X831152D01*
Y1100614D01*
X831070D01*
Y1100778D01*
X830988D01*
Y1100942D01*
X830906D01*
Y1101106D01*
X830824D01*
Y1101188D01*
X830742D01*
Y1101352D01*
X830660D01*
Y1101516D01*
X830578D01*
Y1101680D01*
X830496D01*
Y1101762D01*
X830414D01*
Y1101926D01*
X830332D01*
Y1102090D01*
X830250D01*
Y1102172D01*
X830168D01*
Y1102336D01*
X830086D01*
Y1102500D01*
X830004D01*
Y1102664D01*
X829922D01*
Y1102746D01*
X829840D01*
Y1102910D01*
X829758D01*
Y1103074D01*
X829676D01*
Y1103238D01*
X829594D01*
Y1103320D01*
X829512D01*
Y1103484D01*
X829430D01*
Y1103648D01*
X829348D01*
Y1103812D01*
X829266D01*
Y1103894D01*
X829184D01*
Y1104058D01*
X829102D01*
Y1104222D01*
X829020D01*
Y1104304D01*
X828938D01*
Y1104468D01*
X828856D01*
Y1104632D01*
X828774D01*
Y1104796D01*
X828692D01*
Y1104878D01*
X828610D01*
Y1105042D01*
X828528D01*
Y1105206D01*
X828446D01*
Y1105370D01*
X828364D01*
Y1105452D01*
X828282D01*
Y1105616D01*
X828200D01*
Y1105780D01*
X828118D01*
Y1105862D01*
X828036D01*
Y1106026D01*
X827954D01*
Y1106190D01*
X827872D01*
Y1106354D01*
X827790D01*
Y1106436D01*
X827708D01*
Y1106600D01*
X827626D01*
Y1106764D01*
X827544D01*
Y1106928D01*
X827462D01*
Y1107010D01*
X827380D01*
Y1107174D01*
X827298D01*
Y1107338D01*
X827216D01*
Y1107502D01*
X827134D01*
Y1107584D01*
X827052D01*
Y1107748D01*
X826970D01*
Y1107912D01*
X826888D01*
Y1108076D01*
X826806D01*
Y1108158D01*
X826724D01*
Y1108322D01*
X826642D01*
Y1108486D01*
X826560D01*
Y1108568D01*
X826479D01*
Y1108732D01*
X826396D01*
Y1108896D01*
X826314D01*
Y1109060D01*
X826233D01*
Y1109142D01*
X826151D01*
Y1109306D01*
X826068D01*
Y1109470D01*
X825986D01*
Y1109634D01*
X825904D01*
Y1109716D01*
X825823D01*
Y1109880D01*
X825741D01*
Y1110044D01*
X825658D01*
Y1110208D01*
X825576D01*
Y1110290D01*
X825495D01*
Y1110454D01*
X825413D01*
Y1110618D01*
X825331D01*
Y1110700D01*
X825248D01*
Y1110864D01*
X825166D01*
Y1111028D01*
X825085D01*
Y1111192D01*
X825003D01*
Y1111274D01*
X824921D01*
Y1111438D01*
X824839D01*
Y1111602D01*
X824757D01*
Y1111766D01*
X824675D01*
Y1111848D01*
X824593D01*
Y1112012D01*
X824511D01*
Y1112176D01*
X824429D01*
Y1112258D01*
X824347D01*
Y1112422D01*
X824265D01*
Y1112586D01*
X824183D01*
Y1112750D01*
X824101D01*
Y1112832D01*
X824019D01*
Y1112996D01*
X823937D01*
Y1113159D01*
X823855D01*
Y1113324D01*
X823773D01*
Y1113406D01*
X823691D01*
Y1113569D01*
X823609D01*
Y1113734D01*
X823527D01*
Y1113897D01*
X823445D01*
Y1113979D01*
X823363D01*
Y1114144D01*
X823281D01*
Y1114307D01*
X823199D01*
Y1114472D01*
X823117D01*
Y1114553D01*
X823035D01*
Y1114717D01*
X822953D01*
Y1114881D01*
X822871D01*
Y1115045D01*
X822789D01*
Y1115127D01*
X822707D01*
Y1115291D01*
X822625D01*
Y1115455D01*
X822543D01*
Y1115537D01*
X822461D01*
Y1115701D01*
X822379D01*
Y1115865D01*
X822297D01*
Y1116029D01*
X822215D01*
Y1116111D01*
X822133D01*
Y1116275D01*
X822051D01*
Y1116439D01*
X821969D01*
Y1116603D01*
X821887D01*
Y1116685D01*
X821805D01*
Y1116849D01*
X821723D01*
Y1117013D01*
X821641D01*
Y1117095D01*
X821559D01*
Y1117259D01*
X821477D01*
Y1117423D01*
X821395D01*
Y1117587D01*
X821313D01*
Y1117669D01*
X821231D01*
Y1117833D01*
X821149D01*
Y1117997D01*
X821067D01*
Y1118161D01*
X820985D01*
Y1118325D01*
X820903D01*
Y1118489D01*
X820821D01*
Y1118735D01*
X820739D01*
Y1140464D01*
X820821D01*
Y1140710D01*
X820903D01*
Y1140874D01*
X820985D01*
Y1141038D01*
X821067D01*
Y1141120D01*
X821149D01*
Y1141202D01*
X821231D01*
Y1141366D01*
X821313D01*
Y1141448D01*
X821477D01*
Y1141530D01*
X821559D01*
Y1141612D01*
X821723D01*
Y1141694D01*
X821805D01*
Y1141776D01*
X822051D01*
Y1141858D01*
X822297D01*
Y1141940D01*
X822707D01*
Y1142021D01*
X823035D01*
Y1142104D01*
X823281D01*
Y1142186D01*
X823527D01*
Y1142268D01*
X823691D01*
Y1142349D01*
X823855D01*
Y1142431D01*
X824019D01*
Y1142514D01*
X824183D01*
Y1142596D01*
X824265D01*
Y1142678D01*
X824347D01*
Y1142759D01*
X824511D01*
Y1142841D01*
X824593D01*
Y1142924D01*
X824675D01*
Y1143006D01*
X824757D01*
Y1143087D01*
X824839D01*
Y1143169D01*
X824921D01*
Y1143251D01*
X825003D01*
Y1143334D01*
X825085D01*
Y1143415D01*
X825166D01*
Y1143579D01*
X825248D01*
Y1143661D01*
X825331D01*
Y1143825D01*
X825413D01*
Y1143907D01*
X825495D01*
Y1144071D01*
X825576D01*
Y1144235D01*
X825658D01*
Y1144399D01*
X825741D01*
Y1144645D01*
X825823D01*
Y1144973D01*
X825904D01*
Y1145383D01*
X825986D01*
Y1146449D01*
X825904D01*
Y1146941D01*
X825823D01*
Y1147187D01*
X825741D01*
Y1147433D01*
X825658D01*
Y1147597D01*
X825576D01*
Y1147761D01*
X825495D01*
Y1147925D01*
X825413D01*
Y1148007D01*
X825331D01*
Y1148171D01*
X825248D01*
Y1148253D01*
X825166D01*
Y1148417D01*
X825085D01*
Y1148499D01*
X825003D01*
Y1148581D01*
X824921D01*
Y1148663D01*
X824839D01*
Y1148745D01*
X824757D01*
Y1148827D01*
X824675D01*
Y1148909D01*
X824593D01*
Y1148991D01*
X824511D01*
Y1149073D01*
X824429D01*
Y1149155D01*
X824265D01*
Y1149237D01*
X824183D01*
Y1149319D01*
X824019D01*
Y1149401D01*
X823937D01*
Y1149483D01*
X823773D01*
Y1149565D01*
X823609D01*
Y1149647D01*
X823363D01*
Y1149729D01*
X823117D01*
Y1149811D01*
X822871D01*
Y1149893D01*
X822379D01*
Y1149975D01*
D02*
G37*
G36*
X794501Y1130542D02*
X780808D01*
Y1119473D01*
X787039D01*
Y1119391D01*
X787285D01*
Y1119309D01*
X787449D01*
Y1119227D01*
X787613D01*
Y1119145D01*
X787695D01*
Y1119063D01*
X787859D01*
Y1118981D01*
X787941D01*
Y1118899D01*
X788023D01*
Y1118817D01*
X788105D01*
Y1118735D01*
X788187D01*
Y1118571D01*
X788269D01*
Y1118489D01*
X788351D01*
Y1118325D01*
X788433D01*
Y1118079D01*
X788515D01*
Y1116931D01*
X788433D01*
Y1116685D01*
X788351D01*
Y1116521D01*
X788269D01*
Y1116439D01*
X788187D01*
Y1116275D01*
X788105D01*
Y1116193D01*
X788023D01*
Y1116111D01*
X787941D01*
Y1116029D01*
X787859D01*
Y1115947D01*
X787777D01*
Y1115865D01*
X787613D01*
Y1115783D01*
X787449D01*
Y1115701D01*
X787285D01*
Y1115619D01*
X787039D01*
Y1115537D01*
X780808D01*
Y1109142D01*
X786793D01*
Y1109060D01*
X787203D01*
Y1108978D01*
X787367D01*
Y1108896D01*
X787531D01*
Y1108814D01*
X787695D01*
Y1108732D01*
X787777D01*
Y1108650D01*
X787859D01*
Y1108568D01*
X788023D01*
Y1108404D01*
X788105D01*
Y1108322D01*
X788187D01*
Y1108240D01*
X788269D01*
Y1108076D01*
X788351D01*
Y1107912D01*
X788433D01*
Y1107748D01*
X788515D01*
Y1107174D01*
X788597D01*
Y1107092D01*
X788515D01*
Y1106600D01*
X788433D01*
Y1106354D01*
X788351D01*
Y1106190D01*
X788269D01*
Y1106026D01*
X788187D01*
Y1105944D01*
X788105D01*
Y1105862D01*
X788023D01*
Y1105780D01*
X787941D01*
Y1105698D01*
X787859D01*
Y1105616D01*
X787777D01*
Y1105534D01*
X787695D01*
Y1105452D01*
X787531D01*
Y1105370D01*
X787367D01*
Y1105288D01*
X787121D01*
Y1105206D01*
X786711D01*
Y1105124D01*
X780808D01*
Y1098729D01*
X787039D01*
Y1098647D01*
X787285D01*
Y1098565D01*
X787531D01*
Y1098483D01*
X787613D01*
Y1098401D01*
X787777D01*
Y1098319D01*
X787859D01*
Y1098237D01*
X787941D01*
Y1098155D01*
X788023D01*
Y1098073D01*
X788105D01*
Y1097991D01*
X788187D01*
Y1097909D01*
X788269D01*
Y1097745D01*
X788351D01*
Y1097581D01*
X788433D01*
Y1097335D01*
X788515D01*
Y1096187D01*
X788433D01*
Y1095941D01*
X788351D01*
Y1095777D01*
X788269D01*
Y1095695D01*
X788187D01*
Y1095531D01*
X788105D01*
Y1095449D01*
X788023D01*
Y1095367D01*
X787941D01*
Y1095285D01*
X787859D01*
Y1095203D01*
X787695D01*
Y1095121D01*
X787613D01*
Y1095039D01*
X787449D01*
Y1094957D01*
X787203D01*
Y1094875D01*
X786957D01*
Y1094793D01*
X780808D01*
Y1089545D01*
X780890D01*
Y1089135D01*
X780972D01*
Y1088807D01*
X781054D01*
Y1088479D01*
X781136D01*
Y1088315D01*
X781218D01*
Y1088069D01*
X781300D01*
Y1087905D01*
X781382D01*
Y1087741D01*
X781464D01*
Y1087577D01*
X781546D01*
Y1087413D01*
X781628D01*
Y1087249D01*
X781710D01*
Y1087167D01*
X781792D01*
Y1087003D01*
X781874D01*
Y1086921D01*
X781956D01*
Y1086757D01*
X782038D01*
Y1086675D01*
X782120D01*
Y1086593D01*
X782202D01*
Y1086511D01*
X782284D01*
Y1086347D01*
X782365D01*
Y1086265D01*
X782448D01*
Y1086183D01*
X782530D01*
Y1086102D01*
X782611D01*
Y1086019D01*
X782693D01*
Y1085938D01*
X782775D01*
Y1085855D01*
X782858D01*
Y1085773D01*
X782940D01*
Y1085692D01*
X783021D01*
Y1085610D01*
X783186D01*
Y1085527D01*
X783268D01*
Y1085445D01*
X783350D01*
Y1085363D01*
X783513D01*
Y1085282D01*
X783596D01*
Y1085200D01*
X783678D01*
Y1085117D01*
X783841D01*
Y1085035D01*
X784005D01*
Y1084954D01*
X784087D01*
Y1084872D01*
X784251D01*
Y1084790D01*
X784415D01*
Y1084708D01*
X784579D01*
Y1084625D01*
X784743D01*
Y1084544D01*
X784989D01*
Y1084462D01*
X785153D01*
Y1084380D01*
X785399D01*
Y1084298D01*
X785727D01*
Y1084216D01*
X786055D01*
Y1084134D01*
X786465D01*
Y1084052D01*
X787203D01*
Y1083970D01*
X788023D01*
Y1084052D01*
X788843D01*
Y1084134D01*
X789253D01*
Y1084216D01*
X789581D01*
Y1084298D01*
X789827D01*
Y1084380D01*
X790073D01*
Y1084462D01*
X790319D01*
Y1084544D01*
X790483D01*
Y1084625D01*
X790647D01*
Y1084708D01*
X790893D01*
Y1084790D01*
X790975D01*
Y1084872D01*
X791139D01*
Y1084954D01*
X791303D01*
Y1085035D01*
X791467D01*
Y1085117D01*
X791549D01*
Y1085200D01*
X791713D01*
Y1085282D01*
X791795D01*
Y1085363D01*
X791877D01*
Y1085445D01*
X792041D01*
Y1085527D01*
X792123D01*
Y1085610D01*
X792205D01*
Y1085692D01*
X792287D01*
Y1085773D01*
X792369D01*
Y1085855D01*
X792533D01*
Y1085938D01*
X792615D01*
Y1086019D01*
X792697D01*
Y1086102D01*
X792779D01*
Y1086183D01*
X792861D01*
Y1086347D01*
X792943D01*
Y1086429D01*
X793025D01*
Y1086511D01*
X793107D01*
Y1086593D01*
X793189D01*
Y1086675D01*
X793271D01*
Y1086839D01*
X793353D01*
Y1086921D01*
X793435D01*
Y1087085D01*
X793517D01*
Y1087167D01*
X793599D01*
Y1087331D01*
X793681D01*
Y1087495D01*
X793763D01*
Y1087577D01*
X793845D01*
Y1087741D01*
X793927D01*
Y1087905D01*
X794009D01*
Y1088151D01*
X794091D01*
Y1088315D01*
X794173D01*
Y1088561D01*
X794255D01*
Y1088889D01*
X794337D01*
Y1089217D01*
X794419D01*
Y1089627D01*
X794501D01*
Y1130542D01*
D02*
G37*
%LPD*%
G36*
X811720Y1126853D02*
X812048D01*
Y1126771D01*
X812293D01*
Y1126689D01*
X812458D01*
Y1126607D01*
X812621D01*
Y1126525D01*
X812785D01*
Y1126443D01*
X812949D01*
Y1126361D01*
X813031D01*
Y1126279D01*
X813113D01*
Y1126197D01*
X813195D01*
Y1126115D01*
X813277D01*
Y1126033D01*
X813359D01*
Y1125951D01*
X813441D01*
Y1125869D01*
X813523D01*
Y1125787D01*
X813605D01*
Y1125623D01*
X813687D01*
Y1125459D01*
X813769D01*
Y1125295D01*
X813851D01*
Y1125131D01*
X813933D01*
Y1124885D01*
X814015D01*
Y1124475D01*
X814097D01*
Y1123819D01*
X814015D01*
Y1123409D01*
X813933D01*
Y1123163D01*
X813851D01*
Y1122917D01*
X813769D01*
Y1122753D01*
X813687D01*
Y1122671D01*
X813605D01*
Y1122507D01*
X813523D01*
Y1122425D01*
X813441D01*
Y1122343D01*
X813359D01*
Y1122261D01*
X813277D01*
Y1122179D01*
X813195D01*
Y1122097D01*
X813113D01*
Y1122015D01*
X813031D01*
Y1121933D01*
X812949D01*
Y1121851D01*
X812867D01*
Y1121769D01*
X812703D01*
Y1121687D01*
X812539D01*
Y1121605D01*
X812375D01*
Y1121523D01*
X812130D01*
Y1121441D01*
X811802D01*
Y1121359D01*
X810736D01*
Y1121441D01*
X810408D01*
Y1121523D01*
X810244D01*
Y1121605D01*
X809998D01*
Y1121687D01*
X809916D01*
Y1121769D01*
X809752D01*
Y1121851D01*
X809670D01*
Y1121933D01*
X809506D01*
Y1122015D01*
X809424D01*
Y1122097D01*
X809342D01*
Y1122179D01*
X809260D01*
Y1122261D01*
X809178D01*
Y1122343D01*
X809096D01*
Y1122507D01*
X809014D01*
Y1122589D01*
X808932D01*
Y1122753D01*
X808850D01*
Y1122835D01*
X808768D01*
Y1123081D01*
X808686D01*
Y1123245D01*
X808604D01*
Y1123573D01*
X808522D01*
Y1124721D01*
X808604D01*
Y1125049D01*
X808686D01*
Y1125213D01*
X808768D01*
Y1125377D01*
X808850D01*
Y1125541D01*
X808932D01*
Y1125705D01*
X809014D01*
Y1125787D01*
X809096D01*
Y1125869D01*
X809178D01*
Y1126033D01*
X809260D01*
Y1126115D01*
X809342D01*
Y1126197D01*
X809424D01*
Y1126279D01*
X809588D01*
Y1126361D01*
X809670D01*
Y1126443D01*
X809834D01*
Y1126525D01*
X809916D01*
Y1126607D01*
X810080D01*
Y1126689D01*
X810244D01*
Y1126771D01*
X810490D01*
Y1126853D01*
X810900D01*
Y1126935D01*
X811720D01*
Y1126853D01*
D02*
G37*
G36*
X813769Y1117177D02*
X814261D01*
Y1117095D01*
X814507D01*
Y1117013D01*
X814671D01*
Y1116931D01*
X814835D01*
Y1116849D01*
X814917D01*
Y1116767D01*
X815081D01*
Y1116685D01*
X815163D01*
Y1116603D01*
X815245D01*
Y1116521D01*
X815327D01*
Y1116439D01*
X815409D01*
Y1116275D01*
X815491D01*
Y1116111D01*
X815573D01*
Y1116029D01*
X815655D01*
Y1115783D01*
X815737D01*
Y1115455D01*
X815819D01*
Y1114799D01*
X815737D01*
Y1114472D01*
X815655D01*
Y1114225D01*
X815573D01*
Y1114062D01*
X815491D01*
Y1113897D01*
X815409D01*
Y1113816D01*
X815327D01*
Y1113734D01*
X815245D01*
Y1113652D01*
X815163D01*
Y1113569D01*
X815081D01*
Y1113487D01*
X814999D01*
Y1113406D01*
X814917D01*
Y1113324D01*
X814753D01*
Y1113242D01*
X814589D01*
Y1113159D01*
X814425D01*
Y1113078D01*
X814097D01*
Y1112996D01*
X813277D01*
Y1113078D01*
X812949D01*
Y1113159D01*
X812785D01*
Y1113242D01*
X812621D01*
Y1113324D01*
X812458D01*
Y1113406D01*
X812375D01*
Y1113487D01*
X812293D01*
Y1113569D01*
X812130D01*
Y1113734D01*
X812048D01*
Y1113816D01*
X811965D01*
Y1113897D01*
X811883D01*
Y1114062D01*
X811802D01*
Y1114225D01*
X811720D01*
Y1114389D01*
X811637D01*
Y1114717D01*
X811555D01*
Y1115537D01*
X811637D01*
Y1115783D01*
X811720D01*
Y1116029D01*
X811802D01*
Y1116193D01*
X811883D01*
Y1116275D01*
X811965D01*
Y1116439D01*
X812048D01*
Y1116521D01*
X812130D01*
Y1116603D01*
X812212D01*
Y1116685D01*
X812293D01*
Y1116767D01*
X812375D01*
Y1116849D01*
X812539D01*
Y1116931D01*
X812703D01*
Y1117013D01*
X812867D01*
Y1117095D01*
X813113D01*
Y1117177D01*
X813523D01*
Y1117259D01*
X813769D01*
Y1117177D01*
D02*
G37*
G36*
X808276Y1108650D02*
X808686D01*
Y1108568D01*
X808932D01*
Y1108486D01*
X809178D01*
Y1108404D01*
X809342D01*
Y1108322D01*
X809424D01*
Y1108240D01*
X809588D01*
Y1108158D01*
X809752D01*
Y1108076D01*
X809834D01*
Y1107994D01*
X809916D01*
Y1107912D01*
X809998D01*
Y1107830D01*
X810080D01*
Y1107748D01*
X810162D01*
Y1107666D01*
X810244D01*
Y1107584D01*
X810326D01*
Y1107502D01*
X810408D01*
Y1107420D01*
X810490D01*
Y1107338D01*
X810572D01*
Y1107174D01*
X810654D01*
Y1107092D01*
X810736D01*
Y1106928D01*
X810818D01*
Y1106764D01*
X810900D01*
Y1106518D01*
X810982D01*
Y1106272D01*
X811064D01*
Y1105862D01*
X811145D01*
Y1104796D01*
X811064D01*
Y1104386D01*
X810982D01*
Y1104140D01*
X810900D01*
Y1103976D01*
X810818D01*
Y1103812D01*
X810736D01*
Y1103648D01*
X810654D01*
Y1103484D01*
X810572D01*
Y1103402D01*
X810490D01*
Y1103320D01*
X810408D01*
Y1103156D01*
X810326D01*
Y1103074D01*
X810244D01*
Y1102992D01*
X810162D01*
Y1102910D01*
X810080D01*
Y1102828D01*
X809998D01*
Y1102746D01*
X809916D01*
Y1102664D01*
X809752D01*
Y1102582D01*
X809670D01*
Y1102500D01*
X809506D01*
Y1102418D01*
X809424D01*
Y1102336D01*
X809260D01*
Y1102254D01*
X809096D01*
Y1102172D01*
X808850D01*
Y1102090D01*
X808522D01*
Y1102008D01*
X806964D01*
Y1102090D01*
X806718D01*
Y1102172D01*
X806472D01*
Y1102254D01*
X806308D01*
Y1102336D01*
X806144D01*
Y1102418D01*
X805980D01*
Y1102500D01*
X805898D01*
Y1102582D01*
X805734D01*
Y1102664D01*
X805652D01*
Y1102746D01*
X805570D01*
Y1102828D01*
X805488D01*
Y1102910D01*
X805406D01*
Y1102992D01*
X805324D01*
Y1103074D01*
X805242D01*
Y1103156D01*
X805160D01*
Y1103238D01*
X805078D01*
Y1103320D01*
X804996D01*
Y1103484D01*
X804914D01*
Y1103566D01*
X804832D01*
Y1103730D01*
X804750D01*
Y1103894D01*
X804668D01*
Y1104058D01*
X804586D01*
Y1104304D01*
X804504D01*
Y1104632D01*
X804422D01*
Y1106108D01*
X804504D01*
Y1106354D01*
X804586D01*
Y1106600D01*
X804668D01*
Y1106764D01*
X804750D01*
Y1106928D01*
X804832D01*
Y1107092D01*
X804914D01*
Y1107256D01*
X804996D01*
Y1107338D01*
X805078D01*
Y1107420D01*
X805160D01*
Y1107584D01*
X805242D01*
Y1107666D01*
X805324D01*
Y1107748D01*
X805406D01*
Y1107830D01*
X805488D01*
Y1107912D01*
X805652D01*
Y1107994D01*
X805734D01*
Y1108076D01*
X805816D01*
Y1108158D01*
X805980D01*
Y1108240D01*
X806062D01*
Y1108322D01*
X806226D01*
Y1108404D01*
X806390D01*
Y1108486D01*
X806636D01*
Y1108568D01*
X806882D01*
Y1108650D01*
X807292D01*
Y1108732D01*
X808276D01*
Y1108650D01*
D02*
G37*
G36*
X820657Y1104632D02*
X821149D01*
Y1104550D01*
X821477D01*
Y1104468D01*
X821723D01*
Y1104386D01*
X821969D01*
Y1104304D01*
X822215D01*
Y1104222D01*
X822379D01*
Y1104140D01*
X822543D01*
Y1104058D01*
X822707D01*
Y1103976D01*
X822871D01*
Y1103894D01*
X823035D01*
Y1103812D01*
X823199D01*
Y1103730D01*
X823363D01*
Y1103648D01*
X823445D01*
Y1103566D01*
X823609D01*
Y1103484D01*
X823691D01*
Y1103402D01*
X823773D01*
Y1103320D01*
X823937D01*
Y1103238D01*
X824019D01*
Y1103156D01*
X824101D01*
Y1103074D01*
X824183D01*
Y1102992D01*
X824265D01*
Y1102910D01*
X824429D01*
Y1102828D01*
X824511D01*
Y1102746D01*
X824593D01*
Y1102664D01*
X824675D01*
Y1102582D01*
X824757D01*
Y1102418D01*
X824839D01*
Y1102336D01*
X824921D01*
Y1102254D01*
X825003D01*
Y1102172D01*
X825085D01*
Y1102090D01*
X825166D01*
Y1101926D01*
X825248D01*
Y1101844D01*
X825331D01*
Y1101680D01*
X825413D01*
Y1101598D01*
X825495D01*
Y1101434D01*
X825576D01*
Y1101352D01*
X825658D01*
Y1101188D01*
X825741D01*
Y1101024D01*
X825823D01*
Y1100860D01*
X825904D01*
Y1100696D01*
X825986D01*
Y1100532D01*
X826068D01*
Y1100286D01*
X826151D01*
Y1100041D01*
X826233D01*
Y1099794D01*
X826314D01*
Y1099548D01*
X826396D01*
Y1099138D01*
X826479D01*
Y1098647D01*
X826560D01*
Y1097007D01*
X826479D01*
Y1096515D01*
X826396D01*
Y1096105D01*
X826314D01*
Y1095859D01*
X826233D01*
Y1095613D01*
X826151D01*
Y1095367D01*
X826068D01*
Y1095121D01*
X825986D01*
Y1094957D01*
X825904D01*
Y1094793D01*
X825823D01*
Y1094629D01*
X825741D01*
Y1094465D01*
X825658D01*
Y1094301D01*
X825576D01*
Y1094219D01*
X825495D01*
Y1094055D01*
X825413D01*
Y1093973D01*
X825331D01*
Y1093809D01*
X825248D01*
Y1093727D01*
X825166D01*
Y1093645D01*
X825085D01*
Y1093481D01*
X825003D01*
Y1093399D01*
X824921D01*
Y1093317D01*
X824839D01*
Y1093235D01*
X824757D01*
Y1093153D01*
X824675D01*
Y1093071D01*
X824593D01*
Y1092989D01*
X824511D01*
Y1092907D01*
X824429D01*
Y1092825D01*
X824347D01*
Y1092743D01*
X824265D01*
Y1092661D01*
X824183D01*
Y1092579D01*
X824101D01*
Y1092497D01*
X824019D01*
Y1092415D01*
X823855D01*
Y1092333D01*
X823773D01*
Y1092251D01*
X823691D01*
Y1092169D01*
X823527D01*
Y1092087D01*
X823445D01*
Y1092005D01*
X823281D01*
Y1091923D01*
X823199D01*
Y1091841D01*
X823035D01*
Y1091759D01*
X822871D01*
Y1091677D01*
X822707D01*
Y1091595D01*
X822543D01*
Y1091513D01*
X822379D01*
Y1091431D01*
X822133D01*
Y1091349D01*
X821887D01*
Y1091267D01*
X821641D01*
Y1091185D01*
X821395D01*
Y1091103D01*
X821067D01*
Y1091021D01*
X820575D01*
Y1090939D01*
X818771D01*
Y1091021D01*
X818279D01*
Y1091103D01*
X817951D01*
Y1091185D01*
X817623D01*
Y1091267D01*
X817377D01*
Y1091349D01*
X817131D01*
Y1091431D01*
X816967D01*
Y1091513D01*
X816803D01*
Y1091595D01*
X816639D01*
Y1091677D01*
X816475D01*
Y1091759D01*
X816311D01*
Y1091841D01*
X816147D01*
Y1091923D01*
X815983D01*
Y1092005D01*
X815901D01*
Y1092087D01*
X815737D01*
Y1092169D01*
X815655D01*
Y1092251D01*
X815491D01*
Y1092333D01*
X815409D01*
Y1092415D01*
X815327D01*
Y1092497D01*
X815245D01*
Y1092579D01*
X815163D01*
Y1092661D01*
X814999D01*
Y1092743D01*
X814917D01*
Y1092825D01*
X814835D01*
Y1092907D01*
X814753D01*
Y1092989D01*
X814671D01*
Y1093071D01*
X814589D01*
Y1093153D01*
X814507D01*
Y1093317D01*
X814425D01*
Y1093399D01*
X814343D01*
Y1093481D01*
X814261D01*
Y1093563D01*
X814179D01*
Y1093645D01*
X814097D01*
Y1093809D01*
X814015D01*
Y1093891D01*
X813933D01*
Y1094055D01*
X813851D01*
Y1094137D01*
X813769D01*
Y1094301D01*
X813687D01*
Y1094465D01*
X813605D01*
Y1094547D01*
X813523D01*
Y1094711D01*
X813441D01*
Y1094875D01*
X813359D01*
Y1095039D01*
X813277D01*
Y1095285D01*
X813195D01*
Y1095449D01*
X813113D01*
Y1095695D01*
X813031D01*
Y1096023D01*
X812949D01*
Y1096351D01*
X812867D01*
Y1096761D01*
X812785D01*
Y1098893D01*
X812867D01*
Y1099303D01*
X812949D01*
Y1099713D01*
X813031D01*
Y1099958D01*
X813113D01*
Y1100204D01*
X813195D01*
Y1100368D01*
X813277D01*
Y1100614D01*
X813359D01*
Y1100778D01*
X813441D01*
Y1100942D01*
X813523D01*
Y1101106D01*
X813605D01*
Y1101270D01*
X813687D01*
Y1101352D01*
X813769D01*
Y1101516D01*
X813851D01*
Y1101680D01*
X813933D01*
Y1101762D01*
X814015D01*
Y1101844D01*
X814097D01*
Y1102008D01*
X814179D01*
Y1102090D01*
X814261D01*
Y1102172D01*
X814343D01*
Y1102254D01*
X814425D01*
Y1102418D01*
X814507D01*
Y1102500D01*
X814589D01*
Y1102582D01*
X814671D01*
Y1102664D01*
X814753D01*
Y1102746D01*
X814835D01*
Y1102828D01*
X814917D01*
Y1102910D01*
X814999D01*
Y1102992D01*
X815081D01*
Y1103074D01*
X815245D01*
Y1103156D01*
X815327D01*
Y1103238D01*
X815409D01*
Y1103320D01*
X815491D01*
Y1103402D01*
X815655D01*
Y1103484D01*
X815737D01*
Y1103566D01*
X815901D01*
Y1103648D01*
X815983D01*
Y1103730D01*
X816147D01*
Y1103812D01*
X816229D01*
Y1103894D01*
X816393D01*
Y1103976D01*
X816557D01*
Y1104058D01*
X816721D01*
Y1104140D01*
X816967D01*
Y1104222D01*
X817131D01*
Y1104304D01*
X817377D01*
Y1104386D01*
X817623D01*
Y1104468D01*
X817869D01*
Y1104550D01*
X818197D01*
Y1104632D01*
X818689D01*
Y1104714D01*
X820657D01*
Y1104632D01*
D02*
G37*
G36*
X805734Y1095121D02*
X806062D01*
Y1095039D01*
X806308D01*
Y1094957D01*
X806472D01*
Y1094875D01*
X806636D01*
Y1094793D01*
X806718D01*
Y1094711D01*
X806800D01*
Y1094629D01*
X806882D01*
Y1094547D01*
X806964D01*
Y1094465D01*
X807046D01*
Y1094383D01*
X807128D01*
Y1094301D01*
X807210D01*
Y1094137D01*
X807292D01*
Y1094055D01*
X807374D01*
Y1093809D01*
X807456D01*
Y1093563D01*
X807538D01*
Y1092497D01*
X807456D01*
Y1092415D01*
Y1092333D01*
Y1092251D01*
X807374D01*
Y1092087D01*
X807292D01*
Y1091923D01*
X807210D01*
Y1091841D01*
X807128D01*
Y1091677D01*
X807046D01*
Y1091595D01*
X806964D01*
Y1091513D01*
X806882D01*
Y1091431D01*
X806800D01*
Y1091349D01*
X806636D01*
Y1091267D01*
X806554D01*
Y1091185D01*
X806390D01*
Y1091103D01*
X806226D01*
Y1091021D01*
X805898D01*
Y1090939D01*
X804914D01*
Y1091021D01*
X804668D01*
Y1091103D01*
X804504D01*
Y1091185D01*
X804340D01*
Y1091267D01*
X804258D01*
Y1091349D01*
X804094D01*
Y1091431D01*
X804012D01*
Y1091513D01*
X803930D01*
Y1091595D01*
X803848D01*
Y1091677D01*
X803766D01*
Y1091841D01*
X803684D01*
Y1091923D01*
X803602D01*
Y1092087D01*
X803520D01*
Y1092251D01*
X803438D01*
Y1092497D01*
X803356D01*
Y1093563D01*
X803438D01*
Y1093891D01*
X803520D01*
Y1094055D01*
X803602D01*
Y1094137D01*
X803684D01*
Y1094301D01*
X803766D01*
Y1094383D01*
X803848D01*
Y1094465D01*
X803930D01*
Y1094547D01*
X804012D01*
Y1094629D01*
X804094D01*
Y1094711D01*
X804176D01*
Y1094793D01*
X804258D01*
Y1094875D01*
X804422D01*
Y1094957D01*
X804586D01*
Y1095039D01*
X804832D01*
Y1095121D01*
X805160D01*
Y1095203D01*
X805734D01*
Y1095121D01*
D02*
G37*
%LPC*%
G36*
X524969Y641539D02*
X520106D01*
Y640729D01*
X519295D01*
Y639918D01*
X518484D01*
Y639107D01*
X517674D01*
Y614788D01*
X516863D01*
Y613978D01*
X515242D01*
Y613167D01*
X514431D01*
Y612356D01*
X513620D01*
Y611545D01*
X512810D01*
Y610735D01*
X511999D01*
Y609924D01*
X511189D01*
Y608303D01*
X510378D01*
Y606682D01*
X509567D01*
Y603439D01*
X508757D01*
Y600197D01*
X509567D01*
Y596954D01*
X510378D01*
Y595333D01*
X511189D01*
Y593712D01*
X511999D01*
Y592901D01*
X512810D01*
Y592090D01*
X513620D01*
Y591280D01*
X514431D01*
Y590469D01*
X516052D01*
Y589658D01*
X517674D01*
Y588848D01*
X520106D01*
Y588037D01*
X525780D01*
Y588848D01*
X528212D01*
Y589658D01*
X529833D01*
Y590469D01*
X531455D01*
Y591280D01*
X532265D01*
Y592090D01*
X533076D01*
Y592901D01*
X533886D01*
Y594522D01*
X534697D01*
Y595333D01*
X535508D01*
Y597765D01*
X536318D01*
Y605871D01*
X535508D01*
Y608303D01*
X534697D01*
Y609924D01*
X533886D01*
Y610735D01*
X533076D01*
Y611545D01*
X532265D01*
Y612356D01*
X531455D01*
Y613167D01*
X529833D01*
Y613978D01*
X529022D01*
Y614788D01*
X528212D01*
Y617220D01*
X523348D01*
Y618841D01*
X528212D01*
Y621273D01*
X523348D01*
Y622895D01*
X528212D01*
Y626137D01*
X523348D01*
Y626948D01*
X528212D01*
Y630190D01*
X523348D01*
Y631001D01*
X528212D01*
Y634243D01*
X523348D01*
Y635054D01*
X528212D01*
Y638297D01*
X527401D01*
Y639918D01*
X526591D01*
Y640729D01*
X524969D01*
Y641539D01*
D02*
G37*
%LPD*%
G36*
X521727Y630190D02*
X520916D01*
Y613167D01*
X520106D01*
Y612356D01*
X519295D01*
Y611545D01*
X517674D01*
Y610735D01*
X516863D01*
Y609924D01*
X515242D01*
Y609114D01*
X514431D01*
Y607492D01*
X513620D01*
Y605871D01*
X512810D01*
Y603439D01*
X511999D01*
Y600197D01*
X512810D01*
Y597765D01*
X513620D01*
Y596143D01*
X514431D01*
Y595333D01*
X515242D01*
Y594522D01*
X516052D01*
Y593712D01*
X516863D01*
Y592901D01*
X517674D01*
Y592090D01*
X520106D01*
Y591280D01*
X525780D01*
Y592090D01*
X527401D01*
Y592901D01*
X529022D01*
Y593712D01*
X529833D01*
Y594522D01*
X530644D01*
Y595333D01*
X531455D01*
Y596143D01*
X532265D01*
Y597765D01*
X533076D01*
Y605871D01*
X532265D01*
Y607492D01*
X531455D01*
Y608303D01*
X530644D01*
Y609114D01*
X529833D01*
Y609924D01*
X529022D01*
Y610735D01*
X528212D01*
Y611545D01*
X525780D01*
Y612356D01*
X524969D01*
Y616409D01*
X526591D01*
Y613167D01*
X527401D01*
Y612356D01*
X529022D01*
Y611545D01*
X530644D01*
Y610735D01*
X531455D01*
Y609924D01*
X532265D01*
Y608303D01*
X533076D01*
Y607492D01*
X533886D01*
Y605060D01*
X534697D01*
Y598575D01*
X533886D01*
Y596143D01*
X533076D01*
Y595333D01*
X532265D01*
Y593712D01*
X531455D01*
Y592901D01*
X530644D01*
Y592090D01*
X529022D01*
Y591280D01*
X527401D01*
Y590469D01*
X524969D01*
Y589658D01*
X520916D01*
Y590469D01*
X518484D01*
Y591280D01*
X516863D01*
Y592090D01*
X515242D01*
Y592901D01*
X514431D01*
Y593712D01*
X513620D01*
Y594522D01*
X512810D01*
Y596143D01*
X511999D01*
Y597765D01*
X511189D01*
Y605871D01*
X511999D01*
Y607492D01*
X512810D01*
Y609114D01*
X513620D01*
Y609924D01*
X514431D01*
Y610735D01*
X515242D01*
Y611545D01*
X516863D01*
Y612356D01*
X517674D01*
Y613167D01*
X519295D01*
Y631001D01*
X521727D01*
Y630190D01*
D02*
G37*
%LPC*%
G36*
X1699121Y499476D02*
X1694264D01*
Y499233D01*
X1693292D01*
Y498991D01*
X1692564D01*
Y498748D01*
X1691835D01*
Y498505D01*
X1691349D01*
Y498262D01*
X1690864D01*
Y498019D01*
X1690378D01*
Y497776D01*
X1689892D01*
Y497533D01*
X1689649D01*
Y497291D01*
X1689164D01*
Y497048D01*
X1688921D01*
Y496805D01*
X1688678D01*
Y496562D01*
X1688435D01*
Y496319D01*
X1688192D01*
Y496076D01*
X1687949D01*
Y495834D01*
X1687707D01*
Y495591D01*
X1687464D01*
Y495348D01*
X1687221D01*
Y495105D01*
X1686978D01*
Y494862D01*
X1686735D01*
Y494619D01*
X1686492D01*
Y494376D01*
X1686250D01*
Y493891D01*
X1686007D01*
Y493405D01*
X1685764D01*
Y493162D01*
X1685521D01*
Y492676D01*
X1685278D01*
Y492191D01*
X1685035D01*
Y491462D01*
X1684792D01*
Y490976D01*
X1684550D01*
Y490005D01*
X1684307D01*
Y489034D01*
X1684064D01*
Y473491D01*
X1709321D01*
Y489034D01*
X1709078D01*
Y490005D01*
X1708835D01*
Y490976D01*
X1708592D01*
Y491462D01*
X1708349D01*
Y492191D01*
X1708106D01*
Y492676D01*
X1707863D01*
Y493162D01*
X1707621D01*
Y493405D01*
X1707378D01*
Y493891D01*
X1707135D01*
Y494133D01*
X1706892D01*
Y494619D01*
X1706649D01*
Y494862D01*
X1706406D01*
Y495105D01*
X1706163D01*
Y495348D01*
X1705921D01*
Y495591D01*
X1705678D01*
Y495834D01*
X1705435D01*
Y496076D01*
X1705192D01*
Y496319D01*
X1704949D01*
Y496562D01*
X1704706D01*
Y496805D01*
X1704463D01*
Y497048D01*
X1704221D01*
Y497291D01*
X1703735D01*
Y497533D01*
X1703249D01*
Y497776D01*
X1703006D01*
Y498019D01*
X1702521D01*
Y498262D01*
X1702035D01*
Y498505D01*
X1701549D01*
Y498748D01*
X1700821D01*
Y498991D01*
X1700092D01*
Y499233D01*
X1699121D01*
Y499476D01*
D02*
G37*
G36*
X1714420Y470334D02*
X1680178D01*
Y470091D01*
X1679450D01*
Y469848D01*
X1678964D01*
Y469605D01*
X1678721D01*
Y469362D01*
X1678478D01*
Y469120D01*
X1678235D01*
Y468877D01*
X1677993D01*
Y468391D01*
X1677750D01*
Y467905D01*
X1677507D01*
Y466205D01*
X1677750D01*
Y465477D01*
X1677993D01*
Y464991D01*
X1678235D01*
Y464748D01*
X1678478D01*
Y464506D01*
X1678721D01*
Y464263D01*
X1679207D01*
Y464020D01*
X1679692D01*
Y463777D01*
X1714906D01*
Y464020D01*
X1715635D01*
Y464263D01*
X1715878D01*
Y464506D01*
X1716120D01*
Y464748D01*
X1716363D01*
Y464991D01*
X1716606D01*
Y465477D01*
X1716849D01*
Y466205D01*
X1717092D01*
Y467905D01*
X1716849D01*
Y468391D01*
X1716606D01*
Y468877D01*
X1716363D01*
Y469120D01*
X1716120D01*
Y469362D01*
X1715878D01*
Y469605D01*
X1715635D01*
Y469848D01*
X1715149D01*
Y470091D01*
X1714420D01*
Y470334D01*
D02*
G37*
G36*
X420197Y475264D02*
X414871D01*
Y474672D01*
X413095D01*
Y474080D01*
X412503D01*
Y473488D01*
X411320D01*
Y472896D01*
X410728D01*
Y471712D01*
X410136D01*
Y471121D01*
X409544D01*
Y469937D01*
X408952D01*
Y469345D01*
X407769D01*
Y468753D01*
X405993D01*
Y468162D01*
X405401D01*
Y467570D01*
X404218D01*
Y466386D01*
X403626D01*
Y465794D01*
X403034D01*
Y464610D01*
X402442D01*
Y462835D01*
X400667D01*
Y462243D01*
X399483D01*
Y461651D01*
X398891D01*
Y461059D01*
X398299D01*
Y460467D01*
Y459876D01*
X397707D01*
Y455733D01*
X398299D01*
Y454549D01*
X398891D01*
Y453957D01*
X399483D01*
Y453365D01*
X400075D01*
Y452774D01*
X401258D01*
Y452182D01*
X429667D01*
Y452774D01*
X431442D01*
Y453365D01*
X432626D01*
Y453957D01*
X433218D01*
Y454549D01*
X433810D01*
Y455141D01*
X434402D01*
Y455733D01*
X434994D01*
Y456325D01*
X435585D01*
Y456916D01*
X436177D01*
Y458100D01*
X436769D01*
Y459876D01*
X437361D01*
Y464610D01*
X436769D01*
Y466386D01*
X436177D01*
Y467570D01*
X435585D01*
Y468753D01*
X434994D01*
Y469345D01*
X434402D01*
Y469937D01*
X433810D01*
Y470529D01*
X433218D01*
Y471121D01*
X432034D01*
Y471712D01*
X430851D01*
Y472304D01*
X428483D01*
Y472896D01*
X425524D01*
Y472304D01*
X423748D01*
Y472896D01*
X423157D01*
Y473488D01*
X422565D01*
Y474080D01*
X421381D01*
Y474672D01*
X420197D01*
Y475264D01*
D02*
G37*
%LPD*%
G36*
Y473488D02*
X421381D01*
Y472896D01*
X421973D01*
Y472304D01*
X423157D01*
Y471121D01*
X423748D01*
Y470529D01*
X424340D01*
Y469937D01*
X423157D01*
Y470529D01*
X422565D01*
Y471121D01*
X421973D01*
Y471712D01*
X421381D01*
Y472304D01*
X420197D01*
Y472896D01*
X419014D01*
Y473488D01*
X416646D01*
Y474080D01*
X420197D01*
Y473488D01*
D02*
G37*
G36*
X429075Y471121D02*
X430851D01*
Y470529D01*
X432034D01*
Y469937D01*
X432626D01*
Y469345D01*
X433218D01*
Y468753D01*
X433810D01*
Y468162D01*
X434402D01*
Y467570D01*
X434994D01*
Y466386D01*
X435585D01*
Y465202D01*
X436177D01*
Y464610D01*
X435585D01*
Y464019D01*
X434994D01*
Y465202D01*
X434402D01*
Y466386D01*
X433810D01*
Y467570D01*
X433218D01*
Y468162D01*
X432626D01*
Y468753D01*
X432034D01*
Y469345D01*
X430851D01*
Y469937D01*
X429667D01*
Y470529D01*
X426708D01*
Y471712D01*
X429075D01*
Y471121D01*
D02*
G37*
G36*
X411320Y467570D02*
X412503D01*
Y466978D01*
X413095D01*
Y466386D01*
X413687D01*
Y465794D01*
X414279D01*
Y464610D01*
X414871D01*
Y461651D01*
X414279D01*
Y462835D01*
X413687D01*
Y464610D01*
X413095D01*
Y465794D01*
X412503D01*
Y466386D01*
X411320D01*
Y466978D01*
X408952D01*
Y468162D01*
X411320D01*
Y467570D01*
D02*
G37*
G36*
X421973Y466978D02*
X423748D01*
Y466386D01*
X424932D01*
Y465794D01*
X426116D01*
Y465202D01*
X426708D01*
Y464610D01*
X427299D01*
Y464019D01*
X427891D01*
Y462835D01*
X428483D01*
Y462243D01*
X429075D01*
Y460467D01*
X429667D01*
Y459876D01*
X428483D01*
Y461059D01*
X427891D01*
Y462243D01*
X427299D01*
Y462835D01*
X426708D01*
Y463427D01*
X426116D01*
Y464019D01*
X425524D01*
Y464610D01*
X424932D01*
Y465202D01*
X423748D01*
Y465794D01*
X422565D01*
Y466386D01*
X417830D01*
Y465794D01*
X416054D01*
Y466386D01*
X416646D01*
Y466978D01*
X418422D01*
Y467570D01*
X421973D01*
Y466978D01*
D02*
G37*
D10*
X1495370Y560060D02*
G03*
X1495370Y560060I-1250J0D01*
G01*
X1294060Y426560D02*
G03*
X1294060Y426560I-1250J0D01*
G01*
X1287170Y359481D02*
G03*
X1287170Y359481I-1250J0D01*
G01*
X794300Y356940D02*
G03*
X794300Y356940I-1250J0D01*
G01*
X798760Y424020D02*
G03*
X798760Y424020I-1250J0D01*
G01*
X643240Y926250D02*
G03*
X643240Y926250I-1250J0D01*
G01*
X582950Y1149220D02*
G03*
X582950Y1149220I-1250J0D01*
G01*
X999390Y581660D02*
G03*
X999390Y581660I-1250J0D01*
G01*
X933940Y872490D02*
G03*
X933940Y872490I-1250J0D01*
G01*
X1581730Y560060D02*
G03*
X1581730Y560060I-1250J0D01*
G01*
X1410280D02*
G03*
X1410280Y560060I-1250J0D01*
G01*
X1568480Y680880D02*
G03*
X1568480Y680880I-1250J0D01*
G01*
D11*
X990510Y499620D02*
G03*
X990510Y499620I-2000J0D01*
G01*
X907490Y365521D02*
G03*
X907490Y365521I-1000J0D01*
G01*
D12*
X979510Y483620D02*
G03*
X979510Y483620I-1000J0D01*
G01*
X343140Y482160D02*
G03*
X343140Y482160I-1000J0D01*
G01*
X1506620Y568560D02*
X1556620D01*
X1506620Y518560D02*
X1556620D01*
X1506620D02*
Y519060D01*
X1556620Y518560D02*
Y519060D01*
Y568060D02*
Y568560D01*
X1506620Y568060D02*
Y568560D01*
Y535560D02*
Y551560D01*
X1556620Y535560D02*
Y551560D01*
X1288410Y410060D02*
Y418210D01*
X1281810Y410060D02*
X1288410D01*
X1259210D02*
Y418210D01*
Y410060D02*
X1265810D01*
X1284920Y325480D02*
X1290920D01*
X1284920Y365480D02*
X1290920D01*
Y325480D02*
Y365480D01*
X1256920D02*
X1262920D01*
X1256920Y325480D02*
X1262920D01*
X1256920D02*
Y365480D01*
X1172480Y337220D02*
X1174480D01*
X1172480Y325720D02*
X1174480D01*
X1172480Y379060D02*
X1174480D01*
X1172480Y390560D02*
X1174480D01*
X1084010Y493620D02*
Y537620D01*
X981010Y493620D02*
Y537620D01*
X792050Y322940D02*
X798050D01*
X792050Y362940D02*
X798050D01*
Y322940D02*
Y362940D01*
X764050D02*
X770050D01*
X764050Y322940D02*
X770050D01*
X764050D02*
Y362940D01*
X793110Y407520D02*
Y415670D01*
X786510Y407520D02*
X793110D01*
X763910D02*
Y415670D01*
Y407520D02*
X770510D01*
X766491Y482420D02*
X791653D01*
X766491Y459920D02*
X791653D01*
X766491Y538300D02*
X791653D01*
X766491Y515800D02*
X791653D01*
X644290Y936500D02*
X694290D01*
X644290Y968500D02*
X694290D01*
X644290Y936500D02*
Y968500D01*
X694290Y936500D02*
Y968500D01*
X765929Y594180D02*
X791091D01*
X765929Y571680D02*
X791091D01*
X529029Y370221D02*
X558091D01*
X529029Y348599D02*
X558091D01*
X1512490Y694770D02*
Y704770D01*
X1507490Y699770D02*
X1517490D01*
X395380Y575710D02*
Y725710D01*
X478380Y575710D02*
Y725710D01*
X395380D02*
X478380D01*
X401630Y569710D02*
X408130D01*
X406880Y575710D02*
X408130Y569710D01*
X401630D02*
X402880Y575710D01*
X395380D02*
X402880D01*
X465630Y569710D02*
X472130D01*
X470880Y575710D02*
X472130Y569710D01*
X465630D02*
X466880Y575710D01*
X470880D02*
X478380D01*
X406880D02*
X466880D01*
X1020140Y572660D02*
X1029640D01*
X1020140Y590660D02*
X1029640D01*
X943190Y880740D02*
Y947390D01*
Y632390D02*
Y635640D01*
Y632390D02*
X1124190D01*
Y880740D02*
Y947390D01*
Y632390D02*
Y635640D01*
X943190Y947390D02*
X1124190D01*
X1260059Y619649D02*
X1292641D01*
X1260059Y642731D02*
X1292641D01*
X1263089Y589931D02*
X1292151D01*
X1263089Y568309D02*
X1292151D01*
X1276620Y680050D02*
X1278620D01*
X1276620Y691550D02*
X1278620D01*
X1275624Y483770D02*
X1277076D01*
X1275624Y471270D02*
X1277076D01*
X1273830Y536590D02*
X1276330D01*
X1273830Y522590D02*
X1276330D01*
X1033220Y421510D02*
Y437010D01*
X1023970Y437760D02*
X1035970D01*
X1023970Y420760D02*
X1035970D01*
X828867Y483690D02*
X854029D01*
X828867Y461190D02*
X854029D01*
X1143240Y507310D02*
Y516310D01*
X1173240Y507310D02*
Y516310D01*
X1158740Y504810D02*
X1161740D01*
X1154740Y518810D02*
X1161740D01*
X1592980Y568560D02*
X1642980D01*
X1592980Y518560D02*
X1642980D01*
X1592980D02*
Y519060D01*
X1642980Y518560D02*
Y519060D01*
Y568060D02*
Y568560D01*
X1592980Y568060D02*
Y568560D01*
Y535560D02*
Y551560D01*
X1642980Y535560D02*
Y551560D01*
X1421530Y568560D02*
X1471530D01*
X1421530Y518560D02*
X1471530D01*
X1421530D02*
Y519060D01*
X1471530Y518560D02*
Y519060D01*
Y568060D02*
Y568560D01*
X1421530Y568060D02*
Y568560D01*
Y535560D02*
Y551560D01*
X1471530Y535560D02*
Y551560D01*
X532457Y1015381D02*
X561519D01*
X532457Y993759D02*
X561519D01*
X549350Y948560D02*
Y964060D01*
X540100Y964810D02*
X552100D01*
X540100Y947810D02*
X552100D01*
X615310Y880830D02*
X713110D01*
X615310Y831230D02*
Y880830D01*
Y831230D02*
X713110D01*
Y880830D01*
X720069Y918329D02*
X753131D01*
X720069Y940951D02*
X753131D01*
X720069Y975479D02*
X753131D01*
X720069Y998101D02*
X753131D01*
X363871Y628089D02*
Y657151D01*
X342249Y628089D02*
Y657151D01*
X1572969Y640731D02*
X1602031D01*
X1572969Y619109D02*
X1602031D01*
X1571630Y689230D02*
Y697380D01*
X1578230D01*
X1600830Y689230D02*
Y697380D01*
X1594230D02*
X1600830D01*
X529029Y434991D02*
X558091D01*
X529029Y413369D02*
X558091D01*
D13*
X657290Y946500D02*
G03*
X657290Y946500I-3000J0D01*
G01*
D14*
X1503990Y699770D02*
G03*
X1503990Y699770I-60000J0D01*
G01*
X754950Y1115630D02*
G03*
X754950Y1115630I-87500J0D01*
G01*
D15*
X1143240Y501810D02*
G03*
X1143240Y501810I-500J0D01*
G01*
D16*
X915035Y463042D02*
X934085D01*
Y474776D02*
Y482804D01*
X915035Y494538D02*
X934085D01*
D17*
X912990Y315921D02*
X948990D01*
X960990Y335671D02*
Y358420D01*
X952990D02*
X960990D01*
X900990Y335671D02*
Y358420D01*
X908990D01*
X371840Y446410D02*
Y477010D01*
X336440Y446410D02*
Y477010D01*
X485142Y594360D02*
Y596053D01*
Y595206D01*
X490220D01*
Y594360D01*
Y596053D01*
X485142Y601131D02*
Y599438D01*
X485988Y598592D01*
X489374D01*
X490220Y599438D01*
Y601131D01*
X489374Y601978D01*
X485988D01*
X485142Y601131D01*
X485988Y647700D02*
X485142Y648546D01*
Y650239D01*
X485988Y651086D01*
X486834D01*
X487681Y650239D01*
Y649393D01*
Y650239D01*
X488527Y651086D01*
X489374D01*
X490220Y650239D01*
Y648546D01*
X489374Y647700D01*
X485142Y652778D02*
X488527D01*
X490220Y654471D01*
X488527Y656164D01*
X485142D01*
X485988Y657857D02*
X485142Y658703D01*
Y660396D01*
X485988Y661242D01*
X486834D01*
X487681Y660396D01*
Y659549D01*
Y660396D01*
X488527Y661242D01*
X489374D01*
X490220Y660396D01*
Y658703D01*
X489374Y657857D01*
X483448Y700616D02*
X482602Y699769D01*
Y698076D01*
X483448Y697230D01*
X486834D01*
X487680Y698076D01*
Y699769D01*
X486834Y700616D01*
X485141D01*
Y698923D01*
X487680Y702308D02*
X482602D01*
X487680Y705694D01*
X482602D01*
Y707387D02*
X487680D01*
Y709926D01*
X486834Y710772D01*
X483448D01*
X482602Y709926D01*
Y707387D01*
X1222586Y565572D02*
X1221739Y566418D01*
X1220046D01*
X1219200Y565572D01*
Y562186D01*
X1220046Y561340D01*
X1221739D01*
X1222586Y562186D01*
X1224278Y566418D02*
Y561340D01*
X1227664D01*
X1229357Y566418D02*
Y561340D01*
Y563033D01*
X1232742Y566418D01*
X1230203Y563879D01*
X1232742Y561340D01*
X1222586Y592242D02*
X1221739Y593088D01*
X1220046D01*
X1219200Y592242D01*
Y591396D01*
X1220046Y590549D01*
X1221739D01*
X1222586Y589703D01*
Y588856D01*
X1221739Y588010D01*
X1220046D01*
X1219200Y588856D01*
X1224278Y593088D02*
Y588010D01*
X1226817D01*
X1227664Y588856D01*
Y592242D01*
X1226817Y593088D01*
X1224278D01*
X1229357Y592242D02*
X1230203Y593088D01*
X1231896D01*
X1232742Y592242D01*
Y588856D01*
X1231896Y588010D01*
X1230203D01*
X1229357Y588856D01*
Y592242D01*
X1222586Y618912D02*
X1221739Y619758D01*
X1220046D01*
X1219200Y618912D01*
Y618066D01*
X1220046Y617219D01*
X1221739D01*
X1222586Y616373D01*
Y615526D01*
X1221739Y614680D01*
X1220046D01*
X1219200Y615526D01*
X1224278Y619758D02*
Y614680D01*
X1226817D01*
X1227664Y615526D01*
Y618912D01*
X1226817Y619758D01*
X1224278D01*
X1229357Y614680D02*
X1231049D01*
X1230203D01*
Y619758D01*
X1229357Y618912D01*
X1219200Y643888D02*
X1220893D01*
X1220046D01*
Y638810D01*
X1219200D01*
X1220893D01*
X1225971Y643888D02*
X1224278D01*
X1223432Y643042D01*
Y639656D01*
X1224278Y638810D01*
X1225971D01*
X1226817Y639656D01*
Y643042D01*
X1225971Y643888D01*
X1228510Y638810D02*
X1230203D01*
X1229357D01*
Y643888D01*
X1228510Y643042D01*
X1236128Y643888D02*
X1232742D01*
Y641349D01*
X1234435Y642196D01*
X1235282D01*
X1236128Y641349D01*
Y639656D01*
X1235282Y638810D01*
X1233589D01*
X1232742Y639656D01*
X1219200Y669288D02*
X1220893D01*
X1220046D01*
Y664210D01*
X1219200D01*
X1220893D01*
X1225971Y669288D02*
X1224278D01*
X1223432Y668442D01*
Y665056D01*
X1224278Y664210D01*
X1225971D01*
X1226817Y665056D01*
Y668442D01*
X1225971Y669288D01*
X1231896Y664210D02*
X1228510D01*
X1231896Y667596D01*
Y668442D01*
X1231049Y669288D01*
X1229357D01*
X1228510Y668442D01*
X1219200Y694688D02*
X1220893D01*
X1220046D01*
Y689610D01*
X1219200D01*
X1220893D01*
X1225971Y694688D02*
X1224278D01*
X1223432Y693842D01*
Y690456D01*
X1224278Y689610D01*
X1225971D01*
X1226817Y690456D01*
Y693842D01*
X1225971Y694688D01*
X1228510Y693842D02*
X1229357Y694688D01*
X1231049D01*
X1231896Y693842D01*
Y690456D01*
X1231049Y689610D01*
X1229357D01*
X1228510Y690456D01*
Y693842D01*
X1219200Y720088D02*
X1220893D01*
X1220046D01*
Y715010D01*
X1219200D01*
X1220893D01*
X1225971Y720088D02*
X1224278D01*
X1223432Y719242D01*
Y715856D01*
X1224278Y715010D01*
X1225971D01*
X1226817Y715856D01*
Y719242D01*
X1225971Y720088D01*
X1231049Y715010D02*
Y720088D01*
X1228510Y717549D01*
X1231896D01*
X1220470Y745488D02*
X1222163D01*
X1221316D01*
Y740410D01*
X1220470D01*
X1222163D01*
X1227241Y745488D02*
X1225548D01*
X1224702Y744642D01*
Y741256D01*
X1225548Y740410D01*
X1227241D01*
X1228087Y741256D01*
Y744642D01*
X1227241Y745488D01*
X1229780Y740410D02*
X1231473D01*
X1230627D01*
Y745488D01*
X1229780Y744642D01*
X1237398Y745488D02*
X1235705Y744642D01*
X1234012Y742949D01*
Y741256D01*
X1234859Y740410D01*
X1236552D01*
X1237398Y741256D01*
Y742103D01*
X1236552Y742949D01*
X1234012D01*
X1219200Y770888D02*
X1220893D01*
X1220046D01*
Y765810D01*
X1219200D01*
X1220893D01*
X1225971Y770888D02*
X1224278D01*
X1223432Y770042D01*
Y766656D01*
X1224278Y765810D01*
X1225971D01*
X1226817Y766656D01*
Y770042D01*
X1225971Y770888D01*
X1228510Y765810D02*
X1230203D01*
X1229357D01*
Y770888D01*
X1228510Y770042D01*
X1232742Y770888D02*
X1236128D01*
Y770042D01*
X1232742Y766656D01*
Y765810D01*
X1219200Y796288D02*
X1220893D01*
X1220046D01*
Y791210D01*
X1219200D01*
X1220893D01*
X1225971Y796288D02*
X1224278D01*
X1223432Y795442D01*
Y792056D01*
X1224278Y791210D01*
X1225971D01*
X1226817Y792056D01*
Y795442D01*
X1225971Y796288D01*
X1231896D02*
X1228510D01*
Y793749D01*
X1230203Y794596D01*
X1231049D01*
X1231896Y793749D01*
Y792056D01*
X1231049Y791210D01*
X1229357D01*
X1228510Y792056D01*
X1219200Y820418D02*
X1220893D01*
X1220046D01*
Y815340D01*
X1219200D01*
X1220893D01*
X1225971Y820418D02*
X1224278D01*
X1223432Y819572D01*
Y816186D01*
X1224278Y815340D01*
X1225971D01*
X1226817Y816186D01*
Y819572D01*
X1225971Y820418D01*
X1228510Y815340D02*
X1230203D01*
X1229357D01*
Y820418D01*
X1228510Y819572D01*
X1232742D02*
X1233589Y820418D01*
X1235282D01*
X1236128Y819572D01*
Y818726D01*
X1235282Y817879D01*
X1236128Y817033D01*
Y816186D01*
X1235282Y815340D01*
X1233589D01*
X1232742Y816186D01*
Y817033D01*
X1233589Y817879D01*
X1232742Y818726D01*
Y819572D01*
X1233589Y817879D02*
X1235282D01*
X1219200Y847088D02*
X1220893D01*
X1220046D01*
Y842010D01*
X1219200D01*
X1220893D01*
X1225971Y847088D02*
X1224278D01*
X1223432Y846242D01*
Y842856D01*
X1224278Y842010D01*
X1225971D01*
X1226817Y842856D01*
Y846242D01*
X1225971Y847088D01*
X1228510Y842010D02*
X1230203D01*
X1229357D01*
Y847088D01*
X1228510Y846242D01*
X1232742Y842856D02*
X1233589Y842010D01*
X1235282D01*
X1236128Y842856D01*
Y846242D01*
X1235282Y847088D01*
X1233589D01*
X1232742Y846242D01*
Y845396D01*
X1233589Y844549D01*
X1236128D01*
X1222586Y871642D02*
X1221739Y872488D01*
X1220046D01*
X1219200Y871642D01*
Y868256D01*
X1220046Y867410D01*
X1221739D01*
X1222586Y868256D01*
Y869949D01*
X1220893D01*
X1224278Y867410D02*
Y872488D01*
X1227664Y867410D01*
Y872488D01*
X1229357D02*
Y867410D01*
X1231896D01*
X1232742Y868256D01*
Y871642D01*
X1231896Y872488D01*
X1229357D01*
X1219200Y896618D02*
X1220893D01*
X1220046D01*
Y891540D01*
X1219200D01*
X1220893D01*
X1225971Y896618D02*
X1224278D01*
X1223432Y895772D01*
Y892386D01*
X1224278Y891540D01*
X1225971D01*
X1226817Y892386D01*
Y895772D01*
X1225971Y896618D01*
X1231896Y891540D02*
X1228510D01*
X1231896Y894926D01*
Y895772D01*
X1231049Y896618D01*
X1229357D01*
X1228510Y895772D01*
X1233589Y891540D02*
X1235282D01*
X1234435D01*
Y896618D01*
X1233589Y895772D01*
X1222586Y921172D02*
X1221739Y922018D01*
X1220046D01*
X1219200Y921172D01*
Y917786D01*
X1220046Y916940D01*
X1221739D01*
X1222586Y917786D01*
Y919479D01*
X1220893D01*
X1224278Y916940D02*
Y922018D01*
X1227664Y916940D01*
Y922018D01*
X1229357D02*
Y916940D01*
X1231896D01*
X1232742Y917786D01*
Y921172D01*
X1231896Y922018D01*
X1229357D01*
X1219200Y947418D02*
X1222586D01*
X1220893D01*
Y942340D01*
X1224278Y947418D02*
X1227664Y942340D01*
Y947418D02*
X1224278Y942340D01*
X1229357Y947418D02*
Y942340D01*
X1231896D01*
X1232742Y943186D01*
Y946572D01*
X1231896Y947418D01*
X1229357D01*
X1234435Y946572D02*
X1235282Y947418D01*
X1236974D01*
X1237821Y946572D01*
Y943186D01*
X1236974Y942340D01*
X1235282D01*
X1234435Y943186D01*
Y946572D01*
X1219200Y974088D02*
X1220893D01*
X1220046D01*
Y969010D01*
X1219200D01*
X1220893D01*
X1225971Y974088D02*
X1224278D01*
X1223432Y973242D01*
Y969856D01*
X1224278Y969010D01*
X1225971D01*
X1226817Y969856D01*
Y973242D01*
X1225971Y974088D01*
X1231896Y969010D02*
X1228510D01*
X1231896Y972396D01*
Y973242D01*
X1231049Y974088D01*
X1229357D01*
X1228510Y973242D01*
X1236974Y969010D02*
X1233589D01*
X1236974Y972396D01*
Y973242D01*
X1236128Y974088D01*
X1234435D01*
X1233589Y973242D01*
X1219200Y998218D02*
X1220893D01*
X1220046D01*
Y993140D01*
X1219200D01*
X1220893D01*
X1225971Y998218D02*
X1224278D01*
X1223432Y997372D01*
Y993986D01*
X1224278Y993140D01*
X1225971D01*
X1226817Y993986D01*
Y997372D01*
X1225971Y998218D01*
X1231896Y993140D02*
X1228510D01*
X1231896Y996526D01*
Y997372D01*
X1231049Y998218D01*
X1229357D01*
X1228510Y997372D01*
X1233589D02*
X1234435Y998218D01*
X1236128D01*
X1236974Y997372D01*
Y996526D01*
X1236128Y995679D01*
X1235282D01*
X1236128D01*
X1236974Y994833D01*
Y993986D01*
X1236128Y993140D01*
X1234435D01*
X1233589Y993986D01*
X1222586Y1022772D02*
X1221739Y1023618D01*
X1220046D01*
X1219200Y1022772D01*
Y1019386D01*
X1220046Y1018540D01*
X1221739D01*
X1222586Y1019386D01*
Y1021079D01*
X1220893D01*
X1224278Y1018540D02*
Y1023618D01*
X1227664Y1018540D01*
Y1023618D01*
X1229357D02*
Y1018540D01*
X1231896D01*
X1232742Y1019386D01*
Y1022772D01*
X1231896Y1023618D01*
X1229357D01*
X822960Y566842D02*
X823806Y567688D01*
X825499D01*
X826346Y566842D01*
Y565996D01*
X825499Y565149D01*
X824653D01*
X825499D01*
X826346Y564303D01*
Y563456D01*
X825499Y562610D01*
X823806D01*
X822960Y563456D01*
X828038Y567688D02*
Y564303D01*
X829731Y562610D01*
X831424Y564303D01*
Y567688D01*
X833117Y566842D02*
X833963Y567688D01*
X835656D01*
X836502Y566842D01*
Y565996D01*
X835656Y565149D01*
X834809D01*
X835656D01*
X836502Y564303D01*
Y563456D01*
X835656Y562610D01*
X833963D01*
X833117Y563456D01*
X826346Y592242D02*
X825499Y593088D01*
X823806D01*
X822960Y592242D01*
Y588856D01*
X823806Y588010D01*
X825499D01*
X826346Y588856D01*
X828038Y588010D02*
Y593088D01*
X829731Y591396D01*
X831424Y593088D01*
Y588010D01*
X833117Y593088D02*
Y588010D01*
X835656D01*
X836502Y588856D01*
Y592242D01*
X835656Y593088D01*
X833117D01*
X826346Y616372D02*
X825499Y617218D01*
X823806D01*
X822960Y616372D01*
Y615526D01*
X823806Y614679D01*
X825499D01*
X826346Y613833D01*
Y612986D01*
X825499Y612140D01*
X823806D01*
X822960Y612986D01*
X828038Y617218D02*
Y612140D01*
X830577D01*
X831424Y612986D01*
Y616372D01*
X830577Y617218D01*
X828038D01*
X833117Y616372D02*
X833963Y617218D01*
X835656D01*
X836502Y616372D01*
Y615526D01*
X835656Y614679D01*
X834809D01*
X835656D01*
X836502Y613833D01*
Y612986D01*
X835656Y612140D01*
X833963D01*
X833117Y612986D01*
X826346Y643042D02*
X825499Y643888D01*
X823806D01*
X822960Y643042D01*
Y642196D01*
X823806Y641349D01*
X825499D01*
X826346Y640503D01*
Y639656D01*
X825499Y638810D01*
X823806D01*
X822960Y639656D01*
X828038Y643888D02*
Y638810D01*
X830577D01*
X831424Y639656D01*
Y643042D01*
X830577Y643888D01*
X828038D01*
X836502Y638810D02*
X833117D01*
X836502Y642196D01*
Y643042D01*
X835656Y643888D01*
X833963D01*
X833117Y643042D01*
X819150Y669288D02*
X820843D01*
X819996D01*
Y664210D01*
X819150D01*
X820843D01*
X825921Y669288D02*
X824228D01*
X823382Y668442D01*
Y665056D01*
X824228Y664210D01*
X825921D01*
X826768Y665056D01*
Y668442D01*
X825921Y669288D01*
X828460Y664210D02*
X830153D01*
X829307D01*
Y669288D01*
X828460Y668442D01*
X832692D02*
X833539Y669288D01*
X835231D01*
X836078Y668442D01*
Y667596D01*
X835231Y666749D01*
X834385D01*
X835231D01*
X836078Y665903D01*
Y665056D01*
X835231Y664210D01*
X833539D01*
X832692Y665056D01*
X826346Y692572D02*
X825499Y693418D01*
X823806D01*
X822960Y692572D01*
Y689186D01*
X823806Y688340D01*
X825499D01*
X826346Y689186D01*
Y690879D01*
X824653D01*
X828038Y688340D02*
Y693418D01*
X831424Y688340D01*
Y693418D01*
X833117D02*
Y688340D01*
X835656D01*
X836502Y689186D01*
Y692572D01*
X835656Y693418D01*
X833117D01*
X820420Y720088D02*
X822113D01*
X821266D01*
Y715010D01*
X820420D01*
X822113D01*
X827191Y720088D02*
X825498D01*
X824652Y719242D01*
Y715856D01*
X825498Y715010D01*
X827191D01*
X828037Y715856D01*
Y719242D01*
X827191Y720088D01*
X829730Y715010D02*
X831423D01*
X830577D01*
Y720088D01*
X829730Y719242D01*
X837348Y715010D02*
X833962D01*
X837348Y718396D01*
Y719242D01*
X836501Y720088D01*
X834809D01*
X833962Y719242D01*
X820420Y745488D02*
X822113D01*
X821266D01*
Y740410D01*
X820420D01*
X822113D01*
X827191Y745488D02*
X825498D01*
X824652Y744642D01*
Y741256D01*
X825498Y740410D01*
X827191D01*
X828037Y741256D01*
Y744642D01*
X827191Y745488D01*
X829730Y740410D02*
X831423D01*
X830577D01*
Y745488D01*
X829730Y744642D01*
X836501Y740410D02*
Y745488D01*
X833962Y742949D01*
X837348D01*
X819150Y772158D02*
X820843D01*
X819996D01*
Y767080D01*
X819150D01*
X820843D01*
X825921Y772158D02*
X824228D01*
X823382Y771312D01*
Y767926D01*
X824228Y767080D01*
X825921D01*
X826768Y767926D01*
Y771312D01*
X825921Y772158D01*
X831846Y767080D02*
X828460D01*
X831846Y770466D01*
Y771312D01*
X831000Y772158D01*
X829307D01*
X828460Y771312D01*
X833539Y772158D02*
X836924D01*
Y771312D01*
X833539Y767926D01*
Y767080D01*
X817880Y797558D02*
X819573D01*
X818726D01*
Y792480D01*
X817880D01*
X819573D01*
X824651Y797558D02*
X822958D01*
X822112Y796712D01*
Y793326D01*
X822958Y792480D01*
X824651D01*
X825498Y793326D01*
Y796712D01*
X824651Y797558D01*
X830576Y792480D02*
X827190D01*
X830576Y795866D01*
Y796712D01*
X829730Y797558D01*
X828037D01*
X827190Y796712D01*
X835654Y797558D02*
X833961Y796712D01*
X832269Y795019D01*
Y793326D01*
X833115Y792480D01*
X834808D01*
X835654Y793326D01*
Y794173D01*
X834808Y795019D01*
X832269D01*
X817880Y821688D02*
X819573D01*
X818726D01*
Y816610D01*
X817880D01*
X819573D01*
X824651Y821688D02*
X822958D01*
X822112Y820842D01*
Y817456D01*
X822958Y816610D01*
X824651D01*
X825498Y817456D01*
Y820842D01*
X824651Y821688D01*
X830576Y816610D02*
X827190D01*
X830576Y819996D01*
Y820842D01*
X829730Y821688D01*
X828037D01*
X827190Y820842D01*
X835654Y821688D02*
X832269D01*
Y819149D01*
X833961Y819996D01*
X834808D01*
X835654Y819149D01*
Y817456D01*
X834808Y816610D01*
X833115D01*
X832269Y817456D01*
X817880Y847088D02*
X819573D01*
X818726D01*
Y842010D01*
X817880D01*
X819573D01*
X824651Y847088D02*
X822958D01*
X822112Y846242D01*
Y842856D01*
X822958Y842010D01*
X824651D01*
X825498Y842856D01*
Y846242D01*
X824651Y847088D01*
X827190Y846242D02*
X828037Y847088D01*
X829730D01*
X830576Y846242D01*
Y845396D01*
X829730Y844549D01*
X828883D01*
X829730D01*
X830576Y843703D01*
Y842856D01*
X829730Y842010D01*
X828037D01*
X827190Y842856D01*
X832269Y846242D02*
X833115Y847088D01*
X834808D01*
X835654Y846242D01*
Y845396D01*
X834808Y844549D01*
X833961D01*
X834808D01*
X835654Y843703D01*
Y842856D01*
X834808Y842010D01*
X833115D01*
X832269Y842856D01*
X817880Y872488D02*
X819573D01*
X818726D01*
Y867410D01*
X817880D01*
X819573D01*
X824651Y872488D02*
X822958D01*
X822112Y871642D01*
Y868256D01*
X822958Y867410D01*
X824651D01*
X825498Y868256D01*
Y871642D01*
X824651Y872488D01*
X827190Y871642D02*
X828037Y872488D01*
X829730D01*
X830576Y871642D01*
Y870796D01*
X829730Y869949D01*
X828883D01*
X829730D01*
X830576Y869103D01*
Y868256D01*
X829730Y867410D01*
X828037D01*
X827190Y868256D01*
X835654Y867410D02*
X832269D01*
X835654Y870796D01*
Y871642D01*
X834808Y872488D01*
X833115D01*
X832269Y871642D01*
X817880Y897888D02*
X819573D01*
X818726D01*
Y892810D01*
X817880D01*
X819573D01*
X824651Y897888D02*
X822958D01*
X822112Y897042D01*
Y893656D01*
X822958Y892810D01*
X824651D01*
X825498Y893656D01*
Y897042D01*
X824651Y897888D01*
X827190Y897042D02*
X828037Y897888D01*
X829730D01*
X830576Y897042D01*
Y896196D01*
X829730Y895349D01*
X828883D01*
X829730D01*
X830576Y894503D01*
Y893656D01*
X829730Y892810D01*
X828037D01*
X827190Y893656D01*
X835654Y897888D02*
X832269D01*
Y895349D01*
X833961Y896196D01*
X834808D01*
X835654Y895349D01*
Y893656D01*
X834808Y892810D01*
X833115D01*
X832269Y893656D01*
X819150Y923288D02*
X820843D01*
X819996D01*
Y918210D01*
X819150D01*
X820843D01*
X825921Y923288D02*
X824228D01*
X823382Y922442D01*
Y919056D01*
X824228Y918210D01*
X825921D01*
X826768Y919056D01*
Y922442D01*
X825921Y923288D01*
X828460Y922442D02*
X829307Y923288D01*
X831000D01*
X831846Y922442D01*
Y921596D01*
X831000Y920749D01*
X830153D01*
X831000D01*
X831846Y919903D01*
Y919056D01*
X831000Y918210D01*
X829307D01*
X828460Y919056D01*
X836078Y918210D02*
Y923288D01*
X833539Y920749D01*
X836924D01*
X828040Y948688D02*
Y945303D01*
X829733Y943610D01*
X831426Y945303D01*
Y948688D01*
X833118Y943610D02*
Y948688D01*
X836504Y943610D01*
Y948688D01*
X828040Y974088D02*
Y970703D01*
X829733Y969010D01*
X831426Y970703D01*
Y974088D01*
X833118Y969010D02*
Y974088D01*
X835658D01*
X836504Y973242D01*
Y971549D01*
X835658Y970703D01*
X833118D01*
X831426Y999488D02*
X828040D01*
Y994410D01*
X831426D01*
X828040Y996949D02*
X829733D01*
X833118Y994410D02*
Y999488D01*
X836504Y994410D01*
Y999488D01*
X822960Y1022772D02*
X823806Y1023618D01*
X825499D01*
X826346Y1022772D01*
Y1021926D01*
X825499Y1021079D01*
X824653D01*
X825499D01*
X826346Y1020233D01*
Y1019386D01*
X825499Y1018540D01*
X823806D01*
X822960Y1019386D01*
X828038Y1023618D02*
Y1020233D01*
X829731Y1018540D01*
X831424Y1020233D01*
Y1023618D01*
X833117Y1022772D02*
X833963Y1023618D01*
X835656D01*
X836502Y1022772D01*
Y1021926D01*
X835656Y1021079D01*
X834809D01*
X835656D01*
X836502Y1020233D01*
Y1019386D01*
X835656Y1018540D01*
X833963D01*
X833117Y1019386D01*
D18*
X1487174Y593088D02*
Y580392D01*
X1489713Y577853D01*
X1494792D01*
X1497331Y580392D01*
Y593088D01*
X1502409Y590548D02*
X1504948Y593088D01*
X1510027D01*
X1512566Y590548D01*
Y588009D01*
X1510027Y585470D01*
X1507487D01*
X1510027D01*
X1512566Y582931D01*
Y580392D01*
X1510027Y577853D01*
X1504948D01*
X1502409Y580392D01*
X1327151Y419102D02*
Y429258D01*
X1324612Y431797D01*
X1319533D01*
X1316994Y429258D01*
Y419102D01*
X1319533Y416562D01*
X1324612D01*
X1322072Y421641D02*
X1327151Y416562D01*
X1324612D02*
X1327151Y419102D01*
X1342386Y416562D02*
X1332229D01*
X1342386Y426719D01*
Y429258D01*
X1339847Y431797D01*
X1334768D01*
X1332229Y429258D01*
X1308101Y350518D02*
X1305562Y353058D01*
X1300483D01*
X1297944Y350518D01*
Y347979D01*
X1300483Y345440D01*
X1305562D01*
X1308101Y342901D01*
Y340362D01*
X1305562Y337822D01*
X1300483D01*
X1297944Y340362D01*
X1323336Y337822D02*
X1313179D01*
X1323336Y347979D01*
Y350518D01*
X1320797Y353058D01*
X1315718D01*
X1313179Y350518D01*
X1186184Y306073D02*
Y321307D01*
X1193802D01*
X1196341Y318768D01*
Y313690D01*
X1193802Y311151D01*
X1186184D01*
X1191263D02*
X1196341Y306073D01*
X1211576Y321307D02*
X1206497Y318768D01*
X1201419Y313690D01*
Y308612D01*
X1203958Y306073D01*
X1209037D01*
X1211576Y308612D01*
Y311151D01*
X1209037Y313690D01*
X1201419D01*
X1187454Y356872D02*
Y372108D01*
X1195072D01*
X1197611Y369568D01*
Y364490D01*
X1195072Y361951D01*
X1187454D01*
X1192533D02*
X1197611Y356872D01*
X1202689Y372108D02*
X1212846D01*
Y369568D01*
X1202689Y359412D01*
Y356872D01*
X1022363Y354328D02*
Y341632D01*
X1024902Y339092D01*
X1029981D01*
X1032520Y341632D01*
Y354328D01*
X1047755Y351788D02*
X1045216Y354328D01*
X1040137D01*
X1037598Y351788D01*
Y349249D01*
X1040137Y346710D01*
X1045216D01*
X1047755Y344171D01*
Y341632D01*
X1045216Y339092D01*
X1040137D01*
X1037598Y341632D01*
X1052833Y354328D02*
Y339092D01*
X1060451D01*
X1062990Y341632D01*
Y344171D01*
X1060451Y346710D01*
X1052833D01*
X1060451D01*
X1062990Y349249D01*
Y351788D01*
X1060451Y354328D01*
X1052833D01*
X1068068Y346710D02*
X1078225D01*
X1093460Y351788D02*
X1090921Y354328D01*
X1085843D01*
X1083303Y351788D01*
Y341632D01*
X1085843Y339092D01*
X1090921D01*
X1093460Y341632D01*
X1098539Y339092D02*
X1103617D01*
X1101078D01*
Y354328D01*
X1098539Y351788D01*
X951233Y547368D02*
X961390Y537212D01*
X951233D02*
X961390Y547368D01*
X951233Y542290D02*
X961390D01*
X956312Y537212D02*
Y547368D01*
X966468Y534673D02*
X971547D01*
X969008D01*
Y549907D01*
X966468Y547368D01*
X744220Y349248D02*
X741681Y351787D01*
X736602D01*
X734063Y349248D01*
Y346709D01*
X736602Y344170D01*
X741681D01*
X744220Y341631D01*
Y339092D01*
X741681Y336553D01*
X736602D01*
X734063Y339092D01*
X749298Y336553D02*
X754377D01*
X751838D01*
Y351787D01*
X749298Y349248D01*
X748030Y424182D02*
Y434338D01*
X745491Y436878D01*
X740413D01*
X737873Y434338D01*
Y424182D01*
X740413Y421642D01*
X745491D01*
X742952Y426721D02*
X748030Y421642D01*
X745491D02*
X748030Y424182D01*
X753108Y421642D02*
X758187D01*
X755648D01*
Y436878D01*
X753108Y434338D01*
X746760Y481328D02*
X744221Y483867D01*
X739143D01*
X736603Y481328D01*
Y471172D01*
X739143Y468633D01*
X744221D01*
X746760Y471172D01*
X751838Y468633D02*
X756917D01*
X754378D01*
Y483867D01*
X751838Y481328D01*
X745491Y533398D02*
X742952Y535938D01*
X737873D01*
X735334Y533398D01*
Y523242D01*
X737873Y520703D01*
X742952D01*
X745491Y523242D01*
X760726Y520703D02*
X750569D01*
X760726Y530859D01*
Y533398D01*
X758187Y535938D01*
X753108D01*
X750569Y533398D01*
X656594Y1008378D02*
Y995682D01*
X659133Y993142D01*
X664212D01*
X666751Y995682D01*
Y1008378D01*
X681986D02*
X671829D01*
Y1000760D01*
X676908Y1003299D01*
X679447D01*
X681986Y1000760D01*
Y995682D01*
X679447Y993142D01*
X674368D01*
X671829Y995682D01*
X745491Y787398D02*
X742952Y789938D01*
X737873D01*
X735334Y787398D01*
Y777242D01*
X737873Y774703D01*
X742952D01*
X745491Y777242D01*
X750569Y789938D02*
X760726D01*
Y787398D01*
X750569Y777242D01*
Y774703D01*
X744221Y740408D02*
X741682Y742947D01*
X736603D01*
X734064Y740408D01*
Y730252D01*
X736603Y727712D01*
X741682D01*
X744221Y730252D01*
X759456Y742947D02*
X754378Y740408D01*
X749299Y735330D01*
Y730252D01*
X751838Y727712D01*
X756917D01*
X759456Y730252D01*
Y732791D01*
X756917Y735330D01*
X749299D01*
X744221Y689608D02*
X741682Y692148D01*
X736603D01*
X734064Y689608D01*
Y679452D01*
X736603Y676913D01*
X741682D01*
X744221Y679452D01*
X759456Y692148D02*
X749299D01*
Y684530D01*
X754378Y687069D01*
X756917D01*
X759456Y684530D01*
Y679452D01*
X756917Y676913D01*
X751838D01*
X749299Y679452D01*
X744221Y642618D02*
X741682Y645157D01*
X736603D01*
X734064Y642618D01*
Y632462D01*
X736603Y629922D01*
X741682D01*
X744221Y632462D01*
X756917Y629922D02*
Y645157D01*
X749299Y637540D01*
X759456D01*
X742951Y588008D02*
X740412Y590547D01*
X735333D01*
X732794Y588008D01*
Y577852D01*
X735333Y575312D01*
X740412D01*
X742951Y577852D01*
X748029Y588008D02*
X750568Y590547D01*
X755647D01*
X758186Y588008D01*
Y585469D01*
X755647Y582930D01*
X753108D01*
X755647D01*
X758186Y580391D01*
Y577852D01*
X755647Y575312D01*
X750568D01*
X748029Y577852D01*
X529594Y372113D02*
Y387347D01*
X537212D01*
X539751Y384808D01*
Y379730D01*
X537212Y377191D01*
X529594D01*
X534673D02*
X539751Y372113D01*
X544829Y374652D02*
X547368Y372113D01*
X552447D01*
X554986Y374652D01*
Y384808D01*
X552447Y387347D01*
X547368D01*
X544829Y384808D01*
Y382269D01*
X547368Y379730D01*
X554986D01*
X1384554Y784601D02*
Y769366D01*
X1394711D01*
X1409946Y782062D02*
X1407407Y784601D01*
X1402328D01*
X1399789Y782062D01*
Y779523D01*
X1402328Y776983D01*
X1407407D01*
X1409946Y774444D01*
Y771905D01*
X1407407Y769366D01*
X1402328D01*
X1399789Y771905D01*
X1415024Y769366D02*
X1420103D01*
X1417563D01*
Y784601D01*
X1415024Y782062D01*
X728984Y1203958D02*
Y1191262D01*
X731523Y1188723D01*
X736602D01*
X739141Y1191262D01*
Y1203958D01*
X754376D02*
X749297Y1201418D01*
X744219Y1196340D01*
Y1191262D01*
X746758Y1188723D01*
X751837D01*
X754376Y1191262D01*
Y1193801D01*
X751837Y1196340D01*
X744219D01*
X417831Y746758D02*
X412752D01*
X415292D01*
Y734062D01*
X412752Y731523D01*
X410213D01*
X407674Y734062D01*
X430527Y731523D02*
Y746758D01*
X422909Y739140D01*
X433066D01*
X768353Y847088D02*
X765814Y849628D01*
X760735D01*
X758196Y847088D01*
Y836932D01*
X760735Y834392D01*
X765814D01*
X768353Y836932D01*
X773431Y834392D02*
X778510D01*
X775970D01*
Y849628D01*
X773431Y847088D01*
X796284Y849628D02*
X786127D01*
Y842010D01*
X791206Y844549D01*
X793745D01*
X796284Y842010D01*
Y836932D01*
X793745Y834392D01*
X788666D01*
X786127Y836932D01*
X998220Y615437D02*
Y600202D01*
X1005837D01*
X1008377Y602741D01*
Y612898D01*
X1005837Y615437D01*
X998220D01*
X1013455Y612898D02*
X1015994Y615437D01*
X1021073D01*
X1023612Y612898D01*
Y610359D01*
X1021073Y607820D01*
X1018533D01*
X1021073D01*
X1023612Y605280D01*
Y602741D01*
X1021073Y600202D01*
X1015994D01*
X1013455Y602741D01*
X903732Y525521D02*
Y512825D01*
X906271Y510286D01*
X911349D01*
X913889Y512825D01*
Y525521D01*
X918967Y510286D02*
X924045D01*
X921506D01*
Y525521D01*
X918967Y522982D01*
X932688Y957072D02*
Y972307D01*
X937766Y967229D01*
X942845Y972307D01*
Y957072D01*
X947923Y972307D02*
Y957072D01*
X955541D01*
X958080Y959611D01*
Y969768D01*
X955541Y972307D01*
X947923D01*
X963158Y957072D02*
X968236D01*
X965697D01*
Y972307D01*
X963158Y969768D01*
X629663Y392934D02*
X627123Y395473D01*
X622045D01*
X619506Y392934D01*
Y382777D01*
X622045Y380238D01*
X627123D01*
X629663Y382777D01*
X634741Y380238D02*
X639819D01*
X637280D01*
Y395473D01*
X634741Y392934D01*
X647437Y380238D02*
X652515D01*
X649976D01*
Y395473D01*
X647437Y392934D01*
X907031Y394940D02*
X901952D01*
X904492D01*
Y382244D01*
X901952Y379705D01*
X899413D01*
X896874Y382244D01*
X912109Y392400D02*
X914648Y394940D01*
X919727D01*
X922266Y392400D01*
Y389861D01*
X919727Y387322D01*
X917187D01*
X919727D01*
X922266Y384783D01*
Y382244D01*
X919727Y379705D01*
X914648D01*
X912109Y382244D01*
X1256538Y652272D02*
Y667507D01*
X1264156D01*
X1266695Y664968D01*
Y659890D01*
X1264156Y657350D01*
X1256538D01*
X1261616D02*
X1266695Y652272D01*
X1279391D02*
Y667507D01*
X1271773Y659890D01*
X1281930D01*
X1262126Y598424D02*
Y613659D01*
X1269743D01*
X1272283Y611120D01*
Y606041D01*
X1269743Y603502D01*
X1262126D01*
X1267204D02*
X1272283Y598424D01*
X1277361Y611120D02*
X1279900Y613659D01*
X1284979D01*
X1287518Y611120D01*
Y608581D01*
X1284979Y606041D01*
X1282439D01*
X1284979D01*
X1287518Y603502D01*
Y600963D01*
X1284979Y598424D01*
X1279900D01*
X1277361Y600963D01*
X1266444Y702056D02*
Y717291D01*
X1274062D01*
X1276601Y714752D01*
Y709673D01*
X1274062Y707134D01*
X1266444D01*
X1271522D02*
X1276601Y702056D01*
X1291836Y717291D02*
X1281679D01*
Y709673D01*
X1286757Y712213D01*
X1289297D01*
X1291836Y709673D01*
Y704595D01*
X1289297Y702056D01*
X1284218D01*
X1281679Y704595D01*
X1256284Y498602D02*
Y513837D01*
X1263902D01*
X1266441Y511298D01*
Y506219D01*
X1263902Y503680D01*
X1256284D01*
X1261362D02*
X1266441Y498602D01*
X1271519D02*
X1276597D01*
X1274058D01*
Y513837D01*
X1271519Y511298D01*
X1261110Y546354D02*
Y561589D01*
X1268727D01*
X1271267Y559050D01*
Y553971D01*
X1268727Y551432D01*
X1261110D01*
X1266188D02*
X1271267Y546354D01*
X1286502D02*
X1276345D01*
X1286502Y556511D01*
Y559050D01*
X1283963Y561589D01*
X1278884D01*
X1276345Y559050D01*
X1005586Y462529D02*
Y447294D01*
X1013204D01*
X1015743Y449833D01*
Y459990D01*
X1013204Y462529D01*
X1005586D01*
X1030978Y447294D02*
X1020821D01*
X1030978Y457451D01*
Y459990D01*
X1028439Y462529D01*
X1023360D01*
X1020821Y459990D01*
X839467Y504948D02*
X836927Y507487D01*
X831849D01*
X829310Y504948D01*
Y494791D01*
X831849Y492252D01*
X836927D01*
X839467Y494791D01*
X844545Y492252D02*
X849623D01*
X847084D01*
Y507487D01*
X844545Y504948D01*
X857241D02*
X859780Y507487D01*
X864858D01*
X867398Y504948D01*
Y494791D01*
X864858Y492252D01*
X859780D01*
X857241Y494791D01*
Y504948D01*
X1144270Y549397D02*
Y534162D01*
X1151888D01*
X1154427Y536701D01*
Y546858D01*
X1151888Y549397D01*
X1144270D01*
X1159505Y534162D02*
X1164583D01*
X1162044D01*
Y549397D01*
X1159505Y546858D01*
X840991Y440432D02*
X838452Y442971D01*
X833373D01*
X830834Y440432D01*
Y430275D01*
X833373Y427736D01*
X838452D01*
X840991Y430275D01*
X846069D02*
X848608Y427736D01*
X853687D01*
X856226Y430275D01*
Y440432D01*
X853687Y442971D01*
X848608D01*
X846069Y440432D01*
Y437893D01*
X848608Y435354D01*
X856226D01*
X1580642Y592577D02*
Y579881D01*
X1583181Y577342D01*
X1588259D01*
X1590799Y579881D01*
Y592577D01*
X1603495Y577342D02*
Y592577D01*
X1595877Y584959D01*
X1606034D01*
X1409192Y592577D02*
Y579881D01*
X1411731Y577342D01*
X1416810D01*
X1419349Y579881D01*
Y592577D01*
X1434584Y577342D02*
X1424427D01*
X1434584Y587499D01*
Y590038D01*
X1432045Y592577D01*
X1426966D01*
X1424427Y590038D01*
X1608833Y511044D02*
X1606293Y513583D01*
X1601215D01*
X1598676Y511044D01*
Y500887D01*
X1601215Y498348D01*
X1606293D01*
X1608833Y500887D01*
X1613911Y498348D02*
X1618989D01*
X1616450D01*
Y513583D01*
X1613911Y511044D01*
X1634225Y498348D02*
Y513583D01*
X1626607Y505965D01*
X1636764D01*
X1521203Y511044D02*
X1518663Y513583D01*
X1513585D01*
X1511046Y511044D01*
Y500887D01*
X1513585Y498348D01*
X1518663D01*
X1521203Y500887D01*
X1526281Y498348D02*
X1531359D01*
X1528820D01*
Y513583D01*
X1526281Y511044D01*
X1538977D02*
X1541516Y513583D01*
X1546595D01*
X1549134Y511044D01*
Y508505D01*
X1546595Y505965D01*
X1544055D01*
X1546595D01*
X1549134Y503426D01*
Y500887D01*
X1546595Y498348D01*
X1541516D01*
X1538977Y500887D01*
X1434843Y511044D02*
X1432303Y513583D01*
X1427225D01*
X1424686Y511044D01*
Y500887D01*
X1427225Y498348D01*
X1432303D01*
X1434843Y500887D01*
X1439921Y498348D02*
X1444999D01*
X1442460D01*
Y513583D01*
X1439921Y511044D01*
X1462774Y498348D02*
X1452617D01*
X1462774Y508505D01*
Y511044D01*
X1460235Y513583D01*
X1455156D01*
X1452617Y511044D01*
X531622Y1023874D02*
Y1039109D01*
X539240D01*
X541779Y1036570D01*
Y1031491D01*
X539240Y1028952D01*
X531622D01*
X536700D02*
X541779Y1023874D01*
X546857D02*
X551935D01*
X549396D01*
Y1039109D01*
X546857Y1036570D01*
X569710Y1023874D02*
X559553D01*
X569710Y1034031D01*
Y1036570D01*
X567170Y1039109D01*
X562092D01*
X559553Y1036570D01*
X521716Y989579D02*
Y974344D01*
X529333D01*
X531873Y976883D01*
Y987040D01*
X529333Y989579D01*
X521716D01*
X544569Y974344D02*
Y989579D01*
X536951Y981962D01*
X547108D01*
X615950Y890524D02*
Y905759D01*
X623568D01*
X626107Y903220D01*
Y898141D01*
X623568Y895602D01*
X615950D01*
X621028D02*
X626107Y890524D01*
X631185D02*
X636263D01*
X633724D01*
Y905759D01*
X631185Y903220D01*
X651498Y890524D02*
Y905759D01*
X643881Y898141D01*
X654038D01*
X734311Y911602D02*
X731771Y914141D01*
X726693D01*
X724154Y911602D01*
Y901445D01*
X726693Y898906D01*
X731771D01*
X734311Y901445D01*
X739389Y898906D02*
X744467D01*
X741928D01*
Y914141D01*
X739389Y911602D01*
X762242Y914141D02*
X757163Y911602D01*
X752085Y906524D01*
Y901445D01*
X754624Y898906D01*
X759703D01*
X762242Y901445D01*
Y903984D01*
X759703Y906524D01*
X752085D01*
X716534Y950468D02*
Y965703D01*
X724152D01*
X726691Y963164D01*
Y958085D01*
X724152Y955546D01*
X716534D01*
X721612D02*
X726691Y950468D01*
X731769D02*
X736847D01*
X734308D01*
Y965703D01*
X731769Y963164D01*
X744465D02*
X747004Y965703D01*
X752083D01*
X754622Y963164D01*
Y960625D01*
X752083Y958085D01*
X749543D01*
X752083D01*
X754622Y955546D01*
Y953007D01*
X752083Y950468D01*
X747004D01*
X744465Y953007D01*
X716534Y1007618D02*
Y1022853D01*
X724152D01*
X726691Y1020314D01*
Y1015236D01*
X724152Y1012696D01*
X716534D01*
X721612D02*
X726691Y1007618D01*
X731769D02*
X736847D01*
X734308D01*
Y1022853D01*
X731769Y1020314D01*
X754622Y1022853D02*
X744465D01*
Y1015236D01*
X749543Y1017775D01*
X752083D01*
X754622Y1015236D01*
Y1010157D01*
X752083Y1007618D01*
X747004D01*
X744465Y1010157D01*
X1205227Y1055365D02*
X1200148D01*
X1202688D01*
Y1042669D01*
X1200148Y1040130D01*
X1197609D01*
X1195070Y1042669D01*
X1220462Y1040130D02*
X1210305D01*
X1220462Y1050287D01*
Y1052826D01*
X1217923Y1055365D01*
X1212844D01*
X1210305Y1052826D01*
X850897Y1055365D02*
X845818D01*
X848357D01*
Y1042669D01*
X845818Y1040130D01*
X843279D01*
X840740Y1042669D01*
X855975Y1040130D02*
X861053D01*
X858514D01*
Y1055365D01*
X855975Y1052826D01*
X343916Y668274D02*
Y683509D01*
X351534D01*
X354073Y680970D01*
Y675891D01*
X351534Y673352D01*
X343916D01*
X348994D02*
X354073Y668274D01*
X359151Y680970D02*
X361690Y683509D01*
X366769D01*
X369308Y680970D01*
Y678431D01*
X366769Y675891D01*
X369308Y673352D01*
Y670813D01*
X366769Y668274D01*
X361690D01*
X359151Y670813D01*
Y673352D01*
X361690Y675891D01*
X359151Y678431D01*
Y680970D01*
X361690Y675891D02*
X366769D01*
X1572006Y649224D02*
Y664459D01*
X1579624D01*
X1582163Y661920D01*
Y656842D01*
X1579624Y654302D01*
X1572006D01*
X1577084D02*
X1582163Y649224D01*
X1587241D02*
X1592319D01*
X1589780D01*
Y664459D01*
X1587241Y661920D01*
X1599937Y649224D02*
X1605015D01*
X1602476D01*
Y664459D01*
X1599937Y661920D01*
X1577337Y716787D02*
Y726944D01*
X1574798Y729483D01*
X1569719D01*
X1567180Y726944D01*
Y716787D01*
X1569719Y714248D01*
X1574798D01*
X1572258Y719326D02*
X1577337Y714248D01*
X1574798D02*
X1577337Y716787D01*
X1582415Y726944D02*
X1584954Y729483D01*
X1590033D01*
X1592572Y726944D01*
Y724405D01*
X1590033Y721865D01*
X1587493D01*
X1590033D01*
X1592572Y719326D01*
Y716787D01*
X1590033Y714248D01*
X1584954D01*
X1582415Y716787D01*
X338328Y501900D02*
X348485Y491743D01*
X338328D02*
X348485Y501900D01*
X338328Y496822D02*
X348485D01*
X343406Y491743D02*
Y501900D01*
X629663Y456434D02*
X627123Y458973D01*
X622045D01*
X619506Y456434D01*
Y446277D01*
X622045Y443738D01*
X627123D01*
X629663Y446277D01*
X634741Y456434D02*
X637280Y458973D01*
X642359D01*
X644898Y456434D01*
Y453895D01*
X642359Y451356D01*
X644898Y448816D01*
Y446277D01*
X642359Y443738D01*
X637280D01*
X634741Y446277D01*
Y448816D01*
X637280Y451356D01*
X634741Y453895D01*
Y456434D01*
X637280Y451356D02*
X642359D01*
X528066Y443484D02*
Y458719D01*
X535684D01*
X538223Y456180D01*
Y451101D01*
X535684Y448562D01*
X528066D01*
X533144D02*
X538223Y443484D01*
X543301D02*
X548379D01*
X545840D01*
Y458719D01*
X543301Y456180D01*
X555997D02*
X558536Y458719D01*
X563615D01*
X566154Y456180D01*
Y446023D01*
X563615Y443484D01*
X558536D01*
X555997Y446023D01*
Y456180D01*
D19*
X387350Y537205D02*
Y527048D01*
X392428Y521970D01*
X397507Y527048D01*
Y537205D01*
X405124Y532127D02*
X410203D01*
X412742Y529588D01*
Y521970D01*
X405124D01*
X402585Y524509D01*
X405124Y527048D01*
X412742D01*
X417820Y532127D02*
Y521970D01*
Y527048D01*
X420359Y529588D01*
X422898Y532127D01*
X425438D01*
X433055Y521970D02*
X438134D01*
X435594D01*
Y532127D01*
X433055D01*
X448290D02*
X453369D01*
X455908Y529588D01*
Y521970D01*
X448290D01*
X445751Y524509D01*
X448290Y527048D01*
X455908D01*
X460986Y537205D02*
Y521970D01*
X468604D01*
X471143Y524509D01*
Y527048D01*
Y529588D01*
X468604Y532127D01*
X460986D01*
X476221Y521970D02*
X481300D01*
X478760D01*
Y537205D01*
X476221D01*
X496535Y521970D02*
X491456D01*
X488917Y524509D01*
Y529588D01*
X491456Y532127D01*
X496535D01*
X499074Y529588D01*
Y527048D01*
X488917D01*
X504152Y521970D02*
X511770D01*
X514309Y524509D01*
X511770Y527048D01*
X506691D01*
X504152Y529588D01*
X506691Y532127D01*
X514309D01*
X537161D02*
X542240D01*
X544779Y529588D01*
Y521970D01*
X537161D01*
X534622Y524509D01*
X537161Y527048D01*
X544779D01*
X549857Y521970D02*
Y532127D01*
X552397D01*
X554936Y529588D01*
Y521970D01*
Y529588D01*
X557475Y532127D01*
X560014Y529588D01*
Y521970D01*
X565093Y537205D02*
Y521970D01*
X572710D01*
X575249Y524509D01*
Y527048D01*
Y529588D01*
X572710Y532127D01*
X565093D01*
X580328Y521970D02*
X585406D01*
X582867D01*
Y532127D01*
X580328D01*
X600641Y521970D02*
X595563D01*
X593023Y524509D01*
Y529588D01*
X595563Y532127D01*
X600641D01*
X603180Y529588D01*
Y527048D01*
X593023D01*
X608259Y521970D02*
Y532127D01*
X615876D01*
X618415Y529588D01*
Y521970D01*
X626033Y534666D02*
Y532127D01*
X623494D01*
X628572D01*
X626033D01*
Y524509D01*
X628572Y521970D01*
X638729Y532127D02*
X643807D01*
X646346Y529588D01*
Y521970D01*
X638729D01*
X636189Y524509D01*
X638729Y527048D01*
X646346D01*
X651425Y521970D02*
X656503D01*
X653964D01*
Y537205D01*
X651425D01*
X671738Y521970D02*
X666660D01*
X664120Y524509D01*
Y529588D01*
X666660Y532127D01*
X671738D01*
X674277Y529588D01*
Y527048D01*
X664120D01*
X679355Y521970D02*
X686973D01*
X689512Y524509D01*
X686973Y527048D01*
X681895D01*
X679355Y529588D01*
X681895Y532127D01*
X689512D01*
X1304290Y401315D02*
Y386080D01*
Y391158D01*
X1314447Y401315D01*
X1306829Y393698D01*
X1314447Y386080D01*
X1327143D02*
X1322064D01*
X1319525Y388619D01*
Y393698D01*
X1322064Y396237D01*
X1327143D01*
X1329682Y393698D01*
Y391158D01*
X1319525D01*
X1334760Y396237D02*
X1339839Y386080D01*
X1344917Y396237D01*
X1349995Y386080D02*
X1355074D01*
X1352534D01*
Y396237D01*
X1349995D01*
X1362691Y386080D02*
Y396237D01*
X1370309D01*
X1372848Y393698D01*
Y386080D01*
X1393161D02*
Y401315D01*
X1398240Y396237D01*
X1403318Y401315D01*
Y386080D01*
X1408396D02*
X1413475D01*
X1410936D01*
Y396237D01*
X1408396D01*
X1421092Y386080D02*
X1428710D01*
X1431249Y388619D01*
X1428710Y391158D01*
X1423631D01*
X1421092Y393698D01*
X1423631Y396237D01*
X1431249D01*
X1438866D02*
X1443945D01*
X1446484Y393698D01*
Y386080D01*
X1438866D01*
X1436327Y388619D01*
X1438866Y391158D01*
X1446484D01*
X1459180Y386080D02*
X1454102D01*
X1451562Y388619D01*
Y393698D01*
X1454102Y396237D01*
X1459180D01*
X1461719Y393698D01*
Y391158D01*
X1451562D01*
X1466797Y386080D02*
X1471876D01*
X1469337D01*
Y401315D01*
X1466797D01*
X1494728D02*
Y388619D01*
X1497268Y386080D01*
X1502346D01*
X1504885Y388619D01*
Y401315D01*
X1509964Y386080D02*
X1517581D01*
X1520120Y388619D01*
X1517581Y391158D01*
X1512503D01*
X1509964Y393698D01*
X1512503Y396237D01*
X1520120D01*
X1550590Y398776D02*
X1548051Y401315D01*
X1542973D01*
X1540434Y398776D01*
Y388619D01*
X1542973Y386080D01*
X1548051D01*
X1550590Y388619D01*
X1555669Y401315D02*
Y386080D01*
Y393698D01*
X1558208Y396237D01*
X1563286D01*
X1565825Y393698D01*
Y386080D01*
X1573443Y396237D02*
X1578521D01*
X1581060Y393698D01*
Y386080D01*
X1573443D01*
X1570904Y388619D01*
X1573443Y391158D01*
X1581060D01*
X1586139Y386080D02*
Y396237D01*
X1593756D01*
X1596295Y393698D01*
Y386080D01*
X1611531Y396237D02*
X1603913D01*
X1601374Y393698D01*
Y388619D01*
X1603913Y386080D01*
X1611531D01*
X1616609Y401315D02*
Y386080D01*
Y393698D01*
X1619148Y396237D01*
X1624227D01*
X1626766Y393698D01*
Y386080D01*
X1634383Y396237D02*
X1639462D01*
X1642001Y393698D01*
Y386080D01*
X1634383D01*
X1631844Y388619D01*
X1634383Y391158D01*
X1642001D01*
X1647079Y396237D02*
X1652157Y386080D01*
X1657236Y396237D01*
X1664853D02*
X1669932D01*
X1672471Y393698D01*
Y386080D01*
X1664853D01*
X1662314Y388619D01*
X1664853Y391158D01*
X1672471D01*
X1687706Y396237D02*
X1680088D01*
X1677549Y393698D01*
Y388619D01*
X1680088Y386080D01*
X1687706D01*
X1371600Y426715D02*
Y411480D01*
X1379218D01*
X1381757Y414019D01*
Y424176D01*
X1379218Y426715D01*
X1371600D01*
X1412227Y411480D02*
X1409688Y414019D01*
X1407148Y411480D01*
X1404609D01*
X1402070Y414019D01*
Y416558D01*
X1404609Y419098D01*
X1402070Y421637D01*
Y424176D01*
X1404609Y426715D01*
X1407148D01*
X1409688Y424176D01*
Y421637D01*
X1407148Y419098D01*
X1409688Y416558D01*
Y414019D01*
X1412227Y419098D02*
X1409688Y416558D01*
X1404609Y419098D02*
X1407148D01*
X1442697Y426715D02*
X1432540D01*
Y411480D01*
X1442697D01*
X1432540Y419098D02*
X1437619D01*
X1470628Y411480D02*
X1465550D01*
X1463010Y414019D01*
Y419098D01*
X1465550Y421637D01*
X1470628D01*
X1473167Y419098D01*
Y416558D01*
X1463010D01*
X1478246Y411480D02*
Y421637D01*
X1485863D01*
X1488402Y419098D01*
Y411480D01*
X1518872Y424176D02*
X1516333Y426715D01*
X1511255D01*
X1508716Y424176D01*
Y414019D01*
X1511255Y411480D01*
X1516333D01*
X1518872Y414019D01*
Y419098D01*
X1513794D01*
X1523951Y421637D02*
Y414019D01*
X1526490Y411480D01*
X1534107D01*
Y421637D01*
X1541725D02*
X1546803D01*
X1549342Y419098D01*
Y411480D01*
X1541725D01*
X1539186Y414019D01*
X1541725Y416558D01*
X1549342D01*
X1556960Y424176D02*
Y421637D01*
X1554421D01*
X1559499D01*
X1556960D01*
Y414019D01*
X1559499Y411480D01*
X1574734D02*
X1569656D01*
X1567117Y414019D01*
Y419098D01*
X1569656Y421637D01*
X1574734D01*
X1577274Y419098D01*
Y416558D01*
X1567117D01*
X1582352Y411480D02*
Y421637D01*
X1584891D01*
X1587430Y419098D01*
Y411480D01*
Y419098D01*
X1589969Y421637D01*
X1592509Y419098D01*
Y411480D01*
X1600126Y421637D02*
X1605204D01*
X1607744Y419098D01*
Y411480D01*
X1600126D01*
X1597587Y414019D01*
X1600126Y416558D01*
X1607744D01*
X1612822Y411480D02*
X1617900D01*
X1615361D01*
Y426715D01*
X1612822D01*
X1628057Y421637D02*
X1633135D01*
X1635675Y419098D01*
Y411480D01*
X1628057D01*
X1625518Y414019D01*
X1628057Y416558D01*
X1635675D01*
D20*
X904240Y502070D02*
X912704Y493606D01*
X904240D02*
X912704Y502070D01*
X904240Y497838D02*
X912704D01*
X908472Y493606D02*
Y502070D01*
M02*
