G04*
G04 #@! TF.GenerationSoftware,Altium Limited,Altium Designer,25.5.2 (35)*
G04*
G04 Layer_Color=8421504*
%FSLAX44Y44*%
%MOMM*%
G71*
G04*
G04 #@! TF.SameCoordinates,227BAF76-4A0D-4DC8-B4C5-2559F8F0295E*
G04*
G04*
G04 #@! TF.FilePolarity,Positive*
G04*
G01*
G75*
G04:AMPARAMS|DCode=21|XSize=1mm|YSize=1.8mm|CornerRadius=0.5mm|HoleSize=0mm|Usage=FLASHONLY|Rotation=0.000|XOffset=0mm|YOffset=0mm|HoleType=Round|Shape=RoundedRectangle|*
%AMROUNDEDRECTD21*
21,1,1.0000,0.8000,0,0,0.0*
21,1,0.0000,1.8000,0,0,0.0*
1,1,1.0000,0.0000,-0.4000*
1,1,1.0000,0.0000,-0.4000*
1,1,1.0000,0.0000,0.4000*
1,1,1.0000,0.0000,0.4000*
%
%ADD21ROUNDEDRECTD21*%
G04:AMPARAMS|DCode=22|XSize=1mm|YSize=2.1mm|CornerRadius=0.5mm|HoleSize=0mm|Usage=FLASHONLY|Rotation=0.000|XOffset=0mm|YOffset=0mm|HoleType=Round|Shape=RoundedRectangle|*
%AMROUNDEDRECTD22*
21,1,1.0000,1.1000,0,0,0.0*
21,1,0.0000,2.1000,0,0,0.0*
1,1,1.0000,0.0000,-0.5500*
1,1,1.0000,0.0000,-0.5500*
1,1,1.0000,0.0000,0.5500*
1,1,1.0000,0.0000,0.5500*
%
%ADD22ROUNDEDRECTD22*%
%ADD23R,1.5000X0.9000*%
%ADD24R,0.8000X0.9000*%
%ADD25R,1.5000X0.9500*%
%ADD26R,0.8500X1.3500*%
%ADD27R,0.3000X1.1500*%
%ADD28R,0.6400X1.8000*%
%ADD29R,1.1046X1.3562*%
%ADD30O,0.5500X1.2500*%
%ADD31R,1.1000X1.3500*%
%ADD32R,1.2046X1.3621*%
%ADD33R,2.0000X0.9000*%
%ADD34R,1.5000X1.5000*%
%ADD35R,1.1303X0.4318*%
%ADD36R,0.6000X1.5500*%
%ADD37R,1.3621X1.2046*%
%ADD38R,1.5000X1.5500*%
G04:AMPARAMS|DCode=39|XSize=0.6858mm|YSize=0.5mm|CornerRadius=0.0625mm|HoleSize=0mm|Usage=FLASHONLY|Rotation=90.000|XOffset=0mm|YOffset=0mm|HoleType=Round|Shape=RoundedRectangle|*
%AMROUNDEDRECTD39*
21,1,0.6858,0.3750,0,0,90.0*
21,1,0.5608,0.5000,0,0,90.0*
1,1,0.1250,0.1875,0.2804*
1,1,0.1250,0.1875,-0.2804*
1,1,0.1250,-0.1875,-0.2804*
1,1,0.1250,-0.1875,0.2804*
%
%ADD39ROUNDEDRECTD39*%
%ADD40R,1.2500X1.2200*%
%ADD41R,1.4046X1.4621*%
%ADD42R,1.3061X1.5082*%
%ADD43R,5.0000X5.0000*%
%ADD44R,0.9500X1.4500*%
%ADD45R,1.2065X1.5082*%
%ADD46R,1.0000X0.7000*%
%ADD47R,1.2000X1.8000*%
%ADD48R,0.6000X0.7000*%
D21*
X1071880Y327152D02*
D03*
X985520Y326898D02*
D03*
D22*
X1071880Y369062D02*
D03*
X985520D02*
D03*
D23*
X1507120Y560060D02*
D03*
Y527060D02*
D03*
X1556120D02*
D03*
Y560060D02*
D03*
X1642480Y527060D02*
D03*
X1471030D02*
D03*
X1593480Y560060D02*
D03*
Y527060D02*
D03*
X1642480Y560060D02*
D03*
X1422030D02*
D03*
Y527060D02*
D03*
X1471030Y560060D02*
D03*
D24*
X1283310Y426560D02*
D03*
X1264310D02*
D03*
X1273810Y406560D02*
D03*
X788010Y424020D02*
D03*
X769010D02*
D03*
X778510Y404020D02*
D03*
X1595730Y680880D02*
D03*
X1576730D02*
D03*
X1586230Y700880D02*
D03*
D25*
X1273920Y366231D02*
D03*
Y324730D02*
D03*
X781050Y363690D02*
D03*
Y322191D02*
D03*
D26*
X1165230Y331470D02*
D03*
X1181730D02*
D03*
Y384810D02*
D03*
X1165230D02*
D03*
X1269370Y685800D02*
D03*
X1285870D02*
D03*
D27*
X1059200Y374520D02*
D03*
X1051200D02*
D03*
X1046200D02*
D03*
X1041200D02*
D03*
X1036200D02*
D03*
X1031200D02*
D03*
X1026200D02*
D03*
X1021200D02*
D03*
X1016200D02*
D03*
X1011200D02*
D03*
X1003200D02*
D03*
X995200D02*
D03*
X998200D02*
D03*
X1006200D02*
D03*
X1054200D02*
D03*
X1062200D02*
D03*
D28*
X988060Y546670D02*
D03*
X1000760D02*
D03*
X1013460D02*
D03*
X1026160D02*
D03*
X1038860D02*
D03*
X1051560D02*
D03*
X1064260D02*
D03*
X1076960D02*
D03*
Y484570D02*
D03*
X1064260D02*
D03*
X1051560D02*
D03*
X1038860D02*
D03*
X1026160D02*
D03*
X1013460D02*
D03*
X1000760D02*
D03*
X988060D02*
D03*
D29*
X786130Y471170D02*
D03*
X772014D02*
D03*
X786130Y527050D02*
D03*
X772014D02*
D03*
X785568Y582930D02*
D03*
X771452D02*
D03*
X848506Y472440D02*
D03*
X834390D02*
D03*
D30*
X650240Y926250D02*
D03*
X662940D02*
D03*
X675640D02*
D03*
X688340D02*
D03*
X650240Y978750D02*
D03*
X662940D02*
D03*
X675640D02*
D03*
X688340D02*
D03*
D31*
X787430Y783590D02*
D03*
X773430D02*
D03*
X787400Y732790D02*
D03*
X773400D02*
D03*
X788050Y684530D02*
D03*
X774050D02*
D03*
X787430Y636270D02*
D03*
X773430D02*
D03*
X743600Y838200D02*
D03*
X729600D02*
D03*
X742330Y882650D02*
D03*
X835010Y411480D02*
D03*
X849010D02*
D03*
X728330Y882650D02*
D03*
D32*
X552068Y359410D02*
D03*
X535052D02*
D03*
X552068Y424180D02*
D03*
X1269112Y579120D02*
D03*
X1286128D02*
D03*
X555496Y1004570D02*
D03*
X538480D02*
D03*
X1596008Y629920D02*
D03*
X1578992D02*
D03*
X535052Y424180D02*
D03*
D33*
X948690Y859790D02*
D03*
X1118690Y872490D02*
D03*
Y821690D02*
D03*
X948690Y872490D02*
D03*
Y694690D02*
D03*
X1118690Y859790D02*
D03*
Y847090D02*
D03*
Y834390D02*
D03*
Y808990D02*
D03*
Y796290D02*
D03*
Y783590D02*
D03*
Y770890D02*
D03*
Y758190D02*
D03*
Y745490D02*
D03*
Y732790D02*
D03*
Y720090D02*
D03*
Y707390D02*
D03*
Y694690D02*
D03*
Y681990D02*
D03*
Y669290D02*
D03*
Y656590D02*
D03*
Y643890D02*
D03*
X948690D02*
D03*
Y656590D02*
D03*
Y669290D02*
D03*
Y681990D02*
D03*
Y707390D02*
D03*
Y720090D02*
D03*
Y732790D02*
D03*
Y745490D02*
D03*
Y758190D02*
D03*
Y770890D02*
D03*
Y783590D02*
D03*
Y796290D02*
D03*
Y808990D02*
D03*
Y821690D02*
D03*
Y834390D02*
D03*
Y847090D02*
D03*
D34*
X1012470Y429260D02*
D03*
X563600Y956310D02*
D03*
X1047470Y429260D02*
D03*
X528600Y956310D02*
D03*
D35*
X938466Y488290D02*
D03*
X910654D02*
D03*
Y469290D02*
D03*
Y478790D02*
D03*
X938466Y469290D02*
D03*
D36*
X925990Y361670D02*
D03*
X915990D02*
D03*
X945990D02*
D03*
X935990D02*
D03*
D37*
X353060Y634112D02*
D03*
Y651128D02*
D03*
D38*
X647810Y422910D02*
D03*
Y359410D02*
D03*
X1626980Y477520D02*
D03*
X1539350D02*
D03*
X1452990D02*
D03*
X629810Y359410D02*
D03*
Y422910D02*
D03*
X1608980Y477520D02*
D03*
X1521350D02*
D03*
X1434990D02*
D03*
D39*
X358140Y449710D02*
D03*
X350140Y473710D02*
D03*
X342140Y449710D02*
D03*
Y473710D02*
D03*
X350140Y449710D02*
D03*
X366340D02*
D03*
X366140Y473710D02*
D03*
X358140D02*
D03*
D40*
X1039640Y581660D02*
D03*
X1010140D02*
D03*
D41*
X746108Y929640D02*
D03*
Y986790D02*
D03*
X727092Y929640D02*
D03*
Y986790D02*
D03*
D42*
X1286111Y631190D02*
D03*
X1266589D02*
D03*
D43*
X1023690Y797490D02*
D03*
D44*
X1284830Y529590D02*
D03*
X1265330D02*
D03*
D45*
X1286859Y477520D02*
D03*
X1265841D02*
D03*
D46*
X1150740Y501810D02*
D03*
D47*
X958990Y322920D02*
D03*
X902990D02*
D03*
D48*
X1167740Y501810D02*
D03*
Y521810D02*
D03*
X1148740D02*
D03*
M02*
