G04*
G04 #@! TF.GenerationSoftware,Altium Limited,Altium Designer,25.5.2 (35)*
G04*
G04 Layer_Color=8388736*
%FSLAX44Y44*%
%MOMM*%
G71*
G04*
G04 #@! TF.SameCoordinates,227BAF76-4A0D-4DC8-B4C5-2559F8F0295E*
G04*
G04*
G04 #@! TF.FilePolarity,Negative*
G04*
G01*
G75*
%ADD29R,1.1046X1.3562*%
%ADD32R,1.2046X1.3621*%
%ADD33R,2.0000X0.9000*%
%ADD34R,1.5000X1.5000*%
%ADD35R,1.1303X0.4318*%
%ADD37R,1.3621X1.2046*%
%ADD40R,1.2500X1.2200*%
%ADD41R,1.4046X1.4621*%
%ADD42R,1.3061X1.5082*%
%ADD43R,5.0000X5.0000*%
%ADD44R,0.9500X1.4500*%
%ADD45R,1.2065X1.5082*%
%ADD49R,1.6500X1.0500*%
%ADD50R,0.9500X1.0500*%
%ADD51R,1.6500X1.1000*%
%ADD52R,1.0000X1.5000*%
%ADD53R,0.4500X1.3000*%
%ADD54R,0.7900X1.9500*%
%ADD55O,0.7000X1.4000*%
%ADD56R,1.2500X1.5000*%
%ADD57R,0.7500X1.7000*%
%ADD58R,1.6500X1.7000*%
G04:AMPARAMS|DCode=59|XSize=0.8358mm|YSize=0.65mm|CornerRadius=0.1375mm|HoleSize=0mm|Usage=FLASHONLY|Rotation=90.000|XOffset=0mm|YOffset=0mm|HoleType=Round|Shape=RoundedRectangle|*
%AMROUNDEDRECTD59*
21,1,0.8358,0.3750,0,0,90.0*
21,1,0.5608,0.6500,0,0,90.0*
1,1,0.2750,0.1875,0.2804*
1,1,0.2750,0.1875,-0.2804*
1,1,0.2750,-0.1875,-0.2804*
1,1,0.2750,-0.1875,0.2804*
%
%ADD59ROUNDEDRECTD59*%
%ADD60R,1.1500X0.8500*%
%ADD61R,1.3500X1.9500*%
%ADD62R,0.7500X0.8500*%
%ADD63C,0.9500*%
G04:AMPARAMS|DCode=64|XSize=1.15mm|YSize=2.25mm|CornerRadius=0.575mm|HoleSize=0mm|Usage=FLASHONLY|Rotation=0.000|XOffset=0mm|YOffset=0mm|HoleType=Round|Shape=RoundedRectangle|*
%AMROUNDEDRECTD64*
21,1,1.1500,1.1000,0,0,0.0*
21,1,0.0000,2.2500,0,0,0.0*
1,1,1.1500,0.0000,-0.5500*
1,1,1.1500,0.0000,-0.5500*
1,1,1.1500,0.0000,0.5500*
1,1,1.1500,0.0000,0.5500*
%
%ADD64ROUNDEDRECTD64*%
G04:AMPARAMS|DCode=65|XSize=1.15mm|YSize=1.95mm|CornerRadius=0.575mm|HoleSize=0mm|Usage=FLASHONLY|Rotation=0.000|XOffset=0mm|YOffset=0mm|HoleType=Round|Shape=RoundedRectangle|*
%AMROUNDEDRECTD65*
21,1,1.1500,0.8000,0,0,0.0*
21,1,0.0000,1.9500,0,0,0.0*
1,1,1.1500,0.0000,-0.4000*
1,1,1.1500,0.0000,-0.4000*
1,1,1.1500,0.0000,0.4000*
1,1,1.1500,0.0000,0.4000*
%
%ADD65ROUNDEDRECTD65*%
%ADD66C,0.1500*%
%ADD67C,1.2500*%
%ADD68R,1.2500X1.2500*%
%ADD69C,2.0550*%
%ADD70C,1.8500*%
%ADD71R,1.8500X1.8500*%
%ADD72C,2.1000*%
G04:AMPARAMS|DCode=73|XSize=2.1mm|YSize=2.1mm|CornerRadius=0.5625mm|HoleSize=0mm|Usage=FLASHONLY|Rotation=90.000|XOffset=0mm|YOffset=0mm|HoleType=Round|Shape=RoundedRectangle|*
%AMROUNDEDRECTD73*
21,1,2.1000,0.9750,0,0,90.0*
21,1,0.9750,2.1000,0,0,90.0*
1,1,1.1250,0.4875,0.4875*
1,1,1.1250,0.4875,-0.4875*
1,1,1.1250,-0.4875,-0.4875*
1,1,1.1250,-0.4875,0.4875*
%
%ADD73ROUNDEDRECTD73*%
%ADD74C,1.2000*%
%ADD75R,1.2000X1.2000*%
%ADD76C,1.4200*%
%ADD77C,5.2300*%
D29*
X786130Y471170D02*
D03*
X772014D02*
D03*
X786130Y527050D02*
D03*
X772014D02*
D03*
X785568Y582930D02*
D03*
X771452D02*
D03*
X848506Y472440D02*
D03*
X834390D02*
D03*
D32*
X552068Y359410D02*
D03*
X535052D02*
D03*
X552068Y424180D02*
D03*
X1269112Y579120D02*
D03*
X1286128D02*
D03*
X555496Y1004570D02*
D03*
X538480D02*
D03*
X1596008Y629920D02*
D03*
X1578992D02*
D03*
X535052Y424180D02*
D03*
D33*
X948690Y859790D02*
D03*
X1118690Y872490D02*
D03*
Y821690D02*
D03*
X948690Y872490D02*
D03*
Y694690D02*
D03*
X1118690Y859790D02*
D03*
Y847090D02*
D03*
Y834390D02*
D03*
Y808990D02*
D03*
Y796290D02*
D03*
Y783590D02*
D03*
Y770890D02*
D03*
Y758190D02*
D03*
Y745490D02*
D03*
Y732790D02*
D03*
Y720090D02*
D03*
Y707390D02*
D03*
Y694690D02*
D03*
Y681990D02*
D03*
Y669290D02*
D03*
Y656590D02*
D03*
Y643890D02*
D03*
X948690D02*
D03*
Y656590D02*
D03*
Y669290D02*
D03*
Y681990D02*
D03*
Y707390D02*
D03*
Y720090D02*
D03*
Y732790D02*
D03*
Y745490D02*
D03*
Y758190D02*
D03*
Y770890D02*
D03*
Y783590D02*
D03*
Y796290D02*
D03*
Y808990D02*
D03*
Y821690D02*
D03*
Y834390D02*
D03*
Y847090D02*
D03*
D34*
X1012470Y429260D02*
D03*
X563600Y956310D02*
D03*
X1047470Y429260D02*
D03*
X528600Y956310D02*
D03*
D35*
X938466Y488290D02*
D03*
X910654D02*
D03*
Y469290D02*
D03*
Y478790D02*
D03*
X938466Y469290D02*
D03*
D37*
X353060Y634112D02*
D03*
Y651128D02*
D03*
D40*
X1039640Y581660D02*
D03*
X1010140D02*
D03*
D41*
X746108Y929640D02*
D03*
Y986790D02*
D03*
X727092Y929640D02*
D03*
Y986790D02*
D03*
D42*
X1286111Y631190D02*
D03*
X1266589D02*
D03*
D43*
X1023690Y797490D02*
D03*
D44*
X1284830Y529590D02*
D03*
X1265330D02*
D03*
D45*
X1286859Y477520D02*
D03*
X1265841D02*
D03*
D49*
X1507120Y560060D02*
D03*
Y527060D02*
D03*
X1556120D02*
D03*
Y560060D02*
D03*
X1642480Y527060D02*
D03*
X1471030D02*
D03*
X1593480Y560060D02*
D03*
Y527060D02*
D03*
X1642480Y560060D02*
D03*
X1422030D02*
D03*
Y527060D02*
D03*
X1471030Y560060D02*
D03*
D50*
X1283310Y426560D02*
D03*
X1264310D02*
D03*
X1273810Y406560D02*
D03*
X788010Y424020D02*
D03*
X769010D02*
D03*
X778510Y404020D02*
D03*
X1595730Y680880D02*
D03*
X1576730D02*
D03*
X1586230Y700880D02*
D03*
D51*
X1273920Y366231D02*
D03*
Y324730D02*
D03*
X781050Y363690D02*
D03*
Y322191D02*
D03*
D52*
X1165230Y331470D02*
D03*
X1181730D02*
D03*
Y384810D02*
D03*
X1165230D02*
D03*
X1269370Y685800D02*
D03*
X1285870D02*
D03*
D53*
X1059200Y374520D02*
D03*
X1051200D02*
D03*
X1046200D02*
D03*
X1041200D02*
D03*
X1036200D02*
D03*
X1031200D02*
D03*
X1026200D02*
D03*
X1021200D02*
D03*
X1016200D02*
D03*
X1011200D02*
D03*
X1003200D02*
D03*
X995200D02*
D03*
X998200D02*
D03*
X1006200D02*
D03*
X1054200D02*
D03*
X1062200D02*
D03*
D54*
X988060Y546670D02*
D03*
X1000760D02*
D03*
X1013460D02*
D03*
X1026160D02*
D03*
X1038860D02*
D03*
X1051560D02*
D03*
X1064260D02*
D03*
X1076960D02*
D03*
Y484570D02*
D03*
X1064260D02*
D03*
X1051560D02*
D03*
X1038860D02*
D03*
X1026160D02*
D03*
X1013460D02*
D03*
X1000760D02*
D03*
X988060D02*
D03*
D55*
X650240Y926250D02*
D03*
X662940D02*
D03*
X675640D02*
D03*
X688340D02*
D03*
X650240Y978750D02*
D03*
X662940D02*
D03*
X675640D02*
D03*
X688340D02*
D03*
D56*
X787430Y783590D02*
D03*
X773430D02*
D03*
X787400Y732790D02*
D03*
X773400D02*
D03*
X788050Y684530D02*
D03*
X774050D02*
D03*
X787430Y636270D02*
D03*
X773430D02*
D03*
X743600Y838200D02*
D03*
X729600D02*
D03*
X742330Y882650D02*
D03*
X835010Y411480D02*
D03*
X849010D02*
D03*
X728330Y882650D02*
D03*
D57*
X925990Y361670D02*
D03*
X915990D02*
D03*
X945990D02*
D03*
X935990D02*
D03*
D58*
X647810Y422910D02*
D03*
Y359410D02*
D03*
X1626980Y477520D02*
D03*
X1539350D02*
D03*
X1452990D02*
D03*
X629810Y359410D02*
D03*
Y422910D02*
D03*
X1608980Y477520D02*
D03*
X1521350D02*
D03*
X1434990D02*
D03*
D59*
X358140Y449710D02*
D03*
X350140Y473710D02*
D03*
X342140Y449710D02*
D03*
Y473710D02*
D03*
X350140Y449710D02*
D03*
X366340D02*
D03*
X366140Y473710D02*
D03*
X358140D02*
D03*
D60*
X1150740Y501810D02*
D03*
D61*
X958990Y322920D02*
D03*
X902990D02*
D03*
D62*
X1167740Y501810D02*
D03*
Y521810D02*
D03*
X1148740D02*
D03*
D63*
X1282920Y345480D02*
D03*
X1264920D02*
D03*
X790050Y342940D02*
D03*
X772050D02*
D03*
D64*
X985500Y368870D02*
D03*
X1071900D02*
D03*
D65*
X985500Y327070D02*
D03*
X1071900D02*
D03*
D66*
X999800Y363870D02*
D03*
X1057600D02*
D03*
D67*
X1481990Y699770D02*
D03*
D68*
X1405990D02*
D03*
D69*
X850900Y1019810D02*
D03*
Y562610D02*
D03*
X1205230Y1019810D02*
D03*
Y918210D02*
D03*
Y867410D02*
D03*
X850900Y689610D02*
D03*
Y994410D02*
D03*
Y842010D02*
D03*
X1205230Y740410D02*
D03*
Y791210D02*
D03*
X850900Y943610D02*
D03*
Y613410D02*
D03*
Y791210D02*
D03*
Y765810D02*
D03*
Y740410D02*
D03*
X1205230Y613410D02*
D03*
Y842010D02*
D03*
X850900Y715010D02*
D03*
Y588010D02*
D03*
X1205230Y765810D02*
D03*
Y715010D02*
D03*
X850900Y664210D02*
D03*
Y638810D02*
D03*
Y816610D02*
D03*
X1205230Y562610D02*
D03*
Y816610D02*
D03*
Y943610D02*
D03*
Y969010D02*
D03*
Y994410D02*
D03*
Y892810D02*
D03*
Y689610D02*
D03*
Y664210D02*
D03*
Y638810D02*
D03*
Y588010D02*
D03*
X850900Y969010D02*
D03*
Y918210D02*
D03*
Y892810D02*
D03*
Y867410D02*
D03*
D70*
X701040Y1082040D02*
D03*
X633860D02*
D03*
X701040Y1149220D02*
D03*
X714950Y1115630D02*
D03*
X619950D02*
D03*
D71*
X633860Y1149220D02*
D03*
D72*
X436880Y650710D02*
D03*
Y700710D02*
D03*
D73*
Y600710D02*
D03*
D74*
X689610Y855980D02*
D03*
X664210D02*
D03*
D75*
X638810D02*
D03*
D76*
X814070Y612140D02*
D03*
X1318260Y701040D02*
D03*
X1239520D02*
D03*
X1106170Y552450D02*
D03*
X1075690Y572770D02*
D03*
X988060Y527050D02*
D03*
X1026160Y506730D02*
D03*
X986790Y419100D02*
D03*
X952500Y417830D02*
D03*
X806450Y492760D02*
D03*
X784860Y554990D02*
D03*
X702310Y492760D02*
D03*
X1316990Y737870D02*
D03*
X1250950Y981710D02*
D03*
X1314450Y947420D02*
D03*
X1085850Y834390D02*
D03*
X1319530Y657860D02*
D03*
X674370Y381000D02*
D03*
X601980Y398780D02*
D03*
X534670D02*
D03*
X824230Y298450D02*
D03*
X798830Y824230D02*
D03*
X755650D02*
D03*
X786130Y613410D02*
D03*
X692150D02*
D03*
X742950Y857250D02*
D03*
X664210Y896620D02*
D03*
X848360Y298450D02*
D03*
X713740Y902970D02*
D03*
X1258570Y313690D02*
D03*
X1304925Y579120D02*
D03*
X1381452D02*
D03*
X1470660D02*
D03*
X1643380D02*
D03*
X1525270D02*
D03*
X1089660Y678180D02*
D03*
X1173480Y542290D02*
D03*
X1131570Y521970D02*
D03*
X1303020Y425450D02*
D03*
X1254760Y384810D02*
D03*
X1238250Y408940D02*
D03*
X1205230D02*
D03*
X1202690Y331470D02*
D03*
X1181100Y435610D02*
D03*
X1068070Y434340D02*
D03*
X1062990Y406400D02*
D03*
X1164590Y410210D02*
D03*
X1064260Y464820D02*
D03*
X989330Y504190D02*
D03*
X1009650Y527050D02*
D03*
X1047750Y516890D02*
D03*
X975360Y568960D02*
D03*
X826770Y524510D02*
D03*
X1041400Y621030D02*
D03*
X1263650Y453390D02*
D03*
X1136650Y454660D02*
D03*
X1106170Y471170D02*
D03*
X1107440Y537210D02*
D03*
X1071880Y527050D02*
D03*
X1167130Y480060D02*
D03*
X1130300D02*
D03*
X1103630Y506730D02*
D03*
X1057910Y754380D02*
D03*
Y707390D02*
D03*
X990600Y457200D02*
D03*
X1362710Y891540D02*
D03*
X949960Y341630D02*
D03*
X928370Y340360D02*
D03*
X1085850Y381000D02*
D03*
X999490Y350520D02*
D03*
X1012190Y393700D02*
D03*
X969010Y464820D02*
D03*
X1041400Y407670D02*
D03*
X801370Y704850D02*
D03*
X938530Y430530D02*
D03*
X915670Y402590D02*
D03*
X975360Y722630D02*
D03*
X972820Y676910D02*
D03*
X882650Y516890D02*
D03*
X878840Y468630D02*
D03*
X848685Y350845D02*
D03*
X1162050Y734060D02*
D03*
X1163320Y762000D02*
D03*
X1092200Y707390D02*
D03*
X905837Y1011555D02*
D03*
X805176Y544830D02*
D03*
X755650Y657860D02*
D03*
X811530Y635000D02*
D03*
X957580Y515620D02*
D03*
X814070Y444500D02*
D03*
X806450Y309880D02*
D03*
X807720Y349250D02*
D03*
D77*
X458470D02*
D03*
X1531620Y353060D02*
D03*
X1036320Y986790D02*
D03*
M02*
